<svg width="37" height="40" viewBox="0 0 37 40" fill="none" xmlns="http://www.w3.org/2000/svg">
<path d="M0.534611 30.0506L1.61528 31.5372L1.62334 31.5319C5.16374 36.2147 10.7579 39.2578 17.0806 39.2578C27.7986 39.2578 36.4869 30.5695 36.4869 19.8515C36.4869 9.13356 27.7986 0.445217 17.0806 0.445217C12.0617 0.445217 7.51862 2.37268 4.08576 5.50715L4.0777 5.49908L2.73627 6.78405C2.14217 7.35396 2.12067 8.29753 2.69057 8.89162C3.26048 9.48572 4.20404 9.50722 4.79814 8.93732L6.13956 7.65235L6.13688 7.64697C9.03478 5.00982 12.8467 3.37538 17.0806 3.37538C26.1803 3.37538 33.5568 10.7519 33.5568 19.8515C33.5568 28.9512 26.1803 36.3276 17.0806 36.3276C11.5967 36.3276 6.7713 33.6179 3.77662 29.4969L3.77393 29.4996L2.91907 28.3221C2.44057 27.6635 1.52119 27.5183 0.862572 27.9968C0.203957 28.47 0.0587921 29.392 0.534611 30.0506Z" fill="#E62C2E"/>
</svg>
