<svg width="19" height="19" viewBox="0 0 19 19" fill="transparent" xmlns="http://www.w3.org/2000/svg">
<path d="M16.9697 11.0498V2.39258C16.9697 2.1013 16.7337 1.86523 16.4424 1.86523H13.7705V1.30273C13.7705 1.01146 13.5344 0.775391 13.2432 0.775391C12.9519 0.775391 12.7158 1.01146 12.7158 1.30273V1.86523H10.6064V1.30273C10.6064 1.01146 10.3704 0.775391 10.0791 0.775391C9.78783 0.775391 9.55176 1.01146 9.55176 1.30273V1.86523H7.44238V1.30273C7.44238 1.01146 7.20631 0.775391 6.91504 0.775391C6.62376 0.775391 6.3877 1.01146 6.3877 1.30273V1.86523H4.27832V1.30273C4.27832 1.01146 4.04225 0.775391 3.75098 0.775391C3.4597 0.775391 3.22363 1.01146 3.22363 1.30273V1.86523H0.551758C0.260483 1.86523 0.0244141 2.1013 0.0244141 2.39258V16.1387C0.0244141 16.4299 0.260483 16.666 0.551758 16.666H9.33395C10.1865 17.937 11.6363 18.7754 13.2783 18.7754C15.8953 18.7754 18.0244 16.6462 18.0244 14.0293C18.0244 12.9018 17.6289 11.865 16.9697 11.0498ZM3.22363 2.91992V3.44727C3.22363 3.73854 3.4597 3.97461 3.75098 3.97461C4.04225 3.97461 4.27832 3.73854 4.27832 3.44727V2.91992H6.3877V3.44727C6.3877 3.73854 6.62376 3.97461 6.91504 3.97461C7.20631 3.97461 7.44238 3.73854 7.44238 3.44727V2.91992H9.55176V3.44727C9.55176 3.73854 9.78783 3.97461 10.0791 3.97461C10.3704 3.97461 10.6064 3.73854 10.6064 3.44727V2.91992H12.7158V3.44727C12.7158 3.73854 12.9519 3.97461 13.2432 3.97461C13.5344 3.97461 13.7705 3.73854 13.7705 3.44727V2.91992H15.915V5.0293H1.0791V2.91992H3.22363ZM1.0791 15.6113V6.08398H15.915V10.0849C15.1604 9.57887 14.2532 9.2832 13.2783 9.2832C11.612 9.2832 10.1436 10.1466 9.2966 11.4493C9.22533 11.4133 9.14499 11.3926 9.05957 11.3926H8.00488C7.71361 11.3926 7.47754 11.6286 7.47754 11.9199C7.47754 12.2112 7.71361 12.4473 8.00488 12.4473H8.80373C8.68466 12.7832 8.60226 13.1364 8.56175 13.502H8.00488C7.71361 13.502 7.47754 13.738 7.47754 14.0293C7.47754 14.3206 7.71361 14.5566 8.00488 14.5566H8.56175C8.60226 14.9222 8.68452 15.2754 8.80373 15.6113H1.0791ZM13.2783 17.7207C11.2428 17.7207 9.58691 16.0648 9.58691 14.0293C9.58691 11.9938 11.2428 10.3379 13.2783 10.3379C15.3138 10.3379 16.9697 11.9938 16.9697 14.0293C16.9697 16.0648 15.3138 17.7207 13.2783 17.7207Z"/>
<path d="M15.3877 13.502H13.8057V11.9199C13.8057 11.6286 13.5696 11.3926 13.2783 11.3926C12.987 11.3926 12.751 11.6286 12.751 11.9199V14.0293C12.751 14.3206 12.987 14.5566 13.2783 14.5566H15.3877C15.679 14.5566 15.915 14.3206 15.915 14.0293C15.915 13.738 15.679 13.502 15.3877 13.502Z"/>
<path d="M4.80566 7.17383H3.75098C3.4597 7.17383 3.22363 7.4099 3.22363 7.70117C3.22363 7.99245 3.4597 8.22852 3.75098 8.22852H4.80566C5.09694 8.22852 5.33301 7.99245 5.33301 7.70117C5.33301 7.4099 5.09694 7.17383 4.80566 7.17383Z"/>
<path d="M4.80566 9.2832H3.75098C3.4597 9.2832 3.22363 9.51927 3.22363 9.81055C3.22363 10.1018 3.4597 10.3379 3.75098 10.3379H4.80566C5.09694 10.3379 5.33301 10.1018 5.33301 9.81055C5.33301 9.51927 5.09694 9.2832 4.80566 9.2832Z"/>
<path d="M4.80566 11.3926H3.75098C3.4597 11.3926 3.22363 11.6286 3.22363 11.9199C3.22363 12.2112 3.4597 12.4473 3.75098 12.4473H4.80566C5.09694 12.4473 5.33301 12.2112 5.33301 11.9199C5.33301 11.6286 5.09694 11.3926 4.80566 11.3926Z"/>
<path d="M8.00488 8.22852H9.05957C9.35085 8.22852 9.58691 7.99245 9.58691 7.70117C9.58691 7.4099 9.35085 7.17383 9.05957 7.17383H8.00488C7.71361 7.17383 7.47754 7.4099 7.47754 7.70117C7.47754 7.99245 7.71361 8.22852 8.00488 8.22852Z"/>
<path d="M8.00488 10.3379H9.05957C9.35085 10.3379 9.58691 10.1018 9.58691 9.81055C9.58691 9.51927 9.35085 9.2832 9.05957 9.2832H8.00488C7.71361 9.2832 7.47754 9.51927 7.47754 9.81055C7.47754 10.1018 7.71361 10.3379 8.00488 10.3379Z"/>
<path d="M4.80566 13.502H3.75098C3.4597 13.502 3.22363 13.738 3.22363 14.0293C3.22363 14.3206 3.4597 14.5566 3.75098 14.5566H4.80566C5.09694 14.5566 5.33301 14.3206 5.33301 14.0293C5.33301 13.738 5.09694 13.502 4.80566 13.502Z"/>
<path d="M12.2236 8.22852H13.2783C13.5696 8.22852 13.8057 7.99245 13.8057 7.70117C13.8057 7.4099 13.5696 7.17383 13.2783 7.17383H12.2236C11.9324 7.17383 11.6963 7.4099 11.6963 7.70117C11.6963 7.99245 11.9324 8.22852 12.2236 8.22852Z"/>
</svg>
