<svg width="162" height="112" viewBox="0 0 162 112" fill="none" xmlns="http://www.w3.org/2000/svg">
<path d="M136.436 97.1535H25.0762V22.5328C25.0762 21.2803 26.0869 20.2695 27.3394 20.2695H134.184C135.436 20.2695 136.447 21.2803 136.447 22.5328V97.1535H136.436Z" fill="#FBFDFF"/>
<path d="M136.733 97.4397H24.791V22.5333C24.791 21.127 25.9336 19.9844 27.3399 19.9844H134.184C135.591 19.9844 136.733 21.127 136.733 22.5333V97.4397ZM25.3623 96.8684H136.151V22.5333C136.151 21.4456 135.261 20.5557 134.173 20.5557H27.3399C26.2522 20.5557 25.3623 21.4456 25.3623 22.5333V96.8684Z" fill="#223365"/>
<path d="M87.9107 92.9004H73.6172V94.043H87.9107V92.9004Z" fill="#FBFDFF"/>
<path d="M88.1961 94.3304H73.3203V92.6055H88.1961V94.3304ZM73.9026 93.7591H87.6248V93.1878H73.9026V93.7591Z" fill="#223365"/>
<path d="M81.6246 23.4568C81.6246 23.9073 81.24 24.2808 80.7566 24.2808C80.2732 24.2808 79.8887 23.9073 79.8887 23.4568C79.8887 23.0064 80.2732 22.6328 80.7566 22.6328C81.24 22.6328 81.6246 22.9954 81.6246 23.4568Z" fill="#FBFDFF"/>
<path d="M80.7571 24.5669C80.1199 24.5669 79.6035 24.0725 79.6035 23.4573C79.6035 22.8421 80.1199 22.3477 80.7571 22.3477C81.3943 22.3477 81.9107 22.8421 81.9107 23.4573C81.9107 24.0725 81.3943 24.5669 80.7571 24.5669ZM80.7571 22.919C80.4385 22.919 80.1748 23.1607 80.1748 23.4573C80.1748 23.7539 80.4385 23.9956 80.7571 23.9956C81.0757 23.9956 81.3394 23.7539 81.3394 23.4573C81.3394 23.1607 81.0757 22.919 80.7571 22.919Z" fill="#223365"/>
<path d="M148.236 110.655H13.1236C11.6624 110.655 10.4648 109.864 10.4648 108.887V106.096C10.4648 105.821 10.8054 105.602 11.2119 105.602H150.258C150.675 105.602 151.005 105.821 151.005 106.096V108.81C151.005 109.82 149.764 110.655 148.236 110.655Z" fill="#223365"/>
<path d="M148.237 110.942H13.1241C11.4761 110.942 10.1797 110.041 10.1797 108.877V106.086C10.1797 105.646 10.6301 105.295 11.2124 105.295H150.258C150.841 105.295 151.291 105.636 151.291 106.086V108.8C151.302 109.997 149.951 110.942 148.237 110.942ZM11.2124 105.877C10.9268 105.877 10.751 106.009 10.751 106.086V108.877C10.751 109.679 11.8387 110.36 13.1131 110.36H148.237C149.588 110.36 150.72 109.646 150.72 108.8V106.086C150.72 106.009 150.544 105.877 150.258 105.877H11.2124Z" fill="#223365"/>
<path d="M32.472 91.3735H129.044C130.406 91.3735 131.516 90.2639 131.516 88.9015V28.8489C131.516 27.4866 130.406 26.377 129.044 26.377H32.472C31.1096 26.377 30 27.4866 30 28.8489V88.9015C30 90.2748 31.1096 91.3735 32.472 91.3735Z" fill="white"/>
<path d="M129.043 91.6494H32.4713C30.9551 91.6494 29.7246 90.4189 29.7246 88.9027V28.8502C29.7246 27.334 30.9551 26.1035 32.4713 26.1035H129.043C130.559 26.1035 131.79 27.334 131.79 28.8502V88.9027C131.79 90.4189 130.559 91.6494 129.043 91.6494ZM32.4713 26.6528C31.2627 26.6528 30.2739 27.6416 30.2739 28.8502V88.9027C30.2739 90.1113 31.2627 91.1001 32.4713 91.1001H129.043C130.252 91.1001 131.241 90.1113 131.241 88.9027V28.8502C131.241 27.6416 130.252 26.6528 129.043 26.6528H32.4713Z" fill="#223365"/>
<path d="M131.076 30.7291V29.0152C131.076 27.7627 129.977 26.752 128.626 26.752H32.7898C31.4385 26.752 30.3398 27.7627 30.3398 29.0152V30.7401L131.076 30.7291Z" fill="#70C8F2"/>
<path d="M122.561 28.8506C122.561 29.1692 122.308 29.4219 121.989 29.4219C121.671 29.4219 121.418 29.1692 121.418 28.8506C121.418 28.532 121.671 28.2793 121.989 28.2793C122.308 28.2793 122.561 28.532 122.561 28.8506Z" fill="white"/>
<path d="M124.274 29.4219C124.59 29.4219 124.846 29.1661 124.846 28.8506C124.846 28.5351 124.59 28.2793 124.274 28.2793C123.959 28.2793 123.703 28.5351 123.703 28.8506C123.703 29.1661 123.959 29.4219 124.274 29.4219Z" fill="white"/>
<path d="M126.56 29.4219C126.875 29.4219 127.131 29.1661 127.131 28.8506C127.131 28.5351 126.875 28.2793 126.56 28.2793C126.244 28.2793 125.988 28.5351 125.988 28.8506C125.988 29.1661 126.244 29.4219 126.56 29.4219Z" fill="white"/>
<path opacity="0.43" d="M122.045 37.8926H38.6348V82.9815H122.045V37.8926Z" fill="#223365"/>
<path d="M25.5067 96.9355L10.8945 105.527L150.259 105.461L136.801 96.9685L25.5067 96.9355Z" fill="#FBFDFF"/>
<path d="M10.9717 105.812H10.8948V105.526L10.752 105.285L25.43 96.6602H25.5069L136.889 96.6931L151.259 105.757L10.9717 105.812ZM25.5838 97.2205L11.9495 105.23L149.26 105.175L136.713 97.2644L25.5838 97.2205Z" fill="#223365"/>
<g opacity="0.26">
<path opacity="0.26" d="M43.9641 96.9336L34.252 102.647L126.902 102.603L117.959 96.9556L43.9641 96.9336Z" fill="#FBFDFF"/>
<path opacity="0.26" d="M33.1973 102.933L43.8982 96.6484L118.036 96.6704L127.891 102.889L33.1973 102.933ZM44.041 97.2197L35.3067 102.35L125.902 102.307L117.871 97.2417L44.041 97.2197Z" fill="#223365"/>
</g>
<path d="M131.098 31.0366H53.324C53.1592 31.0366 53.0273 30.9048 53.0273 30.74C53.0273 30.5752 53.1592 30.4434 53.324 30.4434H131.109C131.274 30.4434 131.406 30.5752 131.406 30.74C131.406 30.9048 131.263 31.0366 131.098 31.0366Z" fill="#243762"/>
<path d="M115.74 20.5014V10.6025C115.74 5.32895 119.629 1.0332 124.398 1.0332H131.396C136.175 1.0332 140.054 5.32895 140.054 10.6025V20.5014C140.054 25.775 136.164 30.0707 131.396 30.0707H124.398C119.618 30.0707 115.74 25.775 115.74 20.5014ZM124.398 5.5377C121.871 5.5377 119.816 7.81192 119.816 10.5915V20.4904C119.816 23.281 121.871 25.5442 124.398 25.5442H131.396C133.923 25.5442 135.977 23.27 135.977 20.4904V10.6025C135.977 7.81192 133.923 5.54868 131.396 5.54868H124.398V5.5377Z" fill="#223365"/>
<path d="M131.395 30.3446H124.397C119.475 30.3446 115.465 25.928 115.465 20.5007V10.6018C115.465 5.17441 119.475 0.757812 124.397 0.757812H131.395C136.317 0.757812 140.327 5.17441 140.327 10.6018V20.5007C140.327 25.928 136.317 30.3446 131.395 30.3446ZM124.397 1.30714C119.772 1.30714 116.014 5.47105 116.014 10.6018V20.5007C116.014 25.6204 119.772 29.7953 124.397 29.7953H131.395C136.021 29.7953 139.778 25.6314 139.778 20.5007V10.6018C139.778 5.48204 136.021 1.30714 131.395 1.30714H124.397ZM131.395 25.8292H124.397C121.716 25.8292 119.541 23.4341 119.541 20.5007V10.6018C119.541 7.65738 121.716 5.27329 124.397 5.27329H131.395C134.076 5.27329 136.251 7.66836 136.251 10.6018V20.5007C136.251 23.4451 134.076 25.8292 131.395 25.8292ZM124.397 5.81163C122.024 5.81163 120.09 7.95401 120.09 10.5908V20.4897C120.09 23.1265 122.024 25.2688 124.397 25.2688H131.395C133.768 25.2688 135.702 23.1265 135.702 20.4897V10.6018C135.702 7.965 133.768 5.82262 131.395 5.82262H124.397V5.81163Z" fill="white"/>
<path d="M141.47 46.2448H114.333C112.196 46.2448 110.463 44.5211 110.463 42.3858V21.2586C110.463 19.1225 112.197 17.3887 114.333 17.3887H141.47C143.606 17.3887 145.34 19.1225 145.34 21.2586V42.3748C145.34 44.511 143.606 46.2448 141.47 46.2448Z" fill="#0AC789" stroke="#1C3761" stroke-width="0.5"/>
<path d="M142.195 46.7696H132.263C132.109 46.7696 131.988 46.6487 131.988 46.4949C131.988 46.3411 132.109 46.2202 132.263 46.2202H142.195C143.909 46.2202 145.304 44.8249 145.304 43.111V23.4231C145.304 23.2693 145.425 23.1484 145.579 23.1484C145.732 23.1484 145.853 23.2693 145.853 23.4231V43.122C145.853 45.1326 144.216 46.7696 142.195 46.7696Z" fill="#223365"/>
<path opacity="0.25" d="M139.043 43.3906H116.751C114.753 43.3906 113.131 41.7687 113.131 39.7707V25.2684C113.131 23.2703 114.753 21.6484 116.751 21.6484H139.043C141.041 21.6484 142.663 23.2703 142.663 25.2684V39.7707C142.663 41.7687 141.041 43.3906 139.043 43.3906Z" fill="white" stroke="#1C3761"/>
<path d="M123.77 29.2677C123.77 26.9825 125.615 25.1367 127.9 25.1367C130.186 25.1367 132.031 26.9825 132.031 29.2677C132.031 31.1244 130.79 32.6845 129.098 33.2009V38.5403H126.703V33.2009C125.011 32.6955 123.77 31.1354 123.77 29.2677Z" fill="#223365"/>
<path d="M160.86 111.04H0.939952C0.68726 111.04 0.478516 110.831 0.478516 110.579C0.478516 110.326 0.68726 110.117 0.939952 110.117H160.86C161.113 110.117 161.322 110.326 161.322 110.579C161.322 110.831 161.113 111.04 160.86 111.04Z" fill="#243762"/>
<path d="M152.16 20.6442C152.16 24.3137 149.183 27.2911 145.513 27.2911C141.844 27.2911 138.855 24.3137 138.855 20.6442C138.855 16.9747 141.833 13.9863 145.513 13.9863C149.183 13.9973 152.16 16.9747 152.16 20.6442Z" fill="#E62C2E"/>
<path d="M139.207 26.95C139.098 26.8402 139.098 26.6534 139.207 26.5435C139.317 26.4337 139.504 26.4337 139.614 26.5435C142.91 29.8395 148.271 29.8395 151.567 26.5435C154.863 23.2476 154.863 17.8861 151.567 14.5902C148.271 11.2942 142.91 11.2942 139.614 14.5902C139.504 14.7 139.317 14.7 139.207 14.5902C139.098 14.4803 139.098 14.2935 139.207 14.1837C142.723 10.6679 148.458 10.6679 151.974 14.1837C155.489 17.6994 155.489 23.4343 151.974 26.95C148.447 30.4657 142.723 30.4657 139.207 26.95Z" fill="#223365"/>
<path d="M145.404 24.2702C145.152 24.2702 144.943 24.1933 144.778 24.0395C144.613 23.8856 144.525 23.6989 144.525 23.4791C144.525 23.2484 144.613 23.0616 144.778 22.9188C144.943 22.776 145.152 22.6991 145.404 22.6991C145.657 22.6991 145.866 22.776 146.031 22.9188C146.195 23.0616 146.272 23.2594 146.272 23.4791C146.272 23.7099 146.195 23.8966 146.031 24.0504C145.877 24.1933 145.668 24.2702 145.404 24.2702ZM146.162 17.9639L146.031 21.4137C146.02 21.7542 145.734 22.0289 145.393 22.0289C145.053 22.0289 144.767 21.7542 144.756 21.4137L144.624 17.9639C144.613 17.6013 144.899 17.3047 145.261 17.3047H145.525C145.888 17.3047 146.184 17.6013 146.162 17.9639Z" fill="white"/>
</svg>
