<svg width="124" height="116" viewBox="0 0 124 116" fill="none" xmlns="http://www.w3.org/2000/svg">
<path d="M37.9164 38.4976V36.4125H86.0902V38.4976H37.9164Z" fill="#0AC789" stroke="#223365" stroke-width="0.2"/>
<path d="M37.9164 44.4917V42.4066H79.0378V44.4917H37.9164Z" fill="#0AC789" stroke="#223365" stroke-width="0.2"/>
<path d="M37.9164 50.3023V48.2172H65.977V50.3023H37.9164Z" fill="#0AC789" stroke="#223365" stroke-width="0.2"/>
<path d="M37.9164 55.9253V53.8402H65.977V55.9253H37.9164Z" fill="#0AC789" stroke="#223365" stroke-width="0.2"/>
<path d="M91.322 68.6167L91.5672 68.4714V68.1865V46.0754L92.2828 45.0948V68.7411L76.6584 77.9985L76.11 77.6287L91.322 68.6167ZM45.2574 78.6882L45.3073 78.7281L44.6398 79.1284L31.7168 68.7858V28.6719H92.2828V38.1713L91.5672 39.1518V29.6101V29.1101H91.0672H32.9324H32.4324V29.6101V68.1865V68.4268L32.6201 68.5769L45.2574 78.6882Z" fill="#70C8F2" stroke="#223365"/>
<path d="M7.04813 108.537L6.74468 108.142C5.59909 106.654 4.97801 104.829 4.97826 102.951V55.5374V55.537H5.47826C5.47648 54.633 5.63055 53.7356 5.93368 52.884L7.04813 108.537ZM7.04813 108.537L7.44387 108.235L31.747 89.7222L31.7471 89.7221L43.9275 80.4476L44.4512 80.0489L43.9266 79.6513L30.3726 69.3792L30.3699 69.3771L6.23297 51.3413L5.43368 50.744V51.7418V52.799L7.04813 108.537ZM120.536 46.1232L120.57 46.1844L120.62 46.2338C122.062 47.668 122.877 49.6149 122.887 51.6486C122.887 51.6491 122.887 51.6497 122.887 51.6502L122.887 106.861C122.887 107.982 122.666 109.092 122.237 110.127C121.808 111.162 121.179 112.103 120.387 112.895C119.594 113.687 118.653 114.315 117.618 114.743C116.582 115.171 115.472 115.391 114.352 115.39H114.351H9.64204C7.38007 115.39 5.21075 114.492 3.6113 112.892C2.01184 111.293 1.11328 109.123 1.11328 106.861V51.6406C1.11328 49.954 1.44724 48.6789 2.16386 47.5343C2.88918 46.3759 4.02961 45.3132 5.71364 44.094L5.72113 44.0885L5.72841 44.0828L30.1526 24.9859L30.1545 24.9844L60.7316 1.31615C60.7325 1.31544 60.7335 1.31473 60.7344 1.31402C61.0227 1.09876 61.3729 0.982422 61.7328 0.982422C62.0926 0.982422 62.4429 1.09877 62.7312 1.31406C62.7321 1.31476 62.733 1.31545 62.734 1.31615L93.3057 24.9642L93.3058 24.9643L118.52 44.4819L118.534 44.4928L118.549 44.5027C119.078 44.8551 119.58 45.2459 120.052 45.672L120.066 45.6844L120.08 45.6956L120.431 45.9682C120.47 46.0166 120.506 46.0685 120.536 46.1232ZM93.7208 89.7437L93.7211 89.744L118.537 102.951H119.037V102.95L119.037 55.5586L119.037 55.5562C119.034 54.9256 118.963 54.2971 118.827 53.6815V51.4888V50.4915L118.028 51.0882L93.5223 69.3843L93.5222 69.3844L80.6621 78.9914L80.1312 79.388L80.6583 79.7897L93.7208 89.7437ZM60.1316 6.42931L60.1316 6.42926L60.1257 6.4338L29.5551 30.0792L29.5551 30.0792L7.54341 47.103L7.0235 47.5051L7.54976 47.8989L29.7711 64.5251L29.7714 64.5253L47.1855 77.5371L47.4877 77.7629L47.7877 77.5344L61.7593 66.8949C61.7594 66.8948 61.7596 66.8947 61.7598 66.8945C62.0405 66.6829 62.3824 66.5684 62.734 66.5684C63.0854 66.5684 63.4273 66.6828 63.7079 66.8943C63.7081 66.8945 63.7084 66.8947 63.7086 66.8949L76.8924 76.9273L77.1925 77.1556L77.4945 76.9299L94.1207 64.5036L116.125 48.0581L116.652 47.6643L116.132 47.262L93.9177 30.0864L93.9176 30.0864L63.3399 6.43382L63.3399 6.43377L63.334 6.42931C62.872 6.08285 62.3102 5.89558 61.7328 5.89558C61.1554 5.89558 60.5935 6.08285 60.1316 6.42931ZM13.5374 111.518H13.5384L110.447 111.504C110.448 111.504 110.448 111.504 110.448 111.504C111.737 111.504 113.009 111.21 114.166 110.643L114.894 110.287L114.249 109.796L94.3269 94.6157L94.3266 94.6155L64.3054 71.7653L64.3055 71.7652L64.2968 71.7589C63.8406 71.427 63.2909 71.2482 62.7267 71.2482C62.1625 71.2482 61.6129 71.427 61.1567 71.7589L61.1566 71.7588L61.1478 71.7655L31.1267 94.6373L31.1266 94.6374L10.6909 110.201L9.94115 110.772L10.8343 111.073C11.7055 111.366 12.6183 111.516 13.5374 111.518Z" fill="#70C8F2" stroke="#1C3761"/>
<path d="M99.3315 34.5449C96.9369 34.5449 94.681 35.6911 93.2647 37.6258L88.9062 43.5977L78.9409 57.2425C78.7146 57.5564 78.2473 57.5564 78.021 57.2425L74.8891 52.9497C73.4727 51.0151 71.2242 49.8689 68.8223 49.8689L77.5903 61.8857C78.0283 62.4843 78.919 62.4843 79.357 61.8857L88.8916 48.8176L99.3315 34.5449Z" fill="#0AC789"/>
</svg>
