<svg width="175" height="121" viewBox="0 0 175 121" fill="none" xmlns="http://www.w3.org/2000/svg">
<path d="M135.855 2.12001L58.6134 33.8569C55.2684 35.2346 52.5372 37.7787 50.927 41.0167C49.3168 44.2547 48.9369 47.9666 49.858 51.4634C41.5865 55.9972 35.7344 62.8131 33.5266 69.8708C37.1861 62.5259 44.762 55.6345 54.6969 51.5087L55.4228 51.2518L54.7121 49.4836C54.5026 48.9055 54.3506 48.3082 54.2584 47.7003L66.5372 51.0855C55.823 56.938 45.8174 64.0017 36.7173 72.1377C17.6792 88.928 4.46285 107.215 1 120C8.90862 107.683 22.1703 92.9481 38.9251 78.9082C50.2709 69.2435 62.5671 60.7521 75.6253 53.564L88.7357 57.1609C80.0372 60.8357 71.7627 65.4417 64.0572 70.8984C47.3629 82.5655 35.1295 96.2729 30.3662 107.351C38.7739 96.8623 52.6706 84.9534 69.6825 74.3895C78.2184 69.0707 87.1573 64.4269 96.4175 60.5008L75.0507 97.6784C74.4327 96.9107 73.9239 96.0614 73.5385 95.1545L69.8035 86.0868L67.9737 83.9106C64.3731 84.9831 60.9307 86.528 57.7364 88.5049C50.711 92.6775 45.1773 98.9534 41.9192 106.444C46.5375 100.578 52.1714 95.5869 58.553 91.7088C60.6549 90.4091 62.7416 89.2605 64.8435 88.2329L68.004 95.8951C68.75 97.7075 69.8461 99.3553 71.2296 100.744C72.6131 102.133 74.257 103.236 76.0671 103.99C77.8773 104.743 79.8184 105.133 81.7794 105.137C83.7403 105.14 85.6828 104.758 87.4958 104.011L164.752 72.2737C166.566 71.5266 168.215 70.4296 169.605 69.0455C170.995 67.6614 172.099 66.0172 172.853 64.2068C173.607 62.3965 173.997 60.4554 174 58.4945C174.003 56.5335 173.62 54.5911 172.873 52.7782L155.362 10.2507C153.852 6.58905 150.949 3.67612 147.291 2.15164C143.634 0.627156 139.521 0.615781 135.855 2.12001V2.12001ZM149.842 10.9912L168.427 56.103C168.587 56.5267 168.719 56.961 168.82 57.4027L128.112 46.2041L149.132 9.66131C149.404 10.0846 149.642 10.5294 149.842 10.9912V10.9912ZM60.428 36.8342L136.641 5.49017C138.106 4.89399 139.692 4.6517 141.268 4.783C142.845 4.9143 144.368 5.41548 145.714 6.24581L116.983 56.1181C116.4 57.1263 115.499 57.9133 114.421 58.3561C113.343 58.799 112.149 58.873 111.025 58.5664L54.7121 43.0455C55.1582 41.6584 55.9004 40.3846 56.8872 39.3122C57.8741 38.2398 59.0822 37.3943 60.428 36.8342V36.8342ZM162.922 69.3116L86.7094 100.701C85.442 101.222 84.0812 101.479 82.7108 101.456C81.3404 101.432 79.9893 101.129 78.7403 100.565L101.589 60.6973L113.339 63.9314C114.463 64.2433 115.659 64.172 116.738 63.7286C117.817 63.2852 118.717 62.4951 119.297 61.4832L125.784 50.3148L168.971 62.1935C168.611 63.779 167.873 65.2542 166.82 66.4936C165.767 67.7329 164.43 68.6996 162.922 69.3116V69.3116Z" fill="#70C8F2" stroke="#1C3761" stroke-width="0.5"/>
</svg>
