<svg width="23" height="23" viewBox="0 0 23 23" fill="none" xmlns="http://www.w3.org/2000/svg">
<path d="M11.9492 21.7402C17.4721 21.7402 21.9492 17.2631 21.9492 11.7402C21.9492 6.21739 17.4721 1.74023 11.9492 1.74023C6.42637 1.74023 1.94922 6.21739 1.94922 11.7402C1.94922 17.2631 6.42637 21.7402 11.9492 21.7402Z" stroke="#0AC789" stroke-width="2" stroke-linecap="round" stroke-linejoin="round"/>
<path d="M9.03906 8.7408C9.27417 8.07247 9.73821 7.50891 10.349 7.14994C10.9598 6.79096 11.678 6.65974 12.3762 6.77952C13.0745 6.89929 13.7079 7.26233 14.1641 7.80433C14.6204 8.34634 14.8701 9.03233 14.8691 9.7408C14.8691 11.7408 11.8691 12.7408 11.8691 12.7408" stroke="#0AC789" stroke-width="2" stroke-linecap="round" stroke-linejoin="round"/>
<path d="M11.9492 16.7402H11.9592" stroke="#0AC789" stroke-width="2" stroke-linecap="round" stroke-linejoin="round"/>
</svg>
