<svg width="95" height="72" viewBox="0 0 95 72" fill="none" xmlns="http://www.w3.org/2000/svg">
<path d="M41.6133 6.08611C43.5557 6.08611 45.4354 6.08611 47.3674 6.08611C47.3778 6.25319 47.3883 6.40984 47.3987 6.57693C47.3987 7.95541 47.4091 9.33389 47.3883 10.7124C47.3883 11.0361 47.4614 11.1823 47.806 11.2554C48.5161 11.3912 49.2053 11.5791 49.9572 11.7671C49.9572 9.89781 49.9572 8.01806 49.9572 6.10699C51.9101 6.10699 53.8003 6.10699 55.7218 6.10699C55.7218 10.7333 55.7218 15.3491 55.7218 20.0067C55.1892 20.0067 54.6566 20.0067 54.0718 20.0067C55.1161 18.1165 55.1579 16.2367 53.9465 14.4301C53.0588 13.1038 51.7326 12.3624 50.3436 11.8924C50.9807 12.3624 51.743 12.8219 52.3905 13.4067C54.8968 15.6728 54.6566 20.4557 50.3854 21.8133C49.1218 22.2206 47.8164 22.2937 46.511 22.231C46.4171 22.231 46.3231 22.1684 46.2186 22.0744C48.2133 22.1161 49.9781 21.5836 51.4088 20.1842C51.3984 20.1424 51.3879 20.1006 51.3879 20.0589C50.9389 20.0589 50.5003 20.0589 49.9886 20.0589C49.9886 19.8605 49.9886 19.7038 49.9886 19.5576C49.9886 17.5839 49.9781 15.5997 49.999 13.626C49.999 13.344 49.9259 13.1874 49.6753 13.0516C48.9756 12.6965 48.2655 12.3937 47.4196 12.2788C47.4196 14.8687 47.4196 17.4272 47.4196 20.0067C45.4772 20.0067 43.587 20.0067 41.6342 20.0067C41.6342 19.8709 41.6342 19.7351 41.6342 19.6098C41.6342 17.6048 41.6446 15.5997 41.6237 13.5946C41.6237 13.3127 41.7073 13.156 41.937 13.0098C43.1797 12.2475 44.5478 11.9029 45.9785 11.788C46.5633 11.7462 47.1585 11.7776 47.7433 11.7358C46.6155 11.3703 45.4563 11.1823 44.2762 11.2554C42.6785 11.3494 41.1642 11.7149 39.8066 12.6234C36.3291 14.9418 35.8174 19.8709 38.7414 22.868C40.4228 24.6016 42.5114 25.5832 44.8506 25.907C49.9468 26.6275 54.8341 25.8965 59.3037 23.2127C61.8205 21.6984 63.742 19.6203 64.755 16.8111C66.0917 13.1143 64.9952 7.76743 60.3898 5.08358C58.4474 3.94529 56.3484 3.28738 54.1553 2.8801C52.1189 2.50415 50.0617 2.33706 48.0044 2.37883C43.1797 2.49371 38.637 3.61111 34.606 6.36807C32.6009 7.74655 30.9823 9.49053 30.0842 11.788C28.7579 15.1924 29.5725 18.2522 31.7237 21.051C32.1206 21.5627 32.6114 22.0013 33.0709 22.4712C33.1649 22.5652 33.2797 22.6279 33.3946 22.701C33.3528 22.7427 33.3215 22.7845 33.2797 22.8367C33.1962 22.7949 33.0918 22.7636 33.0187 22.701C31.024 20.9883 29.4889 18.9519 28.8414 16.362C28.0896 13.3231 28.7057 10.4931 30.4079 7.90319C32.5801 4.61364 35.6921 2.54592 39.368 1.29276C45.0072 -0.618315 50.5838 -0.200594 56.0873 1.9089C58.98 3.01586 61.6325 4.54054 63.8673 6.72313C65.6949 8.49844 67.0838 10.5453 67.5537 13.1143C68.1594 16.3934 67.1987 19.2025 64.9221 21.594C62.6664 23.9646 59.8155 25.2908 56.7139 26.1576C53.7689 26.9721 50.7614 27.275 47.7224 27.087C44.2031 26.8677 40.8614 25.9592 37.8955 23.9646C36.893 23.2962 36.0158 22.4817 35.3266 21.4896C33.3946 18.7013 33.9063 15.4326 36.6111 13.3753C37.9582 12.3519 39.4829 11.7149 41.1224 11.3598C41.5088 11.2763 41.6446 11.1405 41.6342 10.7228C41.6028 9.34433 41.6237 7.96585 41.6237 6.58737C41.6133 6.44117 41.6133 6.28452 41.6133 6.08611Z" fill="#A2A3A5"/>
<path d="M8.4673 57.1421C5.9192 57.1421 3.43376 57.1421 0.916992 57.1421C0.916992 56.7766 0.916992 56.432 0.916992 56.0351C1.38693 55.962 1.87775 55.8889 2.38946 55.8054C2.38946 49.0696 2.38946 42.3548 2.38946 35.5772C1.90908 35.5041 1.4287 35.431 0.916992 35.3475C0.916992 34.9924 0.916992 34.6478 0.916992 34.2614C3.41287 34.2614 5.89831 34.2614 8.43597 34.2614C8.43597 34.6165 8.43597 34.9715 8.43597 35.3475C8.02869 35.4102 7.6423 35.4728 7.24546 35.5146C7.01572 35.5355 6.93217 35.6399 6.93217 35.8696C6.93217 38.5431 6.94262 41.2165 6.93217 43.8899C6.93217 44.151 7.0366 44.2345 7.28724 44.2345C10.3888 44.2345 13.4904 44.2345 16.592 44.2345C16.853 44.2345 16.9366 44.1301 16.9366 43.8794C16.9261 41.2165 16.9261 38.5639 16.9366 35.901C16.9366 35.6608 16.8635 35.5459 16.6129 35.5146C16.1742 35.4728 15.7461 35.3997 15.2761 35.3371C15.2761 34.982 15.2761 34.6269 15.2761 34.251C17.8242 34.251 20.3723 34.251 22.9518 34.251C22.9518 34.606 22.9518 34.9507 22.9518 35.3371C22.4714 35.4102 21.9806 35.4833 21.4689 35.5564C21.4689 42.2817 21.4689 49.007 21.4689 55.7845C21.8553 55.8471 22.2521 55.9202 22.6489 55.9516C22.91 55.9725 23.004 56.0665 22.9831 56.3171C22.9622 56.5677 22.9831 56.8183 22.9831 57.1108C20.4037 57.1108 17.866 57.1108 15.2553 57.1108C15.2553 56.8079 15.2344 56.5051 15.2657 56.2022C15.2761 56.1187 15.4328 56.0038 15.5372 55.9829C15.9863 55.9098 16.4353 55.8576 16.9366 55.7949C16.9366 55.607 16.9366 55.4608 16.9366 55.3041C16.9366 52.5576 16.9261 49.8215 16.947 47.075C16.947 46.6677 16.8426 46.5424 16.4249 46.5424C13.4382 46.5633 10.4515 46.5633 7.46477 46.5424C7.04705 46.5424 6.94262 46.6677 6.94262 47.075C6.9635 49.832 6.9635 52.5889 6.94262 55.3459C6.94262 55.7323 7.08882 55.8471 7.423 55.868C7.59008 55.8785 7.76762 55.9307 7.9347 55.9307C8.43597 55.9098 8.56129 56.1604 8.49863 56.6095C8.44641 56.7766 8.4673 56.9332 8.4673 57.1421Z" fill="#A2A3A5"/>
<path d="M87.803 57.1627C87.803 56.7972 87.803 56.5152 87.803 56.1811C88.0745 56.1393 88.3565 56.0975 88.628 56.0557C89.2337 55.9618 89.2337 55.9513 89.2337 55.3456C89.2337 52.8915 89.2441 50.427 89.2232 47.9728C89.2128 47.0643 89.2023 46.1558 89.077 45.2577C88.7742 43.1168 87.0302 42.5842 85.5055 43.0333C84.691 43.2735 83.9286 43.7225 83.1558 44.1089C83.0201 44.1716 82.9052 44.4222 82.9052 44.5893C82.8948 48.2548 82.8948 51.9203 82.8948 55.5963C82.8948 55.8782 82.9783 56.0035 83.2707 56.0244C83.6258 56.0453 83.9704 56.1289 84.3359 56.1915C84.3359 56.5048 84.3359 56.8076 84.3359 57.1418C81.9862 57.1418 79.6261 57.1418 77.2451 57.1418C77.2451 56.839 77.2451 56.5361 77.2451 56.202C77.6315 56.1393 78.0179 56.0975 78.4043 56.0035C78.5191 55.9722 78.6236 55.8156 78.6862 55.6902C78.728 55.5963 78.6967 55.4709 78.6967 55.3561C78.6967 51.1789 78.6967 47.0016 78.6967 42.814C78.6967 42.271 78.8115 42.177 78.1223 42.1456C78.1119 42.1456 78.091 42.1456 78.0805 42.1352C77.0989 41.989 77.0989 41.9786 77.266 40.9238C79.1144 40.9238 80.9732 40.9238 82.8843 40.9238C82.8843 41.6339 82.8843 42.3336 82.8843 43.1482C83.1872 42.9289 83.396 42.7827 83.6049 42.626C84.6805 41.8115 85.7979 41.1118 87.1242 40.7776C88.1894 40.5165 89.265 40.4852 90.3302 40.7463C92.022 41.164 92.8887 42.3545 93.2125 43.9732C93.3378 44.6102 93.4004 45.2681 93.4004 45.9156C93.4213 49.0903 93.4213 52.2545 93.4004 55.4292C93.4004 55.826 93.484 56.0453 93.9121 56.0453C94.121 56.0453 94.3299 56.1184 94.5492 56.1288C94.8207 56.1497 94.8938 56.2855 94.9042 56.5466C94.9147 57.1732 94.9251 57.1836 94.2777 57.1836C92.3039 57.1836 90.3197 57.1836 88.346 57.1836C88.1789 57.1627 88.0118 57.1627 87.803 57.1627Z" fill="#A2A3A5"/>
<path d="M66.5831 40.4639C67.7945 40.4221 68.9955 40.5683 70.1338 40.9965C72.0866 41.717 73.5069 43.0224 74.2901 44.9544C75.23 47.2727 75.3657 49.6642 74.6556 52.0452C73.7157 55.1572 71.4809 56.9012 68.3271 57.486C66.4892 57.8306 64.6407 57.7366 62.8445 57.2354C60.5158 56.5879 58.9597 55.0945 58.3018 52.7657C57.623 50.3325 57.5604 47.8784 58.5002 45.4974C59.6385 42.6047 61.8733 41.0696 64.8809 40.5683C65.0898 40.537 65.2987 40.4952 65.518 40.4848C65.873 40.4534 66.2281 40.4639 66.5831 40.4639ZM62.4059 49.0376C62.4895 50.0401 62.5417 51.0531 62.6775 52.0452C62.8341 53.1626 63.1474 54.2382 63.8366 55.1572C65.1316 56.8803 67.8363 56.9116 69.0895 55.1572C69.5176 54.5515 69.8414 53.8101 70.0189 53.079C70.6037 50.6771 70.5828 48.2439 70.1755 45.8107C69.998 44.7664 69.6743 43.7743 69.0268 42.9075C67.7737 41.268 65.3509 41.1322 64.0246 42.7091C63.5756 43.2626 63.2623 43.9518 63.0221 44.6202C62.5208 46.0404 62.4686 47.5442 62.4059 49.0376Z" fill="#A2A3A5"/>
<path d="M43.4307 56.1712C43.4307 56.5054 43.4307 56.7978 43.4307 57.132C41.0705 57.132 38.7104 57.132 36.3399 57.132C36.3399 56.8187 36.3399 56.5263 36.3399 56.1817C36.7158 56.119 37.1126 56.0772 37.4886 55.9833C37.593 55.9624 37.6975 55.8057 37.7497 55.6909C37.7914 55.6073 37.7601 55.4924 37.7601 55.3984C37.7601 48.7045 37.7601 42.0105 37.7706 35.3165C37.7706 34.8884 37.6661 34.669 37.2171 34.7004C37.2066 34.7004 37.1857 34.7004 37.1753 34.6899C36.2772 34.5437 36.2772 34.5437 36.3399 33.5621C36.4861 33.5516 36.6323 33.5412 36.7785 33.5412C38.324 33.5412 39.88 33.5621 41.4256 33.5308C41.8851 33.5203 41.9686 33.677 41.9582 34.0842C41.9478 41.0811 41.9478 48.0674 41.9478 55.0643C41.9478 55.1374 41.9478 55.2105 41.9478 55.2731C41.9478 55.9624 41.9478 55.9624 42.6161 56.0459C42.8876 56.0877 43.1383 56.1295 43.4307 56.1712Z" fill="#A2A3A5"/>
<path d="M57.1525 55.3248C57.1525 55.6068 57.1734 55.8887 57.1421 56.1707C57.1316 56.2647 57.0063 56.39 56.9123 56.4213C55.0326 57.0479 53.1215 57.5179 51.106 57.3299C48.9756 57.1315 47.9522 56.0558 47.9313 53.8732C47.9 50.3017 47.9105 46.7407 47.9105 43.1691C47.9105 42.929 47.9105 42.6888 47.9105 42.3964C46.9184 42.3964 45.9576 42.3964 44.9551 42.3964C44.9551 41.8742 44.9551 41.4043 44.9551 40.8717C45.801 40.8717 46.6364 40.8508 47.4719 40.8821C47.9105 40.903 48.0358 40.7672 48.0149 40.3391C47.9836 39.4723 47.994 38.6055 48.0149 37.7388C48.0149 37.6135 48.1402 37.415 48.2551 37.3837C49.456 36.9973 50.6674 36.6423 51.8788 36.2767C51.931 36.2559 51.9937 36.2663 52.0877 36.2559C52.0877 36.9347 52.0877 37.603 52.0877 38.2609C52.0877 38.9815 52.0981 39.7125 52.0772 40.4331C52.0668 40.7568 52.1608 40.8821 52.5054 40.8717C53.6123 40.8508 54.7193 40.8612 55.8785 40.8612C55.8785 41.3521 55.8785 41.822 55.8785 42.3441C54.6462 42.3441 53.393 42.3441 52.1086 42.3441C52.0981 42.553 52.0877 42.7201 52.0877 42.8872C52.0877 45.9157 52.0772 48.9441 52.0981 51.9726C52.0981 52.547 52.1503 53.1422 52.2548 53.7062C52.4323 54.7191 53.0484 55.3039 54.0823 55.3457C55.0326 55.3875 55.9829 55.3039 56.9228 55.283C56.9854 55.3144 57.0377 55.3248 57.1525 55.3248Z" fill="#A2A3A5"/>
<path d="M26.0957 41.8635C26.0957 41.5189 26.0957 41.2369 26.0957 40.9027C26.2523 40.8923 26.409 40.8818 26.5552 40.8818C28.0903 40.8818 29.6254 40.8818 31.1606 40.8818C31.7245 40.8818 31.7245 40.8818 31.7245 41.4353C31.7245 46.0511 31.7245 50.6774 31.7245 55.2932C31.7245 55.5021 31.7245 55.7109 31.7245 55.9302C32.1735 56.0033 32.5704 56.0451 32.9463 56.1391C33.364 56.2435 33.1343 56.609 33.1552 56.8597C33.1656 56.9536 32.9672 57.1416 32.8628 57.1416C30.6697 57.1521 28.4767 57.1521 26.2941 57.1521C26.2419 57.1521 26.1897 57.1312 26.1166 57.1207C26.1166 56.8179 26.1166 56.5255 26.1166 56.1809C26.5552 56.1078 27.0147 56.0347 27.516 55.9511C27.5264 55.8049 27.5368 55.6587 27.5368 55.5021C27.5368 51.1787 27.5368 46.8552 27.5473 42.5318C27.5473 42.2081 27.5055 42.0306 27.1191 42.0201C26.7745 42.0201 26.4508 41.9261 26.0957 41.8635Z" fill="#A2A3A5"/>
<path d="M27.3379 35.8064C27.3379 34.2921 28.3613 33.2061 29.7816 33.2061C31.1809 33.2061 32.2357 34.2921 32.2252 35.7228C32.2148 37.2371 31.1914 38.3545 29.8024 38.3754C28.3613 38.3858 27.3379 37.3311 27.3379 35.8064Z" fill="#A2A3A5"/>
<path d="M15.8194 65.6116C17.4485 65.622 18.6077 66.8856 18.6077 68.6401C18.6077 70.4154 17.3858 71.7208 15.7463 71.6999C14.1067 71.679 12.9058 70.3736 12.9371 68.6401C12.958 66.8334 14.1381 65.5907 15.8194 65.6116ZM17.6574 68.661C17.4798 68.1701 17.3859 67.6375 17.1248 67.2094C16.4669 66.1442 14.984 66.1964 14.3365 67.2616C13.8352 68.0761 13.877 69.3502 14.42 70.123C15.1302 71.1359 16.5713 71.0942 17.1874 70.0185C17.4172 69.6321 17.4903 69.1622 17.6574 68.661Z" fill="#A2A3A5"/>
<path d="M73.3287 68.9209C73.2974 69.7668 72.9319 70.738 71.898 71.3228C70.9581 71.8554 69.9869 71.8345 69.0575 71.2915C68.1176 70.738 67.7417 69.8399 67.6895 68.7852C67.6059 67.344 68.4205 66.07 69.6841 65.7045C71.616 65.1406 73.3287 66.5086 73.3287 68.9209ZM70.4778 70.832C71.1043 70.8424 71.5952 70.5605 71.898 70.007C72.3784 69.1298 72.3888 68.2108 71.9085 67.3232C71.5952 66.7383 71.0835 66.4251 70.4151 66.4459C69.7259 66.4668 69.2246 66.8114 68.9322 67.4276C68.5354 68.2944 68.5458 69.1611 69.0262 69.9966C69.3395 70.5396 69.8198 70.8424 70.4778 70.832Z" fill="#A2A3A5"/>
<path d="M46.3647 70.7906C45.571 71.5529 44.7878 71.814 43.8688 71.6574C43.2213 71.5529 42.6888 71.2919 42.5008 70.6235C42.3024 69.9343 42.4486 69.2972 43.0229 68.8064C43.2213 68.6289 43.4511 68.4931 43.6704 68.3365C43.5242 68.0441 43.3362 67.7726 43.2422 67.4697C42.9812 66.6134 43.4407 65.851 44.297 65.6422C44.8922 65.496 45.7486 65.6317 46.3438 65.9764C46.302 66.227 46.2603 66.4881 46.2185 66.7596C45.8217 66.6343 45.477 66.509 45.1115 66.415C44.7774 66.3314 44.4432 66.3836 44.2448 66.6969C44.0463 67.0102 44.1299 67.3444 44.3596 67.6055C44.9444 68.2425 45.5397 68.8691 46.2289 69.5896C46.3751 69.0571 46.5005 68.6184 46.6258 68.159C46.8764 68.2216 47.1166 68.2738 47.4299 68.3469C47.2732 68.8377 47.1688 69.3181 46.9704 69.7463C46.8137 70.0805 46.866 70.2893 47.1375 70.5086C47.4508 70.7593 47.7432 71.0308 48.0356 71.2919C48.0147 71.3441 47.9938 71.3963 47.9729 71.4485C47.6492 71.5007 47.2837 71.6783 47.033 71.5634C46.7511 71.459 46.584 71.0726 46.3647 70.7906ZM45.7068 70.3207C45.2577 69.8821 44.8087 69.4226 44.3492 68.984C44.297 68.9317 44.1925 68.9109 44.1299 68.9213C43.8062 68.9944 43.3884 69.5896 43.3884 69.9865C43.3884 70.3833 43.66 70.7488 44.0568 70.8846C44.6312 71.0726 45.2891 70.8533 45.7068 70.3207Z" fill="#A2A3A5"/>
<path d="M54.7303 69.2039C55.2838 69.9453 55.8059 70.6554 56.3594 71.3969C56.0252 71.4804 55.7537 71.564 55.4822 71.5953C55.3778 71.6058 55.2316 71.5013 55.1585 71.4073C54.699 70.7912 54.2604 70.1646 53.7904 69.5589C53.6755 69.4127 53.4562 69.3292 53.2683 69.277C53.0176 69.2143 52.9236 69.371 52.9341 69.6216C52.9445 70.2482 52.9341 70.8643 52.9341 71.5222C52.5999 71.5222 52.2971 71.5222 51.9629 71.5222C51.9629 69.6007 51.9629 67.6896 51.9629 65.695C52.955 65.7577 53.9575 65.5279 54.9287 65.9248C55.5448 66.1754 55.8895 66.6558 55.9312 67.3346C55.973 68.0447 55.7537 68.6191 55.1062 68.9846C55.0018 69.0577 54.8974 69.1203 54.7303 69.2039ZM52.9341 66.614C52.9341 67.1779 52.9236 67.721 52.9445 68.2536C52.9445 68.3371 53.0803 68.4937 53.1429 68.4937C53.5189 68.4937 53.9157 68.4937 54.2812 68.4102C54.7407 68.3058 54.96 67.9089 54.9287 67.439C54.8974 67.0108 54.6154 66.6767 54.1455 66.614C53.7695 66.5827 53.3831 66.614 52.9341 66.614Z" fill="#A2A3A5"/>
<path d="M77.4121 69.214C77.9447 69.9345 78.4668 70.6447 79.0203 71.3966C78.6757 71.4801 78.4042 71.5741 78.1118 71.6054C78.0178 71.6159 77.8716 71.4801 77.7985 71.3757C77.3599 70.8013 76.9213 70.2165 76.5244 69.6212C76.2947 69.2766 76.0232 69.2035 75.595 69.3393C75.595 69.9241 75.5637 70.5193 75.6054 71.1041C75.6368 71.5532 75.407 71.5532 75.0624 71.5741C74.676 71.595 74.582 71.4592 74.582 71.0937C74.6029 69.4437 74.5925 67.7937 74.582 66.1437C74.582 65.8304 74.6551 65.6738 75.0102 65.7051C75.7203 65.7573 76.4304 65.7051 77.1301 65.8095C77.9969 65.9349 78.4877 66.4779 78.5921 67.2507C78.707 68.0548 78.3728 68.6709 77.5896 69.0991C77.5583 69.12 77.5061 69.1617 77.4121 69.214ZM75.6368 68.556C76.1172 68.5038 76.5662 68.5038 76.9944 68.3994C77.4016 68.3054 77.6314 67.9086 77.6105 67.4909C77.5896 67.0836 77.3912 66.7598 76.9944 66.6763C76.5558 66.5823 76.0858 66.5928 75.6263 66.551C75.6368 67.2716 75.6368 67.8668 75.6368 68.556Z" fill="#A2A3A5"/>
<path d="M11.7568 71.5111C10.7439 71.6782 10.7439 71.6782 10.7439 70.7174C10.7439 70.2057 10.7439 69.694 10.7334 69.1823C10.7334 69.1405 10.7125 69.0988 10.7021 69.0257C9.82488 69.0257 8.93722 69.0257 7.99735 69.0257C7.99735 69.7253 8.00779 70.4146 7.98691 71.1143C7.98691 71.2605 7.93469 71.5111 7.87203 71.5215C7.61096 71.5633 7.33944 71.5424 7.07836 71.5111C7.03659 71.5007 6.99482 71.3127 6.99482 71.2083C6.99482 69.4852 6.99482 67.7725 6.98438 66.0494C6.98438 65.5795 7.30811 65.7257 7.5483 65.7048C7.81982 65.6735 8.01823 65.7152 7.99735 66.0703C7.97646 66.6238 7.99735 67.1772 7.98691 67.7307C7.98691 67.9814 8.08089 68.0858 8.34197 68.0753C9.02076 68.0649 9.71 68.0649 10.3888 68.0753C10.6812 68.0858 10.7543 67.95 10.7439 67.689C10.7334 67.2086 10.7439 66.7282 10.7439 66.2374C10.7439 65.6943 10.7439 65.6943 11.3078 65.6943C11.4435 65.6943 11.5897 65.6943 11.7464 65.6943C11.7568 67.6576 11.7568 69.5791 11.7568 71.5111Z" fill="#A2A3A5"/>
<path d="M28.371 68.9531C27.6087 68.9531 26.8986 68.9531 26.1676 68.9531C26.1676 69.5379 26.1676 70.0705 26.1676 70.6971C26.5331 70.6971 26.909 70.6971 27.285 70.6971C27.64 70.6971 27.9951 70.7284 28.3502 70.6866C28.7679 70.6448 28.9245 70.8119 28.8619 71.2088C28.8514 71.3028 28.8514 71.4072 28.841 71.5325C27.6191 71.5325 26.3973 71.5325 25.165 71.5325C25.165 69.6006 25.165 67.6895 25.165 65.7471C26.3451 65.7471 27.5252 65.7471 28.747 65.7471C28.747 66.0186 28.747 66.2901 28.747 66.6034C27.8907 66.6034 27.0448 66.6034 26.1362 66.6034C26.1362 67.0524 26.1154 67.4597 26.1467 67.867C26.1571 67.9506 26.3451 68.0863 26.46 68.0863C27.0448 68.1072 27.6192 68.0968 28.2457 68.0968C28.2771 68.3787 28.3188 68.6293 28.371 68.9531Z" fill="#A2A3A5"/>
<path d="M58.6672 66.5927C58.6672 67.1149 58.6672 67.5744 58.6672 68.0965C59.1267 68.0965 59.5757 68.0861 60.0248 68.0965C60.902 68.107 60.7036 67.9503 60.8602 68.9424C60.1397 68.9424 59.4295 68.9424 58.6776 68.9424C58.6776 69.5586 58.6776 70.1016 58.6776 70.6968C59.3982 70.6968 60.1083 70.6968 60.8185 70.6968C61.3302 70.6968 61.3824 70.7595 61.351 71.2608C61.3406 71.4696 61.2779 71.5636 61.0482 71.5636C59.9412 71.5532 58.8343 71.5636 57.6855 71.5636C57.6855 69.6108 57.6855 67.6893 57.6855 65.7051C58.2286 65.7051 58.7612 65.7051 59.2938 65.7051C59.7742 65.7051 60.265 65.7051 60.7454 65.7051C61.2779 65.7051 61.2884 65.7155 61.2571 66.2586C61.2571 66.3525 61.2362 66.457 61.2153 66.5927C60.3694 66.5927 59.5444 66.5927 58.6672 66.5927Z" fill="#A2A3A5"/>
<path d="M66.3843 65.9553C66.353 66.2059 66.3321 66.4148 66.3008 66.6237C66.2903 66.6968 66.259 66.7594 66.2381 66.8325C65.8308 66.7176 65.434 66.561 65.0267 66.4983C64.7343 66.4566 64.3897 66.4983 64.1182 66.6132C63.9302 66.6968 63.7318 66.9787 63.7109 67.1876C63.69 67.3651 63.8884 67.6262 64.0555 67.7515C64.2644 67.9082 64.5359 67.9813 64.7865 68.0857C65.0058 68.1797 65.246 68.2528 65.4653 68.3363C66.4992 68.7645 66.8334 69.3075 66.6767 70.2578C66.5514 71.0202 65.7786 71.6363 64.8492 71.6259C64.2644 71.6259 63.6691 71.4797 63.0843 71.417C62.6144 71.3648 62.51 71.0933 62.6248 70.6755C62.6562 70.5816 62.677 70.4876 62.7084 70.3831C63.1574 70.5189 63.596 70.7069 64.0451 70.7695C64.4419 70.8218 64.8805 70.8113 65.246 70.686C65.4653 70.6129 65.7055 70.2787 65.7368 70.0385C65.7577 69.8192 65.5489 69.5059 65.34 69.3702C65.0581 69.1718 64.6925 69.0882 64.3688 68.9525C64.1182 68.848 63.8675 68.754 63.6274 68.6287C63.0008 68.3259 62.6875 67.835 62.7606 67.1145C62.8337 66.4461 63.2096 66.018 63.8049 65.7882C64.6925 65.4645 65.5384 65.642 66.3843 65.9553Z" fill="#A2A3A5"/>
<path d="M88.6805 66.8226C88.2628 66.7078 87.8555 66.5511 87.4482 66.4885C87.1663 66.4467 86.8426 66.478 86.5815 66.5929C86.3935 66.6764 86.1742 66.948 86.1638 67.1464C86.1533 67.3448 86.3308 67.6268 86.5084 67.7521C86.8008 67.9505 87.1558 68.034 87.4796 68.1698C87.7511 68.2847 88.0331 68.3891 88.2941 68.5249C88.8581 68.8173 89.1609 69.2663 89.14 69.9347C89.1191 70.6135 88.8163 71.1043 88.2106 71.3967C87.4587 71.7726 86.665 71.6995 85.8818 71.522C85.5789 71.4489 85.297 71.334 84.9941 71.24C85.0464 70.9267 85.0881 70.6657 85.1403 70.3837C85.6103 70.5195 86.0489 70.7074 86.4979 70.7701C86.8843 70.8223 87.2916 70.791 87.6676 70.7179C87.9808 70.6552 88.2001 70.3942 88.221 70.0391C88.2315 69.7049 88.0539 69.4647 87.7615 69.3394C87.3021 69.141 86.8425 68.9739 86.3831 68.7755C85.391 68.3578 85.0672 67.8356 85.2343 66.9584C85.3701 66.2065 86.0907 65.653 86.9992 65.6426C87.4378 65.6426 87.8764 65.7052 88.3046 65.7888C88.8581 65.9037 88.8789 65.9663 88.7745 66.5093C88.7432 66.6242 88.7119 66.7287 88.6805 66.8226Z" fill="#A2A3A5"/>
<path d="M38.198 66.8328C37.7593 66.7074 37.3625 66.5404 36.9552 66.4986C36.6315 66.4673 36.266 66.509 35.9736 66.6552C35.4828 66.8954 35.4828 67.4698 35.9632 67.7413C36.2973 67.9293 36.6628 68.0441 37.0179 68.1903C37.2894 68.3052 37.5714 68.4097 37.8324 68.5559C38.929 69.172 38.9394 70.6967 37.8429 71.3441C37.0806 71.7932 36.2556 71.6992 35.441 71.5426C35.4097 71.5321 35.3888 71.5217 35.3575 71.5112C34.2714 71.2084 34.4907 71.3024 34.6473 70.3834C35.1068 70.5191 35.5559 70.7071 36.0154 70.7698C36.4226 70.822 36.8717 70.7802 37.2581 70.6549C37.4565 70.5922 37.6758 70.2476 37.6862 70.0179C37.6967 69.809 37.4983 69.5375 37.3103 69.3704C37.1432 69.2138 36.8821 69.172 36.6628 69.078C36.2764 68.9109 35.8692 68.7647 35.4932 68.5767C34.2923 67.9919 34.5638 66.4046 35.5037 65.9138C36.3913 65.4438 37.2894 65.6005 38.1875 65.9033C38.2502 65.9242 38.3337 66.0495 38.3233 66.1226C38.2919 66.3628 38.2397 66.5926 38.198 66.8328Z" fill="#A2A3A5"/>
<path d="M23.7867 65.7056C23.839 66.0293 23.8703 66.2904 23.9225 66.6037C23.275 66.6037 22.6693 66.6037 22.0219 66.6037C22.0114 66.8125 21.9905 66.9692 21.9905 67.1363C21.9905 68.3999 21.9905 69.6635 21.9905 70.9271C21.9905 71.5745 21.9905 71.5745 21.3431 71.5641C21.2282 71.5641 21.1238 71.5537 20.9776 71.5432C20.9776 69.9141 20.9776 68.2954 20.9776 66.6141C20.4763 66.6141 20.0168 66.5932 19.5573 66.6246C19.1814 66.6559 19.0978 66.4888 19.1083 66.1546C19.1187 65.8518 19.1709 65.6951 19.5364 65.7056C20.9358 65.716 22.3352 65.7056 23.7867 65.7056Z" fill="#A2A3A5"/>
<path d="M79.6257 65.7256C81.1817 65.7256 82.6959 65.7256 84.2415 65.7256C84.2833 66.018 84.325 66.2895 84.3668 66.6028C83.7089 66.6028 83.1032 66.6028 82.4348 66.6028C82.4348 66.8221 82.4348 67.0101 82.4348 67.1876C82.4348 68.4825 82.414 69.767 82.4453 71.062C82.4557 71.4901 82.2887 71.5632 81.9023 71.5737C81.4637 71.5841 81.4219 71.3962 81.4219 71.0411C81.4323 69.767 81.4219 68.4825 81.4219 67.2085C81.4219 67.031 81.4219 66.843 81.4219 66.6132C80.8057 66.6132 80.2314 66.6132 79.6152 66.6132C79.6257 66.3104 79.6257 66.0389 79.6257 65.7256Z" fill="#A2A3A5"/>
<path d="M31.327 65.7363C31.327 67.2506 31.3374 68.7335 31.3165 70.2059C31.3061 70.6132 31.4105 70.7699 31.8387 70.7281C32.246 70.6968 32.6637 70.749 33.071 70.7176C33.4573 70.6863 33.6662 70.8012 33.6453 71.2189C33.6453 71.3129 33.6766 71.4069 33.6975 71.5322C32.5801 71.5322 31.4941 71.5322 30.3662 71.5322C30.3662 69.6107 30.3662 67.6892 30.3662 65.7363C30.6691 65.7363 30.9719 65.7363 31.327 65.7363Z" fill="#A2A3A5"/>
</svg>
