<svg width="96" height="64" viewBox="0 0 96 64" fill="none" xmlns="http://www.w3.org/2000/svg">
<path d="M81.9685 63.1681C81.4966 62.727 81.0349 62.2858 80.563 61.8549C79.8243 61.1778 79.0754 60.5007 78.3162 59.8339C78.0084 59.5569 77.6596 59.3312 77.3416 59.0644C76.7363 58.5617 76.5311 57.9256 76.6645 57.1562C78.5009 46.9482 80.3168 36.7402 82.1737 26.5322C82.7893 23.1569 83.5074 19.7919 84.1127 16.3858C83.9896 16.6217 83.846 16.8577 83.7331 17.1039C77.6699 29.7639 72.294 42.7111 67.3593 55.843C67.2054 56.2636 67.0105 56.6945 66.7437 57.0536C66.241 57.741 65.5434 57.7718 64.9073 57.187C64.8663 57.1459 64.815 57.1049 64.7842 57.0639C63.6557 55.6891 62.5272 54.3246 61.4089 52.9396C60.7215 52.0881 60.4138 51.0724 60.3932 50.0157C60.3214 47.2662 60.1573 44.5167 60.3317 41.7775C60.6292 36.9044 61.1422 32.0415 61.5731 27.1785C61.8193 24.3983 62.0552 21.6283 62.2912 18.848C62.2399 18.8377 62.1886 18.8275 62.1373 18.807C62.0553 19.0122 61.9629 19.2071 61.8911 19.4123C58.2901 30.9847 54.6891 42.5675 51.0881 54.14C50.6674 55.4839 50.3391 56.8484 49.8672 58.1616C49.6313 58.8285 49.2209 59.4645 48.7695 60.0185C48.3488 60.5315 47.6922 60.7162 47.0356 60.4802C46.3585 60.234 46.0918 59.6389 46.0918 58.9721C46.0918 58.4489 46.1226 57.8949 46.2662 57.3922C51.0368 40.054 56.3716 22.9004 62.4861 5.99312C62.917 4.79278 63.6967 3.99255 64.8766 3.54114C66.2821 3.01792 67.6671 2.4434 69.0726 1.92018C69.7189 1.68421 70.3961 1.49955 71.0629 1.38669C72.253 1.19177 72.9198 1.73551 72.8685 2.94611C72.7967 4.84407 72.7146 6.74204 72.4889 8.62975C71.9657 13.1028 71.3502 17.5656 70.7756 22.0386C70.3242 25.5473 69.7908 29.0457 69.4419 32.5647C69.1136 35.9297 68.9905 39.3153 68.7751 42.6803C68.7648 42.7727 68.7853 42.865 68.8982 42.9779C68.9905 42.7727 69.0829 42.5675 69.1649 42.3623C73.9252 30.0306 79.4037 18.0067 85.231 6.13675C85.4875 5.62378 85.7645 5.12108 86.062 4.62863C86.7391 3.48985 87.6932 2.7717 89.0064 2.42288C90.2273 2.10484 91.3763 1.55084 92.5664 1.15073C93.0999 0.966063 93.6744 0.853211 94.2386 0.771137C95.2953 0.627507 95.9417 1.13021 95.8699 2.18692C95.7981 3.28466 95.5621 4.37215 95.3364 5.44937C93.541 13.9954 91.6738 22.5208 89.9195 31.0771C88.1036 39.9001 86.3903 48.7436 84.6359 57.5768C84.3692 58.9105 84.1435 60.2648 83.8357 61.5882C83.7024 62.1422 83.3843 62.6449 83.1586 63.1681C82.7585 63.1681 82.3584 63.1681 81.9685 63.1681Z" fill="#A2A3A5"/>
<path d="M45.8668 0.597173C46.5337 0.93573 46.7081 1.52051 46.5747 2.18736C46.4311 2.86448 46.2669 3.54159 46.0207 4.17767C43.5482 10.5692 41.0552 16.9505 38.5622 23.3318C38.4801 23.5267 38.4186 23.7319 38.3057 24.0294C39.0752 23.9576 39.7625 23.8858 40.4396 23.8242C41.0449 23.7729 41.6605 23.6806 42.2761 23.7011C43.0558 23.7216 43.856 23.8345 44.1535 24.7373C44.3895 25.4349 43.897 26.4506 43.1994 27.0148C42.471 27.6099 41.7734 28.2562 41.0962 28.9128C40.7474 29.2616 40.4499 29.672 40.1934 30.0926C39.0239 32.0316 37.2593 33.0883 35.1048 33.5705C34.6739 33.6629 34.479 33.8783 34.3456 34.2682C31.0934 43.44 27.831 52.6118 24.5583 61.7733C24.3736 62.2863 23.9632 62.7069 23.6555 63.1788C23.2964 63.1788 22.9476 63.1788 22.5885 63.1788C22.4038 62.9839 22.2192 62.789 22.0242 62.5941C21.3163 61.8759 20.6187 61.1578 19.9108 60.4499C19.4799 60.019 18.9977 59.6291 18.5668 59.1982C17.8795 58.5109 17.6435 57.7004 17.9821 56.7565C18.1052 56.4077 18.177 56.0281 18.2796 55.669C20.0955 49.2365 22.3012 42.9475 24.5685 36.6688C24.6506 36.4534 24.7122 36.2379 24.8045 35.9507C24.5378 35.9815 24.3633 35.9815 24.1992 36.0225C20.711 36.792 17.2229 37.5717 13.7245 38.3103C13.2731 38.4027 13.0679 38.6078 12.914 39.0182C11.8675 41.8703 10.78 44.7121 9.7336 47.5642C8.46144 51.0524 7.20981 54.5405 5.94792 58.0389C5.60936 58.9623 5.14769 59.8138 4.28591 60.3575C3.13687 61.0757 1.96731 60.4909 1.95705 59.1367C1.95705 58.4493 2.11094 57.7209 2.34691 57.0643C4.39877 51.2781 6.49166 45.5021 8.56404 39.7261C8.63585 39.5107 8.69741 39.2952 8.77948 39.0285C7.22007 38.8643 6.13259 38.0231 5.20925 36.9048C4.86043 36.4739 4.51162 36.043 4.12176 35.6532C3.87554 35.4069 3.57802 35.1402 3.25998 35.0684C2.14172 34.7606 1.41331 34.063 0.982422 33.0063C0.982422 32.8524 0.982422 32.6882 0.982422 32.5343C1.37227 31.929 1.99809 31.6726 2.65469 31.4879C5.81455 30.6159 8.97441 29.7541 12.1445 28.9231C12.6062 28.8 12.8216 28.5743 12.996 28.1536C16.0738 20.4079 19.1619 12.6621 22.2602 4.92659C22.5064 4.3213 22.7629 3.716 23.0912 3.162C23.5323 2.39255 24.1582 1.78725 25.0405 1.52051C26.0972 1.20247 26.9076 1.76673 26.8563 2.85422C26.8256 3.44926 26.6614 4.06481 26.4357 4.61882C23.4913 12.0773 20.5161 19.5256 17.5512 26.9738C17.4691 27.179 17.4075 27.3944 17.3255 27.6201C17.4486 27.6304 17.4794 27.6509 17.5204 27.6407C21.1214 26.9225 24.7327 26.2044 28.3337 25.5067C28.7235 25.4349 28.8877 25.2297 29.0211 24.8809C29.9649 22.47 30.8985 20.059 31.8937 17.6686C33.7711 13.1443 35.6793 8.6302 37.5773 4.11611C37.9159 3.30563 38.4493 2.76188 39.3316 2.49514C41.2501 1.9001 43.1378 1.23325 45.0461 0.586914C45.3128 0.597173 45.5898 0.597173 45.8668 0.597173Z" fill="#A2A3A5"/>
<path d="M41.0146 52.3764C40.4196 52.756 39.8963 53.1458 39.3218 53.4433C37.9778 54.1307 36.6031 54.182 35.3412 53.2792C34.0383 52.3456 33.6792 50.9708 33.8331 49.4525C33.9665 48.1187 34.541 46.9492 35.413 45.9438C36.0696 45.1846 36.7365 44.4151 37.4444 43.7073C37.824 43.3277 37.906 42.9994 37.7521 42.4761C37.4957 41.5528 37.2187 40.5884 37.2084 39.6446C37.1879 37.2849 39.5783 35.705 41.7943 36.5155C43.3948 37.1003 44.2052 38.6597 43.4871 40.2396C42.9433 41.44 42.1123 42.5377 41.3121 43.6047C40.912 44.1381 40.7479 44.569 41.0249 45.1846C41.2608 45.7181 41.4045 46.3029 41.5891 46.8774C42.1226 46.508 42.574 46.0977 43.1075 45.8412C43.9898 45.4103 44.749 45.9335 44.6566 46.8979C44.6156 47.3903 44.4309 47.9033 44.1847 48.3445C43.8564 48.9498 43.3948 49.473 43.0357 50.068C42.9126 50.2629 42.8613 50.5707 42.9228 50.7964C43.0459 51.2889 43.2716 51.7608 43.4153 52.2532C43.641 53.0022 43.4255 53.6383 42.9126 53.8537C42.3483 54.0897 41.6917 53.7614 41.3224 53.0535C41.2095 52.838 41.1172 52.6226 41.0146 52.3764ZM39.014 46.6312C38.9525 46.6106 38.9012 46.6004 38.8396 46.5799C38.4293 47.2672 37.9779 47.9238 37.6393 48.642C37.5264 48.8779 37.5983 49.3191 37.7624 49.5345C37.8547 49.6576 38.3472 49.6371 38.5626 49.5038C38.973 49.2678 39.3116 48.919 39.6809 48.6112C39.6912 48.6009 39.6706 48.5394 39.6604 48.4983C39.4449 47.8828 39.2295 47.257 39.014 46.6312ZM39.7322 41.1424C39.804 41.1527 39.8656 41.1732 39.9374 41.1835C40.2759 40.7526 40.676 40.3627 40.912 39.8908C41.0454 39.6343 40.9736 39.2137 40.8607 38.9264C40.7992 38.7828 40.3375 38.6494 40.2041 38.7418C39.9374 38.9162 39.6193 39.2239 39.5988 39.5009C39.5475 40.0344 39.6809 40.5987 39.7322 41.1424Z" fill="#A2A3A5"/>
</svg>
