<svg width="11" height="19" viewBox="0 0 11 19" fill="none" xmlns="http://www.w3.org/2000/svg">
<path d="M10.2336 0.300758L7.86333 0.296875C5.20042 0.296875 3.47953 2.09938 3.47953 4.88922V7.0066H1.09633C0.890398 7.0066 0.723633 7.17705 0.723633 7.38729V10.4551C0.723633 10.6654 0.890588 10.8356 1.09633 10.8356H3.47953V18.5768C3.47953 18.787 3.64629 18.9573 3.85223 18.9573H6.96162C7.16755 18.9573 7.33432 18.7868 7.33432 18.5768V10.8356H10.1208C10.3268 10.8356 10.4935 10.6654 10.4935 10.4551L10.4947 7.38729C10.4947 7.28635 10.4553 7.18967 10.3855 7.11823C10.3157 7.04679 10.2207 7.0066 10.1218 7.0066H7.33432V5.21167C7.33432 4.34896 7.53569 3.911 8.63649 3.911L10.2332 3.91042C10.439 3.91042 10.6057 3.73997 10.6057 3.52992V0.681253C10.6057 0.471398 10.4391 0.301146 10.2336 0.300758Z" fill="#E62C2E"/>
</svg>
