<svg width="19" height="20" viewBox="0 0 19 20" fill="none" xmlns="http://www.w3.org/2000/svg">
<path d="M13.3835 0.164062H5.5029C2.82669 0.164062 0.649414 2.50702 0.649414 5.38674V13.8666C0.649414 16.7464 2.82669 19.0893 5.5029 19.0893H13.3835C16.0599 19.0893 18.2372 16.7463 18.2372 13.8666V5.38674C18.2373 2.50702 16.0599 0.164062 13.3835 0.164062ZM16.6768 13.8666C16.6768 15.8206 15.1995 17.4102 13.3836 17.4102H5.5029C3.68713 17.4103 2.20989 15.8206 2.20989 13.8666V5.38674C2.20989 3.4329 3.68713 1.8432 5.5029 1.8432H13.3835C15.1994 1.8432 16.6767 3.4329 16.6767 5.38674V13.8666H16.6768Z" fill="#E62C2E"/>
<path d="M9.44272 4.75C6.94396 4.75 4.91113 6.93758 4.91113 9.62655C4.91113 12.3154 6.94396 14.5029 9.44272 14.5029C11.9415 14.5029 13.9743 12.3154 13.9743 9.62655C13.9743 6.93758 11.9415 4.75 9.44272 4.75ZM9.44272 12.8236C7.80445 12.8236 6.47149 11.3894 6.47149 9.62644C6.47149 7.86334 7.80435 6.42903 9.44272 6.42903C11.0811 6.42903 12.4139 7.86334 12.4139 9.62644C12.4139 11.3894 11.081 12.8236 9.44272 12.8236Z" fill="#E62C2E"/>
<path d="M14.1648 3.32617C13.8641 3.32617 13.5688 3.45714 13.3565 3.68663C13.1432 3.91499 13.0205 4.23291 13.0205 4.55754C13.0205 4.88117 13.1433 5.19897 13.3565 5.42845C13.5687 5.65682 13.8641 5.78891 14.1648 5.78891C14.4664 5.78891 14.7608 5.65682 14.9741 5.42845C15.1873 5.19897 15.309 4.88105 15.309 4.55754C15.309 4.23291 15.1873 3.91499 14.9741 3.68663C14.7619 3.45714 14.4664 3.32617 14.1648 3.32617Z" fill="#E62C2E"/>
</svg>
