<svg width="25" height="15" viewBox="0 0 25 15" fill="none" xmlns="http://www.w3.org/2000/svg">
<path d="M23.849 13.0753C23.7848 12.9656 23.388 12.0854 21.4785 10.2762C19.4794 8.38174 19.7479 8.68937 22.1557 5.41363C23.6222 3.41864 24.2085 2.20032 24.025 1.6795C23.8504 1.18303 22.7719 1.314 22.7719 1.314L19.1855 1.33532C19.1855 1.33532 18.92 1.29877 18.7216 1.41908C18.5291 1.53787 18.4053 1.81199 18.4053 1.81199C18.4053 1.81199 17.8369 3.3562 17.0791 4.66893C15.4813 7.43907 14.8413 7.58527 14.5803 7.41318C13.9731 7.01266 14.1253 5.80196 14.1253 4.94305C14.1253 2.25819 14.5236 1.13887 13.348 0.84952C12.9572 0.753578 12.6708 0.689616 11.6727 0.678956C10.3927 0.66525 9.30819 0.683525 8.69505 0.989626C8.28629 1.19369 7.97152 1.64904 8.16397 1.67493C8.40117 1.70691 8.93822 1.82265 9.22316 2.2186C9.59164 2.72877 9.57821 3.87703 9.57821 3.87703C9.57821 3.87703 9.79005 7.03703 9.08442 7.42993C8.59958 7.69949 7.93572 7.14972 6.51103 4.63543C5.78153 3.34858 5.22956 1.92468 5.22956 1.92468C5.22956 1.92468 5.12364 1.6597 4.93418 1.51807C4.70444 1.34598 4.38221 1.29116 4.38221 1.29116L0.971907 1.31248C0.971907 1.31248 0.460213 1.32771 0.272244 1.55462C0.10516 1.75716 0.258817 2.17444 0.258817 2.17444C0.258817 2.17444 2.92917 8.55078 5.9516 11.7656C8.72489 14.7124 11.8726 14.519 11.8726 14.519H13.2988C13.2988 14.519 13.7299 14.4703 13.9492 14.2281C14.1521 14.0058 14.1447 13.5885 14.1447 13.5885C14.1447 13.5885 14.1163 11.6346 15.0054 11.3468C15.8811 11.0636 17.006 13.2352 18.1979 14.0713C19.099 14.7033 19.7837 14.5647 19.7837 14.5647L22.9718 14.519C22.9718 14.519 24.6396 14.4139 23.849 13.0753Z" fill="#E62C2E"/>
</svg>
