<svg width="161" height="49" viewBox="0 0 161 49" fill="none" xmlns="http://www.w3.org/2000/svg">
<path d="M130.291 30.7918L137.583 25.1374C138.053 24.7805 138.454 24.4369 138.784 24.1066C139.114 23.7764 139.381 23.4495 139.591 23.1325C139.798 22.869 139.955 22.5754 140.058 22.2552C140.162 21.9349 140.215 21.578 140.215 21.181C140.215 20.7674 140.145 20.4071 140.002 20.1068C139.858 19.8066 139.668 19.5397 139.421 19.3162C139.064 18.996 138.63 18.7625 138.12 18.6224C137.613 18.4789 137.046 18.4122 136.422 18.4122C135.555 18.4122 134.737 18.5723 133.963 18.8926C133.19 19.2128 132.429 19.8233 131.675 20.7273L129.837 19.0026C130.818 17.8151 131.845 16.9978 132.919 16.5574C133.993 16.1137 135.161 15.8936 136.425 15.8936C137.386 15.8936 138.3 16.0203 139.168 16.2739C140.035 16.5307 140.779 16.931 141.403 17.4748C141.91 17.9085 142.317 18.4422 142.617 19.0727C142.917 19.7065 143.071 20.4438 143.071 21.2911C143.071 22.5354 142.674 23.6663 141.883 24.6837C141.563 25.0974 141.162 25.5344 140.682 25.9981C140.202 26.4618 139.688 26.9055 139.141 27.3425L134.871 30.6484H142.954V33.1637H130.291V30.7918Z" fill="#E62C2E"/>
<path d="M145.896 28.6438L156.497 16.2041H158.816V28.1634H160.567V30.5086L158.816 30.6487V33.164H155.96V30.6787H145.896V28.6438ZM155.96 20.8711L149.769 28.1634H155.96V20.8711Z" fill="#E62C2E"/>
<path d="M150.847 11.6873L149.506 9.84252L149.496 9.84919C145.103 4.03799 138.161 0.261719 130.315 0.261719C117.014 0.261719 106.232 11.0435 106.232 24.3438C106.232 37.6442 117.014 48.4259 130.315 48.4259C136.543 48.4259 142.18 46.0341 146.44 42.1444L146.45 42.1544L148.115 40.5598C148.852 39.8526 148.879 38.6817 148.172 37.9444C147.465 37.2072 146.294 37.1805 145.556 37.8877L143.892 39.4823L143.895 39.489C140.299 42.7615 135.569 44.7898 130.315 44.7898C119.022 44.7898 109.869 35.636 109.869 24.3438C109.869 13.0517 119.022 3.89789 130.315 3.89789C137.12 3.89789 143.108 7.26051 146.824 12.3745L146.827 12.3712L147.888 13.8323C148.482 14.6496 149.623 14.8297 150.44 14.236C151.258 13.6488 151.438 12.5046 150.847 11.6873Z" fill="#E62C2E"/>
<path d="M40.0946 15.2022C39.9545 15.042 39.8111 14.8853 39.6609 14.7318C38.4533 13.4108 37.0055 12.3733 35.3242 11.616C33.6429 10.8588 31.7982 10.4818 29.7966 10.4818H25.1496V7.02246H19.195V10.4818H14.5447C12.4264 10.4818 10.4815 10.9088 8.70682 11.7562C6.92877 12.6068 5.41759 13.751 4.16995 15.1855C3.18585 16.3197 2.41191 17.6507 1.8448 19.1819C1.27769 20.7098 0.994141 22.3477 0.994141 24.0824C0.994141 25.9739 1.32773 27.7419 1.98491 29.3832C2.64543 31.0278 3.58282 32.4556 4.79377 33.6632C6.00138 34.9075 7.43583 35.895 9.1038 36.6122C10.7651 37.3294 12.5798 37.6897 14.5447 37.6897H19.1917V41.6561H25.1463V37.6897H29.7933C31.608 37.6897 33.3093 37.3561 34.8972 36.6989C36.4851 36.0384 37.8996 35.121 39.1472 33.9501C39.4141 33.6999 39.6643 33.4364 39.9078 33.1662C38.3699 30.5808 37.4859 27.5585 37.4859 24.3326C37.4893 20.98 38.4433 17.8542 40.0946 15.2022ZM19.195 32.1354H14.945C13.8108 32.1354 12.7366 31.9085 11.7125 31.4548C10.6917 31.0012 9.80434 30.3973 9.04708 29.6401C8.36655 28.9229 7.82947 28.0989 7.43249 27.1748C7.03552 26.2508 6.8387 25.22 6.8387 24.0824C6.8387 23.1017 7.0155 22.1476 7.37578 21.2202C7.73606 20.2961 8.15973 19.4922 8.65011 18.8117C9.40737 17.941 10.3414 17.2604 11.459 16.7701C12.5732 16.2797 13.7341 16.0328 14.945 16.0328H19.195V32.1354ZM36.8254 27.375C36.4117 28.3591 35.8413 29.2098 35.1241 29.927C34.3668 30.6442 33.4961 31.1946 32.5187 31.5683C31.5346 31.9452 30.4971 32.1354 29.3996 32.1354H25.1496V16.0362H29.3996C30.4938 16.0362 31.5446 16.2263 32.5454 16.5999C33.5462 16.9769 34.4269 17.5473 35.1808 18.3013C35.8613 19.0185 36.4084 19.8691 36.8221 20.8532C37.2357 21.8373 37.4459 22.9148 37.4459 24.0824C37.4492 25.2967 37.2424 26.3909 36.8254 27.375Z" fill="#223365"/>
<path d="M43.3638 23.7802C43.3638 17.4486 48.4978 12.3146 54.8294 12.3146L62.0851 12.3013H62.9224V7.02051H59.9901V7.02384H54.6126C45.0451 7.02384 37.2891 14.7799 37.2891 24.3474C37.2891 33.9148 45.0451 41.6709 54.6126 41.6709H62.9224V35.2425C60.2236 35.2458 57.5282 35.2459 54.8294 35.2492C48.4945 35.2492 43.3638 30.1152 43.3638 23.7802Z" fill="#70C8F2"/>
<path d="M88.5452 7.02051V21.3684H68.8732V7.02051H66.2144C67.6722 7.02051 68.8532 8.20142 68.8532 9.66256C68.8532 11.1204 67.6722 12.3046 66.2144 12.3046H62.9219V21.3717V27.3263V35.2458C62.9619 35.2558 62.9953 35.2492 63.042 35.2525C63.9126 35.2525 64.7867 35.2759 65.6573 35.2759C67.4254 35.2759 68.8565 36.707 68.8565 38.475C68.8565 40.2397 67.4254 41.6742 65.6573 41.6742L62.9285 41.6775H68.8732V27.3297H88.5452V41.6775H94.4998V7.02051H88.5452Z" fill="#35679A"/>
<path d="M66.2211 12.3005C67.6956 12.3005 68.8898 11.1196 68.8898 9.65856C68.8898 8.19748 67.6956 7.0166 66.2211 7.0166H62.8887V12.2972H66.2211V12.3005Z" fill="#1C3761"/>
<path d="M68.8736 38.4746C68.8736 36.7099 67.4359 35.2755 65.6646 35.2755L62.9092 35.2422L62.9192 41.6703H65.6646C67.4359 41.6703 68.8736 40.2392 68.8736 38.4746Z" fill="#1C3761"/>
<path d="M42.2895 18.8517C41.7157 17.444 40.9351 16.183 39.9476 15.0654C38.2597 17.7609 37.2822 20.94 37.2822 24.346C37.2822 27.6252 38.1896 30.6943 39.7608 33.323C40.7149 32.2655 41.4988 31.0546 42.1127 29.6835C42.8866 27.9555 43.2736 26.094 43.2736 24.0958C43.2769 22.211 42.9466 20.463 42.2895 18.8517Z" fill="#35679A"/>
</svg>
