<svg width="161" height="51" viewBox="0 0 161 51" fill="none" xmlns="http://www.w3.org/2000/svg">
<path d="M130.17 32.2633L137.478 26.4689C137.95 26.1031 138.351 25.751 138.682 25.4126C139.013 25.0741 139.28 24.7391 139.491 24.4143C139.698 24.1443 139.855 23.8434 139.959 23.5153C140.063 23.1871 140.116 22.8213 140.116 22.4145C140.116 21.9906 140.046 21.6214 139.902 21.3137C139.758 21.0061 139.568 20.7326 139.32 20.5035C138.963 20.1753 138.528 19.9361 138.016 19.7925C137.508 19.6455 136.94 19.5771 136.315 19.5771C135.445 19.5771 134.626 19.7412 133.851 20.0694C133.075 20.3976 132.313 21.0232 131.557 21.9496L129.715 20.1822C130.698 18.9652 131.728 18.1276 132.804 17.6764C133.881 17.2217 135.051 16.9961 136.318 16.9961C137.281 16.9961 138.197 17.126 139.066 17.3858C139.936 17.649 140.681 18.0593 141.306 18.6165C141.815 19.0609 142.222 19.6079 142.523 20.254C142.824 20.9035 142.978 21.659 142.978 22.5273C142.978 23.8024 142.58 24.9613 141.788 26.004C141.467 26.4279 141.066 26.8757 140.584 27.3509C140.103 27.8261 139.588 28.2807 139.04 28.7286L134.76 32.1163H142.861V34.6939H130.17V32.2633Z" fill="#E62C2E"/>
<path d="M145.81 30.0612L156.435 17.3135H158.759V29.569H160.514V31.9722L158.759 32.1158V34.6934H155.897V32.1465H145.81V30.0612ZM155.897 22.096L149.691 29.569H155.897V22.096Z" fill="#E62C2E"/>
<path d="M150.772 12.6851L149.428 10.7946L149.418 10.8015C145.015 4.84635 138.057 0.976562 130.194 0.976562C116.863 0.976562 106.058 12.0253 106.058 25.6551C106.058 39.2848 116.863 50.3336 130.194 50.3336C136.436 50.3336 142.086 47.8825 146.355 43.8964L146.366 43.9067L148.034 42.2726C148.773 41.5479 148.8 40.348 148.091 39.5925C147.382 38.837 146.208 38.8096 145.469 39.5344L143.801 41.1684L143.804 41.1753C140.2 44.5289 135.459 46.6073 130.194 46.6073C118.876 46.6073 109.702 37.2268 109.702 25.6551C109.702 14.0833 118.876 4.70278 130.194 4.70278C137.014 4.70278 143.015 8.14867 146.74 13.3893L146.743 13.3859L147.807 14.8832C148.402 15.7208 149.545 15.9054 150.364 15.2969C151.183 14.6952 151.364 13.5226 150.772 12.6851Z" fill="#E62C2E"/>
<path d="M39.7719 16.2885C39.6314 16.1244 39.4877 15.9638 39.3372 15.8065C38.1269 14.4528 36.6759 13.3896 34.9908 12.6136C33.3057 11.8376 31.4568 11.4513 29.4508 11.4513H24.7935V7.90625H18.8255V11.4513H14.1648C12.0418 11.4513 10.0926 11.8889 8.3139 12.7572C6.53188 13.6289 5.01732 14.8015 3.76689 16.2714C2.78059 17.4337 2.00492 18.7977 1.43655 20.3669C0.868172 21.9325 0.583984 23.6111 0.583984 25.3887C0.583984 27.327 0.918324 29.1388 1.57697 30.8208C2.23896 32.5061 3.17845 33.9693 4.39211 35.2068C5.60241 36.4819 7.04007 37.4938 8.71176 38.2288C10.3768 38.9638 12.1956 39.333 14.1648 39.333H18.8222V43.3976H24.7901V39.333H29.4475C31.2663 39.333 32.9714 38.9911 34.5629 38.3176C36.1543 37.6408 37.5719 36.7007 38.8223 35.5008C39.0898 35.2444 39.3406 34.9743 39.5846 34.6974C38.0433 32.048 37.1573 28.9508 37.1573 25.6451C37.1607 22.2094 38.1169 19.0063 39.7719 16.2885ZM18.8255 33.6411H14.566C13.4293 33.6411 12.3527 33.4086 11.3263 32.9437C10.3032 32.4788 9.41388 31.86 8.65493 31.084C7.97288 30.349 7.43459 29.5046 7.03673 28.5577C6.63886 27.6108 6.44161 26.5544 6.44161 25.3887C6.44161 24.3836 6.6188 23.4059 6.97989 22.4556C7.34097 21.5087 7.76559 20.6848 8.25707 19.9874C9.01602 19.0952 9.95216 18.3978 11.0722 17.8952C12.1889 17.3927 13.3524 17.1397 14.566 17.1397H18.8255V33.6411ZM36.4953 28.7628C36.0808 29.7713 35.509 30.643 34.7902 31.378C34.0313 32.113 33.1586 32.677 32.179 33.0599C31.1927 33.4462 30.1529 33.6411 29.0529 33.6411H24.7935V17.1432H29.0529C30.1496 17.1432 31.2027 17.338 32.2058 17.7209C33.2088 18.1072 34.0914 18.6918 34.847 19.4644C35.5291 20.1993 36.0774 21.0711 36.492 22.0795C36.9066 23.088 37.1172 24.1922 37.1172 25.3887C37.1205 26.633 36.9133 27.7543 36.4953 28.7628Z" fill="white"/>
<path d="M43.0483 25.0781C43.0483 18.5897 48.1938 13.3286 54.5395 13.3286L61.8114 13.3149H62.6506V7.90332H59.7117V7.90673H54.3222C44.7333 7.90673 36.96 15.8549 36.96 25.6593C36.96 35.4637 44.7333 43.4118 54.3222 43.4118H62.6506V36.8242C59.9458 36.8276 57.2443 36.8277 54.5395 36.8311C48.1904 36.8311 43.0483 31.5699 43.0483 25.0781Z" fill="white"/>
<path d="M88.3319 7.90332V22.6065H68.616V7.90332H65.9513C67.4124 7.90332 68.5959 9.11348 68.5959 10.6108C68.5959 12.1047 67.4124 13.3183 65.9513 13.3183H62.6514V22.6099V28.712V36.8276C62.6915 36.8379 62.7249 36.8311 62.7717 36.8345C63.6444 36.8345 64.5203 36.8584 65.3929 36.8584C67.1649 36.8584 68.5993 38.325 68.5993 40.1368C68.5993 41.9452 67.1649 43.4152 65.3929 43.4152L62.6581 43.4186H68.616V28.7154H88.3319V43.4186H94.2999V7.90332H88.3319Z" fill="white"/>
<path d="M65.957 13.3144C67.4347 13.3144 68.6315 12.1042 68.6315 10.6069C68.6315 9.10958 67.4347 7.89941 65.957 7.89941H62.6172V13.311H65.957V13.3144Z" fill="#F2F2F2"/>
<path d="M68.6152 40.1358C68.6152 38.3274 67.1743 36.8574 65.3991 36.8574L62.6377 36.8232L62.6477 43.4108H65.3991C67.1743 43.4108 68.6152 41.9442 68.6152 40.1358Z" fill="#F2F2F2"/>
<path d="M41.9712 20.0285C41.3962 18.5859 40.6139 17.2937 39.6243 16.1484C37.9327 18.9106 36.9531 22.1685 36.9531 25.6588C36.9531 29.0193 37.8625 32.1643 39.4371 34.8581C40.3932 33.7745 41.1789 32.5335 41.794 31.1285C42.5696 29.3577 42.9574 27.4502 42.9574 25.4024C42.9608 23.471 42.6298 21.6796 41.9712 20.0285Z" fill="#F2F2F2"/>
</svg>
