<svg width="165" height="44" viewBox="0 0 165 44" fill="none" xmlns="http://www.w3.org/2000/svg">
<path d="M40.898 0.535192C45.7632 0.607807 50.0597 2.07223 53.3637 5.81195C59.1851 12.4079 58.12 23.5181 49.2851 27.9356C42.5802 31.288 35.9601 30.8644 29.933 26.3017C25.5639 22.9856 23.9905 18.3261 24.874 12.9767C25.8181 7.28847 29.2673 3.54875 34.6409 1.56392C36.662 0.813553 38.7437 0.474678 40.898 0.535192ZM40.9827 3.47614C37.6302 3.47614 34.6893 4.55327 32.293 6.88908C29.5215 9.58798 28.1539 12.8799 28.7227 16.7527C29.5215 22.1263 32.8013 25.3698 37.957 26.7132C43.6695 28.2019 50.096 24.8978 52.2502 19.4758C55.288 11.827 49.3456 3.37932 40.9827 3.47614Z" fill="#A2A3A5"/>
<path d="M61.2666 27.9236C61.2666 20.0932 61.2666 12.2991 61.2666 4.45654C61.4239 4.44443 61.545 4.42023 61.6539 4.42023C66.8338 4.44443 72.0138 4.34761 77.1816 4.55336C81.1634 4.71069 83.8017 7.0102 84.2132 11.1977C84.4311 13.4609 82.8698 16.1477 80.6187 17.2974C79.9531 17.6363 79.239 17.9026 78.3919 18.2778C80.764 21.4971 83.1119 24.6922 85.5445 27.9962C84.1285 27.9962 82.8214 28.0204 81.5264 27.972C81.3328 27.9599 81.0907 27.6936 80.9455 27.5C78.8275 24.5711 76.7217 21.6423 74.5916 18.7256C74.4101 18.4714 74.0349 18.2051 73.7444 18.2051C70.864 18.1688 67.9836 18.1809 65.1031 18.1809C64.9821 18.1809 64.8732 18.2051 64.6917 18.2294C64.6917 21.4608 64.6917 24.668 64.6917 27.9478C63.554 27.9236 62.4648 27.9236 61.2666 27.9236ZM64.6917 15.2521C64.8611 15.2763 65.0063 15.3126 65.1516 15.3126C68.5887 15.3126 72.0259 15.3368 75.463 15.3005C76.2618 15.2884 77.0727 15.1916 77.8472 14.9979C79.4811 14.6107 80.3404 13.4246 80.6066 11.8392C80.8729 10.2779 80.3041 9.00713 78.9849 8.11154C78.0046 7.44589 76.8669 7.27645 75.7051 7.28856C72.2921 7.28856 68.8792 7.28856 65.4662 7.28856C65.2121 7.28856 64.9579 7.31276 64.6917 7.32486C64.6917 10.0238 64.6917 12.6137 64.6917 15.2521Z" fill="#A2A3A5"/>
<path d="M141.169 28.081C139.886 28.081 138.712 28.1173 137.55 28.0568C137.284 28.0447 136.933 27.7179 136.787 27.4517C135.904 25.8178 135.081 24.1598 134.197 22.5259C134.064 22.296 133.701 22.0539 133.435 22.0539C128.993 22.0176 124.552 22.0055 120.11 22.0297C119.868 22.0297 119.529 22.2475 119.42 22.4533C118.597 23.9782 117.786 25.5153 117.06 27.0886C116.733 27.8027 116.358 28.1294 115.523 28.0568C114.543 27.9721 113.538 28.0326 112.425 28.0326C113.066 26.7618 113.623 25.6363 114.204 24.5107C117.447 18.169 120.715 11.8393 123.934 5.47327C124.298 4.75921 124.685 4.46875 125.484 4.52926C126.5 4.61398 127.529 4.54137 128.558 4.61398C128.824 4.62608 129.199 4.85604 129.32 5.08599C131.462 9.20089 133.58 13.3279 135.71 17.4428C137.441 20.8073 139.184 24.1598 140.927 27.5122C140.987 27.6695 141.048 27.8269 141.169 28.081ZM132.418 19.0161C130.506 15.2885 128.654 11.6698 126.73 7.93011C124.818 11.7061 123.003 15.3127 121.127 19.0161C124.951 19.0161 128.606 19.0161 132.418 19.0161Z" fill="#A2A3A5"/>
<path d="M93.4351 25.3818C99.2201 25.3818 104.969 25.3818 110.778 25.3818C110.778 26.2774 110.778 27.0883 110.778 27.9718C103.807 27.9718 96.8117 27.9718 89.7559 27.9718C89.7559 20.1534 89.7559 12.3714 89.7559 4.54102C96.727 4.54102 103.71 4.54102 110.802 4.54102C110.802 5.31559 110.827 6.04174 110.778 6.7679C110.766 6.91314 110.439 7.14309 110.258 7.14309C107.159 7.15519 104.061 7.13098 100.951 7.11888C98.4577 7.11888 95.9766 7.11888 93.423 7.11888C93.423 9.61203 93.423 12.0568 93.423 14.5983C97.7194 14.5983 102.028 14.5983 106.397 14.5983C106.397 15.506 106.397 16.3169 106.397 17.2246C102.101 17.2246 97.792 17.2246 93.4351 17.2246C93.4351 19.9477 93.4351 22.5982 93.4351 25.3818Z" fill="#A2A3A5"/>
<path d="M164.296 28.0804C157.204 28.0804 150.112 28.0804 142.959 28.0804C142.959 20.2863 142.959 12.5406 142.959 4.73438C144.024 4.73438 145.113 4.73438 146.287 4.73438C146.287 11.645 146.287 18.5314 146.287 25.4904C152.326 25.4904 158.269 25.4904 164.296 25.4904C164.296 26.3981 164.296 27.2211 164.296 28.0804Z" fill="#A2A3A5"/>
<path d="M0.911133 4.51758C2.00037 4.51758 3.0291 4.51758 4.14254 4.51758C4.14254 11.5008 4.14254 18.4477 4.14254 25.4673C10.1818 25.4673 16.1484 25.4673 22.2118 25.4673C22.2118 26.2781 22.2239 26.9922 22.1997 27.7184C22.1997 27.8394 21.9818 27.9846 21.8487 28.0572C21.7519 28.1056 21.6067 28.0693 21.4856 28.0693C14.8534 28.0814 8.20903 28.0814 1.57678 28.0935C1.38314 28.0935 1.18949 28.0814 0.911133 28.0572C0.911133 20.2268 0.911133 12.4206 0.911133 4.51758Z" fill="#A2A3A5"/>
<path d="M82.991 43.56C82.3496 43.56 81.7928 43.56 81.2119 43.56C81.2119 40.4497 81.2119 37.3877 81.2119 34.3015C81.3087 34.2652 81.3935 34.2168 81.4782 34.2168C83.5719 34.2289 85.6657 34.1926 87.7595 34.2773C88.3888 34.3015 89.0665 34.5073 89.6354 34.8098C91.4144 35.7538 91.4266 37.9444 89.6959 38.9852C89.3449 39.191 88.9576 39.3483 88.4977 39.5662C89.4538 40.8612 90.3857 42.144 91.4023 43.5358C90.7246 43.5358 90.1558 43.5721 89.5869 43.5116C89.3933 43.4874 89.1755 43.2817 89.0423 43.1001C88.3404 42.1319 87.6505 41.1516 86.997 40.1592C86.7428 39.7719 86.4524 39.6025 85.9804 39.6267C85.0122 39.663 84.0439 39.6388 82.9789 39.6388C82.991 40.9701 82.991 42.253 82.991 43.56ZM83.0031 35.4271C83.0031 36.4195 83.0031 37.4119 83.0031 38.3438C84.5886 38.3438 86.1498 38.4285 87.6868 38.3075C88.655 38.2349 89.1028 37.6055 89.0907 36.831C89.0907 36.0806 88.6551 35.5239 87.6747 35.4513C86.1498 35.3423 84.5886 35.4271 83.0031 35.4271Z" fill="#A2A3A5"/>
<path d="M65.1162 43.5476C65.5398 42.7972 65.915 42.1195 66.3023 41.4539C67.6215 39.1665 68.9407 36.8912 70.284 34.6159C70.4051 34.4101 70.7076 34.2407 70.9618 34.2044C72.2084 33.9744 73.0313 34.3496 73.6486 35.6083C74.9194 38.1619 76.408 40.6067 77.7998 43.0998C77.8724 43.2208 77.9208 43.354 78.0297 43.596C77.3399 43.596 76.7469 43.6323 76.1538 43.5718C75.9723 43.5597 75.7544 43.3298 75.6455 43.1361C75.3309 42.5915 75.0162 42.0348 74.7741 41.4418C74.5684 40.9576 74.2658 40.8124 73.7575 40.8245C72.2689 40.8608 70.7803 40.8487 69.2916 40.8245C68.8438 40.8124 68.5413 40.9213 68.3718 41.357C68.2629 41.6233 68.0935 41.8774 67.9603 42.1316C67.1253 43.7534 67.1253 43.7534 65.1162 43.5476ZM73.697 39.6506C72.9587 38.2588 72.2931 37.0001 71.5548 35.6204C70.756 37.0485 70.0541 38.3193 69.3037 39.6506C70.8166 39.6506 72.1842 39.6506 73.697 39.6506Z" fill="#A2A3A5"/>
<path d="M101.254 40.5463C101.714 40.5463 102.125 40.5221 102.537 40.5584C102.658 40.5705 102.864 40.7158 102.888 40.8247C103.106 42.0228 104.001 42.507 105.03 42.6038C106.131 42.7127 107.245 42.5796 108.358 42.5191C108.564 42.507 108.83 42.4101 108.951 42.2528C109.217 41.9018 109.532 41.5266 109.605 41.1151C109.689 40.5947 109.338 40.1711 108.806 40.0501C107.414 39.7233 105.998 39.445 104.606 39.1182C104.038 38.9851 103.457 38.8641 102.924 38.6341C101.423 37.9564 101.169 36.141 102.464 35.1122C102.997 34.6886 103.674 34.3498 104.34 34.2166C106.24 33.8293 108.128 33.8778 109.859 34.9065C110.609 35.3543 110.912 36.0683 110.96 37.0123C110.512 37.0123 110.113 37.0366 109.702 37.0002C109.544 36.9881 109.314 36.8308 109.29 36.6977C109.024 35.6084 108.116 35.318 107.233 35.2212C106.361 35.1243 105.441 35.2212 104.558 35.3664C103.904 35.4753 103.384 35.8989 103.384 36.6614C103.372 37.448 103.989 37.6659 104.606 37.7869C106.155 38.1016 107.729 38.3194 109.266 38.6946C111.118 39.1424 111.916 40.8247 111.009 42.2407C110.379 43.2331 109.326 43.5478 108.261 43.7293C106.785 43.9714 105.296 44.0077 103.832 43.5841C102.101 43.1 101.254 42.1076 101.254 40.5463Z" fill="#A2A3A5"/>
<path d="M54.7686 34.2531C57.0802 34.2531 59.3192 34.2047 61.5581 34.2773C62.2117 34.3015 62.9015 34.5557 63.4704 34.8946C65.0195 35.8023 65.0316 37.775 63.5672 38.84C62.5506 39.5783 61.3887 39.6146 60.2147 39.6388C59.065 39.663 57.9273 39.6509 56.7776 39.663C56.7292 39.663 56.6929 39.6993 56.584 39.7477C56.584 40.9701 56.584 42.2288 56.584 43.439C56.4871 43.5116 56.4387 43.548 56.4024 43.5601C54.7686 43.7295 54.7686 43.7295 54.7686 42.0956C54.7686 39.5178 54.7686 36.9036 54.7686 34.2531ZM56.6203 35.4029C56.6203 36.4195 56.6203 37.4361 56.6203 38.4285C58.0363 38.4285 59.4039 38.4527 60.7594 38.4164C61.183 38.4043 61.6187 38.2591 62.018 38.1018C62.5627 37.8839 62.7442 37.4119 62.7442 36.8552C62.7442 36.2864 62.5022 35.8628 61.9696 35.6449C61.7276 35.5481 61.4613 35.415 61.2072 35.415C59.6943 35.3908 58.1936 35.4029 56.6203 35.4029Z" fill="#A2A3A5"/>
<path d="M22.9864 4.46876C22.5992 5.20702 22.2845 5.82426 21.9577 6.44149C20.9169 8.37792 19.864 10.3022 18.8473 12.2508C18.6416 12.6502 18.4237 12.8438 17.9517 12.8075C17.3708 12.7591 16.7899 12.7954 16.1484 12.7954C16.1726 12.6259 16.1726 12.4807 16.2211 12.3597C17.1893 9.91495 18.1817 7.47022 19.1378 5.01338C19.2951 4.61399 19.4888 4.44456 19.9366 4.45666C20.9169 4.49297 21.8851 4.46876 22.9864 4.46876Z" fill="#A2A3A5"/>
<path d="M97.2364 43.4994C96.7039 43.4994 96.1714 43.4994 95.6025 43.4994C95.6025 41.2725 95.6025 39.0698 95.6025 36.8066C96.1351 36.8066 96.6555 36.8066 97.2364 36.8066C97.2364 39.0214 97.2364 41.2483 97.2364 43.4994Z" fill="#A2A3A5"/>
<path d="M97.9014 3.75448C98.7486 2.82257 99.5836 1.87857 100.443 0.946663C100.528 0.849842 100.685 0.789329 100.818 0.765124C100.951 0.728816 101.109 0.753021 101.254 0.753021C102.972 0.753021 104.679 0.753021 106.397 0.753021C106.41 0.813534 106.422 0.874048 106.434 0.934561C103.614 1.91488 100.794 2.89519 97.974 3.88761C97.9377 3.8392 97.9135 3.79079 97.9014 3.75448Z" fill="#A2A3A5"/>
<path d="M95.6026 34.1445C96.1353 34.1445 96.6075 34.1445 97.1523 34.1445C97.1523 34.6894 97.1523 35.1979 97.1523 35.7306C95.651 36.1785 95.2999 35.8516 95.6026 34.1445Z" fill="#A2A3A5"/>
</svg>
