<svg width="120" height="63" viewBox="0 0 120 63" fill="none" xmlns="http://www.w3.org/2000/svg">
<path d="M15.6617 22.2149C15.5978 22.3627 15.543 22.5197 15.47 22.6583C14.4654 24.8381 13.6343 27.0734 13.1503 29.438C12.712 31.6086 12.575 33.7885 13.0407 35.9683C13.8444 39.6815 16.0727 42.2031 19.5156 43.644C21.5339 44.4845 23.6526 44.7616 25.8261 44.7155C27.7713 44.6693 29.6435 44.2259 31.5065 43.7179C40.3375 41.2886 49.1686 38.8686 57.9905 36.4486C61.9722 35.3587 65.954 34.2595 69.9357 33.1696C70.0818 33.1327 70.2188 33.0865 70.3558 32.9756C66.8763 32.9756 63.3878 32.9756 59.8444 32.9756C59.7257 28.5051 59.6161 24.09 59.4973 19.6748C59.4608 19.6656 59.4334 19.6563 59.3969 19.6471C57.7348 24.0715 56.0727 28.4866 54.4015 32.9295C51.8992 32.9295 49.3969 32.9295 46.8216 32.9295C50.7942 22.1041 54.7668 11.3156 58.7394 0.517944C61.2964 0.517944 63.817 0.517944 66.4197 0.517944C65.2234 3.68613 64.0544 6.81736 62.8763 9.93936C62.8946 9.95783 62.922 9.96707 62.9403 9.98554C63.0407 9.86546 63.1503 9.75462 63.2508 9.63455C65.6343 6.71576 68.0179 3.79697 70.3923 0.878175C70.648 0.591838 70.8763 0.490234 71.2325 0.490234C78.5841 0.499471 85.9266 0.499471 93.2782 0.499471C93.4425 0.499471 93.6069 0.499471 93.8626 0.499471C93.196 2.33757 92.511 4.10178 91.8352 5.90293C89.2782 5.90293 86.7302 5.90293 84.1549 5.90293C83.3238 8.17515 82.5019 10.4197 81.6526 12.7381C84.1001 12.7381 86.4745 12.7381 88.9403 12.7381C88.1731 14.7979 87.4426 16.7745 86.6937 18.7881C84.2553 18.7881 81.8444 18.7881 79.3969 18.7881C78.4288 21.4113 77.4699 24.0068 76.4836 26.6577C79.4517 26.6577 82.3558 26.6577 85.3238 26.6577C85.0316 27.5075 84.7576 28.2926 84.4562 29.1424C84.7028 29.087 84.8763 29.0593 85.0499 29.0131C95.9814 26.0204 106.922 23.0185 117.854 20.0166C118.018 19.9704 118.182 19.915 118.347 19.8965C118.575 19.8688 118.812 19.8041 119.086 20.0073C119.013 20.1274 118.968 20.2844 118.858 20.3583C118.666 20.4969 118.456 20.6077 118.237 20.7001C96.0088 30.4355 73.7896 40.171 51.5613 49.888C44.7942 52.8437 38.0088 55.7718 31.2142 58.6813C28.4745 59.8544 25.6983 60.9443 22.8216 61.7571C20.2006 62.4961 17.543 62.9948 14.8124 62.9394C10.7942 62.8563 7.22339 61.5354 4.1549 58.8845C2.10923 57.1111 1.01334 54.8573 0.757636 52.1602C0.520193 49.6201 0.985947 47.1817 1.7348 44.7801C2.7485 41.5103 4.25535 38.4715 5.97225 35.5342C8.4654 31.2576 11.3604 27.2766 14.4745 23.4526C14.8216 23.0185 15.1777 22.5936 15.5339 22.1595C15.6069 22.1872 15.6343 22.1964 15.6617 22.2149ZM78.2553 1.46009C78.2097 1.42314 78.1549 1.38619 78.1092 1.34925C78.0544 1.44161 78.0179 1.54322 77.954 1.61711C74.3558 5.61659 70.7485 9.62531 67.1412 13.6156C66.9677 13.8095 66.9037 14.0035 66.9129 14.2621C67.0407 18.6588 67.1594 23.0647 67.2873 27.4613C67.3147 28.4774 67.3604 29.5026 67.3969 30.5187C67.4243 30.5279 67.4608 30.5372 67.4882 30.5464C71.0772 20.8479 74.6663 11.1494 78.2553 1.46009Z" fill="#A2A3A5"/>
<path d="M28.8034 0.527344C31.4883 0.527344 34.1459 0.527344 36.8673 0.527344C36.7395 2.9104 36.5751 5.27499 36.4199 7.63957C36.2737 9.99492 36.1185 12.3503 36.018 14.7241C37.8354 10.0134 39.5797 5.27499 41.3514 0.53658C43.8536 0.53658 46.3377 0.53658 48.8217 0.53658C48.8308 0.555054 48.8399 0.56429 48.8491 0.573527C48.8582 0.592 48.8673 0.601237 48.8673 0.61971C48.8582 0.684367 48.8491 0.75826 48.8217 0.822917C44.8582 11.519 40.8856 22.2243 36.913 32.9388C34.1915 32.9388 31.4975 32.9388 28.7304 32.9388C29.0317 28.2558 29.3331 23.6005 29.6345 18.936C29.6071 18.9268 29.5797 18.9175 29.5523 18.9083C27.8262 23.5821 26.1002 28.2466 24.3651 32.9388C21.8536 32.9388 19.3514 32.9388 16.7852 32.9388C20.8034 22.1134 24.8034 11.325 28.8034 0.527344Z" fill="#A2A3A5"/>
<path d="M45.488 32.9388C42.9674 32.9388 40.4743 32.9388 37.9902 32.9388C38.0268 32.5416 49.4514 1.58032 49.9537 0.527344C52.4378 0.527344 54.9309 0.527344 57.5063 0.527344C53.4971 11.3527 49.4971 22.1227 45.488 32.9388Z" fill="#A2A3A5"/>
</svg>
