<svg width="19" height="19" viewBox="0 0 19 19" fill="transparent" xmlns="http://www.w3.org/2000/svg">
<rect width="0.924593" height="12.4164" rx="0.462296" transform="matrix(0.871008 0.491268 -0.47159 0.881818 11.5498 3.43652)"/>
<path fill-rule="evenodd" clip-rule="evenodd" d="M4.9701 7.65385C6.26667 8.38514 7.89502 7.89855 8.60711 6.56702C9.31921 5.23549 8.8454 3.56324 7.54882 2.83194C6.25225 2.10064 4.6239 2.58723 3.91181 3.91877C3.19971 5.2503 3.67353 6.92255 4.9701 7.65385ZM5.3871 6.87612C6.26545 7.37152 7.36854 7.04189 7.85094 6.13986C8.33334 5.23784 8.01236 4.105 7.13402 3.60959C6.25568 3.11419 5.15258 3.44382 4.67018 4.34584C4.18778 5.24787 4.50876 6.38071 5.3871 6.87612Z"/>
<path fill-rule="evenodd" clip-rule="evenodd" d="M10.7709 14.937C12.0675 15.6683 13.6958 15.1818 14.4079 13.8502C15.12 12.5187 14.6462 10.8464 13.3496 10.1151C12.053 9.38385 10.4247 9.87044 9.71259 11.202C9.0005 12.5335 9.47431 14.2058 10.7709 14.937ZM11.1875 14.1593C12.0659 14.6547 13.169 14.3251 13.6514 13.4231C14.1338 12.521 13.8128 11.3882 12.9344 10.8928C12.0561 10.3974 10.953 10.727 10.4706 11.6291C9.9882 12.5311 10.3092 13.6639 11.1875 14.1593Z"/>
<path fill-rule="evenodd" clip-rule="evenodd" d="M5.26172 0.137695C2.5003 0.137695 0.261719 2.37627 0.261719 5.1377V13.1377C0.261719 15.8991 2.50029 18.1377 5.26172 18.1377H12.7891C15.5505 18.1377 17.7891 15.8991 17.7891 13.1377V5.1377C17.7891 2.37627 15.5505 0.137695 12.7891 0.137695H5.26172ZM5.85913 0.75205C3.09771 0.75205 0.859131 2.99063 0.859131 5.75205V12.5235C0.859131 15.2849 3.09771 17.5235 5.85913 17.5235H12.1902C14.9516 17.5235 17.1902 15.2849 17.1902 12.5235V5.75205C17.1902 2.99063 14.9516 0.75205 12.1902 0.75205H5.85913Z"/>
</svg>
