<svg width="106" height="81" viewBox="0 0 106 81" fill="none" xmlns="http://www.w3.org/2000/svg">
<path d="M0.377649 53.362C2.90059 52.5926 5.42353 51.8042 7.95596 51.0633C8.62937 50.8638 9.34073 51.0253 10.0426 50.9968C10.2607 50.9873 10.1849 51.1773 10.1849 51.2818C10.1944 52.0417 10.1849 52.7921 10.1849 53.59C10.5737 53.495 10.8583 53.2385 11.1713 53.0581C12.4233 52.3456 13.6563 51.6047 15.079 51.2723C18.3607 50.4839 21.3769 51.8422 23.0841 54.8534C24.3361 57.0571 24.6681 59.4508 24.431 61.9395C24.2128 64.2668 23.3781 66.347 21.7657 68.0568C20.0205 69.9186 17.8106 70.859 15.3161 71.1915C13.7511 71.4004 12.1767 71.2675 10.6117 71.182C10.2797 71.163 10.1659 71.2295 10.1659 71.5904C10.1849 73.4427 10.1754 75.295 10.1754 77.1378C10.1754 77.4037 10.2133 77.5367 10.5263 77.6032C11.3989 77.7647 12.2525 77.9927 13.1157 78.1827C13.3623 78.2396 13.4476 78.3346 13.4381 78.5911C13.4287 79.0945 13.4571 79.6075 13.4666 80.1109C13.4097 80.1109 13.3528 80.1109 13.2959 80.1109C13.1631 79.9684 12.9924 80.0254 12.8406 80.0254C8.98031 80.0254 5.12002 80.0254 1.25973 80.0254C1.10797 80.0254 0.937248 79.9684 0.804462 80.1109C0.747554 80.1109 0.690645 80.1109 0.633737 80.1109C0.643222 79.598 0.671676 79.0945 0.652706 78.5816C0.643221 78.3251 0.728584 78.2301 0.975187 78.1732C1.715 78.0022 2.43584 77.7932 3.17565 77.6412C3.5171 77.5652 3.62143 77.4417 3.62143 77.0713C3.60246 72.9393 3.61195 68.7977 3.61195 64.6657C3.61195 61.6641 3.60246 58.6624 3.62143 55.6703C3.62143 55.2523 3.49813 55.1763 3.11874 55.1858C2.19872 55.2143 1.28818 55.1858 0.368164 55.1858C0.377649 54.5779 0.377649 53.97 0.377649 53.362ZM10.1849 62.12C10.1849 64.2003 10.1944 66.29 10.1754 68.3703C10.1754 68.7407 10.2797 68.8357 10.6401 68.8167C11.1903 68.7977 11.7499 68.8072 12.3 68.7407C14.4815 68.4843 16.0749 67.4109 16.8526 65.3306C17.6968 63.0699 17.7537 60.7427 17.0518 58.4249C16.5396 56.7341 15.392 55.6608 13.6278 55.2998C12.613 55.0908 11.6076 55.2333 10.5927 55.4043C10.2607 55.4613 10.1754 55.5753 10.1754 55.8982C10.1944 57.9785 10.1849 60.0493 10.1849 62.12Z" fill="#A2A3A5"/>
<path d="M0.813477 80.1212C0.946263 79.9787 1.11699 80.0357 1.26874 80.0357C5.12903 80.0357 8.98932 80.0357 12.8496 80.0357C13.0014 80.0357 13.1721 79.9787 13.3049 80.1212C9.14108 80.1212 4.97728 80.1212 0.813477 80.1212Z" fill="#A2A3A5"/>
<path d="M35.0724 64.2285C35.907 62.8512 36.7417 61.4739 37.5763 60.0965C39.2551 57.3228 40.9339 54.5492 42.6032 51.7755C42.7645 51.5095 42.9352 51.4335 43.2197 51.4335C44.5191 51.4525 45.8091 51.4525 47.1085 51.4335C47.4879 51.424 47.5448 51.5475 47.5448 51.8895C47.5353 56.5629 47.5353 61.2459 47.5353 65.9193C47.5353 66.0808 47.5353 66.2328 47.5353 66.5083C48.0949 65.7579 48.5976 65.0929 49.0908 64.4185C50.1531 62.9937 51.2059 61.5688 52.2682 60.144C52.4294 59.935 52.4863 59.7261 52.4863 59.4601C52.4768 57.1424 52.4863 54.8246 52.4768 52.5069C52.4768 52.1744 52.5812 51.9655 52.8278 51.766C55.0187 49.9422 58.2151 50.9586 58.7652 53.6753C58.9644 54.6726 58.7273 55.613 58.272 56.5059C57.646 57.7313 56.8019 58.8047 55.9672 59.8875C53.1028 63.5921 50.2195 67.2967 47.3551 71.0012C47.1749 71.2292 46.9947 71.3242 46.7006 71.3242C45.1262 71.3052 43.5612 71.3052 41.9867 71.3242C41.6453 71.3242 41.5599 71.2387 41.5599 70.8968C41.5694 67.1067 41.5694 63.3166 41.5694 59.5266C41.5694 59.3746 41.6168 59.2131 41.503 59.0231C41.209 59.5171 40.9244 59.9825 40.6399 60.448C38.5153 63.9531 36.3907 67.4582 34.2661 70.9633C34.1144 71.2102 33.9626 71.3242 33.6496 71.3242C32.2838 71.3052 30.918 71.3052 29.5427 71.3242C29.1823 71.3337 29.0875 71.2482 29.0875 70.8778C29.097 65.8338 29.097 60.7899 29.1064 55.7555C29.1064 55.3851 29.0211 55.2616 28.6512 55.2331C27.6079 55.1571 26.5645 55.0336 25.5212 54.9481C25.2746 54.9291 25.1608 54.8816 25.1798 54.6061C25.2082 54.1977 25.1987 53.7892 25.1798 53.3808C25.1703 53.1243 25.2556 53.0483 25.5022 52.9913C27.7312 52.4974 29.9411 51.956 32.17 51.4905C33.0331 51.31 33.9437 51.462 34.8257 51.4335C35.0534 51.424 34.9775 51.6045 34.9775 51.7185C34.9775 52.6209 34.9775 53.5233 34.9775 54.4257C34.9775 57.6173 34.9775 60.8089 34.9775 64.0006C34.9775 64.0671 34.9775 64.1335 34.9775 64.2095C35.0154 64.2095 35.0439 64.219 35.0724 64.2285Z" fill="#A2A3A5"/>
<path d="M78.3043 65.8627C78.3043 66.9741 78.3043 68.0949 78.3043 69.2158C78.3043 69.4153 78.181 69.4628 78.0482 69.5198C75.9995 70.4602 73.9033 71.2771 71.627 71.4955C69.4266 71.714 67.2166 71.771 65.1205 70.9636C61.9621 69.7383 60.0082 67.354 59.2305 64.1054C58.3579 60.4768 59.0503 57.1237 61.6206 54.312C63.214 52.5642 65.2533 51.5859 67.5486 51.1394C69.9767 50.6645 72.3763 50.693 74.7096 51.6144C75.6296 51.9753 76.4358 52.5072 77.0902 53.2577C78.2663 54.616 78.494 56.5158 77.6308 57.8741C76.8057 59.1755 75.0415 59.7359 73.3248 59.261C72.6798 59.0805 72.0823 58.786 71.4753 58.5011C71.2666 58.3966 71.2761 58.2446 71.2761 58.0736C71.2761 56.5253 71.2666 54.9865 71.2856 53.4381C71.2856 53.1532 71.2476 53.0677 70.9346 53.1437C68.8859 53.6186 67.4632 54.825 66.7898 56.8102C65.9646 59.242 65.9267 61.7117 66.8277 64.1339C67.5581 66.1002 68.9049 67.449 71.039 67.8385C72.3194 68.0759 73.5524 67.8385 74.757 67.392C75.8193 66.9931 76.8341 66.4991 77.8585 66.0147C77.9913 65.9387 78.1051 65.8247 78.3043 65.8627Z" fill="#A2A3A5"/>
<path d="M47.6209 34.6684C47.8106 34.6684 48.0003 34.6589 48.19 34.6589C54.4594 34.6494 60.7383 34.6494 67.0077 34.6494C67.0172 34.6779 67.0362 34.6969 67.0457 34.7254C67.0457 36.2072 67.0457 37.6986 67.0552 39.1804C67.0552 39.4369 67.0172 39.5603 66.7042 39.5603C60.4253 39.5508 54.1464 39.5508 47.8675 39.5508C47.6684 39.5508 47.5166 39.5698 47.5166 39.2754C47.5356 37.7651 47.5356 36.2452 47.5451 34.7349C47.5735 34.7064 47.602 34.6874 47.6209 34.6684Z" fill="#A2A3A5"/>
<path d="M47.6204 34.6682C47.6015 34.6872 47.573 34.7062 47.5541 34.7252C47.5446 34.6683 47.5636 34.6493 47.6204 34.6682Z" fill="#D03C11"/>
<path d="M67.0554 34.6396H47.5264V39.5506H67.0554V34.6396Z" fill="#A2A3A5"/>
<path d="M79.2341 24.8467H67.0557V34.6305H79.2341V24.8467Z" fill="#A2A3A5"/>
<path d="M79.2243 19.9541H67.0459V24.865H79.2243V19.9541Z" fill="#AEB0B1"/>
<path d="M86.5091 4.27148H67.0654V10.2178H86.5091V4.27148Z" fill="#C4C5C7"/>
<path d="M86.5091 0.453125H67.0654V4.27168H86.5091V0.453125Z" fill="#D2D3D5"/>
<path d="M86.4997 24.8467H79.2344V34.6305H86.4997V24.8467Z" fill="#AEB0B1"/>
<path d="M90.3306 24.8369H86.4893V34.6493H90.3306V24.8369Z" fill="#B9BABC"/>
<path d="M100.27 24.8369H90.3115V34.6493H100.27V24.8369Z" fill="#BEBFC1"/>
<path d="M105.203 24.8369H100.271V34.6493H105.203V24.8369Z" fill="#CBCCCE"/>
<path d="M67.0557 19.9731H79.2341V24.8461L86.4899 24.8366L86.5089 10.2178H67.0557V19.9731Z" fill="#B9BABC"/>
<path d="M90.3207 4.27148H86.5078V10.2178H90.3207V4.27148Z" fill="#DEDFE1"/>
<path d="M90.3207 10.2178H86.5078V24.8366H90.3207V10.2178Z" fill="#CBCCCE"/>
<path d="M100.272 10.2178H90.3223V24.8366H100.272V10.2178Z" fill="#DADBDD"/>
</svg>
