<svg width="103" height="74" viewBox="0 0 103 74" fill="none" xmlns="http://www.w3.org/2000/svg">
<path fill-rule="evenodd" clip-rule="evenodd" d="M40.8427 0.333984L42.757 4.98287C30.1517 8.0826 20.5786 16.6058 20.5786 28.2301C20.5786 39.5429 29.9924 47.4459 42.4377 48.3762C42.4377 61.549 35.2575 73.0168 22.1744 73.0168C9.24904 73.0161 0.953125 61.8577 0.953125 45.4315C0.953125 21.7198 20.2593 4.05254 40.8427 0.333984ZM100.665 0.333984L102.58 4.98287C89.9745 8.0826 80.4014 16.6058 80.4014 28.2294C80.4014 39.5422 89.8152 47.4452 102.261 48.3755C102.261 61.5483 95.0804 73.0162 81.9972 73.0162C69.0718 73.0162 60.7759 61.8577 60.7759 45.4315C60.7759 21.7198 80.0821 4.05254 100.665 0.333984Z" fill="#F9FBFE"/>
</svg>
