<svg width="21" height="21" viewBox="0 0 21 21" fill="transparent" xmlns="http://www.w3.org/2000/svg">
<path d="M10.4844 12.8496C11.8651 12.8496 12.9844 11.7303 12.9844 10.3496C12.9844 8.9689 11.8651 7.84961 10.4844 7.84961C9.10366 7.84961 7.98438 8.9689 7.98438 10.3496C7.98438 11.7303 9.10366 12.8496 10.4844 12.8496Z" stroke="#0AC789" stroke-width="1.66667" stroke-linecap="round" stroke-linejoin="round"/>
<path d="M16.6497 12.8503C16.5388 13.1016 16.5057 13.3804 16.5547 13.6507C16.6038 13.9211 16.7326 14.1705 16.9247 14.3669L16.9747 14.4169C17.1297 14.5717 17.2526 14.7555 17.3365 14.9579C17.4204 15.1602 17.4635 15.3771 17.4635 15.5961C17.4635 15.8151 17.4204 16.032 17.3365 16.2343C17.2526 16.4367 17.1297 16.6205 16.9747 16.7753C16.82 16.9302 16.6361 17.0532 16.4338 17.137C16.2315 17.2209 16.0146 17.2641 15.7956 17.2641C15.5765 17.2641 15.3597 17.2209 15.1573 17.137C14.955 17.0532 14.7712 16.9302 14.6164 16.7753L14.5664 16.7253C14.37 16.5331 14.1206 16.4043 13.8502 16.3553C13.5799 16.3062 13.3011 16.3393 13.0497 16.4503C12.8033 16.5559 12.5931 16.7313 12.445 16.9549C12.2969 17.1784 12.2175 17.4404 12.2164 17.7086V17.8503C12.2164 18.2923 12.0408 18.7162 11.7282 19.0288C11.4157 19.3413 10.9918 19.5169 10.5497 19.5169C10.1077 19.5169 9.68379 19.3413 9.37123 19.0288C9.05867 18.7162 8.88307 18.2923 8.88307 17.8503V17.7753C8.87662 17.4994 8.78734 17.2319 8.62683 17.0075C8.46632 16.7831 8.24202 16.6122 7.98307 16.5169C7.73173 16.406 7.45291 16.3729 7.18258 16.4219C6.91225 16.4709 6.6628 16.5998 6.46641 16.7919L6.41641 16.8419C6.26162 16.9969 6.0778 17.1198 5.87547 17.2037C5.67314 17.2876 5.45626 17.3307 5.23724 17.3307C5.01821 17.3307 4.80134 17.2876 4.59901 17.2037C4.39668 17.1198 4.21286 16.9969 4.05807 16.8419C3.90311 16.6871 3.78018 16.5033 3.69631 16.301C3.61243 16.0987 3.56926 15.8818 3.56926 15.6628C3.56926 15.4437 3.61243 15.2269 3.69631 15.0245C3.78018 14.8222 3.90311 14.6384 4.05807 14.4836L4.10807 14.4336C4.30019 14.2372 4.42906 13.9877 4.47808 13.7174C4.52709 13.4471 4.494 13.1683 4.38307 12.9169C4.27744 12.6705 4.10204 12.4602 3.87846 12.3122C3.65489 12.1641 3.39289 12.0847 3.12474 12.0836H2.98307C2.54105 12.0836 2.11712 11.908 1.80456 11.5954C1.492 11.2829 1.31641 10.859 1.31641 10.4169C1.31641 9.9749 1.492 9.55098 1.80456 9.23842C2.11712 8.92585 2.54105 8.75026 2.98307 8.75026H3.05807C3.3339 8.74381 3.60141 8.65453 3.82582 8.49402C4.05023 8.33351 4.22117 8.10921 4.31641 7.85026C4.42734 7.59891 4.46043 7.3201 4.41141 7.04977C4.36239 6.77944 4.23352 6.52999 4.04141 6.33359L3.99141 6.28359C3.83645 6.1288 3.71351 5.94499 3.62964 5.74266C3.54577 5.54033 3.50259 5.32345 3.50259 5.10443C3.50259 4.8854 3.54577 4.66852 3.62964 4.46619C3.71351 4.26386 3.83645 4.08005 3.99141 3.92526C4.14619 3.7703 4.33001 3.64737 4.53234 3.56349C4.73467 3.47962 4.95155 3.43645 5.17057 3.43645C5.3896 3.43645 5.60648 3.47962 5.80881 3.56349C6.01114 3.64737 6.19495 3.7703 6.34974 3.92526L6.39974 3.97526C6.59614 4.16737 6.84559 4.29625 7.11591 4.34526C7.38624 4.39428 7.66506 4.36119 7.91641 4.25026H7.98307C8.22955 4.14462 8.43975 3.96922 8.58782 3.74565C8.73588 3.52207 8.81534 3.26008 8.81641 2.99193V2.85026C8.81641 2.40823 8.992 1.98431 9.30456 1.67175C9.61712 1.35919 10.041 1.18359 10.4831 1.18359C10.9251 1.18359 11.349 1.35919 11.6616 1.67175C11.9741 1.98431 12.1497 2.40823 12.1497 2.85026V2.92526C12.1508 3.19342 12.2303 3.45541 12.3783 3.67898C12.5264 3.90256 12.7366 4.07796 12.9831 4.18359C13.2344 4.29452 13.5132 4.32761 13.7836 4.2786C14.0539 4.22958 14.3033 4.10071 14.4997 3.90859L14.5497 3.85859C14.7045 3.70363 14.8883 3.5807 15.0907 3.49683C15.293 3.41295 15.5099 3.36978 15.7289 3.36978C15.9479 3.36978 16.1648 3.41295 16.3671 3.49683C16.5695 3.5807 16.7533 3.70363 16.9081 3.85859C17.063 4.01338 17.186 4.1972 17.2698 4.39953C17.3537 4.60186 17.3969 4.81873 17.3969 5.03776C17.3969 5.25679 17.3537 5.47366 17.2698 5.67599C17.186 5.87832 17.063 6.06214 16.9081 6.21693L16.8581 6.26693C16.666 6.46333 16.5371 6.71277 16.4881 6.9831C16.4391 7.25343 16.4721 7.53225 16.5831 7.78359V7.85026C16.6887 8.09673 16.8641 8.30694 17.0877 8.455C17.3113 8.60307 17.5732 8.68252 17.8414 8.68359H17.9831C18.4251 8.68359 18.849 8.85919 19.1616 9.17175C19.4741 9.48431 19.6497 9.90823 19.6497 10.3503C19.6497 10.7923 19.4741 11.2162 19.1616 11.5288C18.849 11.8413 18.4251 12.0169 17.9831 12.0169H17.9081C17.6399 12.018 17.3779 12.0975 17.1544 12.2455C16.9308 12.3936 16.7554 12.6038 16.6497 12.8503V12.8503Z" stroke="#0AC789" stroke-width="1.66667" stroke-linecap="round" stroke-linejoin="round"/>
</svg>
