<svg width="195" height="192" viewBox="0 0 195 192" fill="none" xmlns="http://www.w3.org/2000/svg">
<path d="M169.24 116.835C169.389 116.755 169.536 116.676 169.683 116.597C171.353 115.701 172.85 114.897 174.203 114.277C174.113 114.226 174.024 114.175 173.935 114.125M169.24 116.835L129.511 104.735C135.899 100.854 146.594 100.975 151.858 102.557C158.134 104.449 162.933 107.315 168.47 110.622L168.583 110.689M169.24 116.835C163.275 120.059 155.85 124.063 147.278 124.783L169.24 116.835ZM173.935 114.125C174.029 114.081 174.122 114.038 174.215 113.996C172.239 112.877 170.387 111.776 168.583 110.689M173.935 114.125C172.617 114.738 171.167 115.517 169.567 116.375C169.42 116.454 169.271 116.534 169.121 116.615L169.121 116.615C163.151 119.842 155.77 123.819 147.257 124.534L147.257 124.534C141.147 125.051 134.658 123.083 129.909 119.264C128.33 117.994 127.057 116.591 126.18 115.203C125.308 113.823 124.837 112.474 124.831 111.296C125.379 108.699 126.981 106.561 129.64 104.949L129.64 104.949C132.786 103.038 137.011 102.103 141.121 101.847C145.23 101.591 149.189 102.016 151.786 102.796C158.032 104.679 162.808 107.532 168.352 110.843L168.454 110.904L168.583 110.689M173.935 114.125C172.015 113.035 170.211 111.962 168.454 110.904L168.455 110.904L168.583 110.689" fill="white" stroke="#0AC789" stroke-width="0.5"/>
<path d="M171.932 114.065L171.527 114.275C170.799 114.652 170.035 115.063 169.229 115.497C169.049 115.593 168.868 115.691 168.684 115.79L171.932 114.065ZM171.932 114.065L171.538 113.836C170.43 113.194 169.357 112.549 168.297 111.911C168.186 111.844 168.076 111.778 167.966 111.712L167.965 111.711L167.932 111.692C162.44 108.401 157.67 105.543 151.502 103.692C148.963 102.927 145.141 102.516 141.202 102.754C137.265 102.992 133.176 103.88 130.118 105.743C127.736 107.186 126.301 109.026 125.777 111.336L125.77 111.368L125.771 111.401C125.814 112.475 126.309 113.698 127.126 114.92C127.946 116.147 129.103 117.392 130.499 118.515C135.072 122.192 141.307 124.089 147.193 123.594C155.519 122.904 162.833 118.952 168.672 115.796L168.683 115.79L171.932 114.065ZM147.381 125.984L147.381 125.984C140.164 126.589 133.485 123.988 129.015 120.394C125.451 117.528 123.344 114.08 123.397 111.154C124.491 105.552 129.6 102.495 135.548 101.148C141.495 99.8019 148.178 100.194 152.214 101.407C156.988 102.844 160.942 104.843 164.942 107.144C166.335 107.945 167.736 108.785 169.181 109.65C171.709 111.166 174.37 112.76 177.347 114.365C176.038 114.711 174.493 115.425 172.753 116.323C171.827 116.801 170.84 117.335 169.797 117.898C169.683 117.96 169.568 118.022 169.452 118.084C168.281 118.717 167.042 119.383 165.738 120.051C160.52 122.723 154.289 125.407 147.381 125.984Z" fill="black" stroke="#0AC789" stroke-width="0.5"/>
<path d="M146.748 124.945C146.467 124.751 146.136 124.5 145.774 124.199C144.717 123.319 143.426 122.032 142.443 120.526L142.435 120.514L142.426 120.502C141.215 119.048 140.464 117.334 140.016 115.977C139.793 115.3 139.646 114.715 139.556 114.3C139.521 114.142 139.495 114.009 139.476 113.905L141.457 113.693C141.463 113.775 141.47 113.873 141.481 113.986C141.516 114.354 141.583 114.882 141.707 115.506C141.954 116.748 142.431 118.382 143.347 119.898C144.129 121.568 145.163 122.991 145.985 124.02C146.27 124.377 146.533 124.689 146.748 124.945Z" fill="black" stroke="#0AC789" stroke-width="0.5"/>
<path d="M150.421 124.817C150.145 124.624 149.822 124.379 149.472 124.088C148.414 123.208 147.123 121.92 146.14 120.414L146.132 120.402L146.123 120.391C144.912 118.936 144.161 117.222 143.713 115.866C143.49 115.188 143.343 114.603 143.253 114.189C143.219 114.031 143.192 113.897 143.173 113.794L145.154 113.582C145.16 113.663 145.168 113.762 145.179 113.875C145.214 114.243 145.28 114.771 145.404 115.394C145.651 116.636 146.128 118.27 147.045 119.786C147.819 121.457 148.849 122.881 149.672 123.91C149.95 124.258 150.207 124.564 150.421 124.817Z" fill="black" stroke="#0AC789" stroke-width="0.5"/>
<path d="M152.634 123.517C152.546 123.449 152.456 123.377 152.363 123.301C151.374 122.493 150.184 121.283 149.307 119.852L149.299 119.839L149.29 119.827C148.205 118.455 147.524 116.85 147.115 115.581C146.911 114.948 146.776 114.401 146.692 114.015C146.662 113.876 146.639 113.758 146.622 113.664L148.393 113.475C148.387 113.56 148.39 113.65 148.397 113.742C148.426 114.103 148.542 114.593 148.716 115.154C149.064 116.283 149.661 117.762 150.33 119.215C150.999 120.668 151.746 122.105 152.398 123.149C152.478 123.277 152.557 123.4 152.634 123.517Z" fill="black" stroke="#0AC789" stroke-width="0.5"/>
<path d="M142.182 124.665C141.927 124.449 141.626 124.182 141.298 123.867C140.32 122.929 139.112 121.572 138.184 119.877L138.184 119.877L138.178 119.867C137.218 118.303 136.609 116.514 136.244 115.104C136.061 114.401 135.941 113.796 135.868 113.365C135.839 113.196 135.818 113.054 135.803 112.945L137.799 112.926C137.801 113.008 137.805 113.109 137.811 113.226C137.83 113.588 137.87 114.11 137.954 114.739C138.122 115.996 138.466 117.689 139.173 119.396C139.759 121.043 140.736 122.562 141.506 123.687C141.638 123.88 141.764 124.06 141.88 124.227C141.989 124.385 142.091 124.531 142.182 124.665Z" fill="black" stroke="#0AC789" stroke-width="0.5"/>
<path d="M132.243 112.778C132.221 112.668 132.201 112.571 132.183 112.489L134.174 112.333C134.182 112.415 134.191 112.52 134.202 112.649C134.203 112.66 134.204 112.672 134.205 112.683C134.235 113.046 134.279 113.56 134.36 114.171C134.527 115.43 134.855 117.107 135.571 118.739C136.253 120.361 137.238 121.813 138.028 122.88C138.27 123.207 138.5 123.507 138.695 123.76C138.713 123.784 138.731 123.807 138.748 123.83C138.483 123.63 138.172 123.378 137.835 123.078C136.819 122.177 135.573 120.858 134.602 119.264L134.602 119.264L134.599 119.26C133.604 117.687 133.008 115.924 132.646 114.549C132.466 113.863 132.344 113.277 132.26 112.862C132.254 112.833 132.248 112.805 132.243 112.778ZM134.399 112.316C134.39 112.317 134.381 112.318 134.373 112.318L134.388 112.317L134.399 112.316Z" fill="black" stroke="#0AC789" stroke-width="0.5"/>
<path d="M128.911 112.211C128.889 112.102 128.869 112.005 128.851 111.922L130.841 111.767C130.85 111.849 130.859 111.954 130.87 112.083C130.871 112.094 130.872 112.105 130.873 112.117C130.903 112.48 130.947 112.994 131.028 113.605C131.195 114.863 131.523 116.54 132.239 118.172C132.921 119.794 133.906 121.247 134.696 122.313C134.938 122.641 135.168 122.941 135.363 123.194C135.381 123.217 135.399 123.24 135.416 123.263C135.151 123.064 134.84 122.812 134.503 122.512C133.487 121.611 132.241 120.292 131.269 118.697L131.27 118.697L131.267 118.694C130.272 117.121 129.676 115.357 129.314 113.983C129.134 113.297 129.012 112.711 128.928 112.296C128.922 112.267 128.916 112.239 128.911 112.211ZM131.067 111.749C131.058 111.751 131.049 111.751 131.041 111.751L131.056 111.75L131.067 111.749Z" fill="black" stroke="#0AC789" stroke-width="0.5"/>
<path d="M132.622 122.667C132.356 122.467 132.043 122.214 131.704 121.912C130.688 121.011 129.442 119.692 128.471 118.098L128.471 118.098L128.468 118.094C127.473 116.521 126.877 114.758 126.516 113.383C126.335 112.697 126.213 112.111 126.129 111.696C126.123 111.667 126.118 111.639 126.112 111.612C126.09 111.502 126.07 111.405 126.053 111.323L128.043 111.167C128.051 111.249 128.06 111.354 128.071 111.483C128.072 111.494 128.073 111.506 128.074 111.517C128.104 111.88 128.148 112.394 128.229 113.005C128.396 114.264 128.725 115.941 129.441 117.573C130.126 119.198 131.113 120.652 131.903 121.719C132.142 122.042 132.371 122.34 132.564 122.591C132.584 122.617 132.603 122.642 132.622 122.667ZM128.257 111.151L128.268 111.15C128.259 111.151 128.25 111.152 128.242 111.152L128.257 111.151Z" fill="black" stroke="#0AC789" stroke-width="0.5"/>
<path d="M124.415 110.629C124.393 110.52 124.373 110.423 124.355 110.34L126.345 110.185C126.354 110.267 126.363 110.372 126.374 110.501C126.375 110.512 126.376 110.523 126.377 110.535C126.407 110.897 126.45 111.412 126.532 112.023C126.699 113.281 127.027 114.958 127.743 116.59C128.425 118.212 129.41 119.665 130.199 120.731C130.442 121.059 130.672 121.359 130.867 121.612C130.885 121.635 130.903 121.658 130.92 121.681C130.655 121.482 130.344 121.23 130.007 120.93C128.991 120.029 127.745 118.709 126.773 117.115L126.773 117.115L126.771 117.112C125.776 115.539 125.18 113.775 124.818 112.401C124.638 111.715 124.516 111.129 124.432 110.714C124.426 110.685 124.42 110.657 124.415 110.629ZM126.571 110.167C126.562 110.169 126.553 110.169 126.545 110.169L126.56 110.168L126.571 110.167Z" fill="black" stroke="#0AC789" stroke-width="0.5"/>
<path d="M155.391 122.437C155.593 122.731 155.784 122.988 155.949 123.203C155.73 123.058 155.479 122.87 155.209 122.641C154.361 121.92 153.357 120.817 152.649 119.448L152.649 119.448L152.646 119.442C151.875 118.039 151.372 116.637 151.067 115.647C150.919 115.168 150.818 114.786 150.755 114.548C150.753 114.54 150.751 114.533 150.749 114.525L150.747 114.518C150.744 114.509 150.742 114.5 150.74 114.491L152.423 113.305C152.461 113.415 152.498 113.56 152.535 113.741C152.598 114.053 152.657 114.445 152.725 114.896C152.739 114.988 152.753 115.082 152.767 115.178C152.938 116.306 153.171 117.716 153.642 118.973C154.07 120.337 154.785 121.554 155.391 122.437Z" fill="black" stroke="#0AC789" stroke-width="0.5"/>
<path d="M159.876 121.994C159.664 121.871 159.412 121.711 159.133 121.516C158.327 120.951 157.317 120.104 156.458 119.04L156.451 119.031L156.443 119.023C155.438 117.987 154.883 116.714 154.571 115.691C154.416 115.181 154.322 114.737 154.262 114.42C154.245 114.33 154.232 114.255 154.22 114.19L156.196 114.059C156.196 114.091 156.197 114.127 156.198 114.167C156.202 114.428 156.216 114.809 156.27 115.259C156.378 116.151 156.648 117.33 157.339 118.38C157.924 119.516 158.712 120.544 159.321 121.305C159.418 121.425 159.509 121.538 159.595 121.644C159.698 121.772 159.793 121.888 159.876 121.994Z" fill="black" stroke="#0AC789" stroke-width="0.5"/>
<path d="M158.08 114.973C158.069 114.94 158.058 114.91 158.048 114.881L159.992 114.509C159.992 114.513 159.993 114.517 159.993 114.521C160.015 114.702 160.049 114.962 160.115 115.271C160.246 115.887 160.5 116.704 161.017 117.484L161.017 117.484L161.024 117.494C161.554 118.216 162.172 118.909 162.65 119.445C162.667 119.464 162.684 119.483 162.701 119.502C162.871 119.693 163.02 119.861 163.14 120.001C162.972 119.936 162.769 119.845 162.541 119.731C161.887 119.404 161.044 118.894 160.23 118.26C159.41 117.58 158.84 116.663 158.474 115.91C158.292 115.535 158.163 115.205 158.08 114.973ZM157.678 114.443L157.695 114.535L163.857 120.496L163.863 120.485C163.926 120.389 163.911 120.289 163.9 120.244C163.888 120.193 163.865 120.146 163.845 120.11C163.803 120.035 163.741 119.949 163.67 119.859C163.526 119.677 163.315 119.439 163.074 119.169C163.058 119.152 163.043 119.134 163.027 119.117C162.548 118.579 161.945 117.903 161.43 117.203C160.961 116.494 160.726 115.744 160.604 115.167C160.543 114.879 160.51 114.635 160.49 114.463C160.485 114.423 160.481 114.383 160.477 114.347C160.473 114.31 160.469 114.278 160.467 114.256C160.464 114.232 160.46 114.204 160.455 114.181C160.453 114.171 160.448 114.147 160.437 114.121C160.432 114.109 160.419 114.079 160.391 114.048C160.362 114.016 160.288 113.953 160.175 113.965L160.165 113.966L160.156 113.968L157.678 114.443Z" fill="black" stroke="#0AC789" stroke-width="0.5"/>
<path d="M163.305 114.604C163.337 114.782 163.422 114.996 163.53 115.219C163.765 115.702 164.156 116.322 164.576 116.928C164.998 117.536 165.457 118.141 165.832 118.595C166.003 118.803 166.159 118.982 166.288 119.117C166.147 119.086 165.962 119.009 165.738 118.882C165.212 118.582 164.561 118.055 163.946 117.458C163.332 116.861 162.769 116.21 162.413 115.67C162.234 115.399 162.117 115.17 162.067 115C162.044 114.922 162.039 114.873 162.04 114.844L163.305 114.604Z" fill="black" stroke="#0AC789" stroke-width="0.5"/>
<path d="M166.088 114.847L167.201 114.631C167.214 114.775 167.265 114.926 167.329 115.07C167.477 115.404 167.739 115.793 168.019 116.166C168.301 116.543 168.613 116.919 168.87 117.228C168.882 117.242 168.894 117.257 168.906 117.271C169.003 117.387 169.089 117.49 169.162 117.578C169.064 117.57 168.949 117.553 168.822 117.524C168.376 117.426 167.821 117.2 167.373 116.798L167.355 116.782L167.334 116.769C166.783 116.442 166.447 115.862 166.253 115.362C166.175 115.163 166.122 114.983 166.088 114.847ZM169.455 117.569C169.455 117.569 169.454 117.57 169.451 117.571C169.453 117.57 169.455 117.569 169.455 117.569Z" fill="black" stroke="#0AC789" stroke-width="0.5"/>
<path d="M124.638 113.103L126.155 108.755C126.19 108.765 126.226 108.775 126.265 108.786C126.56 108.867 127.028 108.977 127.64 109.11C128.866 109.376 130.686 109.736 132.899 110.136C137.323 110.938 143.323 111.904 149.287 112.614C155.282 113.503 161.287 113.906 165.803 114.086C168.062 114.175 169.949 114.209 171.278 114.22C171.942 114.225 172.466 114.225 172.828 114.223C172.852 114.223 172.876 114.223 172.899 114.223C172.853 114.25 172.801 114.277 172.74 114.306C172.413 114.459 171.916 114.599 171.258 114.723C169.948 114.969 168.066 115.139 165.793 115.244C161.25 115.453 155.183 115.399 149.093 115.189C143.004 114.979 136.898 114.614 132.28 114.202C129.969 113.996 128.035 113.779 126.662 113.564C125.974 113.456 125.434 113.35 125.06 113.248C124.872 113.197 124.736 113.149 124.646 113.107C124.643 113.106 124.641 113.104 124.638 113.103ZM124.558 113.055C124.558 113.055 124.558 113.055 124.559 113.056L124.558 113.055Z" fill="black" stroke="#0AC789" stroke-width="0.5"/>
<path d="M141.667 101.284C141.274 101.376 140.81 101.497 140.305 101.664C138.803 102.159 136.925 103.054 135.5 104.756C133.973 106.379 132.76 108.075 131.982 109.333C131.593 109.961 131.31 110.485 131.151 110.838C131.107 110.934 131.07 111.025 131.042 111.105L129.035 110.96C129.041 110.935 129.048 110.906 129.057 110.874C129.102 110.719 129.187 110.515 129.315 110.267C129.569 109.773 129.975 109.136 130.501 108.428C131.552 107.012 133.066 105.333 134.761 103.971L134.768 103.965L134.774 103.959C136.523 102.336 138.605 101.652 140.236 101.404C140.774 101.323 141.261 101.289 141.667 101.284Z" fill="black" stroke="#0AC789" stroke-width="0.5"/>
<path d="M133.687 102.323C133.632 102.373 133.576 102.424 133.52 102.477C132.737 103.218 131.794 104.429 130.91 105.653C130.164 106.688 129.452 107.744 128.905 108.555C128.802 108.707 128.705 108.85 128.615 108.983C128.396 109.306 128.22 109.564 128.095 109.737L126.246 109.604C126.782 109.139 127.1 108.863 127.279 108.708L127.462 108.549L127.479 108.535L127.481 108.533L127.481 108.532L127.482 108.532L127.482 108.532L127.483 108.53C127.484 108.53 127.5 108.514 127.514 108.498C127.514 108.497 127.514 108.497 127.514 108.496L127.95 108.11L127.294 108.184C127.22 108.154 127.157 108.152 127.156 108.152L127.156 108.153L127.155 108.153L127.154 108.154L127.154 108.154L127.152 108.156L127.141 108.166C127.131 108.174 127.118 108.185 127.103 108.199L127.052 108.206C127.112 108.147 127.177 108.068 127.252 107.962C127.643 107.555 128.08 107.064 128.541 106.545L128.559 106.525C129.034 105.991 129.537 105.426 130.053 104.881L130.067 104.866L130.078 104.849C130.97 103.523 132.336 102.737 133.447 102.392C133.529 102.367 133.609 102.344 133.687 102.323Z" fill="black" stroke="#0AC789" stroke-width="0.5"/>
<path d="M134.605 111.449L133.009 110.259C133.056 110.198 133.113 110.123 133.177 110.037C133.23 109.967 133.288 109.889 133.352 109.806C133.691 109.358 134.192 108.715 134.841 107.993C136.139 106.547 138.021 104.792 140.369 103.655L140.382 103.648L140.394 103.64C142.62 102.221 145.078 101.692 146.948 101.595C147.536 101.564 148.063 101.577 148.503 101.617C148.062 101.66 147.545 101.734 146.976 101.852C145.22 102.216 142.956 102.999 140.932 104.575C138.814 105.88 137.236 107.661 136.165 109.106C135.629 109.831 135.218 110.474 134.931 110.932C134.896 110.988 134.862 111.041 134.831 111.091C134.739 111.238 134.664 111.358 134.605 111.449Z" fill="black" stroke="#0AC789" stroke-width="0.5"/>
<path d="M138.208 112.392L136.612 111.203C136.66 111.141 136.716 111.066 136.78 110.981C136.833 110.91 136.892 110.833 136.955 110.749C137.295 110.302 137.795 109.659 138.444 108.937C139.743 107.49 141.624 105.736 143.972 104.598L143.985 104.592L143.998 104.584C146.223 103.157 148.679 102.626 150.547 102.531C151.151 102.5 151.69 102.514 152.136 102.558C151.689 102.6 151.161 102.675 150.58 102.796C148.823 103.16 146.56 103.943 144.535 105.518C142.417 106.823 140.839 108.605 139.769 110.05C139.232 110.775 138.821 111.418 138.534 111.875C138.499 111.931 138.466 111.984 138.435 112.034C138.342 112.182 138.268 112.302 138.208 112.392Z" fill="black" stroke="#0AC789" stroke-width="0.5"/>
<path d="M142.289 113.23L140.691 112.039C140.738 111.977 140.794 111.902 140.858 111.817C140.912 111.746 140.97 111.669 141.033 111.585C141.373 111.138 141.874 110.495 142.522 109.773C143.821 108.326 145.703 106.571 148.05 105.434L148.063 105.428L148.076 105.42C150.302 104 152.759 103.471 154.63 103.375C155.231 103.344 155.768 103.358 156.213 103.401C155.768 103.443 155.243 103.518 154.666 103.638C152.909 104.002 150.646 104.785 148.621 106.36C146.508 107.669 144.929 109.45 143.857 110.893C143.319 111.617 142.907 112.259 142.619 112.715C142.59 112.759 142.563 112.802 142.538 112.843C142.435 113.005 142.354 113.134 142.289 113.23Z" fill="black" stroke="#0AC789" stroke-width="0.5"/>
<path d="M146.216 114.419L144.621 113.231C144.677 113.159 144.744 113.07 144.822 112.968C144.859 112.918 144.899 112.865 144.942 112.809C145.262 112.388 145.73 111.783 146.336 111.1C147.549 109.734 149.306 108.067 151.509 106.95L151.509 106.95L151.513 106.948C153.648 105.811 155.878 104.888 157.669 104.749C158.268 104.716 158.772 104.784 159.175 104.889C158.751 104.923 158.251 104.994 157.699 105.116C156.076 105.474 153.991 106.271 152.103 107.857C150.153 109.118 148.683 110.827 147.679 112.207C147.176 112.899 146.788 113.512 146.516 113.946C146.499 113.974 146.482 114.001 146.465 114.027C146.362 114.192 146.28 114.323 146.216 114.419Z" fill="black" stroke="#0AC789" stroke-width="0.5"/>
<path d="M159.807 106.42C159.699 106.49 159.581 106.565 159.455 106.646C159.272 106.763 159.071 106.891 158.854 107.031C157.787 107.723 156.388 108.677 155.134 109.843L155.134 109.843L155.131 109.846C153.97 110.961 152.979 112.317 152.273 113.381C151.922 113.909 151.64 114.366 151.442 114.689L151.436 114.698C151.368 114.809 151.311 114.901 151.265 114.974L149.684 113.796C149.739 113.728 149.805 113.646 149.88 113.552L149.888 113.541C150.125 113.244 150.463 112.819 150.894 112.324C151.755 111.333 152.982 110.064 154.485 108.984C155.94 107.981 157.519 107.248 158.737 106.787C159.141 106.634 159.503 106.512 159.807 106.42ZM151.317 115.325L149.519 113.985L151.466 115.124C151.465 115.126 151.464 115.127 151.463 115.129C151.447 115.155 151.431 115.179 151.418 115.2C151.36 115.288 151.326 115.332 151.317 115.325ZM151.238 115.09C151.28 115.075 151.375 115.057 151.464 115.123L151.152 115.144C151.154 115.142 151.16 115.136 151.168 115.129C151.174 115.124 151.199 115.104 151.238 115.09ZM149.509 113.68L149.367 113.782C149.396 113.752 149.434 113.707 149.482 113.648C149.492 113.658 149.501 113.668 149.509 113.68Z" fill="black" stroke="#0AC789" stroke-width="0.5"/>
<path d="M163.102 107.461C162.866 107.611 162.582 107.793 162.272 108.004C161.35 108.63 160.166 109.533 159.161 110.74C158.197 111.793 157.341 113.022 156.721 113.977C156.431 114.424 156.192 114.813 156.017 115.097C156.005 115.117 155.993 115.137 155.981 115.156C155.928 115.242 155.882 115.316 155.844 115.377L154.264 114.199C154.311 114.143 154.366 114.076 154.427 114.001L154.433 113.993C154.645 113.734 154.947 113.366 155.326 112.933C156.093 112.057 157.175 110.921 158.467 109.898L158.467 109.898L158.474 109.892C159.656 108.881 161.044 108.185 162.139 107.774C162.501 107.638 162.828 107.535 163.102 107.461ZM155.727 115.555C155.727 115.555 155.727 115.554 155.728 115.553C155.727 115.554 155.727 115.555 155.727 115.555Z" fill="black" stroke="#0AC789" stroke-width="0.5"/>
<path d="M158.93 114.279C158.93 114.279 158.93 114.278 158.93 114.277L158.93 114.279ZM158.991 114.172C159.01 114.143 159.034 114.109 159.063 114.07C159.203 113.881 159.428 113.616 159.717 113.298C160.294 112.665 161.109 111.845 161.958 111.061C162.808 110.276 163.685 109.534 164.385 109.053C164.66 108.864 164.898 108.721 165.092 108.631C164.936 108.808 164.74 109.034 164.517 109.293C163.974 109.926 163.267 110.762 162.572 111.607C161.878 112.452 161.193 113.307 160.695 113.974C160.446 114.307 160.241 114.599 160.103 114.821C160.076 114.865 160.05 114.908 160.027 114.948L158.991 114.172Z" fill="black" stroke="#0AC789" stroke-width="0.5"/>
<path d="M167.631 110.541C167.874 110.405 168.08 110.311 168.242 110.26C168.17 110.339 168.088 110.43 167.996 110.531C167.922 110.613 167.841 110.702 167.756 110.796C167.308 111.29 166.722 111.939 166.145 112.591C165.569 113.243 165 113.901 164.587 114.413C164.38 114.668 164.209 114.892 164.094 115.063C164.084 115.079 164.073 115.095 164.063 115.11L163.028 114.335C163.04 114.32 163.052 114.304 163.067 114.287C163.188 114.139 163.383 113.933 163.633 113.689C164.132 113.203 164.832 112.582 165.56 111.998C166.29 111.413 167.037 110.872 167.631 110.541Z" fill="black" stroke="#0AC789" stroke-width="0.5"/>
<path d="M170.515 111.614C170.705 111.542 170.855 111.506 170.962 111.499C170.87 111.605 170.746 111.743 170.6 111.902C170.497 112.014 170.384 112.138 170.264 112.268C170.035 112.517 169.782 112.791 169.534 113.066C169.156 113.484 168.783 113.909 168.515 114.252C168.395 114.405 168.291 114.549 168.217 114.671L167.187 113.899C167.265 113.806 167.39 113.681 167.557 113.533C167.917 113.213 168.436 112.816 168.979 112.455C169.525 112.093 170.08 111.778 170.515 111.614Z" fill="black" stroke="#0AC789" stroke-width="0.5"/>
<path d="M139.296 77.4471L139.297 77.4471C143.551 77.2547 148.997 78.3619 154.105 79.8082C158.953 81.1806 163.475 82.8514 166.347 83.9821C163.64 85.8507 161.13 88.3342 158.534 90.9028L158.503 90.9333L158.503 90.9335C153.3 96.091 147.969 101.366 139.865 103.486C133.989 105.021 127.427 103.378 121.838 100.988C116.423 98.6715 111.961 95.6709 109.993 94.2591C115.585 83.3831 128.906 77.9083 139.296 77.4471Z" fill="white" stroke="#0AC789" stroke-width="0.5"/>
<path d="M164.064 84.5117L164.407 84.237L163.996 84.0824C160.807 82.8849 156.476 81.379 152.031 80.214C147.59 79.0503 143.013 78.2211 139.338 78.3899C129.554 78.8223 117.033 83.8057 111.329 93.762L111.215 93.961L111.403 94.0917C113.785 95.7434 118.197 98.5469 123.329 100.595C128.456 102.641 134.338 103.948 139.642 102.559C147.509 100.502 152.789 95.2701 157.841 90.2644L157.849 90.2568L157.849 90.2565L157.86 90.2458C159.946 88.1857 161.961 86.1948 164.064 84.5117ZM169.229 83.5714C169.359 83.6257 169.476 83.6745 169.577 83.7174C167.436 84.7929 165.45 86.3458 163.484 88.1276C162.169 89.319 160.853 90.6229 159.504 91.9596C158.685 92.7715 157.853 93.5955 157.002 94.4137C152.483 98.7594 147.348 103.015 140.228 104.88C133.015 106.767 124.978 104.221 118.712 101.17C115.584 99.6469 112.911 98.0046 111.019 96.743C110.073 96.1123 109.323 95.577 108.81 95.1998C108.554 95.0111 108.357 94.8621 108.224 94.7604C108.207 94.7475 108.191 94.7355 108.177 94.7242C111.072 88.3353 116.28 83.781 122.035 80.7595C127.845 77.7094 134.197 76.23 139.248 76.0026C144.979 75.7447 152.677 77.7185 158.967 79.7708C162.107 80.7953 164.886 81.8361 166.88 82.6208C167.878 83.0132 168.678 83.3414 169.229 83.5714Z" fill="black" stroke="#0AC789" stroke-width="0.5"/>
<path d="M142.5 102.987C142.139 102.837 141.712 102.64 141.241 102.4C139.818 101.671 138.021 100.546 136.507 99.0957L136.497 99.086L136.485 99.0776C134.744 97.7481 133.446 96.0179 132.582 94.614C132.151 93.9132 131.83 93.2964 131.618 92.8561C131.527 92.6684 131.456 92.513 131.405 92.3969L133.292 91.7189C133.325 91.8194 133.368 91.9471 133.423 92.0981C133.57 92.5077 133.799 93.0894 134.121 93.7635C134.762 95.1069 135.775 96.8276 137.251 98.2839C138.601 99.9374 140.176 101.256 141.402 102.185C141.814 102.496 142.187 102.764 142.5 102.987Z" fill="black" stroke="#0AC789" stroke-width="0.5"/>
<path d="M136.892 105.212C136.894 105.21 136.895 105.208 136.897 105.206L136.96 105.264C136.937 105.254 136.91 105.242 136.881 105.231C136.884 105.224 136.888 105.218 136.892 105.212ZM136.037 104.641C135.66 104.494 135.211 104.307 134.72 104.069C133.267 103.365 131.461 102.222 130.104 100.362L130.098 100.354L130.091 100.346C128.679 98.7048 127.561 96.8123 126.803 95.3168C126.425 94.5698 126.137 93.9244 125.949 93.4625C125.865 93.255 125.801 93.0861 125.758 92.9626L127.699 92.462C127.726 92.5676 127.762 92.7012 127.808 92.8586C127.932 93.2802 128.129 93.882 128.402 94.596C128.946 96.0202 129.795 97.8992 130.97 99.6871C131.961 101.565 133.585 102.909 134.882 103.841C135.208 104.075 135.514 104.285 135.785 104.469L135.789 104.472C135.875 104.531 135.958 104.588 136.037 104.641Z" fill="black" stroke="#0AC789" stroke-width="0.5"/>
<path d="M130.5 104.826C130.144 104.671 129.722 104.467 129.259 104.216C127.865 103.46 126.109 102.28 124.632 100.692L124.632 100.691L124.622 100.682C123.065 99.1781 121.901 97.3565 121.125 95.9094C120.738 95.1869 120.448 94.5602 120.256 94.1168C120.176 93.9336 120.113 93.7817 120.066 93.667L121.964 93.0394C121.995 93.143 122.035 93.2773 122.086 93.4376C122.218 93.8544 122.419 94.4472 122.7 95.1426C123.262 96.5302 124.145 98.3343 125.443 99.9648C126.657 101.653 128.197 103.022 129.412 103.991C129.817 104.314 130.189 104.594 130.5 104.826Z" fill="black" stroke="#0AC789" stroke-width="0.5"/>
<path d="M138.217 91.6812C138.21 91.6682 138.203 91.6556 138.197 91.6434L139.556 90.1105C139.571 90.1299 139.586 90.1515 139.602 90.1754C139.682 90.2943 139.767 90.4519 139.861 90.6475C140.012 90.9668 140.175 91.3645 140.361 91.8228C140.404 91.9282 140.449 92.0368 140.494 92.1485C140.979 93.3308 141.616 94.8124 142.568 96.166C143.463 97.5457 144.61 98.7557 145.543 99.6042C145.851 99.884 146.137 100.126 146.385 100.323C146.103 100.207 145.772 100.047 145.408 99.8419C144.285 99.2089 142.889 98.1769 141.711 96.8492L141.711 96.8492L141.708 96.8463C140.516 95.5449 139.554 94.0358 138.916 92.9374C138.653 92.484 138.446 92.1029 138.301 91.8348C138.27 91.7785 138.243 91.7272 138.217 91.6812Z" fill="black" stroke="#0AC789" stroke-width="0.5"/>
<path d="M151.858 97.2916C151.592 97.2033 151.277 97.0863 150.926 96.9399C149.867 96.4972 148.504 95.792 147.264 94.814L147.255 94.8071L147.246 94.801C145.852 93.8906 144.9 92.607 144.285 91.546C143.978 91.0168 143.756 90.546 143.606 90.209C143.569 90.1247 143.536 90.0487 143.507 89.9819C143.502 89.97 143.497 89.9583 143.492 89.9469C143.489 89.9395 143.485 89.9321 143.482 89.925L145.376 89.3176C145.39 89.3684 145.406 89.4275 145.425 89.4968C145.509 89.7943 145.639 90.2259 145.836 90.7233C146.226 91.7117 146.883 92.9747 147.976 93.9662C148.963 95.0904 150.148 96.0255 151.059 96.7041C151.253 96.8483 151.432 96.9793 151.594 97.0981C151.688 97.1666 151.776 97.2311 151.858 97.2916Z" fill="black" stroke="#0AC789" stroke-width="0.5"/>
<path d="M149.664 89.7698C149.634 89.7229 149.606 89.6798 149.582 89.6408L151.394 88.8146C151.403 88.8361 151.412 88.8589 151.421 88.8829C151.502 89.0857 151.623 89.3742 151.793 89.7086C152.133 90.3756 152.673 91.232 153.491 91.9575L153.491 91.9577L153.498 91.9639C154.341 92.6552 155.278 93.275 155.985 93.741C156.006 93.7544 156.026 93.7677 156.046 93.7809C156.263 93.924 156.456 94.0506 156.616 94.1596C156.41 94.1231 156.162 94.0681 155.881 93.9944C155.054 93.7779 153.968 93.4059 152.895 92.8919C151.803 92.3282 150.936 91.4498 150.34 90.7085C150.043 90.3388 149.816 90.0065 149.664 89.7698Z" fill="black" stroke="#0AC789" stroke-width="0.5"/>
<path d="M163.709 84.9648C163.424 85.1145 163.075 85.2813 162.668 85.4627C161.287 86.0772 159.263 86.8439 156.798 87.6599C151.869 89.2917 145.195 91.1148 138.413 92.3096L138.413 92.3095L138.407 92.3108C131.62 93.6986 124.856 94.767 119.707 95.4442C117.132 95.7828 114.964 96.0233 113.4 96.1571C112.617 96.224 111.989 96.2639 111.538 96.2762C111.312 96.2824 111.134 96.2816 111.006 96.2743C111.003 96.2741 110.999 96.2739 110.995 96.2737L111.466 91.7684C111.522 91.7715 111.583 91.7738 111.65 91.7756C112.001 91.7849 112.549 91.7792 113.26 91.7585C114.685 91.717 116.785 91.6149 119.324 91.4488C124.403 91.1166 131.249 90.5281 137.997 89.6552C144.824 88.9726 151.53 87.7377 156.534 86.663C159.037 86.1255 161.116 85.6278 162.573 85.259C163.009 85.1486 163.39 85.0498 163.709 84.9648Z" fill="black" stroke="#0AC789" stroke-width="0.5"/>
<path d="M114.74 138.509L114.74 138.509C114.909 142.278 113.897 147.054 112.605 151.46C111.376 155.653 109.9 159.488 108.973 161.76C100.134 153.922 94.1253 147.486 91.1887 136.021C89.8323 130.714 91.4663 125.149 93.7777 120.526C96.019 116.042 98.8789 112.481 100.185 110.961C101.397 111.429 102.59 112.127 103.731 113.044C107.049 115.712 109.713 119.98 111.594 124.645C113.473 129.306 114.56 134.338 114.74 138.509Z" fill="white" stroke="#0AC789" stroke-width="0.5"/>
<path d="M113.806 138.556L113.806 138.555C113.627 134.43 112.52 129.495 110.685 124.969C108.851 120.446 106.279 116.302 103.149 113.785C102.336 113.132 101.491 112.6 100.643 112.172L100.465 112.081L100.338 112.236C98.804 114.094 96.1498 117.614 94.1764 121.842C92.205 126.066 90.8969 131.032 92.1061 135.763C94.8327 146.438 100.357 152.711 108.343 159.907L108.612 160.15L108.743 159.812C109.756 157.215 111.09 153.528 112.136 149.681C113.181 145.838 113.945 141.816 113.806 138.556ZM109.528 164.179C100.382 156.181 93.0846 149.252 89.7944 136.397L89.7944 136.397C88.1187 129.855 90.6104 123.064 93.5565 117.877C95.0267 115.289 96.6032 113.112 97.8124 111.582C98.4168 110.818 98.9291 110.215 99.2897 109.804C99.4701 109.599 99.6125 109.442 99.7095 109.336C99.7258 109.318 99.7408 109.302 99.7545 109.287C101.519 109.807 103.154 110.717 104.649 111.919C108.232 114.8 111.03 119.362 112.978 124.253C114.925 129.141 116.012 134.33 116.189 138.44C116.402 143.394 114.711 149.896 112.954 155.184C112.076 157.822 111.186 160.149 110.514 161.817C110.178 162.651 109.898 163.319 109.701 163.779C109.633 163.938 109.575 164.072 109.528 164.179Z" fill="black" stroke="#0AC789" stroke-width="0.5"/>
<path d="M92.6681 137.048C92.7976 136.769 92.9691 136.439 93.1808 136.081C93.8244 134.989 94.8253 133.647 96.1147 132.62L96.1271 132.611L96.1381 132.599C97.3719 131.333 98.9103 130.555 100.146 130.093C100.762 129.862 101.3 129.711 101.681 129.618C101.811 129.586 101.922 129.56 102.013 129.541L102.231 131.516C102.165 131.522 102.087 131.529 101.999 131.539C101.67 131.574 101.199 131.64 100.644 131.764C99.5417 132.012 98.1008 132.495 96.8123 133.445C95.3496 134.287 94.194 135.381 93.3796 136.253C93.1035 136.549 92.8651 136.82 92.6681 137.048Z" fill="black" stroke="#0AC789" stroke-width="0.5"/>
<path d="M101.182 124.656C101.32 124.629 101.439 124.608 101.534 124.592L101.554 126.598C101.485 126.602 101.402 126.606 101.307 126.612C100.982 126.634 100.513 126.676 99.9476 126.763C98.8213 126.937 97.3077 127.29 95.7925 128.02C94.3072 128.596 93.026 129.644 92.0931 130.48C91.8937 130.659 91.7131 130.825 91.5497 130.975C91.4622 131.056 91.3796 131.132 91.3018 131.203C91.4594 130.941 91.6556 130.633 91.8932 130.298C92.6151 129.281 93.7145 128.022 95.2619 127.062L95.2687 127.058L95.2753 127.053C96.6627 126.064 98.292 125.432 99.5841 125.05C100.229 124.86 100.786 124.733 101.182 124.656ZM101.556 126.845C101.556 126.84 101.556 126.835 101.556 126.829L101.556 126.839L101.556 126.845ZM90.7061 131.741C90.7144 131.744 90.7228 131.748 90.7309 131.753L90.6647 131.816C90.6771 131.793 90.6909 131.769 90.7061 131.741Z" fill="black" stroke="#0AC789" stroke-width="0.5"/>
<path d="M91.0196 126.397C91.1546 126.121 91.333 125.796 91.5554 125.443C92.2269 124.377 93.2875 123.076 94.7394 122.099L94.746 122.095L94.7523 122.09C96.1367 121.024 97.7355 120.388 98.9917 120.014C99.6186 119.828 100.157 119.708 100.537 119.633C100.665 119.608 100.775 119.588 100.864 119.572L101.026 121.558C100.954 121.561 100.868 121.566 100.769 121.572C100.433 121.593 99.9517 121.633 99.381 121.719C98.2437 121.892 96.7412 122.25 95.3174 123.017C93.84 123.694 92.6294 124.749 91.7699 125.609C91.4801 125.9 91.2281 126.17 91.0196 126.397ZM101.046 121.807C101.046 121.807 101.046 121.807 101.046 121.807C101.046 121.806 101.046 121.805 101.046 121.804L101.046 121.807Z" fill="black" stroke="#0AC789" stroke-width="0.5"/>
<path d="M101.56 135.87C101.96 135.727 102.277 135.63 102.475 135.573L103.844 137.141C103.842 137.142 103.841 137.142 103.839 137.143C103.732 137.191 103.59 137.237 103.413 137.284C103.079 137.371 102.654 137.449 102.167 137.54C102.135 137.546 102.103 137.552 102.071 137.558C101.03 137.751 99.7458 137.996 98.6499 138.476C97.4651 138.935 96.4036 139.678 95.6534 140.317C95.4073 140.526 95.1929 140.726 95.0171 140.903C95.1147 140.687 95.2517 140.437 95.4283 140.165C95.987 139.305 96.9141 138.274 98.1364 137.509C99.4191 136.712 100.685 136.183 101.56 135.87Z" fill="black" stroke="#0AC789" stroke-width="0.5"/>
<path d="M98.5698 111.474L103.137 111.875C103.135 111.915 103.134 111.957 103.133 112.002C103.126 112.322 103.133 112.826 103.153 113.483C103.195 114.799 103.292 116.745 103.446 119.101C103.752 123.813 104.284 130.17 105.049 136.413C105.651 142.734 106.724 148.951 107.643 153.596C108.103 155.92 108.525 157.851 108.831 159.207C108.984 159.884 109.108 160.418 109.193 160.785L109.203 160.829C109.206 160.84 109.209 160.852 109.211 160.863C109.176 160.824 109.14 160.78 109.101 160.728C108.875 160.428 108.621 159.953 108.344 159.313C107.792 158.037 107.173 156.162 106.521 153.875C105.218 149.305 103.792 143.124 102.51 136.883C101.227 130.642 100.089 124.346 99.3612 119.547C98.997 117.147 98.7359 115.124 98.6103 113.672C98.5474 112.945 98.519 112.367 98.5276 111.958C98.5319 111.753 98.5454 111.599 98.5655 111.495C98.5669 111.487 98.5684 111.48 98.5698 111.474Z" fill="black" stroke="#0AC789" stroke-width="0.5"/>
<path d="M113.869 150.852L112.075 151.658C112.009 151.468 111.89 151.219 111.74 150.939C111.433 150.363 110.973 149.608 110.496 148.856C110.018 148.102 109.52 147.346 109.135 146.766C109.022 146.595 108.917 146.438 108.826 146.302C108.798 146.259 108.771 146.219 108.746 146.181C108.892 146.256 109.066 146.361 109.265 146.495C109.854 146.891 110.602 147.496 111.331 148.146C112.058 148.796 112.758 149.482 113.25 150.037C113.497 150.315 113.686 150.553 113.799 150.732C113.829 150.779 113.852 150.819 113.869 150.852ZM113.907 150.95C113.907 150.95 113.906 150.948 113.906 150.945C113.907 150.949 113.907 150.95 113.907 150.95Z" fill="black" stroke="#0AC789" stroke-width="0.5"/>
<path d="M113.069 147.044C113.058 147.026 113.048 147.008 113.036 146.99C112.919 146.796 112.745 146.534 112.533 146.229C112.107 145.619 111.518 144.828 110.902 144.064C110.289 143.301 109.642 142.557 109.103 142.044C108.903 141.855 108.711 141.69 108.536 141.567C108.713 141.594 108.932 141.661 109.188 141.769C109.889 142.064 110.769 142.624 111.63 143.253C112.489 143.88 113.316 144.565 113.907 145.1C114.204 145.368 114.437 145.594 114.585 145.755C114.604 145.775 114.62 145.793 114.635 145.81L113.069 147.044ZM114.734 145.936C114.734 145.936 114.734 145.936 114.734 145.935L114.734 145.936Z" fill="black" stroke="#0AC789" stroke-width="0.5"/>
<path d="M114.324 143.012C114.215 142.823 114.03 142.545 113.796 142.215C113.284 141.492 112.512 140.482 111.694 139.49C110.876 138.5 110.006 137.519 109.299 136.862C109.124 136.699 108.954 136.552 108.795 136.429C108.994 136.485 109.22 136.573 109.472 136.692C110.32 137.093 111.369 137.805 112.395 138.615C113.419 139.423 114.409 140.319 115.139 141.079C115.505 141.459 115.801 141.801 116.003 142.078C116.102 142.214 116.175 142.329 116.223 142.422L114.324 143.012Z" fill="black" stroke="#0AC789" stroke-width="0.5"/>
<path d="M114.215 138.36C114.211 138.35 114.207 138.34 114.203 138.329C114.111 138.104 113.927 137.794 113.689 137.443C113.209 136.732 112.469 135.789 111.675 134.88C110.882 133.971 110.026 133.085 109.313 132.491C109.222 132.417 109.134 132.345 109.047 132.279C109.14 132.294 109.237 132.312 109.337 132.333C110.304 132.536 111.515 133.015 112.467 133.981L112.478 133.991L112.489 134C113.463 134.784 114.388 135.718 115.061 136.502C115.397 136.895 115.668 137.245 115.849 137.518C115.923 137.629 115.979 137.723 116.019 137.799L114.215 138.36Z" fill="black" stroke="#0AC789" stroke-width="0.5"/>
<path d="M115.115 131.663L113.346 132.547C113.249 132.361 113.072 132.128 112.854 131.876C112.398 131.347 111.706 130.669 110.971 130.023C110.237 129.377 109.45 128.754 108.803 128.34C108.562 128.185 108.333 128.054 108.128 127.963C108.309 127.961 108.535 127.987 108.801 128.045C109.568 128.212 110.571 128.612 111.562 129.11C112.551 129.606 113.512 130.191 114.195 130.716C114.538 130.98 114.801 131.221 114.963 131.421C115.044 131.522 115.092 131.602 115.115 131.662C115.115 131.662 115.115 131.662 115.115 131.663Z" fill="black" stroke="#0AC789" stroke-width="0.5"/>
<path d="M113.954 126.751C113.36 126.836 112.569 126.948 112.149 127.007C112.043 126.905 111.873 126.764 111.666 126.599C111.174 126.208 110.418 125.649 109.621 125.09C108.823 124.531 107.978 123.968 107.306 123.569C107.112 123.454 106.93 123.351 106.766 123.265C106.919 123.272 107.094 123.288 107.288 123.315C108.075 123.424 109.118 123.688 110.152 124.061C111.188 124.434 112.196 124.909 112.919 125.431C113.281 125.692 113.56 125.957 113.738 126.217C113.867 126.405 113.937 126.582 113.954 126.751Z" fill="black" stroke="#0AC789" stroke-width="0.5"/>
<path d="M108.729 118.99L108.729 118.99L108.736 118.992C109.764 119.332 110.685 120.048 111.354 120.694C111.686 121.016 111.953 121.315 112.134 121.534C112.166 121.572 112.196 121.608 112.222 121.641L110.402 122.459C110.399 122.453 110.396 122.447 110.393 122.441C110.312 122.291 110.189 122.069 110.014 121.807C109.663 121.282 109.104 120.594 108.24 119.967L108.24 119.967L108.233 119.962C107.399 119.4 106.47 119.006 105.76 118.725C105.644 118.68 105.535 118.637 105.434 118.598C105.311 118.55 105.199 118.506 105.099 118.466C105.294 118.451 105.532 118.445 105.802 118.452C106.608 118.472 107.68 118.611 108.729 118.99Z" fill="black" stroke="#0AC789" stroke-width="0.5"/>
<path d="M37.0795 123.177L37.0792 123.177C33.8451 121.978 29.9981 119.606 25.6515 116.111C18.9159 110.695 12.7395 103.978 10.0926 100.983C11.5766 100.167 12.9915 99.3665 14.3443 98.5993C20.0463 95.381 24.7519 92.7278 29.9085 91.1296C35.0564 89.534 40.6636 88.9878 48.159 90.0089C54.3994 90.8592 60.2507 93.4513 65.5553 97.7166C73.7695 104.321 78.403 113.15 79.9013 116.344C65.0765 126.543 47.8043 127.166 37.0795 123.177Z" fill="white" stroke="#0AC789" stroke-width="0.5"/>
<path d="M82.1609 117.097C82.182 117.091 82.203 117.082 82.2236 117.072L81.9921 116.829L81.9003 116.732C81.9159 116.728 81.9315 116.725 81.947 116.722L82.1609 117.097ZM82.1609 117.097L82.1758 117.117C66.2075 128.732 47.654 129.184 36.4034 125.001C32.5459 123.569 28.3806 120.797 24.4356 117.625C19.8456 113.935 15.5475 109.696 12.3985 106.382C10.8235 104.724 9.53507 103.297 8.64015 102.284C8.19267 101.778 7.84354 101.375 7.60614 101.098C7.48743 100.96 7.39666 100.853 7.33548 100.781L7.26612 100.699L7.24848 100.678L7.24399 100.673L7.24284 100.671L7.24254 100.671C7.24246 100.671 7.24242 100.671 7.43411 100.51L7.24242 100.671L7.04596 100.436L7.3151 100.29C9.47597 99.1207 11.4859 97.9872 13.3954 96.9103C18.2291 94.1844 22.4188 91.8216 26.7824 90.1547C32.8906 87.8214 39.3495 86.8444 48.4404 88.0839L82.1609 117.097ZM78.515 116.144L78.7 116.022L78.6014 115.824C76.779 112.158 72.3285 104.371 64.966 98.4515C59.8099 94.3056 54.1033 91.7781 48.0296 90.9428L48.0295 90.9428C40.7103 89.9407 35.288 90.4251 30.244 91.9836C25.2178 93.5367 20.5774 96.1542 14.8307 99.3958L14.8021 99.4119L14.8016 99.4122C13.8451 99.9546 12.8742 100.499 11.8616 101.062L11.5871 101.215L11.7976 101.448C14.7821 104.754 20.2947 110.568 26.248 115.355C30.4954 118.77 34.2526 121.108 37.4157 122.284C47.74 126.13 64.1784 125.581 78.515 116.144ZM48.3728 88.5793L48.3729 88.5793C55.6657 89.5706 61.6632 92.723 66.4666 96.5853C71.747 100.831 75.5793 105.94 78.0932 109.99C79.3498 112.014 80.2757 113.772 80.8877 115.022C81.1936 115.647 81.421 116.146 81.5719 116.487C81.6347 116.629 81.6843 116.744 81.7209 116.83C65.9291 128.228 47.6389 128.645 36.5775 124.532L36.5774 124.532C32.7948 123.128 28.6791 120.396 24.7489 117.236C20.183 113.564 15.902 109.343 12.7609 106.037C11.1908 104.385 9.90648 102.962 9.01486 101.953C8.56908 101.449 8.2215 101.047 7.98553 100.772C7.9239 100.701 7.86989 100.638 7.82373 100.583C9.90391 99.4538 11.8382 98.363 13.6743 97.3275C18.4925 94.6103 22.6343 92.2745 26.9608 90.6218C32.9864 88.3201 39.3604 87.3505 48.3728 88.5793Z" fill="black" stroke="#0AC789" stroke-width="0.5"/>
<path d="M79.8774 113.488C79.9315 113.544 79.9488 113.578 79.9543 113.595L78.2152 117.696C78.1074 117.596 77.9723 117.499 77.8187 117.403C77.3652 117.121 76.6736 116.809 75.7903 116.472C74.0189 115.796 71.4228 115 68.2805 114.131C61.9933 112.392 53.4906 110.352 44.9572 108.384C39.2514 107.068 33.529 105.783 28.4442 104.642C25.9243 104.076 23.561 103.546 21.4339 103.064C18.2232 102.337 15.5513 101.721 13.6892 101.262C13.1181 101.122 12.6245 100.996 12.2156 100.887C12.6124 100.919 13.0849 100.965 13.6271 101.022C15.516 101.222 18.2341 101.568 21.5057 102.022C28.0482 102.931 36.7966 104.274 45.5363 105.753C54.2767 107.233 63.0045 108.848 69.5072 110.303C72.7598 111.031 75.4489 111.716 77.303 112.323C78.232 112.627 78.9393 112.908 79.4008 113.159C79.633 113.285 79.7879 113.396 79.8774 113.488ZM79.9567 113.607C79.9567 113.607 79.9567 113.607 79.9568 113.606L79.9567 113.607Z" fill="black" stroke="#0AC789" stroke-width="0.5"/>
<path d="M62.6831 109.157L60.8047 109.882C60.8029 109.877 60.801 109.873 60.7992 109.869C60.7209 109.683 60.5922 109.408 60.4197 109.059C60.0741 108.361 59.546 107.357 58.876 106.165C57.5361 103.78 55.6244 100.634 53.461 97.6632C51.3341 94.6939 48.9787 91.8175 46.7943 90.1646C46.0591 89.5048 45.3468 89.1537 44.7162 88.9823C45.3692 89.0622 46.1283 89.3235 46.9174 89.921L46.9273 89.9284L46.9378 89.9349C49.3606 91.4177 51.9564 94.1248 54.3246 96.9862L54.3257 96.9875C56.7244 99.8448 58.8528 102.884 60.3745 105.245C61.1352 106.425 61.7432 107.434 62.1567 108.164C62.3637 108.53 62.5206 108.823 62.6234 109.032C62.6463 109.078 62.6662 109.12 62.6831 109.157Z" fill="black" stroke="#0AC789" stroke-width="0.5"/>
<path d="M52.695 91.0063C53.2933 91.3001 53.9871 91.6935 54.7381 92.1795C57.0703 93.6886 59.9204 96.0689 62.1301 99.061L62.1358 99.0686L62.142 99.0758C64.5585 101.875 66.6714 104.895 68.1719 107.246C68.922 108.422 69.5179 109.429 69.9213 110.156C70.1232 110.519 70.2757 110.811 70.3748 111.017C70.3957 111.06 70.4138 111.099 70.4293 111.134L68.5494 111.859C68.5473 111.854 68.5451 111.849 68.543 111.844C68.4663 111.657 68.3412 111.382 68.1733 111.035C67.8369 110.339 67.3229 109.34 66.6663 108.157C65.3543 105.792 63.4687 102.68 61.2858 99.7589C59.2667 96.6219 56.6915 94.0864 54.5836 92.3932C53.8941 91.8393 53.2527 91.374 52.695 91.0063Z" fill="black" stroke="#0AC789" stroke-width="0.5"/>
<path d="M57.0913 108.811C57.0959 108.816 57.1006 108.822 57.1053 108.827L55.5681 110.122C55.5451 110.096 55.5176 110.062 55.4855 110.019C55.3588 109.847 55.1974 109.576 55.0001 109.214C54.7503 108.756 54.4538 108.174 54.1098 107.498C53.911 107.108 53.6963 106.686 53.4656 106.239C52.2115 103.81 50.5027 100.677 48.399 98.0002L48.3978 97.9987C46.1297 95.1563 43.432 92.8589 41.2755 91.3097C40.5757 90.807 39.9315 90.3821 39.3757 90.0421C39.9694 90.3064 40.661 90.6564 41.4157 91.0866C43.7748 92.4315 46.7214 94.5439 49.1765 97.2204C51.6948 100.041 53.6295 103.075 54.9874 105.351C55.3059 105.886 55.5952 106.382 55.8527 106.825C56.1403 107.319 56.3884 107.745 56.5937 108.079C56.7882 108.396 56.9554 108.65 57.0913 108.811ZM55.6329 110.184C55.636 110.186 55.6376 110.187 55.6376 110.187C55.6377 110.187 55.6361 110.187 55.6329 110.184Z" fill="black" stroke="#0AC789" stroke-width="0.5"/>
<path d="M32.4608 90.2918C32.6308 90.2706 32.8401 90.2851 33.0919 90.3427C33.7982 90.5041 34.7365 90.98 35.8325 91.6996C38.016 93.133 40.7344 95.4714 43.3084 97.9335C45.8806 100.394 48.2974 102.967 49.877 104.862C50.6697 105.814 51.241 106.582 51.5187 107.075C51.5777 107.18 51.6207 107.268 51.6494 107.339L51.4761 107.286L51.3996 107.519L50.7 109.66C50.6555 109.67 50.6212 109.689 50.5981 109.705C50.5898 109.701 50.5801 109.696 50.569 109.69C50.5137 109.658 50.4344 109.604 50.3233 109.514C50.1058 109.336 49.7851 109.033 49.3117 108.528C49.2008 108.256 49.1402 107.989 49.0731 107.692C49.0466 107.575 49.0191 107.454 48.987 107.325C48.8733 106.871 48.71 106.38 48.3353 105.847C47.7404 104.735 46.8405 103.591 45.8137 102.383C45.4435 101.947 45.0575 101.504 44.6618 101.05C43.948 100.23 43.203 99.3742 42.4632 98.4631L42.4632 98.4631L42.4601 98.4594C40.2685 95.8651 37.6964 93.5788 35.6169 92.0803C34.5788 91.3323 33.6533 90.7731 32.9527 90.4717C32.7792 90.3971 32.6142 90.3358 32.4608 90.2918Z" fill="black" stroke="#0AC789" stroke-width="0.5"/>
<path d="M27.7501 93.8992C27.0884 93.6141 26.4846 93.3821 25.9735 93.1955C26.5104 93.2991 27.1461 93.4472 27.8469 93.6504C30.0026 94.2754 32.7582 95.4163 35.1506 97.3658L35.1504 97.3659L35.1591 97.3724C37.5996 99.1914 39.71 101.315 41.2194 102.977C41.9736 103.807 42.5767 104.521 42.9954 105.022C43.066 105.107 43.1317 105.186 43.1921 105.258C43.31 105.4 43.4078 105.517 43.4829 105.606C43.4836 105.607 43.4844 105.607 43.4851 105.608L41.9092 106.872C41.9081 106.87 41.907 106.869 41.9059 106.867C41.8257 106.759 41.7179 106.61 41.5829 106.423C41.5468 106.373 41.5087 106.32 41.4686 106.265C41.091 105.742 40.5488 104.997 39.8737 104.13C38.5255 102.398 36.6429 100.171 34.4731 98.2409C32.336 96.1381 29.768 94.7688 27.7501 93.8992ZM41.7206 107.023C41.7208 107.023 41.7211 107.022 41.7214 107.022L41.7206 107.023Z" fill="black" stroke="#0AC789" stroke-width="0.5"/>
<path d="M32.9523 105.35C32.8618 105.248 32.7428 105.127 32.6015 104.991C32.2441 104.646 31.7211 104.186 31.0874 103.659C29.8192 102.605 28.0955 101.272 26.3394 100.044C24.5861 98.817 22.7886 97.6861 21.3755 97.0428C20.8741 96.8145 20.4078 96.6413 20.0016 96.5507C20.3897 96.5481 20.8737 96.6249 21.4384 96.7755C22.9782 97.186 24.9896 98.1086 26.9764 99.1698C28.9592 100.229 30.901 101.417 32.2966 102.348C32.9951 102.815 33.5525 103.213 33.9087 103.498C34.0406 103.603 34.1391 103.688 34.2058 103.752L32.9523 105.35Z" fill="black" stroke="#0AC789" stroke-width="0.5"/>
<path d="M39.6401 120.754C38.8882 120.929 38.203 121.078 37.6012 121.197C38.1815 121.006 38.8399 120.784 39.5589 120.536C42.3085 119.588 45.9556 118.261 49.5476 116.898C53.1391 115.535 56.6789 114.134 59.2126 113.039C60.4778 112.492 61.4993 112.018 62.1518 111.662C62.4727 111.486 62.7251 111.328 62.8703 111.195C62.8747 111.191 62.8792 111.187 62.8837 111.183L64.5479 112.214C64.4993 112.279 64.4252 112.356 64.3208 112.443C64.108 112.622 63.7941 112.825 63.3853 113.05C62.5695 113.498 61.4114 114.011 60.0183 114.56C57.2345 115.655 53.5416 116.878 49.8412 117.991C46.1413 119.103 42.4397 120.104 39.6401 120.754Z" fill="black" stroke="#0AC789" stroke-width="0.5"/>
<path d="M53.9286 109.99C54.2073 109.864 54.4254 109.762 54.5709 109.689L55.763 111.294C55.7321 111.309 55.698 111.325 55.6605 111.341C55.4564 111.434 55.1671 111.554 54.8029 111.697C54.0753 111.982 53.059 112.355 51.849 112.779C49.4294 113.627 46.2417 114.676 43.0518 115.628C39.8603 116.581 36.6738 117.435 34.2539 117.895C33.5267 118.033 32.8737 118.135 32.3133 118.193C32.8501 118.057 33.4645 117.879 34.1371 117.67C36.5209 116.927 39.6763 115.769 42.7965 114.561C45.9179 113.353 49.009 112.092 51.2661 111.141C52.3944 110.665 53.3156 110.266 53.9286 109.99Z" fill="black" stroke="#0AC789" stroke-width="0.5"/>
<path d="M47.3075 107.212C47.5862 107.086 47.8043 106.984 47.9498 106.911L49.1427 108.518C49.1119 108.532 49.0778 108.548 49.0403 108.565C48.8367 108.658 48.548 108.778 48.1842 108.921C47.4574 109.207 46.4418 109.581 45.2323 110.005C42.8137 110.854 39.6265 111.903 36.4367 112.856C33.2452 113.809 30.0582 114.662 27.6373 115.121C26.8994 115.261 26.2377 115.364 25.6717 115.421C26.2133 115.284 26.8348 115.104 27.516 114.892C29.8998 114.149 33.0552 112.992 36.1754 111.784C39.2968 110.576 42.3879 109.315 44.645 108.363C45.7733 107.888 46.6945 107.489 47.3075 107.212Z" fill="black" stroke="#0AC789" stroke-width="0.5"/>
<path d="M38.3962 107.121C38.3963 107.121 38.3949 107.122 38.3915 107.123C38.3943 107.122 38.396 107.121 38.3962 107.121ZM38.2229 107.192C38.1015 107.238 37.9273 107.3 37.7056 107.378C37.1965 107.555 36.446 107.805 35.5325 108.097C33.7055 108.683 31.2308 109.437 28.7383 110.115C26.2436 110.795 23.7397 111.395 21.8511 111.677C21.2088 111.773 20.6456 111.83 20.1821 111.843C20.659 111.74 21.2251 111.587 21.854 111.397C23.6628 110.852 26.0329 109.991 28.3922 109.081C30.7528 108.17 33.1079 107.209 34.8887 106.462C35.7792 106.089 36.5265 105.77 37.0597 105.537C37.3199 105.423 37.5298 105.33 37.6807 105.261L38.2229 107.192Z" fill="black" stroke="#0AC789" stroke-width="0.5"/>
<path d="M88.0502 87.8746C81.2193 82.382 75.7595 74.7766 73.4455 67.5612C72.046 63.1932 71.7798 57.1993 71.965 51.5966C72.1422 46.2333 72.7318 41.2555 73.1194 38.4589C74.181 39.0137 75.2105 39.5425 76.2138 40.0502C81.2529 42.6308 85.2009 44.6583 88.8144 47.5639C92.6738 50.6671 95.7341 54.4678 98.7405 59.9051C106.752 74.3941 101.143 89.8443 99.1065 94.4765C95.164 92.8276 91.4543 90.6117 88.0502 87.8746Z" fill="white" stroke="#0AC789" stroke-width="0.5"/>
<path d="M98.3622 93.124L98.5999 93.2312L98.697 92.9892C100.893 87.514 105.16 73.4965 97.9054 60.3738C94.9727 55.0638 91.9808 51.3336 88.21 48.3015C84.66 45.447 80.718 43.4273 75.7652 40.9004L75.7643 40.9C75.4704 40.7514 75.1823 40.6023 74.8915 40.4518C74.6578 40.3309 74.4224 40.2091 74.1808 40.0859L73.8634 39.924L73.8192 40.2775C73.4139 43.5139 72.9272 48.3372 72.8485 53.3085C72.77 58.274 73.0979 63.4118 74.3348 67.2646C76.6068 74.3418 81.9514 81.7631 88.6409 87.142C91.6538 89.5646 94.9223 91.5725 98.3622 93.124ZM71.9799 36.2238C73.7124 37.1457 75.3487 37.985 76.9024 38.7819C81.8667 41.3281 85.9876 43.4417 89.7105 46.4353C93.3981 49.4004 96.6993 53.2257 99.9994 59.1994L99.9995 59.1995C104.999 68.2415 104.934 77.5684 103.612 84.6474C102.952 88.1861 101.978 91.1587 101.169 93.246C100.765 94.2895 100.403 95.1113 100.141 95.6713C100.011 95.9514 99.9055 96.1659 99.8332 96.31C99.8297 96.3171 99.8263 96.3239 99.8229 96.3306C95.0336 94.4922 90.7926 91.9449 87.1403 89.0082C79.3413 82.7371 74.2089 74.6899 72.0663 68.0155C70.2722 62.4224 70.2583 54.4012 70.7009 47.7505C70.9219 44.4307 71.2558 41.4624 71.5345 39.324C71.6738 38.255 71.7993 37.3936 71.8899 36.7998C71.9258 36.5646 71.9562 36.3713 71.9799 36.2238Z" fill="black" stroke="#0AC789" stroke-width="0.5"/>
<path d="M101.642 92.8749L97.2849 94.1343C97.2558 94.0123 97.2173 93.8495 97.1729 93.6496C97.0661 93.1687 96.9253 92.4732 96.8007 91.6249L96.8008 91.6249L96.7999 91.6199C96.7917 91.5709 96.7824 91.5144 96.7721 91.4519C96.7225 91.1511 96.6503 90.713 96.5719 90.3179C96.5246 90.0798 96.4739 89.8509 96.4231 89.6738C96.398 89.5861 96.3706 89.5034 96.3409 89.4364C96.3262 89.4031 96.3078 89.3666 96.2849 89.3332C96.2766 89.321 96.2644 89.3043 96.2479 89.2866C95.9766 88.747 95.6881 88.1697 95.3835 87.5602C95.1091 87.011 94.8217 86.4357 94.522 85.8385C92.7579 82.2519 90.9431 78.0145 89.0075 73.495C88.0405 71.2371 87.0433 68.9087 86.0072 66.5559C82.9646 59.6202 79.91 52.3932 78.1635 47.0872L78.1564 47.0658L78.1457 47.046C76.803 44.5755 75.8921 42.3594 75.3868 40.7648C75.2422 40.3082 75.1317 39.9054 75.0538 39.5641C75.1968 39.8803 75.3734 40.2519 75.586 40.6751C76.3067 42.1096 77.4435 44.1407 79.0917 46.6153C81.4844 52.0195 84.8665 58.5321 88.4301 65.3683L88.4304 65.3688C89.7881 67.9585 91.1343 70.6166 92.4306 73.1762C94.478 77.2188 96.4009 81.0156 98.0479 83.9082L98.0482 83.9086C98.7559 85.146 99.4104 86.2883 99.9852 87.288C100.668 88.6173 100.789 89.2554 100.909 89.885C100.962 90.1618 101.015 90.437 101.114 90.7685C101.28 91.5587 101.432 92.1382 101.541 92.5251C101.581 92.668 101.615 92.7846 101.642 92.8749Z" fill="black" stroke="#0AC789" stroke-width="0.5"/>
<path d="M97.5393 59.5167C97.4366 58.7972 97.3022 58.1584 97.1597 57.6261C97.3799 58.1297 97.6007 58.7503 97.7948 59.4615C98.3986 61.6747 98.7319 64.7226 98.0141 67.7737L98.0111 67.7861L98.0095 67.7988C97.6147 70.8401 96.8459 73.7901 96.153 75.9944C95.8066 77.0961 95.4799 78.0094 95.2294 78.6526C95.104 78.9745 94.9984 79.2268 94.9196 79.4003C94.9102 79.4211 94.9012 79.4406 94.8927 79.4588L93.146 78.4922C93.2221 78.3486 93.3248 78.1412 93.4478 77.8791C93.7165 77.3066 94.0867 76.4634 94.4962 75.4319C95.3138 73.3722 96.2911 70.5532 96.9289 67.6302C97.8733 64.639 97.8504 61.6961 97.5393 59.5167Z" fill="black" stroke="#0AC789" stroke-width="0.5"/>
<path d="M92.5178 74.3379C92.4361 74.5958 92.3735 74.8144 92.3434 74.978L90.3733 74.6537C90.3767 74.6367 90.3809 74.6177 90.386 74.5966C90.4264 74.4296 90.5089 74.1886 90.6292 73.8766C90.7924 73.4533 91.0158 72.922 91.2757 72.3039C91.3979 72.0133 91.5282 71.7034 91.664 71.3766C92.5095 69.343 93.5589 66.682 94.1418 64.0787L94.1438 64.0697L94.1451 64.0605C94.5637 61.2237 94.5815 58.3786 94.4527 56.2482C94.4102 55.5459 94.3517 54.9193 94.286 54.3947C94.4349 54.8955 94.582 55.506 94.7157 56.2015C95.1261 58.3355 95.404 61.2327 95.2343 64.1324C94.8062 67.1924 93.9809 69.9552 93.3189 71.9578C93.1632 72.4291 93.0149 72.8628 92.8831 73.2483C92.7369 73.6757 92.6111 74.0438 92.5178 74.3379ZM90.3602 74.7622C90.3609 74.7662 90.361 74.7686 90.3608 74.7687C90.3607 74.7689 90.3604 74.7669 90.3602 74.7622Z" fill="black" stroke="#0AC789" stroke-width="0.5"/>
<path d="M90.39 69.4329C90.332 69.5367 90.274 69.6356 90.2175 69.7296C90.2093 69.7274 90.2007 69.7256 90.1918 69.7242C90.0565 69.7022 89.9656 69.782 89.9271 69.8293C89.8898 69.8752 89.8679 69.9277 89.854 69.9674C89.8386 70.0111 89.8254 70.0618 89.8134 70.1179C89.7973 70.1939 89.7819 70.2884 89.767 70.4039L88.1386 71.012C88.1181 70.9967 88.0974 70.9857 88.0775 70.9778C88.0708 70.9226 88.0662 70.8411 88.0671 70.723C88.0691 70.463 88.0977 70.05 88.1756 69.3992C88.2943 69.1856 88.4216 69.0208 88.5591 68.8428C88.6285 68.7529 88.7005 68.6598 88.7754 68.5552C88.9979 68.2443 89.2011 67.8835 89.3119 67.3326C89.7337 66.3521 89.9667 65.1501 90.182 63.8301C90.2274 63.5515 90.2721 63.2674 90.3176 62.9781C90.4911 61.8752 90.6762 60.6981 90.9587 59.4741L90.9616 59.4614L90.9632 59.4485C91.306 56.6631 91.0471 53.8096 90.6738 51.6675C90.5506 50.9606 90.4146 50.3292 90.2829 49.8012C90.4965 50.2871 90.7206 50.8834 90.9341 51.5701C91.5918 53.6864 92.1399 56.6344 91.9797 59.8109C91.8487 60.7546 91.7772 61.7684 91.7061 62.775C91.6771 63.1853 91.6483 63.5944 91.6155 63.997C91.501 65.4032 91.3388 66.7379 90.9684 67.8441L90.9606 67.8676L90.9575 67.8921C90.8881 68.4402 90.6469 68.9726 90.39 69.4329Z" fill="black" stroke="#0AC789" stroke-width="0.5"/>
<path d="M86.4859 47.6173C86.625 48.0031 86.7751 48.4704 86.9204 49.0017C87.3671 50.6357 87.7632 52.8578 87.6607 55.1558L87.6607 55.1562C87.5615 57.4659 87.4793 59.6785 87.4351 61.3117C87.4131 62.128 87.4005 62.8015 87.4001 63.2705C87.4 63.4657 87.402 63.6281 87.4064 63.7517L85.4088 63.8217C85.4155 63.6915 85.4296 63.5118 85.4508 63.2877C85.4985 62.7814 85.5807 62.0624 85.6886 61.2087C85.9042 59.5019 86.2218 57.2637 86.5697 55.1255C86.937 52.9112 86.8305 50.7088 86.6606 49.0573C86.6045 48.5119 86.5413 48.0248 86.4859 47.6173Z" fill="black" stroke="#0AC789" stroke-width="0.5"/>
<path d="M83.7127 56.2462L81.7058 56.3164C81.7209 56.2046 81.734 56.0693 81.7453 55.9151C81.7769 55.4869 81.7969 54.8872 81.8032 54.178C81.8158 52.7584 81.7732 50.8864 81.6533 49.0433C81.5336 47.2031 81.336 45.3793 81.0357 44.0622C80.9302 43.5996 80.8096 43.1876 80.6697 42.8557C80.8736 43.1203 81.0793 43.4872 81.282 43.9444C81.8441 45.212 82.3359 47.0614 82.7282 48.9657C83.1197 50.866 83.4087 52.8041 83.5696 54.2398C83.6501 54.9585 83.6979 55.5466 83.7109 55.9393C83.7151 56.0672 83.7154 56.1693 83.7127 56.2462Z" fill="black" stroke="#0AC789" stroke-width="0.5"/>
<path d="M93.6763 79.954L93.6801 79.9559L93.7382 82.1114C93.6925 82.1047 93.6375 82.0931 93.5722 82.0748C93.385 82.0225 93.1487 81.9256 92.867 81.7845C92.3045 81.5029 91.592 81.0611 90.7812 80.504C89.1614 79.391 87.1752 77.8355 85.2609 76.2316C83.347 74.628 81.5104 72.9805 80.1898 71.6852C79.5286 71.0367 79.0015 70.4812 78.6592 70.0659C78.6521 70.0573 78.6452 70.0488 78.6383 70.0404C78.6388 70.0408 78.6394 70.0412 78.64 70.0416C78.9709 70.2911 79.3981 70.6342 79.9071 71.0432C80.0618 71.1675 80.2242 71.298 80.3937 71.4337C81.8403 72.592 83.7874 74.1184 85.8983 75.4471C87.6769 76.7439 90.0266 78.056 91.7412 78.9607C92.5847 79.4057 93.2774 79.7537 93.6763 79.954Z" fill="black" stroke="#0AC789" stroke-width="0.5"/>
<path d="M80.3413 66.8242C80.0546 66.4843 79.8111 66.1756 79.6194 65.9068C79.8707 66.1168 80.1684 66.357 80.501 66.6192C81.6125 67.4955 83.1293 68.6292 84.6489 69.7287C86.1683 70.8281 87.6938 71.8957 88.823 72.6395C89.3862 73.0106 89.8564 73.3048 90.1793 73.4819C90.258 73.5251 90.3324 73.5639 90.4001 73.5957L89.7162 75.4678C89.7121 75.4659 89.7079 75.4639 89.7037 75.4618C89.5899 75.4059 89.438 75.3142 89.2505 75.1868C88.877 74.9328 88.3869 74.554 87.8208 74.0859C86.6902 73.1506 85.2729 71.8722 83.9105 70.5574C82.5475 69.242 81.2449 67.8956 80.3413 66.8242Z" fill="black" stroke="#0AC789" stroke-width="0.5"/>
<path d="M41.6977 93.1697L41.6981 93.1701C42.4506 93.9182 43.2815 94.6515 44.1773 95.3718C51.0923 100.932 63.2135 106.304 76.9307 105.148C76.6333 100.419 74.7666 85.8415 63.2147 76.5529C62.4226 75.916 61.5823 75.3054 60.7318 74.7388C55.2116 71.0844 50.6535 69.2763 46.115 68.3874C41.5697 67.4971 37.0347 67.5262 31.5407 67.5615L31.5388 67.5615L41.6977 93.1697ZM41.6977 93.1697C38.4463 89.9511 35.4582 84.7737 33.0512 79.734M41.6977 93.1697L33.0512 79.734M33.0512 79.734C30.7466 74.9084 28.9861 70.2336 28.0462 67.5801M33.0512 79.734L28.0462 67.5801M28.0462 67.5801C29.2527 67.5752 30.4168 67.569 31.5387 67.5615L28.0462 67.5801Z" fill="white" stroke="#0AC789" stroke-width="0.5"/>
<path d="M75.6567 104.286L75.9162 104.271L75.8915 104.012C75.3717 98.5504 73.0494 85.6831 62.6182 77.2956C61.8445 76.6735 61.0313 76.0858 60.1854 75.5246L60.1852 75.5244C54.798 71.9571 50.4101 70.1774 45.9684 69.3028C41.5374 68.4303 37.0629 68.4614 31.5223 68.4998L31.5121 68.4999L31.5107 68.4999C30.9333 68.5071 30.3335 68.5096 29.7325 68.5121L29.3751 68.5135L29.499 68.8487C30.6264 71.8978 32.4091 76.3892 34.6223 80.8234C36.8329 85.2524 39.4836 89.6466 42.3529 92.4843L42.3532 92.4847C43.0863 93.2066 43.8988 93.9259 44.7665 94.6236C51.3462 99.9142 62.7126 105.016 75.6567 104.286ZM61.527 73.5409L61.527 73.5409C62.4389 74.1438 63.3027 74.7733 64.1187 75.4294C71.4176 81.2982 74.9967 89.1041 76.7487 95.455C77.6244 98.6294 78.0424 101.436 78.2405 103.449C78.3396 104.455 78.3836 105.262 78.4025 105.817C78.4119 106.094 78.4151 106.308 78.4156 106.452C64.1135 108.095 51.0829 102.802 43.2531 96.5057C42.3187 95.7545 41.4542 94.9811 40.669 94.2064C36.5092 90.0874 32.8164 83.0008 30.1578 76.9154C28.8307 73.8777 27.7652 71.0989 27.0316 69.0794C26.6647 68.0698 26.381 67.2502 26.189 66.6833C26.1129 66.4589 26.0513 66.274 26.0046 66.1327C27.9608 66.1486 29.7947 66.1363 31.5366 66.1246C36.1977 66.0934 40.2 66.0666 44.1246 66.5957C49.5827 67.3315 54.8804 69.144 61.527 73.5409Z" fill="black" stroke="#0AC789" stroke-width="0.5"/>
<path d="M37.2613 71.8354C41.6984 75.3779 47.4419 79.3986 53.5007 83.6399C53.7322 83.802 53.9642 83.9643 54.1966 84.127C56.5939 85.7908 59.0075 87.5167 61.3303 89.1776C65.0147 91.8122 68.4706 94.2834 71.2707 96.0841C71.7238 96.3743 72.1626 96.6548 72.5858 96.9254C73.2862 97.3731 73.944 97.7937 74.5538 98.1859M37.2613 71.8354C32.9513 69.4666 30.4521 67.5386 29.7001 66.8551C29.7359 66.9288 29.7912 67.0233 29.8704 67.1392C29.9715 67.2872 30.104 67.4591 30.2671 67.652M37.2613 71.8354L37.1409 72.0545C37.1346 72.0511 37.1284 72.0476 37.1221 72.0442M37.2613 71.8354L37.1053 72.0308C37.1109 72.0353 37.1165 72.0397 37.1221 72.0442M30.2671 67.652C30.0848 67.5089 29.9277 67.381 29.7958 67.2699C29.6769 67.1698 29.5774 67.0823 29.4977 67.0087C30.0111 67.9878 32.5009 70.4937 36.333 73.0709C40.339 76.9614 46.3933 81.9476 52.2838 86.684M30.2671 67.652C30.5436 67.8691 30.8782 68.1214 31.2712 68.404C32.5725 69.34 34.5182 70.6121 37.1221 72.0442M30.2671 67.652L74.4139 98.3931M52.2838 86.684C54.301 88.2972 56.2739 89.9088 58.1878 91.4722C61.9724 94.5637 65.5262 97.4667 68.7351 99.8203M52.2838 86.684L52.4399 86.4888C52.44 86.4888 52.4401 86.4889 52.4402 86.489C54.4626 88.1063 56.4382 89.7201 58.3532 91.2844C62.134 94.3729 65.6788 97.2685 68.8824 99.6182M52.2838 86.684L74.4139 98.3931M68.7351 99.8203C69.1576 100.127 69.5666 100.424 69.9614 100.71C70.6502 101.211 71.2956 101.68 71.8931 102.11M68.7351 99.8203L68.883 99.6187C68.8828 99.6185 68.8826 99.6184 68.8824 99.6182M68.7351 99.8203L68.8819 99.6179C68.882 99.618 68.8822 99.6181 68.8824 99.6182M71.8931 102.11C72.0659 102.117 72.8555 103.168 73.2599 103.706C73.2981 103.757 73.3329 103.803 73.3634 103.844C74.0864 104.836 74.691 105.541 74.968 105.86L75.1499 105.688M71.8931 102.11L72.0392 101.907C72.0272 101.899 72.0151 101.89 72.0031 101.881M71.8931 102.11L71.9032 101.86C71.9414 101.862 71.9753 101.871 72.0031 101.881M75.1499 105.688C75.167 105.708 75.1829 105.726 75.1975 105.743L75.2051 105.752C75.2433 105.795 75.2742 105.831 75.2948 105.855C75.3007 105.862 75.3071 105.87 75.3133 105.878L78.8078 102.578M75.1499 105.688L78.4592 102.563M75.1499 105.688C75.0685 105.594 74.9601 105.469 74.8297 105.313C74.514 104.938 74.0687 104.387 73.5655 103.696L73.5655 103.696L73.5629 103.693C73.5329 103.653 73.4985 103.607 73.4606 103.557C73.2776 103.314 73.0126 102.961 72.7618 102.648C72.6107 102.46 72.461 102.281 72.3349 102.147C72.2723 102.081 72.2106 102.02 72.1542 101.974C72.1261 101.951 72.0941 101.927 72.0598 101.908C72.0463 101.9 72.027 101.89 72.0031 101.881M78.8078 102.578C78.8089 102.566 78.7495 102.504 78.6345 102.385C78.3915 102.132 77.9003 101.621 77.2076 100.779M78.8078 102.578L78.6361 102.396L78.4592 102.563M78.8078 102.578L78.5588 102.554C78.5523 102.624 78.5782 102.676 78.5818 102.683L78.5821 102.683C78.5893 102.698 78.596 102.707 78.5973 102.709L78.5974 102.709C78.5989 102.711 78.5997 102.712 78.5994 102.712C78.599 102.712 78.5973 102.709 78.5935 102.705C78.5801 102.69 78.5573 102.665 78.5219 102.628C78.5037 102.609 78.4827 102.587 78.4592 102.563M77.2076 100.779C76.9758 100.548 76.8042 100.333 76.6254 100.109C76.2244 99.6071 75.7873 99.0597 74.5538 98.1859M77.2076 100.779L77.0145 100.938C77.0171 100.941 77.0197 100.944 77.0223 100.947M77.2076 100.779L77.0311 100.956C77.0282 100.953 77.0252 100.95 77.0223 100.947M74.5538 98.1859L74.4093 98.3899C74.4108 98.3909 74.4124 98.392 74.4139 98.3931M74.5538 98.1859L74.4186 98.3961C74.417 98.3951 74.4155 98.3941 74.4139 98.3931M74.4139 98.3931C75.6159 99.2452 76.0188 99.7513 76.4099 100.243C76.5906 100.47 76.7689 100.694 77.0223 100.947M74.4139 98.3931C73.8056 98.0019 73.15 97.5828 72.4517 97.1363C72.0284 96.8657 71.5894 96.5851 71.1358 96.2946L71.1354 96.2943C68.3313 94.491 64.8654 92.0128 61.176 89.3747C58.8542 87.7145 56.4438 85.9909 54.054 84.3324L54.0532 84.3318C53.8196 84.1683 53.5863 84.005 53.3535 83.8421C47.3057 79.6084 41.5632 75.5884 37.1221 72.0442M77.0223 100.947C77.5329 101.568 77.9348 102.009 78.2096 102.301C78.3082 102.406 78.3912 102.492 78.4554 102.559C78.4567 102.56 78.4579 102.562 78.4592 102.563M72.0031 101.881C71.4161 101.458 70.7836 100.999 70.1089 100.509C69.7142 100.222 69.3052 99.9247 68.8824 99.6182M75.2159 105.817L75.1299 106.05C75.1259 106.041 75.0858 105.995 75.0154 105.914C75.001 105.898 74.9854 105.88 74.9686 105.86C74.972 105.858 74.9756 105.855 74.9793 105.852C75.0232 105.819 75.0689 105.807 75.1023 105.803C75.1608 105.796 75.205 105.813 75.2159 105.817ZM29.5782 66.8158L29.4727 66.6253C29.496 66.6572 29.545 66.7095 29.6199 66.7806C29.6093 66.7938 29.5955 66.8062 29.5782 66.8158Z" fill="black" stroke="#0AC789" stroke-width="0.5"/>
<path d="M58.2711 73.4491C58.701 73.7942 59.1863 74.2445 59.6895 74.7887C61.2426 76.4682 62.9366 79.0091 63.6941 82.0323L63.6973 82.0449L63.7017 82.0571C64.7463 84.9251 65.4146 87.8876 65.8094 90.1561C66.0067 91.2898 66.1354 92.2482 66.2085 92.9321C66.2451 93.2744 66.2676 93.5461 66.278 93.7358C66.2792 93.7575 66.2802 93.778 66.2811 93.7972L64.2883 93.7459C64.2903 93.5832 64.2867 93.3519 64.2761 93.0631C64.2529 92.4324 64.1958 91.5162 64.0871 90.4156C63.8702 88.218 63.447 85.2766 62.6742 82.3992C62.1415 79.325 60.7685 76.7379 59.4892 74.9561C59.063 74.3623 58.6456 73.856 58.2711 73.4491Z" fill="black" stroke="#0AC789" stroke-width="0.5"/>
<path d="M61.8086 90.3647C61.8539 90.6282 61.8985 90.8489 61.9468 91.0071L60.0413 91.6301C60.0367 91.6139 60.0319 91.5957 60.0269 91.5754C59.9862 91.4091 59.9491 91.1579 59.913 90.8264C59.8638 90.3757 59.8187 89.8013 59.7662 89.1329C59.7416 88.8205 59.7155 88.4875 59.6866 88.1372C59.5058 85.9482 59.2191 83.1108 58.5452 80.5429L58.5429 80.534L58.5399 80.5252C57.6163 77.8319 56.3286 75.3107 55.2362 73.4866C54.8727 72.8795 54.5298 72.3479 54.228 71.9116C54.5928 72.2867 55.0074 72.7614 55.4495 73.3187C56.7951 75.0149 58.3723 77.4472 59.55 80.0899C60.5706 82.994 61.1015 85.8177 61.4301 87.8928C61.5063 88.3737 61.5722 88.8188 61.631 89.2152C61.698 89.6682 61.7557 90.0577 61.8086 90.3647ZM60.0795 91.733C60.0819 91.7361 60.0831 91.7381 60.0831 91.7384C60.083 91.7386 60.0818 91.737 60.0795 91.733Z" fill="black" stroke="#0AC789" stroke-width="0.5"/>
<path d="M57.6618 87.026C57.6578 87.1428 57.6519 87.2553 57.6453 87.3627C57.6355 87.3647 57.6256 87.3673 57.6154 87.3705C57.4844 87.4128 57.44 87.5261 57.4276 87.5861C57.4157 87.6442 57.4206 87.7009 57.4265 87.7423C57.433 87.788 57.4447 87.8389 57.46 87.894C57.4808 87.9686 57.5107 88.0593 57.5508 88.1685L56.3778 89.4599C56.3513 89.4551 56.3266 89.4547 56.3044 89.4569C56.2732 89.4115 56.2315 89.3415 56.1777 89.2361C56.0606 89.0065 55.8971 88.6302 55.6686 88.0221C55.6775 87.7701 55.7158 87.5542 55.7571 87.3217C55.7753 87.2193 55.7941 87.1136 55.8112 87.0001C55.8676 86.625 55.8937 86.2147 55.775 85.6843C55.6657 84.6231 55.3229 83.4525 54.9101 82.182C54.8077 81.867 54.7009 81.5456 54.5919 81.2174C54.2564 80.2075 53.8996 79.1331 53.5834 77.9819L53.5808 77.9722L53.5773 77.9627C52.6155 75.3164 51.0793 72.903 49.7638 71.1777C49.3353 70.6157 48.9291 70.1251 48.572 69.7219C48.9827 70.0516 49.4516 70.4717 49.9514 70.9744C51.5123 72.5441 53.3551 74.8984 54.6583 77.7729C54.9744 78.6302 55.3599 79.5261 55.7439 80.4187C55.9212 80.8307 56.0982 81.2421 56.268 81.6486C56.8109 82.949 57.2827 84.207 57.4893 85.3396L57.4918 85.3531L57.4957 85.3662C57.657 85.9064 57.6796 86.4993 57.6618 87.026Z" fill="black" stroke="#0AC789" stroke-width="0.5"/>
<path d="M44.1696 69.5295C44.4711 69.8064 44.8199 70.1502 45.1936 70.5526C46.3425 71.7898 47.7153 73.5686 48.6745 75.6462L48.675 75.6471C49.6505 77.7378 50.5944 79.7313 51.3056 81.1951C51.6611 81.9266 51.9592 82.5275 52.1745 82.9425C52.2644 83.1158 52.341 83.259 52.402 83.3666L50.6554 84.357C50.6022 84.2388 50.533 84.0743 50.4499 83.8682C50.2605 83.3984 50.0037 82.725 49.7076 81.9209C49.1158 80.3132 48.3695 78.1895 47.6963 76.1411C47.0029 74.0059 45.8948 72.1038 44.9843 70.7197C44.6848 70.2644 44.4056 69.8637 44.1696 69.5295Z" fill="black" stroke="#0AC789" stroke-width="0.5"/>
<path d="M43.9102 79.4253C43.8718 79.3192 43.8209 79.1931 43.7597 79.051C43.5902 78.6573 43.3318 78.1172 43.011 77.4865C42.3688 76.2242 41.4702 74.5873 40.5162 73.0118C39.5636 71.4388 38.5494 69.9164 37.6761 68.8898C37.3684 68.5281 37.0705 68.2185 36.7922 67.9892C37.0967 68.1286 37.4502 68.3589 37.843 68.6714C38.9259 69.5329 40.2134 70.9418 41.4378 72.4453C42.6597 73.9456 43.808 75.5268 44.6122 76.7224C45.0147 77.3209 45.3285 77.819 45.5216 78.1603C45.5842 78.2709 45.6318 78.3609 45.6651 78.4301L43.9102 79.4253Z" fill="black" stroke="#0AC789" stroke-width="0.5"/>
<path d="M65.3863 94.816L65.428 94.8155L66.4722 96.6976C66.4286 96.7122 66.3748 96.7268 66.3092 96.7402C66.1179 96.7793 65.8624 96.8015 65.5464 96.8056C64.9153 96.8139 64.0768 96.75 63.0978 96.6296C61.142 96.3891 58.6558 95.9273 56.2117 95.3904C53.7681 94.8536 51.3732 94.2432 49.6006 93.7073C48.7131 93.439 47.988 93.1913 47.4923 92.9825C47.4896 92.9814 47.487 92.9803 47.4843 92.9792C47.8887 93.0473 48.4162 93.1523 49.0427 93.2769C49.2432 93.3168 49.4539 93.3588 49.6739 93.4021C51.495 93.7611 53.9298 94.2144 56.4181 94.4153C58.5981 94.7386 61.2963 94.816 63.2415 94.8268C64.172 94.832 64.9332 94.822 65.3863 94.816Z" fill="black" stroke="#0AC789" stroke-width="0.5"/>
<path d="M47.5096 89.3383C47.0924 89.1673 46.7297 89.0042 46.4336 88.8528C46.7582 88.9238 47.1405 89.0005 47.5658 89.0806C48.9595 89.3433 50.8326 89.6469 52.6925 89.9189C54.5523 90.1909 56.4029 90.4319 57.7515 90.5689C58.4242 90.6372 58.9787 90.6804 59.3481 90.6878C59.4382 90.6897 59.5225 90.6895 59.5976 90.6863L59.8492 92.6572C59.8432 92.6574 59.8369 92.6576 59.8305 92.6578C59.7024 92.6611 59.5241 92.6502 59.2977 92.6241C58.8467 92.5721 58.2347 92.4635 57.5142 92.3108C56.0749 92.0057 54.2234 91.5291 52.4048 90.9948C50.5854 90.4602 48.8062 89.8699 47.5096 89.3383Z" fill="black" stroke="#0AC789" stroke-width="0.5"/>
<path d="M96.2716 46.8016C98.53 42.6831 100.945 38.9946 102.389 36.8717C109.537 46.347 114.141 53.9025 114.437 66.0726L114.437 66.0728C114.579 71.7711 111.571 77.2293 108.103 81.5889C104.735 85.8224 100.961 88.9851 99.3186 90.2769C98.8938 90.018 98.4768 89.7242 98.0732 89.3996C94.3793 86.4295 92.2158 81.1568 91.1754 75.5326C90.1364 69.9163 90.2272 64.0019 90.9966 59.8065C91.7227 55.8834 93.9046 51.1181 96.2716 46.8016Z" fill="white" stroke="#0AC789" stroke-width="0.5"/>
<path d="M102.636 38.7822L102.424 38.4957L102.227 38.7928C100.601 41.2449 98.3422 44.8284 96.3333 48.65C94.3269 52.4668 92.5587 56.5408 91.9282 59.9693C91.1424 64.218 91.1162 70.0022 92.1344 75.4087C93.1507 80.8059 95.2186 85.8833 98.6692 88.6579C98.8178 88.7773 98.9798 88.8939 99.1281 89L99.2838 89.1115L99.432 88.9902C101.384 87.3912 104.959 84.2268 108.017 80.1923C111.07 76.1628 113.634 71.2319 113.507 66.106L113.507 66.1058C113.219 54.7763 109.065 47.4629 102.636 38.7822ZM102.063 34.8169C102.176 34.6561 102.271 34.5223 102.346 34.4176C109.752 44.1002 115.551 52.3723 115.878 66.012L115.878 66.0122C116.05 72.9594 111.939 79.4657 107.742 84.2594C105.648 86.6513 103.542 88.6059 101.96 89.9625C101.169 90.6406 100.509 91.1689 100.047 91.5274C99.8165 91.7066 99.6354 91.8433 99.5122 91.935C99.4872 91.9536 99.4646 91.9703 99.4444 91.9852C98.6304 91.5835 97.875 91.092 97.1608 90.5177C93.318 87.4279 90.9833 82.0425 89.8306 76.2233C88.6792 70.4107 88.7167 64.2117 89.578 59.5466C90.5179 54.4636 93.7486 48.1211 96.7626 43.0292C98.2669 40.4878 99.7122 38.2661 100.781 36.6797C101.316 35.8866 101.757 35.2525 102.063 34.8169Z" fill="black" stroke="#0AC789" stroke-width="0.5"/>
<path d="M112.224 65.5688C112.574 65.313 112.879 65.0754 113.131 64.8774C112.935 65.1406 112.685 65.4485 112.386 65.78C111.489 66.7757 110.177 67.965 108.646 68.7905L108.632 68.7979L108.62 68.8069C107.106 69.8853 105.37 70.4216 104.007 70.6877C103.327 70.8205 102.744 70.8854 102.332 70.9173C102.183 70.9289 102.057 70.9361 101.956 70.9407L102.057 68.9465C102.133 68.9519 102.223 68.9575 102.326 68.9625C102.678 68.9793 103.185 68.9877 103.789 68.9492C104.99 68.8725 106.587 68.6093 108.11 67.8467C109.782 67.2364 111.201 66.3177 112.224 65.5688Z" fill="black" stroke="#0AC789" stroke-width="0.5"/>
<path d="M113.892 70.6182C113.888 70.6156 113.884 70.6129 113.88 70.6099L113.926 70.5782C113.915 70.5907 113.904 70.6041 113.892 70.6182ZM101.691 76.0605C101.536 76.0653 101.404 76.0669 101.301 76.0667L101.605 74.0829C101.681 74.0915 101.774 74.1013 101.882 74.1112C102.226 74.1427 102.724 74.1757 103.331 74.1781C104.54 74.183 106.185 74.0662 107.896 73.5688C109.538 73.2 111.065 72.3485 112.195 71.6595C112.418 71.5232 112.624 71.3948 112.811 71.2776C112.943 71.1955 113.065 71.1188 113.179 71.0487C112.957 71.29 112.684 71.574 112.36 71.8794C111.402 72.7843 110.011 73.8724 108.25 74.5961L108.243 74.5989L108.237 74.602C106.616 75.3811 104.816 75.7529 103.413 75.9255C102.712 76.0115 102.114 76.0476 101.691 76.0605Z" fill="black" stroke="#0AC789" stroke-width="0.5"/>
<path d="M112.29 75.9841C112.088 76.2349 111.831 76.5272 111.526 76.8412C110.605 77.7893 109.252 78.9225 107.603 79.712L107.603 79.712L107.597 79.7151C105.97 80.5505 104.2 80.91 102.831 81.0777C102.148 81.1615 101.568 81.1971 101.158 81.221C101.14 81.2221 101.123 81.2231 101.105 81.2241C100.994 81.2306 100.895 81.2364 100.81 81.2423L100.968 79.2515C101.044 79.2545 101.141 79.2601 101.26 79.2674C101.28 79.2686 101.301 79.2699 101.322 79.2712C101.667 79.2925 102.15 79.3223 102.723 79.3269C103.938 79.3366 105.569 79.2333 107.197 78.6911C108.817 78.2044 110.273 77.3465 111.34 76.6381C111.702 76.3979 112.024 76.1718 112.29 75.9841Z" fill="black" stroke="#0AC789" stroke-width="0.5"/>
<path d="M103.015 62.9546C103.82 62.8825 105.321 62.7432 106.757 62.5715C107.618 62.4685 108.46 62.3534 109.116 62.2335C109.414 62.1791 109.678 62.123 109.89 62.0653C109.769 62.1715 109.603 62.2915 109.396 62.4222C108.772 62.8157 107.855 63.2531 106.931 63.6448C106.01 64.0355 105.094 64.3753 104.478 64.575C104.304 64.6316 104.158 64.6753 104.046 64.7057L103.015 62.9546Z" fill="black" stroke="#0AC789" stroke-width="0.5"/>
<path d="M103.07 45.2352C103.073 44.8361 103.075 44.4889 103.076 44.1994C103.147 44.4693 103.221 44.7983 103.296 45.1827C103.542 46.4562 103.785 48.3009 103.975 50.5266C104.354 54.9769 104.516 60.9306 104.054 66.8493L104.054 66.8493L104.054 66.8566C103.765 72.8113 103.185 78.6911 102.633 83.1359C102.357 85.3583 102.088 87.2204 101.866 88.5526C101.755 89.219 101.656 89.7504 101.574 90.1271C101.537 90.2977 101.504 90.4337 101.475 90.5348L97.1889 89.1467C97.2008 89.1082 97.2131 89.0664 97.226 89.022C97.3112 88.7268 97.4287 88.2664 97.5711 87.6671C97.8562 86.4668 98.244 84.6966 98.6778 82.5478C99.5451 78.2512 100.597 72.4348 101.378 66.6256C102.348 60.7954 102.762 54.9528 102.94 50.5597C103.029 48.3622 103.059 46.5264 103.07 45.2352Z" fill="black" stroke="#0AC789" stroke-width="0.5"/>
<path d="M98.538 107.203C96.4713 101.602 98.0248 94.5983 101.337 87.9308C104.675 81.2106 109.771 74.889 114.613 70.7925C118.509 67.4958 124.554 64.5685 130.338 62.2633C135.892 60.0498 141.181 58.4192 144.042 57.5914C143.361 72.633 141.846 83.6745 132.388 95.8045C127.921 101.536 120.561 104.426 113.718 105.861C107.046 107.261 100.91 107.268 98.538 107.203Z" fill="white" stroke="#0AC789" stroke-width="0.5"/>
<path d="M143.024 59.2232L143.042 58.8686L142.702 58.9709C139.366 59.9748 134.23 61.6428 129.064 63.7905C123.903 65.9359 118.69 68.5689 115.216 71.5091C110.732 75.3028 105.917 81.2316 102.623 87.5582C99.3336 93.8753 97.5321 100.645 99.1632 106.098L99.2159 106.274L99.3996 106.276C102.303 106.312 108.318 106.166 114.625 104.709C120.925 103.253 127.56 100.48 131.655 95.231L131.655 95.2308C140.591 83.7594 142.307 73.1822 143.024 59.2232ZM144.921 55.8424C145.193 55.7669 145.413 55.7071 145.575 55.6635C144.97 70.7967 143.958 83.3148 133.53 96.6828L133.53 96.6828C128.229 103.485 119.221 106.474 111.492 107.755C107.634 108.394 104.108 108.605 101.547 108.657C100.266 108.682 99.2274 108.668 98.5094 108.647C98.1504 108.637 97.8716 108.625 97.6829 108.616C97.6302 108.613 97.5845 108.611 97.546 108.608C94.8497 102.536 96.3789 94.9377 99.8499 87.7713C103.343 80.5602 108.773 73.8483 113.694 69.685C118.581 65.5512 126.62 62.0236 133.464 59.5256C136.881 58.2784 139.991 57.2909 142.247 56.6153C143.375 56.2775 144.289 56.0177 144.921 55.8424Z" fill="black" stroke="#0AC789" stroke-width="0.5"/>
<path d="M130.394 93.3477C130.918 93.3673 131.385 93.3696 131.776 93.3673C131.388 93.4547 130.917 93.5405 130.387 93.6112C128.765 93.8272 126.601 93.8985 124.508 93.454L124.492 93.4507L124.477 93.4494C122.22 93.2602 120.189 92.3939 118.72 91.5709C117.987 91.1601 117.397 90.7619 116.992 90.4682C116.819 90.3427 116.68 90.2363 116.579 90.1564L117.929 88.6693C118.006 88.7424 118.106 88.835 118.226 88.9428C118.554 89.236 119.039 89.6421 119.654 90.0773C120.879 90.9441 122.629 91.9338 124.689 92.3695C126.763 93.0773 128.834 93.2894 130.394 93.3477Z" fill="black" stroke="#0AC789" stroke-width="0.5"/>
<path d="M128.052 99.4213C128.052 99.4184 128.051 99.4154 128.051 99.4124L128.089 99.4168C128.077 99.4182 128.065 99.4197 128.052 99.4213ZM112.372 94.9415C112.191 94.7951 112.051 94.673 111.954 94.5823L113.449 93.2382C113.522 93.3188 113.617 93.4182 113.732 93.5328C114.041 93.8407 114.505 94.2662 115.095 94.743C116.275 95.6949 117.973 96.8581 119.982 97.6971C121.863 98.5927 123.979 98.9463 125.59 99.1452C125.951 99.1897 126.282 99.226 126.58 99.2587C126.727 99.2748 126.866 99.2901 126.997 99.3051C126.597 99.3506 126.116 99.3956 125.573 99.4225C123.954 99.5027 121.793 99.422 119.599 98.7219L119.599 98.7216L119.588 98.7187C117.461 98.1451 115.494 97.0899 114.062 96.1592C113.346 95.6945 112.767 95.2628 112.372 94.9415Z" fill="black" stroke="#0AC789" stroke-width="0.5"/>
<path d="M122.271 103.369C121.883 103.448 121.414 103.523 120.886 103.579C119.268 103.751 117.106 103.742 114.961 103.119L114.954 103.117L114.947 103.115C112.765 102.624 110.822 101.584 109.42 100.668C108.72 100.21 108.157 99.7857 107.77 99.4789C107.609 99.3515 107.479 99.2444 107.381 99.1634L108.775 97.7122C108.852 97.7904 108.954 97.8929 109.078 98.0141C109.396 98.3246 109.86 98.7593 110.448 99.2406C111.621 100.201 113.295 101.352 115.292 102.072C117.237 102.918 119.309 103.205 120.889 103.311C121.409 103.345 121.878 103.361 122.271 103.369Z" fill="black" stroke="#0AC789" stroke-width="0.5"/>
<path d="M130.65 87.8216C130.753 87.8583 130.849 87.8923 130.937 87.9242C130.722 87.9385 130.46 87.9442 130.163 87.9356C129.275 87.9098 128.101 87.7566 126.98 87.3403L126.98 87.3403L126.975 87.3384C125.758 86.9172 124.715 86.4166 124.025 86.0549C123.727 85.8988 123.495 85.7688 123.343 85.6822L123.675 83.6413C123.758 83.6821 123.858 83.7409 123.973 83.8174C124.239 83.9929 124.562 84.2431 124.932 84.5335C124.986 84.5761 125.041 84.6196 125.097 84.6637C125.793 85.2124 126.621 85.8646 127.443 86.3405C128.389 86.965 129.423 87.3776 130.212 87.665C130.371 87.7226 130.517 87.7743 130.65 87.8216Z" fill="black" stroke="#0AC789" stroke-width="0.5"/>
<path d="M138.501 65.6582C138.349 65.9685 138.155 66.3345 137.919 66.7511C137.127 68.1473 135.886 70.0833 134.296 72.3383C131.116 76.8477 126.554 82.6186 121.434 87.8793L121.434 87.8793L121.429 87.8846C116.45 93.3085 111.254 98.4408 107.229 102.225C105.216 104.117 103.498 105.672 102.247 106.756C101.621 107.298 101.114 107.722 100.746 108.011C100.562 108.155 100.416 108.264 100.31 108.336L97.9038 104.519C97.9667 104.478 98.0389 104.428 98.1192 104.372C98.4369 104.149 98.9124 103.793 99.5193 103.322C100.734 102.381 102.485 100.975 104.571 99.2414C108.742 95.775 114.259 90.9955 119.521 85.999C124.98 81.1319 129.914 75.8139 133.484 71.7038C135.27 69.648 136.715 67.8935 137.715 66.6475C138.019 66.269 138.282 65.9373 138.501 65.6582Z" fill="black" stroke="#0AC789" stroke-width="0.5"/>
<path d="M74.4964 97.5282C70.7394 94.5074 67.3386 91.0012 64.9162 87.6577C61.9489 83.5538 59.5192 77.3273 57.6877 71.4005C55.9281 65.7063 54.7282 60.3142 54.1356 57.4013C67.6855 58.9014 78.2673 60.9346 88.7791 69.3869C89.6057 70.0514 90.4447 70.7653 91.2566 71.4966C96.596 76.3214 98.8833 83.8608 99.7657 90.7934C100.626 97.5549 100.145 103.692 99.8921 106.056C93.1177 108.037 83.7323 104.955 74.4964 97.5282Z" fill="white" stroke="#0AC789" stroke-width="0.5"/>
<path d="M90.6159 72.1936L90.6159 72.1936C89.8128 71.4687 88.9903 70.7678 88.18 70.1163C78.2408 62.1244 68.5482 60.0139 55.668 58.5266L55.3211 58.4865L55.3949 58.8278C56.1314 62.2324 57.3825 67.472 59.1073 72.7701C60.8303 78.0626 63.0333 83.4369 65.6811 87.0956L65.6812 87.0957C68.0658 90.3868 71.4013 93.8195 75.0924 96.7875C83.6528 103.671 92.3683 106.814 98.8411 105.354L99.0186 105.314L99.0351 105.133C99.2986 102.23 99.6348 96.2104 98.6902 89.8155C97.7466 83.4274 95.5184 76.621 90.6159 72.1936ZM52.3324 55.747C66.3384 57.2231 78.0453 58.8944 89.6806 68.2501C90.5308 68.9337 91.3777 69.6539 92.2215 70.4108C98.5661 76.1419 100.82 85.3299 101.476 93.1338C101.803 97.0292 101.731 100.565 101.577 103.127C101.499 104.408 101.402 105.444 101.324 106.16C101.285 106.518 101.25 106.796 101.226 106.984C101.219 107.038 101.213 107.084 101.207 107.123C96.972 108.688 92.1992 108.276 87.4249 106.626C82.5998 104.958 77.7945 102.033 73.5839 98.6473C69.5982 95.4425 66.1503 91.833 63.7435 88.5019L63.7433 88.5017C60.0143 83.3542 57.1452 75.0968 55.2066 68.0989C54.2387 64.6051 53.5051 61.4345 53.0136 59.1374C52.7679 57.989 52.5826 57.0591 52.4589 56.4166C52.4051 56.1371 52.3629 55.912 52.3324 55.747Z" fill="black" stroke="#0AC789" stroke-width="0.5"/>
<path d="M88.6462 73.3446C88.707 72.8262 88.7462 72.3624 88.7748 71.9738C88.8298 72.3645 88.8768 72.8349 88.9042 73.3638C88.989 74.9974 88.8859 77.1644 88.2725 79.2327L88.268 79.2477L88.2655 79.2632C87.8969 81.5053 86.8715 83.4796 85.9339 84.8957C85.4659 85.6026 85.0219 86.1673 84.6966 86.5531C84.557 86.7188 84.4394 86.8513 84.3514 86.9478L82.9828 85.5038C83.0623 85.4308 83.164 85.3356 83.2832 85.2195C83.6008 84.9101 84.0431 84.4519 84.5248 83.8662C85.4842 82.6996 86.6078 81.0176 87.2068 78.9901C88.0855 76.9593 88.4637 74.901 88.6462 73.3446Z" fill="black" stroke="#0AC789" stroke-width="0.5"/>
<path d="M94.5057 76.0806C94.5013 76.081 94.4969 76.0812 94.4923 76.0812L94.5036 76.0269C94.5041 76.0437 94.5048 76.0617 94.5057 76.0806ZM88.7806 91.4647C88.6206 91.6355 88.4878 91.7683 88.3896 91.86L87.1766 90.2696C87.2625 90.2018 87.3694 90.1127 87.4934 90.0041C87.8238 89.7148 88.2838 89.2794 88.8055 88.7196C89.8473 87.6017 91.1423 85.9798 92.1415 84.0251C93.1835 82.2076 93.7053 80.1185 94.0331 78.5222C94.1061 78.1666 94.1686 77.8398 94.225 77.5454C94.2527 77.4009 94.2789 77.2642 94.3041 77.1357C94.3166 77.5354 94.3221 78.0141 94.3053 78.5525C94.2545 80.1756 94.0007 82.3327 93.1289 84.4834L93.1287 84.4834L93.125 84.4936C92.3839 86.579 91.1738 88.4774 90.1307 89.851C89.6098 90.5369 89.1328 91.089 88.7806 91.4647Z" fill="black" stroke="#0AC789" stroke-width="0.5"/>
<path d="M97.8089 83.4851C97.8849 82.9706 97.9375 82.5059 97.9778 82.1148C98.0239 82.5041 98.0603 82.9709 98.0736 83.495C98.1149 85.1218 97.9333 87.283 97.1433 89.3862L97.1407 89.3931L97.1385 89.4002C96.4736 91.5473 95.2805 93.4242 94.2549 94.7678C93.743 95.4386 93.2746 95.9741 92.9378 96.3414C92.7977 96.4941 92.6804 96.6178 92.5918 96.7104L91.2679 95.2304C91.3521 95.158 91.4627 95.0626 91.5941 94.9457C91.9284 94.6485 92.3979 94.2125 92.9238 93.6558C93.9727 92.5453 95.2526 90.9473 96.1292 89.0032C97.1247 87.1119 97.5767 85.0576 97.8089 83.4851Z" fill="black" stroke="#0AC789" stroke-width="0.5"/>
<path d="M83.2851 72.4568C83.2821 72.6711 83.2671 72.9305 83.2354 73.2227C83.1393 74.1088 82.8925 75.2726 82.3838 76.3699L82.3837 76.3699L82.3814 76.3753C81.865 77.5611 81.2813 78.5715 80.8651 79.2394C80.6853 79.5279 80.5371 79.7522 80.4388 79.8995L78.4474 79.4402C78.4948 79.3607 78.5606 79.2667 78.6445 79.1582C78.8404 78.9048 79.1149 78.5976 79.4327 78.2471C79.476 78.1994 79.52 78.1509 79.5646 78.1017C80.1675 77.4378 80.8863 76.6464 81.429 75.8497C82.1267 74.9392 82.62 73.9325 82.9693 73.163C83.0389 73.0098 83.1018 72.8681 83.1593 72.7386C83.2044 72.637 83.2461 72.543 83.2851 72.4568Z" fill="black" stroke="#0AC789" stroke-width="0.5"/>
<path d="M61.7111 63.4627C62.0103 63.6349 62.3628 63.855 62.7636 64.121C64.0908 65.0019 65.9193 66.3667 68.0374 68.1002C72.2731 71.5666 77.6531 76.4952 82.4794 81.9475L82.4793 81.9476L82.4844 81.953C87.4862 87.2728 92.1785 92.7932 95.6225 97.0573C97.3445 99.1895 98.7535 101.006 99.7323 102.326C100.222 102.986 100.603 103.52 100.86 103.906C100.99 104.099 101.086 104.252 101.149 104.363C101.15 104.364 101.15 104.364 101.15 104.364L97.158 106.525C97.1224 106.461 97.0797 106.387 97.0309 106.304C96.8339 105.973 96.5171 105.475 96.0973 104.838C95.2567 103.564 93.9962 101.724 92.4368 99.5289C89.3187 95.1388 85.0023 89.3207 80.4553 83.7466C76.047 77.9802 71.146 72.7057 67.3381 68.872C65.4335 66.9545 63.8015 65.3966 62.6402 64.3169C62.2846 63.9863 61.973 63.7004 61.7111 63.4627Z" fill="black" stroke="#0AC789" stroke-width="0.5"/>
<path d="M126.343 95.6375L126.343 95.6375C134.17 96.718 140.435 99.2585 147.707 102.217L147.707 102.217C147.96 102.319 148.213 102.422 148.467 102.525C150.717 103.437 153.025 104.374 155.489 105.299C153.891 106.352 152.133 107.718 150.161 109.252C150.023 109.359 149.883 109.467 149.743 109.576L149.743 109.577C143.33 114.587 135.394 120.779 125.43 123.257L125.43 123.257C115.05 125.842 105.589 122.112 100.649 118.141C97.9238 115.949 96.2552 113.521 95.8882 111.292C96.0066 107.905 97.5518 104.919 100.511 102.384C104.042 99.3692 108.937 97.464 113.745 96.4223C118.553 95.3808 123.243 95.209 126.343 95.6375Z" fill="white" stroke="#0AC789" stroke-width="0.5"/>
<path d="M153.107 105.826L153.476 105.558L153.051 105.391C151.074 104.614 149.192 103.849 147.331 103.087L147.331 103.087L147.262 103.059C140.109 100.156 133.887 97.6305 126.189 96.5672L126.189 96.5672C123.03 96.1314 118.406 96.3629 113.757 97.3985C109.11 98.4338 104.405 100.28 101.104 103.098L101.103 103.098C98.3816 105.43 96.9669 108.074 96.8228 111.179L96.8215 111.209L96.827 111.238C97.2091 113.23 98.8205 115.45 101.237 117.393C106.031 121.248 115.166 124.846 125.201 122.347L125.201 122.347C134.979 119.91 142.867 113.757 149.163 108.84C149.359 108.688 149.553 108.537 149.744 108.388C150.942 107.457 152.054 106.592 153.107 105.826ZM148.256 100.878C151.569 102.226 155.056 103.643 158.928 105.014C157.428 105.666 155.709 106.837 153.783 108.282C152.788 109.029 151.731 109.853 150.616 110.724C150.492 110.821 150.367 110.919 150.241 111.017C148.986 111.996 147.657 113.029 146.252 114.076C140.629 118.266 133.808 122.664 125.764 124.67C115.723 127.168 105.682 124.04 99.7447 119.266C96.7585 116.865 94.8406 114.066 94.4414 111.391C94.6135 104.436 100.056 99.7937 106.809 97.0521C113.562 94.3107 121.533 93.5136 126.546 94.2021C132.472 95.0207 137.54 96.6669 142.721 98.6657C144.536 99.3659 146.367 100.111 148.256 100.878Z" fill="black" stroke="#0AC789" stroke-width="0.5"/>
<path d="M119.057 111.933L119.057 111.933L119.052 111.934C113.181 112.736 107.286 113.16 102.803 113.337C100.562 113.426 98.6756 113.452 97.3237 113.434C96.6472 113.424 96.1077 113.404 95.7256 113.375C95.5524 113.361 95.4154 113.346 95.3144 113.331L96.1338 108.873C96.1748 108.88 96.2189 108.887 96.2654 108.894C96.5687 108.938 97.0374 108.988 97.6441 109.038C98.8596 109.138 100.647 109.243 102.813 109.322C107.145 109.482 113.002 109.54 118.85 109.255C124.713 109.106 130.553 108.592 134.936 108.165C135.79 108.082 136.588 108.002 137.32 107.929C138.469 107.814 139.455 107.716 140.24 107.646C140.626 107.611 140.962 107.584 141.242 107.566C140.977 107.656 140.657 107.758 140.284 107.869C139.045 108.237 137.256 108.699 135.091 109.189C130.763 110.169 124.947 111.258 119.057 111.933ZM95.157 113.297C95.157 113.297 95.1576 113.297 95.1587 113.297L95.157 113.297Z" fill="black" stroke="#0AC789" stroke-width="0.5"/>
<path d="M40.0927 109.683C41.4875 108.92 43.0272 107.954 44.747 106.874C44.8258 106.824 44.905 106.774 44.9846 106.724L44.9851 106.724L45.0033 106.713C50.8966 102.995 58.1784 98.4023 66.8409 97.1382C73.5572 96.1588 80.6864 98.0836 85.9132 102.286C88.8447 104.643 90.6318 107.402 90.7912 109.677C90.404 112.487 88.865 114.846 86.1799 116.71L86.1798 116.711C82.9351 118.966 78.6274 120.167 74.4634 120.64C70.3003 121.114 66.3115 120.858 63.7222 120.227L63.7217 120.227C57.1836 118.647 52.0906 115.954 46.1689 112.824L46.0808 112.777L46.0798 112.777C45.7945 112.627 45.5083 112.478 45.2209 112.327C43.5734 111.465 41.8864 110.581 40.0927 109.683Z" fill="white" stroke="#0AC789" stroke-width="0.5"/>
<path d="M89.8333 109.708L89.8381 109.676L89.8349 109.645C89.7314 108.617 89.2408 107.483 88.4637 106.353C87.6847 105.221 86.6082 104.08 85.3113 103.037C81.4254 99.9127 74.5795 96.9793 66.9633 98.0722L66.9631 98.0722C58.4764 99.2989 51.2448 103.866 45.4762 107.514L45.4756 107.515C44.4096 108.193 43.406 108.827 42.4686 109.395L42.0885 109.626L42.4829 109.831C43.4238 110.32 44.3437 110.805 45.2504 111.282C45.6789 111.508 46.1046 111.732 46.528 111.955L46.5571 111.97C52.4139 115.07 57.5015 117.762 63.9528 119.326C66.5856 119.967 70.5049 120.165 74.5087 119.688C78.511 119.21 82.6316 118.053 85.6492 115.953L85.6494 115.953C88.0644 114.269 89.4461 112.229 89.8333 109.708ZM48.2451 103.007C53.4089 99.9049 59.6113 96.731 66.6493 95.711C74.5142 94.5732 81.9959 97.2856 86.8183 101.163C90.0971 103.8 92.1056 106.933 92.2406 109.738C91.498 115.651 86.4654 119.148 80.4638 120.912C74.4627 122.676 67.589 122.672 63.3724 121.652C58.3831 120.441 54.1966 118.597 49.9423 116.442C48.454 115.688 46.9543 114.895 45.4083 114.076C42.713 112.65 39.8767 111.149 36.7141 109.654C38.0367 109.214 39.5795 108.37 41.3125 107.32C42.2221 106.769 43.1904 106.157 44.2124 105.511C44.3321 105.436 44.4524 105.36 44.5735 105.283C45.7301 104.553 46.9546 103.783 48.2451 103.007Z" fill="black" stroke="#0AC789" stroke-width="0.5"/>
<path d="M51.2911 109.029L51.2915 109.032C51.2914 109.031 51.2913 109.03 51.2911 109.029ZM51.2911 109.029C51.2841 108.977 51.261 108.94 51.2419 108.917C51.1062 108.973 51.0379 109.022 51.0434 109.062C51.0477 109.097 51.1259 109.126 51.2718 109.15L51.2911 109.029ZM71.2828 106.945L71.2828 106.945L71.2881 106.944C76.3798 106.729 81.4601 106.84 85.319 107.052C87.2485 107.158 88.8706 107.289 90.0344 107.416C90.6169 107.48 91.0814 107.542 91.4112 107.6C91.5479 107.624 91.6584 107.646 91.743 107.667L90.4847 112.017C90.4675 112.012 90.4499 112.007 90.4319 112.003C90.1822 111.937 89.7911 111.853 89.2825 111.755C88.263 111.559 86.7529 111.306 84.9147 111.039C81.2389 110.507 76.243 109.919 71.222 109.628C66.2064 109.217 61.1726 109.115 57.3903 109.065C56.8779 109.058 56.3887 109.052 55.9258 109.047C54.6781 109.032 53.6211 109.019 52.8133 108.996C52.4769 108.987 52.1863 108.975 51.9447 108.962C52.1789 108.902 52.4627 108.837 52.7929 108.769C53.8813 108.543 55.4489 108.283 57.3405 108.03C61.1231 107.525 66.1882 107.052 71.2828 106.945Z" fill="black" stroke="#0AC789" stroke-width="0.5"/>
</svg>
