<svg width="19" height="19" viewBox="0 0 19 19" fill="transparent" xmlns="http://www.w3.org/2000/svg">
<path d="M12.4168 5.09582V6.62082H13.1193V4.30762H4.92871V5.69554L8.47569 9.24252V9.82511L4.92871 13.749V14.6915H13.1193V12.2754H12.4168V13.9375H6.50513V13.2521L9.53804 9.96219V9.07117L6.50513 6.03826V5.09582H12.4168Z"/>
<path fill-rule="evenodd" clip-rule="evenodd" d="M5.02441 0.5C2.26299 0.5 0.0244141 2.73857 0.0244141 5.5V13.5C0.0244141 16.2614 2.26299 18.5 5.02441 18.5H13.0244C15.7858 18.5 18.0244 16.2614 18.0244 13.5V5.5C18.0244 2.73858 15.7858 0.5 13.0244 0.5H5.02441ZM5.6391 1.11419C2.87768 1.11419 0.639099 3.35276 0.639099 6.11419V12.8856C0.639099 15.647 2.87768 17.8856 5.6391 17.8856H12.4105C15.1719 17.8856 17.4105 15.647 17.4105 12.8856V6.11419C17.4105 3.35276 15.1719 1.11419 12.4105 1.11419H5.6391Z"/>
</svg>
