<svg width="181" height="32" viewBox="0 0 181 32" fill="none" xmlns="http://www.w3.org/2000/svg">
<path d="M77.8109 23.0452C78.4381 20.8969 79.0652 18.762 79.6924 16.6137C81.1068 11.7967 82.5212 6.99301 83.9223 2.17601C84.0157 1.84243 84.1624 1.74902 84.5094 1.74902C87.0046 1.76237 89.4998 1.76237 91.9951 1.74902C92.342 1.74902 92.4487 1.84243 92.4354 2.18936C92.422 3.13675 92.4354 3.13675 91.4613 3.17678C91.061 3.19012 90.6741 3.28352 90.2871 3.40362C89.4465 3.6438 89.1529 4.28429 89.0462 5.07155C88.9794 5.5786 88.9394 6.099 88.9394 6.61939C88.9394 13.2244 88.9394 19.8161 88.9527 26.4211C88.9527 26.8348 88.9928 27.2484 89.0595 27.6621C89.2463 28.8363 89.8468 29.3433 91.101 29.4368C91.4346 29.4634 91.7816 29.4634 92.1285 29.4634C92.3553 29.4634 92.4354 29.5435 92.4354 29.7703C92.4888 30.9579 92.5021 30.9579 91.3279 30.9579C88.2589 30.9579 85.1765 30.9446 82.1075 30.9713C81.7339 30.9713 81.6405 30.8645 81.6405 30.5042C81.6672 29.5035 81.6405 29.5035 82.6546 29.4634C84.1224 29.3967 84.7095 28.8363 84.883 27.3952C84.9364 26.9282 84.963 26.4478 84.963 25.9808C84.963 19.0155 84.963 12.0368 84.963 5.07155C84.963 4.97815 84.963 4.89809 84.963 4.80468C84.9364 4.80468 84.9097 4.79134 84.883 4.79134C84.7362 5.28505 84.5761 5.7921 84.4426 6.28581C82.1342 14.3319 79.8125 22.3914 77.5174 30.4375C77.3973 30.8512 77.2505 31.0647 76.8102 30.9846C76.6634 30.9579 76.5166 30.9713 76.3698 30.9846C76.103 31.0113 75.9829 30.9179 75.9028 30.651C75.3157 28.5427 74.7019 26.4345 74.1014 24.3262C72.3668 18.2549 70.6455 12.2237 68.9242 6.1924C68.7907 5.73872 68.6707 5.29839 68.5372 4.83137C68.4171 4.89809 68.4438 4.97815 68.4438 5.03152C68.4438 11.9301 68.4572 18.8153 68.4705 25.7139C68.4705 26.2076 68.5372 26.688 68.6573 27.1684C69.0042 28.6228 69.9917 29.4101 71.4995 29.4368C72.2067 29.4501 72.2067 29.3033 72.2067 30.1306C72.2067 30.9446 72.2067 30.9446 71.3794 30.9446C68.8575 30.9446 66.3355 30.9312 63.8136 30.9579C63.44 30.9579 63.2532 30.9045 63.3199 30.4775C63.3733 30.1573 63.1998 29.757 63.4 29.5302C63.5868 29.3167 63.9871 29.4634 64.294 29.4368C65.4816 29.33 66.4289 28.3693 66.6291 27.0082C66.7492 26.1543 66.8159 25.3003 66.8159 24.4463C66.8159 18.3617 66.8159 12.2904 66.8159 6.20575C66.8159 5.73873 66.7759 5.28505 66.7092 4.83137C66.5624 3.7372 66.0153 3.25684 64.8544 3.19012C64.4674 3.16343 64.0805 3.19012 63.6935 3.17678C62.973 3.15009 63.4267 2.60301 63.3466 2.30945C63.2799 2.09595 63.1865 1.74902 63.6935 1.74902C65.1213 1.77571 66.549 1.76237 67.9634 1.76237C69.0443 1.76237 70.1251 1.77571 71.2193 1.76237C71.5262 1.76237 71.6729 1.82908 71.7663 2.16267C73.1941 7.17982 74.6352 12.1836 76.0629 17.1874C76.6234 19.1489 77.1971 21.1104 77.7576 23.0719C77.7576 23.0452 77.7843 23.0452 77.8109 23.0452Z" fill="#A2A3A5"/>
<path d="M10.6817 14.6917C10.6817 10.7287 10.6683 6.779 10.695 2.81598C10.695 2.38899 10.5616 2.30893 10.1746 2.30893C7.95961 2.2689 6.01146 2.86936 4.51699 4.60401C3.54292 5.73821 3.03587 7.11259 2.72897 8.56703C2.5555 9.39432 2.44875 10.235 2.36869 11.0756C2.35535 11.3024 2.28863 11.3692 2.04845 11.3692C0.940941 11.3825 0.940941 11.3958 0.967628 10.3017C1.04769 7.29939 1.11441 4.29711 1.16778 1.28148C1.18112 0.934553 1.28787 0.854492 1.62146 0.854492C9.17387 0.867836 16.7263 0.867836 24.292 0.854492C24.6256 0.854492 24.7324 0.92121 24.7457 1.28148C24.7857 4.47058 24.8525 7.65967 24.9192 10.8354C24.9325 11.2224 24.8258 11.3425 24.4388 11.3425C23.5048 11.3558 23.4914 11.3692 23.3446 10.4485C23.1578 9.27423 22.9043 8.12669 22.504 7.00584C21.3164 3.75003 19.4083 2.38899 15.9524 2.30893C15.1117 2.29559 15.1117 2.29559 15.1117 3.13623C15.1117 10.8354 15.1251 18.5213 15.1251 26.2205C15.1251 26.7408 15.1784 27.2479 15.2852 27.7683C15.4587 28.5689 15.9524 29.0359 16.7263 29.2227C17.4869 29.4095 18.2608 29.4229 19.0214 29.3962C19.3283 29.3829 19.4617 29.4362 19.4617 29.7965C19.4484 30.9174 19.4617 30.9174 18.3275 30.9174C14.4846 30.9174 10.6417 30.9174 6.79873 30.9307C6.4518 30.9307 6.31836 30.8506 6.3584 30.4904C6.39843 30.1434 6.21162 29.6764 6.43846 29.4629C6.62526 29.2895 7.09229 29.3962 7.42587 29.3962C7.94627 29.3962 8.46667 29.3562 8.97372 29.2361C9.97448 28.9959 10.4282 28.4888 10.5883 27.4747C10.6817 26.8609 10.695 26.2338 10.695 25.6066C10.6817 21.9906 10.6817 18.3478 10.6817 14.6917Z" fill="#A2A3A5"/>
<path d="M117.468 13.3972C118.122 12.2496 118.936 11.3556 120.137 10.8219C122.352 9.82112 125.461 10.4082 127.342 12.1963C128.93 13.7041 129.744 15.5989 130.091 17.7071C130.545 20.4425 130.398 23.1379 129.411 25.7532C128.677 27.7014 127.556 29.4094 125.674 30.4101C123.019 31.8112 120.444 31.7044 118.042 29.7696C117.748 29.5428 117.468 29.3026 117.175 29.0758C116.774 28.7689 116.414 28.7956 116.067 29.1558C115.707 29.5294 115.427 29.9831 115.186 30.4368C114.986 30.8104 114.746 30.9839 114.279 30.9572C113.478 30.9038 113.478 30.9439 113.639 30.1699C113.772 29.5161 113.825 28.8489 113.825 28.1818C113.825 20.7227 113.825 13.2637 113.825 5.80474C113.825 5.43112 113.812 5.07084 113.745 4.69723C113.532 3.56303 113.105 3.16273 111.971 3.09601C111.33 3.05598 111.33 3.05598 111.33 2.44218C111.33 1.775 111.33 1.74832 111.957 1.70829C113.719 1.60154 115.48 1.53482 117.241 1.44142C117.401 1.42807 117.468 1.48145 117.455 1.64157C117.455 1.76166 117.455 1.88175 117.455 2.00184C117.455 5.65796 117.455 9.32741 117.455 12.9835C117.468 13.117 117.468 13.2637 117.468 13.3972ZM126.115 20.4692C126.141 19.3217 126.075 17.974 125.834 16.6396C125.608 15.3987 125.301 14.1711 124.5 13.1437C123.673 12.0895 122.579 11.6759 121.271 11.9561C120.163 12.1963 119.363 12.8768 118.736 13.7708C117.668 15.2786 117.348 17.0133 117.201 18.8013C117.054 20.6027 117.108 22.4174 117.375 24.2054C117.602 25.6999 117.962 27.141 118.909 28.3686C120.324 30.21 122.952 30.3034 124.38 28.5821C124.86 28.0083 125.167 27.3278 125.394 26.6206C125.995 24.6991 126.128 22.6976 126.115 20.4692Z" fill="#A2A3A5"/>
<path d="M92.8623 20.8838C92.8623 18.522 93.2626 16.2536 94.4902 14.1987C95.9313 11.7968 98.0663 10.4492 100.855 10.209C105.485 9.80866 108.421 12.7042 109.555 16.2002C110.743 19.843 110.649 23.4724 108.955 26.9684C107.42 30.1308 104.391 31.8388 100.882 31.5452C97.4658 31.265 95.1974 29.3702 93.8497 26.3012C93.1292 24.6066 92.8623 22.9653 92.8623 20.8838ZM106.139 21.0038C106.126 19.7496 106.086 18.6287 105.952 17.5079C105.805 16.2002 105.539 14.9059 104.885 13.7316C104.351 12.7576 103.59 12.037 102.496 11.7168C101.055 11.3031 99.5874 11.8636 98.64 13.1712C97.6126 14.599 97.3057 16.2536 97.1589 17.9482C96.9587 20.0698 96.9721 22.2048 97.239 24.3264C97.4124 25.6741 97.6793 26.9817 98.3465 28.1826C99.6408 30.4911 102.656 30.8513 104.324 28.8765C104.925 28.156 105.272 27.3153 105.525 26.4213C106.019 24.6066 106.086 22.7385 106.139 21.0038Z" fill="#A2A3A5"/>
<path d="M163.329 20.7626C161.514 20.7626 159.713 20.7759 157.898 20.7626C157.565 20.7626 157.431 20.8293 157.445 21.2029C157.525 23.2178 157.645 25.2193 158.365 27.1408C159.646 30.5701 163.809 30.3699 165.544 28.5952C166.371 27.7546 166.985 26.7939 167.479 25.7397C167.639 25.4061 167.799 25.3528 168.079 25.5529C168.133 25.5929 168.186 25.6196 168.226 25.6463C168.987 26.0733 168.987 26.0733 168.546 26.8472C167.799 28.1682 166.945 29.4225 165.691 30.3165C162.542 32.5316 158.005 31.7576 155.643 28.6219C154.536 27.1408 153.922 25.4462 153.628 23.6448C153.215 20.9761 153.281 18.3207 154.229 15.7588C155.016 13.6238 156.257 11.8492 158.379 10.8084C161.261 9.39396 164.864 10.328 166.865 12.9567C168.093 14.5846 168.706 16.4527 169.013 18.4408C169.107 19.0546 169.173 19.6684 169.2 20.2956C169.214 20.6692 169.12 20.7759 168.746 20.7759C166.945 20.7493 165.144 20.7626 163.329 20.7626ZM161.328 19.2014C162.502 19.2014 163.676 19.1881 164.837 19.2014C165.117 19.2014 165.224 19.1347 165.224 18.8278C165.197 18.1606 165.21 17.4935 165.117 16.8396C164.93 15.5186 164.663 14.211 163.889 13.0768C163.102 11.9292 161.888 11.4489 160.647 11.8091C159.673 12.1027 159.059 12.8099 158.605 13.6772C157.738 15.3185 157.578 17.1198 157.471 18.9212C157.458 19.2414 157.671 19.1881 157.858 19.1881C159.006 19.2014 160.167 19.2014 161.328 19.2014Z" fill="#A2A3A5"/>
<path d="M149.186 14.1448C149.186 18.0411 149.186 21.9374 149.186 25.847C149.186 26.5809 149.199 27.3281 149.346 28.062C149.559 29.1162 150.026 29.5031 151.081 29.5298C152.135 29.5565 152.121 29.5565 152.108 30.5973C152.108 30.9042 151.988 30.9576 151.721 30.9576C148.839 30.9442 145.957 30.9442 143.088 30.9576C142.781 30.9576 142.688 30.8775 142.688 30.5573C142.688 29.5432 142.674 29.5432 143.662 29.5298C144.903 29.5031 145.423 28.9694 145.53 27.595C145.57 26.9945 145.61 26.3807 145.61 25.7803C145.61 19.4822 145.61 13.184 145.61 6.88592C145.61 6.12534 145.596 5.37811 145.463 4.63087C145.276 3.60342 144.822 3.20312 143.795 3.12306C143.662 3.10971 143.528 3.09637 143.395 3.12306C143.048 3.17643 142.941 3.043 142.941 2.68272C142.954 1.8154 142.941 1.77536 143.755 1.72199C145.503 1.61524 147.251 1.56187 148.999 1.46846C149.159 1.45512 149.212 1.52184 149.212 1.66862C149.212 1.78871 149.212 1.9088 149.212 2.02889C149.186 6.04528 149.186 10.1017 149.186 14.1448Z" fill="#A2A3A5"/>
<path d="M138.297 19.0149C138.297 21.5769 138.297 24.1388 138.297 26.7141C138.297 27.2211 138.337 27.7149 138.457 28.2086C138.67 29.1026 139.137 29.4762 140.058 29.5162C140.285 29.5296 140.512 29.5429 140.725 29.5162C141.099 29.4762 141.166 29.6363 141.166 29.9699C141.152 30.944 141.166 30.944 140.178 30.944C137.523 30.944 134.868 30.944 132.212 30.9573C131.892 30.9573 131.772 30.8906 131.785 30.5437C131.799 29.5563 131.785 29.5563 132.773 29.5296C133.813 29.5029 134.294 29.1293 134.507 28.1152C134.587 27.7282 134.641 27.3279 134.641 26.9276C134.654 22.8845 134.641 18.8281 134.641 14.785C134.641 14.3447 134.574 13.9043 134.467 13.464C134.267 12.6901 133.853 12.3298 133.079 12.2498C132.959 12.2364 132.839 12.2364 132.733 12.1964C132.492 12.1297 132.119 12.3165 132.039 12.0763C131.932 11.7427 131.985 11.3424 131.999 10.9821C132.012 10.782 132.185 10.8487 132.319 10.8353C133.093 10.782 133.853 10.7286 134.627 10.6752C135.681 10.6085 136.736 10.5685 137.776 10.4751C138.23 10.435 138.31 10.5818 138.31 11.0088C138.283 13.6775 138.297 16.3462 138.297 19.0149Z" fill="#A2A3A5"/>
<path d="M25.0779 17.6676C25.0779 18.575 25.0645 19.469 25.0779 20.3764C25.0779 20.6699 24.9978 20.7633 24.7043 20.7633C22.9429 20.75 21.1816 20.75 19.4069 20.7633C19.0867 20.7633 19.0066 20.6299 19.0199 20.3363C19.0333 18.5483 19.0333 16.7469 19.0199 14.9589C19.0199 14.6387 19.1133 14.5586 19.4202 14.5586C21.1682 14.5719 22.9162 14.5719 24.6642 14.5586C25.0245 14.5586 25.0779 14.692 25.0779 14.9989C25.0779 15.8929 25.0779 16.787 25.0779 17.6676Z" fill="#A2A3A5"/>
<path d="M42.9046 17.7213C42.9046 18.6153 42.8913 19.496 42.918 20.39C42.918 20.6836 42.8246 20.7636 42.531 20.7636C40.7697 20.7503 39.0083 20.7503 37.2336 20.7636C36.9401 20.7636 36.8467 20.6702 36.8467 20.3767C36.86 18.562 36.86 16.7339 36.8467 14.9192C36.8467 14.639 36.9534 14.5723 37.207 14.5723C38.9816 14.5856 40.7697 14.5856 42.5443 14.5723C42.8112 14.5723 42.9046 14.6523 42.9046 14.9325C42.8913 15.8532 42.9046 16.7873 42.9046 17.7213Z" fill="#A2A3A5"/>
<path d="M180.716 17.6673C180.716 18.5747 180.703 19.4687 180.716 20.376C180.716 20.6696 180.636 20.763 180.343 20.763C178.581 20.7497 176.82 20.7497 175.045 20.763C174.765 20.763 174.658 20.6829 174.658 20.3894C174.672 18.5747 174.672 16.7466 174.658 14.9319C174.658 14.6517 174.752 14.585 175.018 14.585C176.793 14.5983 178.581 14.5983 180.356 14.585C180.663 14.585 180.716 14.7051 180.716 14.9853C180.703 15.8659 180.716 16.7733 180.716 17.6673Z" fill="#A2A3A5"/>
<path d="M0.579102 17.6279C0.579102 16.7338 0.592445 15.8532 0.579102 14.9592C0.579102 14.6923 0.632476 14.5589 0.939376 14.5722C2.7274 14.5855 4.50209 14.5855 6.29011 14.5722C6.57033 14.5722 6.65039 14.6656 6.63704 14.9325C6.6237 16.7472 6.6237 18.5486 6.63704 20.3633C6.63704 20.6702 6.53029 20.7369 6.25008 20.7369C4.48874 20.7235 2.71406 20.7235 0.952719 20.7369C0.659162 20.7235 0.579102 20.6301 0.579102 20.3499C0.592445 19.4426 0.579102 18.5352 0.579102 17.6279Z" fill="#A2A3A5"/>
<path d="M54.9941 17.6413C54.9941 16.7339 55.0075 15.8399 54.9941 14.9325C54.9941 14.6657 55.0742 14.5723 55.3411 14.5723C57.1158 14.5856 58.9038 14.5856 60.6785 14.5723C60.9453 14.5723 61.0387 14.6657 61.0387 14.9325C61.0254 16.7473 61.0254 18.5753 61.0387 20.39C61.0387 20.6436 60.9453 20.7236 60.7052 20.7236C58.9171 20.7103 57.1158 20.7103 55.3277 20.7236C55.0342 20.7236 54.9941 20.5902 54.9941 20.35C55.0075 19.4426 54.9941 18.5486 54.9941 17.6413Z" fill="#A2A3A5"/>
<path d="M138.565 3.9508C138.551 5.27181 137.457 6.37932 136.163 6.36597C134.855 6.35263 133.828 5.27181 133.841 3.89743C133.841 2.54974 134.908 1.46891 136.216 1.4956C137.51 1.50894 138.565 2.61645 138.565 3.9508Z" fill="#A2A3A5"/>
</svg>
