<svg width="40" height="53" viewBox="0 0 40 53" fill="none" xmlns="http://www.w3.org/2000/svg">
<path fill-rule="evenodd" clip-rule="evenodd" d="M1.10172 34.9792C0.166908 34.9792 -0.256771 36.1476 0.460785 36.7468L19.1658 52.3653C19.5369 52.6751 20.0765 52.6751 20.4476 52.3653L39.1526 36.7468C39.8702 36.1476 39.4465 34.9792 38.5117 34.9792H36.6099C36.3757 34.9792 36.1488 35.0614 35.969 35.2116L20.4476 48.1718C20.0765 48.4816 19.5369 48.4816 19.1658 48.1718L3.64441 35.2116C3.46458 35.0614 3.23774 34.9792 3.00347 34.9792H1.10172Z" fill="#52A8E0"/>
<path fill-rule="evenodd" clip-rule="evenodd" d="M1.10172 17.6149C0.166908 17.6149 -0.256771 18.7834 0.460785 19.3825L19.1658 35.001C19.5369 35.3109 20.0765 35.3109 20.4476 35.001L39.1526 19.3825C39.8702 18.7834 39.4465 17.6149 38.5117 17.6149H36.6099C36.3757 17.6149 36.1488 17.6972 35.969 17.8473L20.4476 30.8075C20.0765 31.1174 19.5369 31.1174 19.1658 30.8075L3.64441 17.8473C3.46458 17.6972 3.23774 17.6149 3.00347 17.6149H1.10172Z" fill="#52A8E0" fill-opacity="0.5"/>
<path fill-rule="evenodd" clip-rule="evenodd" d="M1.10172 0.249691C0.166908 0.249691 -0.256771 1.41813 0.460785 2.01729L19.1658 17.6358C19.5369 17.9456 20.0765 17.9456 20.4476 17.6358L39.1526 2.01729C39.8702 1.41813 39.4465 0.249691 38.5117 0.249691H36.6099C36.3757 0.249691 36.1488 0.331942 35.969 0.482096L20.4476 13.4423C20.0765 13.7522 19.5369 13.7522 19.1658 13.4423L3.64441 0.482096C3.46458 0.331942 3.23774 0.249691 3.00347 0.249691H1.10172Z" fill="#52A8E0" fill-opacity="0.3"/>
</svg>
