<svg width="27" height="27" viewBox="0 0 27 27" fill="transparent" xmlns="http://www.w3.org/2000/svg">
<path d="M21.468 20.1582L21.7961 19.7705L21.5579 19.322C20.4762 17.2853 18.3514 15.8701 15.8655 15.8701C15.6601 15.8701 15.464 15.9042 15.2848 15.9586L15.2778 15.9608L15.2708 15.9631C14.6701 16.1586 14.0497 16.2786 13.4143 16.2786C12.7797 16.2786 12.1641 16.1589 11.5563 15.9625L11.5563 15.9624L11.5439 15.9586C11.3647 15.9042 11.1685 15.8701 10.9632 15.8701C8.47727 15.8701 6.35245 17.2853 5.2708 19.322L5.0326 19.7705L5.36065 20.1582C7.29341 22.4424 10.1851 23.9065 13.4143 23.9065C16.6436 23.9065 19.5353 22.4424 21.468 20.1582ZM13.4143 1.4375C19.9962 1.4375 25.3287 6.77003 25.3287 13.3518C25.3287 19.9337 19.9962 25.2662 13.4143 25.2662C6.83253 25.2662 1.5 19.9337 1.5 13.3518C1.5 6.77003 6.83253 1.4375 13.4143 1.4375ZM13.4143 4.83983C10.5183 4.83983 8.17054 7.18763 8.17054 10.0836C8.17054 12.9796 10.5183 15.3274 13.4143 15.3274C16.3103 15.3274 18.6581 12.9796 18.6581 10.0836C18.6581 7.18763 16.3103 4.83983 13.4143 4.83983Z" stroke="#35679A" stroke-width="1.5"/>
</svg>
