<svg width="37" height="40" fill="none" xmlns="http://www.w3.org/2000/svg"><path d="M.535 30.05l1.08 1.487.008-.005c3.54 4.683 9.135 7.726 15.458 7.726 10.718 0 19.406-8.689 19.406-19.407C36.487 9.135 27.799.446 17.08.446c-5.02 0-9.562 1.928-12.995 5.062L4.078 5.5 2.736 6.784a1.49 1.49 0 002.062 2.153L6.14 7.652l-.003-.005c2.898-2.637 6.71-4.272 10.944-4.272 9.1 0 16.476 7.377 16.476 16.477 0 9.1-7.377 16.476-16.476 16.476-5.484 0-10.31-2.71-13.304-6.831l-.003.003-.855-1.178a1.471 1.471 0 00-2.056-.325 1.47 1.47 0 00-.328 2.054z" fill="#E62C2E"/></svg>