<svg width="19" height="19" fill="transparent" xmlns="http://www.w3.org/2000/svg"><path d="M16.97 11.05V2.393a.527.527 0 00-.528-.528h-2.671v-.562a.527.527 0 10-1.055 0v.562h-2.11v-.562a.527.527 0 10-1.054 0v.562h-2.11v-.562a.527.527 0 10-1.054 0v.562h-2.11v-.562a.527.527 0 10-1.054 0v.562H.552a.527.527 0 00-.528.528v13.746c0 .29.236.527.528.527h8.782a4.746 4.746 0 003.944 2.11 4.752 4.752 0 004.746-4.747 4.724 4.724 0 00-1.054-2.98zM3.224 2.92v.527a.527.527 0 101.054 0V2.92h2.11v.527a.527.527 0 101.054 0V2.92h2.11v.527a.527.527 0 101.054 0V2.92h2.11v.527a.527.527 0 101.055 0V2.92h2.144v2.11H1.079V2.92h2.145zM1.079 15.61V6.084h14.836v4a4.72 4.72 0 00-2.637-.8 4.746 4.746 0 00-3.981 2.165.524.524 0 00-.237-.056H8.005a.527.527 0 100 1.054h.799a4.64 4.64 0 00-.242 1.055h-.557a.527.527 0 100 1.055h.557c.04.365.123.718.242 1.054H1.079zm12.2 2.11a3.696 3.696 0 01-3.692-3.692 3.696 3.696 0 013.691-3.691 3.696 3.696 0 013.692 3.691 3.696 3.696 0 01-3.692 3.692z"/><path d="M15.388 13.502h-1.582V11.92a.527.527 0 10-1.055 0v2.11c0 .29.236.527.527.527h2.11a.527.527 0 100-1.055zM4.806 7.174H3.75a.527.527 0 100 1.055h1.055a.527.527 0 100-1.055zm0 2.109H3.75a.527.527 0 100 1.055h1.055a.527.527 0 100-1.055zm0 2.11H3.75a.527.527 0 100 1.054h1.055a.527.527 0 100-1.054zm3.199-3.164H9.06a.527.527 0 100-1.055H8.005a.527.527 0 100 1.055zm0 2.109H9.06a.527.527 0 100-1.055H8.005a.527.527 0 100 1.055zm-3.199 3.164H3.75a.527.527 0 100 1.055h1.055a.527.527 0 100-1.055zm7.418-5.273h1.054a.527.527 0 100-1.055h-1.054a.527.527 0 000 1.055z"/></svg>