<svg width="162" height="112" fill="none" xmlns="http://www.w3.org/2000/svg"><path d="M136.436 97.153H25.076v-74.62a2.26 2.26 0 012.263-2.264h106.845a2.26 2.26 0 012.263 2.264v74.62h-.011z" fill="#FBFDFF"/><path d="M136.733 97.44H24.791V22.533a2.55 2.55 0 012.549-2.549h106.844a2.55 2.55 0 012.549 2.55V97.44zm-111.37-.572H136.15V22.533c0-1.087-.89-1.977-1.978-1.977H27.34c-1.088 0-1.978.89-1.978 1.977v74.335z" fill="#223365"/><path d="M87.91 92.9H73.618v1.143h14.294V92.9z" fill="#FBFDFF"/><path d="M88.196 94.33H73.32v-1.724h14.876v1.724zm-14.293-.57h13.722v-.572H73.903v.571z" fill="#223365"/><path d="M81.625 23.457c0 .45-.385.824-.868.824-.484 0-.868-.374-.868-.824 0-.45.384-.824.868-.824.483 0 .868.362.868.824z" fill="#FBFDFF"/><path d="M80.757 24.567c-.637 0-1.154-.494-1.154-1.11 0-.615.517-1.11 1.154-1.11.637 0 1.154.495 1.154 1.11 0 .616-.517 1.11-1.154 1.11zm0-1.648c-.319 0-.582.242-.582.538 0 .297.264.539.582.539.319 0 .582-.242.582-.539 0-.296-.263-.538-.582-.538zm67.479 87.736H13.124c-1.462 0-2.66-.791-2.66-1.768v-2.791c0-.275.341-.494.748-.494h139.046c.417 0 .747.219.747.494v2.714c0 1.01-1.241 1.845-2.769 1.845z" fill="#223365"/><path d="M148.237 110.942H13.124c-1.648 0-2.944-.901-2.944-2.065v-2.791c0-.44.45-.791 1.032-.791h139.046c.583 0 1.033.341 1.033.791v2.714c.011 1.197-1.34 2.142-3.054 2.142zm-137.025-5.065c-.285 0-.461.132-.461.209v2.791c0 .802 1.088 1.483 2.362 1.483h135.124c1.351 0 2.483-.714 2.483-1.56v-2.714c0-.077-.176-.209-.462-.209H11.212z" fill="#223365"/><path d="M32.472 91.374h96.572a2.476 2.476 0 002.472-2.472V28.849a2.476 2.476 0 00-2.472-2.472H32.472A2.476 2.476 0 0030 28.849V88.9a2.469 2.469 0 002.472 2.473z" fill="#fff"/><path d="M129.043 91.65H32.471a2.748 2.748 0 01-2.746-2.747V28.85a2.748 2.748 0 012.746-2.747h96.572a2.748 2.748 0 012.747 2.747v60.053a2.748 2.748 0 01-2.747 2.746zM32.471 26.652a2.204 2.204 0 00-2.197 2.197v60.053c0 1.208.989 2.197 2.197 2.197h96.572a2.204 2.204 0 002.198-2.197V28.85a2.204 2.204 0 00-2.198-2.197H32.471z" fill="#223365"/><path d="M131.076 30.73v-1.715c0-1.252-1.099-2.263-2.45-2.263H32.79c-1.351 0-2.45 1.01-2.45 2.263v1.725l100.736-.01z" fill="#70C8F2"/><path d="M122.561 28.85a.568.568 0 01-.572.572.568.568 0 01-.571-.571c0-.319.253-.572.571-.572.319 0 .572.253.572.572zm1.713.572a.572.572 0 100-1.143.572.572 0 000 1.143zm2.286 0a.571.571 0 100-1.143.571.571 0 000 1.143z" fill="#fff"/><path opacity=".43" d="M122.045 37.893h-83.41V82.98h83.41V37.893z" fill="#223365"/><path d="M25.507 96.936l-14.613 8.591 139.365-.066-13.458-8.492-111.294-.033z" fill="#FBFDFF"/><path d="M10.972 105.812h-.077v-.286l-.143-.241L25.43 96.66h.077l111.382.033 14.37 9.064-140.287.055zm14.612-8.591L11.95 105.23l137.31-.055-12.547-7.91-111.13-.044z" fill="#223365"/><g opacity=".26"><path opacity=".26" d="M43.964 96.934l-9.712 5.713 92.65-.044-8.943-5.647-73.995-.022z" fill="#FBFDFF"/><path opacity=".26" d="M33.197 102.933l10.701-6.285 74.138.022 9.855 6.219-94.694.044zm10.844-5.713l-8.734 5.13 90.595-.043-8.031-5.065-73.83-.022z" fill="#223365"/></g><path d="M131.098 31.037H53.324a.295.295 0 01-.297-.297c0-.165.132-.297.297-.297h77.785c.165 0 .297.132.297.297a.305.305 0 01-.308.297z" fill="#243762"/><path d="M115.74 20.501v-9.899c0-5.273 3.889-9.569 8.658-9.569h6.998c4.779 0 8.658 4.296 8.658 9.57V20.5c0 5.274-3.89 9.57-8.658 9.57h-6.998c-4.78 0-8.658-4.296-8.658-9.57zm8.658-14.963c-2.527 0-4.582 2.274-4.582 5.053v9.9c0 2.79 2.055 5.053 4.582 5.053h6.998c2.527 0 4.581-2.274 4.581-5.054v-9.887c0-2.791-2.054-5.054-4.581-5.054h-6.998v-.011z" fill="#223365"/><path d="M131.395 30.345h-6.998c-4.922 0-8.932-4.417-8.932-9.844v-9.9c0-5.427 4.01-9.843 8.932-9.843h6.998c4.922 0 8.932 4.416 8.932 9.844V20.5c0 5.427-4.01 9.844-8.932 9.844zm-6.998-29.038c-4.625 0-8.383 4.164-8.383 9.295V20.5c0 5.12 3.758 9.294 8.383 9.294h6.998c4.626 0 8.383-4.164 8.383-9.294v-9.9c0-5.119-3.757-9.294-8.383-9.294h-6.998zm6.998 24.522h-6.998c-2.681 0-4.856-2.395-4.856-5.328v-9.9c0-2.944 2.175-5.328 4.856-5.328h6.998c2.681 0 4.856 2.395 4.856 5.329V20.5c0 2.944-2.175 5.328-4.856 5.328zm-6.998-20.017c-2.373 0-4.307 2.142-4.307 4.779v9.899c0 2.637 1.934 4.779 4.307 4.779h6.998c2.373 0 4.307-2.142 4.307-4.78v-9.887c0-2.637-1.934-4.78-4.307-4.78h-6.998v-.01z" fill="#fff"/><path d="M141.47 46.245h-27.137a3.862 3.862 0 01-3.87-3.86V21.26a3.872 3.872 0 013.87-3.87h27.137a3.872 3.872 0 013.87 3.87v21.116a3.872 3.872 0 01-3.87 3.87z" fill="#0AC789" stroke="#1C3761" stroke-width=".5"/><path d="M142.195 46.77h-9.932a.272.272 0 01-.275-.275c0-.154.121-.275.275-.275h9.932a3.113 3.113 0 003.109-3.109V23.423c0-.154.121-.275.275-.275.153 0 .274.121.274.275v19.699a3.655 3.655 0 01-3.658 3.648z" fill="#223365"/><path opacity=".25" d="M139.043 43.39h-22.292a3.622 3.622 0 01-3.62-3.62V25.269a3.622 3.622 0 013.62-3.62h22.292a3.622 3.622 0 013.62 3.62v14.503a3.622 3.622 0 01-3.62 3.62z" fill="#fff" stroke="#1C3761"/><path d="M123.77 29.268a4.126 4.126 0 014.13-4.131 4.126 4.126 0 014.131 4.13c0 1.857-1.241 3.418-2.933 3.934v5.34h-2.395V33.2a4.103 4.103 0 01-2.933-3.933z" fill="#223365"/><path d="M160.86 111.04H.94a.464.464 0 01-.461-.461c0-.253.208-.462.461-.462h159.92c.253 0 .462.209.462.462a.465.465 0 01-.462.461z" fill="#243762"/><path d="M152.16 20.644a6.649 6.649 0 01-6.647 6.647c-3.669 0-6.658-2.977-6.658-6.647a6.66 6.66 0 016.658-6.658c3.67.011 6.647 2.989 6.647 6.658z" fill="#E62C2E"/><path d="M139.207 26.95a.294.294 0 010-.406c.11-.11.297-.11.407 0 3.296 3.296 8.657 3.296 11.953 0 3.296-3.296 3.296-8.658 0-11.954-3.296-3.296-8.657-3.296-11.953 0a.293.293 0 01-.407 0 .294.294 0 010-.406c3.516-3.516 9.251-3.516 12.767 0 3.515 3.515 3.515 9.25 0 12.766-3.527 3.516-9.251 3.516-12.767 0z" fill="#223365"/><path d="M145.404 24.27a.883.883 0 01-.626-.23.743.743 0 01-.253-.56.71.71 0 01.253-.561.926.926 0 01.626-.22c.253 0 .462.077.627.22.164.143.241.34.241.56 0 .23-.077.418-.241.571-.154.143-.363.22-.627.22zm.758-6.306l-.131 3.45a.641.641 0 01-.638.615.64.64 0 01-.637-.615l-.132-3.45a.636.636 0 01.637-.66h.264a.63.63 0 01.637.66z" fill="#fff"/></svg>