<svg width="124" height="116" fill="none" xmlns="http://www.w3.org/2000/svg"><path d="M37.916 38.498v-2.085H86.09v2.085H37.916zm0 5.994v-2.085h41.122v2.085H37.916zm0 5.81v-2.085h28.061v2.085h-28.06zm0 5.623V53.84h28.061v2.085h-28.06z" fill="#0AC789" stroke="#223365" stroke-width=".2"/><path d="M91.322 68.617l.245-.146V46.076l.716-.981V68.74L76.658 78l-.548-.37 15.212-9.012zM45.257 78.688l.05.04-.667.4-12.923-10.342V28.672h60.566v9.5l-.716.98V29.11H32.432v39.316l.188.15 12.637 10.112z" fill="#70C8F2" stroke="#223365"/><path d="M7.048 108.537l-.303-.395a8.507 8.507 0 01-1.767-5.191V55.537v0h.5a7.865 7.865 0 01.456-2.653l1.114 55.653zm0 0l.396-.302 24.303-18.513h0l12.18-9.274.524-.4-.524-.397L30.373 69.38l-.003-.002L6.233 51.341l-.8-.597v2.055l1.615 55.738zm113.488-62.414l.034.061.05.05a7.69 7.69 0 012.267 5.415v55.211a8.53 8.53 0 01-8.535 8.529H9.642a8.526 8.526 0 01-8.529-8.529V51.64c0-1.687.334-2.962 1.05-4.107.726-1.158 1.867-2.22 3.55-3.44l.008-.005.007-.006 24.425-19.097.002-.002L60.731 1.316l.002-.002a1.669 1.669 0 012 .002l30.572 23.648h0l25.214 19.518.014.01.015.01c.529.353 1.031.744 1.503 1.17l.014.012.014.012.351.272c.039.049.075.1.105.155zm-26.815 43.62v.001l24.816 13.207h.5V55.556a8.888 8.888 0 00-.21-1.874v-3.19l-.799.596-24.506 18.296h0l-12.86 9.607-.53.397.526.402 13.063 9.954zM60.13 6.43h0l-.005.005-30.57 23.645h0L7.542 47.103l-.52.402.527.394L29.77 64.525h0l17.414 13.012.303.226.3-.229 13.971-10.64s0 0 0 0a1.618 1.618 0 011.949 0s0 0 0 0l13.184 10.033.3.229.303-.226L94.12 64.504l22.004-16.446.527-.394-.52-.402-22.214-17.176h0L63.34 6.434h0l-.006-.005a2.669 2.669 0 00-3.202 0zM13.538 111.518h.001l96.909-.014h.001a8.449 8.449 0 003.718-.861l.728-.356-.645-.491-19.922-15.18h0l-30.022-22.85h0l-.008-.007a2.669 2.669 0 00-3.14 0h0l-.01.007-30.02 22.871h0L10.69 110.201l-.75.571.893.301a8.538 8.538 0 002.703.445z" fill="#70C8F2" stroke="#1C3761"/><path d="M99.332 34.545a7.525 7.525 0 00-6.067 3.08l-4.359 5.973-9.965 13.645a.567.567 0 01-.92 0l-3.132-4.293a7.515 7.515 0 00-6.067-3.081l8.768 12.017a1.094 1.094 0 001.767 0l9.535-13.068 10.44-14.273z" fill="#0AC789"/></svg>