<svg width="175" height="121" fill="none" xmlns="http://www.w3.org/2000/svg"><path d="M135.855 2.12L58.613 33.857a14.937 14.937 0 00-7.686 7.16 14.923 14.923 0 00-1.069 10.446c-8.271 4.534-14.124 11.35-16.331 18.408 3.66-7.345 11.235-14.236 21.17-18.362l.726-.257-.71-1.768a9.349 9.349 0 01-.455-1.784l12.28 3.386a159.352 159.352 0 00-29.82 21.052C17.678 88.928 4.462 107.215 1 120c7.909-12.317 21.17-27.052 37.925-41.092a220.786 220.786 0 0136.7-25.344l13.11 3.597a130.74 130.74 0 00-24.678 13.737c-16.694 11.668-28.928 25.375-33.69 36.453 8.407-10.489 22.304-22.398 39.316-32.962a193.03 193.03 0 0126.734-13.888L75.052 97.678a10.696 10.696 0 01-1.513-2.523l-3.734-9.068-1.83-2.176a42.517 42.517 0 00-10.238 4.594 38.921 38.921 0 00-15.817 17.939 62.443 62.443 0 0116.634-14.735 72.325 72.325 0 016.29-3.476l3.161 7.662a14.913 14.913 0 008.063 8.095 14.945 14.945 0 0011.429.021l77.256-31.737a14.942 14.942 0 008.101-8.067 14.917 14.917 0 00.02-11.429l-17.511-42.527a14.962 14.962 0 00-19.507-8.13V2.12zm13.987 8.871l18.585 45.112c.16.424.292.858.393 1.3l-40.708-11.199 21.02-36.543c.272.424.51.868.71 1.33v0zM60.428 36.834L136.641 5.49a10.062 10.062 0 019.073.756l-28.731 49.872a5.274 5.274 0 01-5.958 2.448l-56.313-15.52a10.064 10.064 0 015.716-6.212v0zm102.494 32.478L86.709 100.7a10.073 10.073 0 01-7.969-.136l22.849-39.868 11.75 3.234a5.25 5.25 0 005.958-2.448l6.487-11.168 43.187 11.879a10.093 10.093 0 01-6.049 7.118v0z" fill="#70C8F2" stroke="#1C3761" stroke-width=".5"/></svg>