<svg width="15" height="22" fill="none" xmlns="http://www.w3.org/2000/svg"><path d="M7.62.96C3.636.96.396 4.376.396 8.572c0 1.928 1.153 4.652 3.427 8.096a53.996 53.996 0 003.366 4.548l.431.512.431-.512a54.07 54.07 0 003.367-4.548c2.274-3.444 3.427-6.168 3.427-8.096 0-4.196-3.241-7.61-7.225-7.61zm2.858 15.004A54.928 54.928 0 017.62 19.88a54.888 54.888 0 01-2.85-3.906c-2.108-3.191-3.222-5.751-3.222-7.403 0-3.527 2.724-6.396 6.072-6.396 3.349 0 6.072 2.87 6.072 6.396 0 1.65-1.111 4.207-3.214 7.393z" fill="#35679A"/><path d="M7.62 3.773c-2.35 0-4.264 2.015-4.264 4.492s1.913 4.492 4.264 4.492c2.352 0 4.264-2.015 4.264-4.492S9.973 3.773 7.62 3.773zm0 7.77c-1.715 0-3.111-1.47-3.111-3.278 0-1.807 1.396-3.278 3.111-3.278 1.716 0 3.112 1.47 3.112 3.278 0 1.807-1.396 3.278-3.112 3.278z" fill="#35679A"/></svg>