<svg width="95" height="72" fill="none" xmlns="http://www.w3.org/2000/svg"><path d="M41.613 6.086h5.754l.032.49c0 1.38.01 2.758-.01 4.136 0 .324.072.47.417.543.71.136 1.4.324 2.151.512v-5.66h5.765v13.9h-1.65c1.044-1.89 1.086-3.77-.126-5.577-.887-1.326-2.213-2.068-3.602-2.538.637.47 1.399.93 2.047 1.515 2.506 2.266 2.266 7.049-2.006 8.406-1.263.408-2.569.48-3.874.418-.094 0-.188-.063-.292-.157 1.994.042 3.76-.49 5.19-1.89-.01-.042-.021-.083-.021-.125h-1.4v-.501c0-1.974-.01-3.958.011-5.932 0-.282-.073-.439-.324-.574-.7-.355-1.41-.658-2.255-.773v7.728h-5.786v-.397c0-2.005.01-4.01-.01-6.015 0-.282.083-.439.313-.585 1.243-.762 2.61-1.107 4.041-1.222.585-.042 1.18-.01 1.765-.052-1.128-.366-2.287-.554-3.467-.48-1.598.093-3.112.459-4.47 1.367-3.477 2.319-3.989 7.248-1.065 10.245 1.682 1.734 3.77 2.715 6.11 3.039 5.096.72 9.983-.01 14.453-2.694 2.517-1.515 4.438-3.593 5.451-6.402 1.337-3.697.24-9.044-4.365-11.727-1.943-1.139-4.042-1.797-6.235-2.204a30.446 30.446 0 00-6.15-.501c-4.825.115-9.368 1.232-13.399 3.99-2.005 1.378-3.624 3.122-4.522 5.419-1.326 3.404-.511 6.464 1.64 9.263.397.512.887.95 1.347 1.42.094.094.209.157.324.23-.042.042-.074.084-.115.136-.084-.042-.188-.073-.261-.136-1.995-1.713-3.53-3.75-4.178-6.339-.751-3.039-.135-5.869 1.567-8.459 2.172-3.29 5.284-5.357 8.96-6.61 5.64-1.911 11.216-1.494 16.72.616 2.892 1.107 5.544 2.632 7.78 4.814 1.827 1.775 3.216 3.822 3.686 6.391.605 3.28-.355 6.088-2.632 8.48-2.256 2.37-5.106 3.697-8.208 4.564a27.24 27.24 0 01-8.992.929c-3.519-.22-6.86-1.128-9.827-3.122-1.002-.669-1.88-1.483-2.568-2.475-1.932-2.789-1.42-6.057 1.284-8.115 1.347-1.023 2.872-1.66 4.511-2.015.387-.084.523-.22.512-.637-.031-1.379-.01-2.757-.01-4.136-.01-.146-.01-.302-.01-.5zM8.467 57.142H.917v-1.107c.47-.073.96-.146 1.472-.23V35.577c-.48-.073-.96-.146-1.472-.23v-1.086h7.519v1.086c-.407.063-.794.126-1.19.168-.23.02-.314.125-.314.355 0 2.673.01 5.347 0 8.02 0 .261.105.344.355.344h9.305c.261 0 .345-.104.345-.355-.01-2.662-.01-5.315 0-7.978 0-.24-.074-.355-.324-.386-.439-.042-.867-.115-1.337-.178v-1.086h7.676v1.086c-.48.073-.971.146-1.483.22v20.227c.386.063.783.136 1.18.168.261.02.355.114.334.365-.02.25 0 .501 0 .794h-7.728c0-.303-.02-.606.01-.909.011-.083.168-.198.272-.22.45-.072.898-.124 1.4-.187v-.49c0-2.747-.01-5.483.01-8.23 0-.407-.104-.533-.522-.533-2.987.021-5.974.021-8.96 0-.418 0-.522.126-.522.533.02 2.757.02 5.514 0 8.27 0 .387.146.502.48.523.167.01.345.063.512.063.501-.021.626.23.564.678-.053.168-.032.324-.032.533zm79.336.021v-.982l.825-.125c.606-.094.606-.105.606-.71 0-2.454.01-4.919-.01-7.373-.011-.909-.022-1.817-.147-2.715-.303-2.141-2.047-2.674-3.572-2.225-.814.24-1.576.69-2.35 1.076-.135.063-.25.313-.25.48-.01 3.666-.01 7.331-.01 11.007 0 .282.083.408.376.428.355.021.7.105 1.065.167v.95h-7.09v-.939c.386-.063.772-.105 1.158-.198.115-.032.22-.188.282-.314.042-.094.01-.22.01-.334V42.814c0-.543.115-.637-.574-.668-.01 0-.031 0-.041-.01-.982-.147-.982-.157-.815-1.212h5.618v2.224c.303-.22.512-.365.72-.522 1.076-.814 2.194-1.514 3.52-1.848 1.065-.261 2.141-.293 3.206-.032 1.692.418 2.559 1.608 2.883 3.227.125.637.187 1.295.187 1.943a718.24 718.24 0 010 9.513c0 .397.084.616.512.616.209 0 .418.073.637.084.272.02.345.157.355.418.01.626.021.637-.626.637h-5.932c-.167-.021-.334-.021-.543-.021zm-21.22-16.699c1.212-.042 2.413.104 3.55.532 1.954.721 3.374 2.026 4.157 3.958.94 2.319 1.076 4.71.366 7.091-.94 3.112-3.175 4.856-6.329 5.441-1.838.345-3.686.25-5.483-.25-2.328-.648-3.884-2.142-4.542-4.47-.679-2.433-.742-4.888.198-7.269 1.139-2.892 3.373-4.427 6.38-4.929.21-.031.419-.073.638-.083.355-.032.71-.021 1.065-.021zm-4.177 8.574c.084 1.002.136 2.015.272 3.007.156 1.118.47 2.193 1.159 3.112 1.295 1.723 4 1.755 5.252 0a6.223 6.223 0 00.93-2.078c.585-2.402.564-4.835.156-7.268-.177-1.045-.5-2.037-1.148-2.904-1.253-1.639-3.676-1.775-5.002-.198-.45.554-.763 1.243-1.003 1.911-.501 1.42-.553 2.924-.616 4.418zM43.43 56.171v.961h-7.09v-.95c.376-.063.773-.105 1.149-.199.104-.02.209-.177.26-.292.042-.084.011-.199.011-.293 0-6.694 0-13.388.01-20.082 0-.428-.104-.647-.553-.616-.01 0-.031 0-.042-.01-.898-.146-.898-.146-.835-1.128.146-.01.292-.02.438-.02 1.546 0 3.102.02 4.648-.011.46-.01.543.146.532.553-.01 6.997-.01 13.983-.01 20.98v.21c0 .688 0 .688.668.772.272.042.522.084.815.125zm13.723-.846c0 .282.02.564-.01.846-.011.094-.137.219-.23.25-1.88.627-3.791 1.097-5.807.909-2.13-.198-3.154-1.274-3.175-3.457-.031-3.571-.02-7.132-.02-10.704v-.773h-2.956v-1.524c.846 0 1.681-.021 2.517.01.438.021.564-.115.543-.543a43.187 43.187 0 010-2.6c0-.125.125-.324.24-.355 1.201-.387 2.412-.742 3.624-1.107.052-.021.115-.01.209-.021v2.005c0 .72.01 1.451-.01 2.172-.011.324.083.45.427.439 1.107-.021 2.214-.01 3.373-.01v1.482h-3.77c-.01.209-.02.376-.02.543 0 3.029-.01 6.057.01 9.086 0 .574.052 1.17.157 1.733.177 1.013.793 1.598 1.827 1.64.95.042 1.9-.042 2.84-.063a.45.45 0 00.23.042zM26.096 41.864v-.961c.156-.01.313-.021.46-.021h4.605c.563 0 .563 0 .563.553V55.93c.45.073.846.115 1.222.21.418.103.188.469.21.72.01.094-.189.282-.293.282-2.193.01-4.386.01-6.569.01-.052 0-.104-.02-.177-.031v-.94c.438-.073.898-.146 1.399-.23.01-.146.02-.292.02-.449 0-4.323 0-8.647.011-12.97 0-.324-.041-.501-.428-.512-.345 0-.668-.094-1.023-.157zm1.242-6.058c0-1.514 1.023-2.6 2.444-2.6 1.399 0 2.454 1.086 2.443 2.517-.01 1.514-1.034 2.632-2.423 2.652-1.44.01-2.464-1.044-2.464-2.569zM15.82 65.612c1.628.01 2.788 1.274 2.788 3.028 0 1.775-1.222 3.08-2.862 3.06-1.64-.021-2.84-1.326-2.809-3.06.021-1.807 1.201-3.05 2.882-3.028zm1.837 3.049c-.177-.49-.271-1.023-.532-1.452-.658-1.065-2.141-1.013-2.789.053-.5.814-.459 2.088.084 2.861.71 1.013 2.151.971 2.767-.105.23-.386.303-.856.47-1.357zm55.672.259c-.032.847-.397 1.818-1.431 2.403-.94.532-1.911.512-2.84-.031-.94-.554-1.316-1.452-1.369-2.507-.083-1.441.732-2.715 1.995-3.08 1.932-.564 3.645.804 3.645 3.216zm-2.851 1.912c.626.01 1.117-.271 1.42-.825.48-.877.49-1.796.01-2.684-.313-.585-.825-.898-1.493-.877-.69.02-1.19.365-1.483.982-.397.866-.386 1.733.094 2.569.314.543.794.845 1.452.835zm-24.113-.042c-.794.763-1.577 1.024-2.496.867-.648-.104-1.18-.365-1.368-1.033-.199-.69-.052-1.327.522-1.818.198-.177.428-.313.647-.47-.146-.292-.334-.563-.428-.866-.26-.857.199-1.619 1.055-1.828.595-.146 1.452-.01 2.047.334a63.05 63.05 0 00-.126.784c-.396-.126-.741-.251-1.107-.345-.334-.084-.668-.031-.866.282-.199.313-.115.647.115.909.584.637 1.18 1.263 1.869 1.984.146-.533.272-.972.397-1.431.25.063.49.115.804.188-.157.49-.261.971-.46 1.4-.156.334-.104.542.168.762.313.25.605.522.898.783l-.063.156c-.324.053-.69.23-.94.115-.282-.104-.449-.49-.668-.772zm-.658-.47c-.45-.438-.898-.897-1.358-1.336-.052-.052-.156-.073-.22-.063-.323.073-.74.669-.74 1.066 0 .396.271.762.668.898.574.188 1.232-.032 1.65-.564zm9.023-1.116c.554.741 1.076 1.451 1.63 2.193-.335.083-.606.167-.878.198-.104.01-.25-.094-.324-.188-.459-.616-.898-1.242-1.368-1.848-.114-.146-.334-.23-.522-.282-.25-.063-.344.094-.334.345.01.626 0 1.242 0 1.9h-.971v-5.827c.992.063 1.995-.167 2.966.23.616.25.96.73 1.002 1.41.042.71-.177 1.284-.825 1.65a2.777 2.777 0 01-.376.219zm-1.796-2.59c0 .564-.01 1.107.01 1.64 0 .083.136.24.199.24.376 0 .773 0 1.138-.084.46-.104.679-.501.648-.971a.864.864 0 00-.784-.825c-.376-.031-.762 0-1.21 0zm24.478 2.6a706.4 706.4 0 011.608 2.183c-.344.083-.616.177-.908.208-.094.01-.24-.125-.313-.23a34.061 34.061 0 01-1.275-1.754c-.23-.344-.5-.417-.929-.282 0 .585-.031 1.18.01 1.765.032.45-.198.45-.543.47-.386.021-.48-.115-.48-.48.02-1.65.01-3.3 0-4.95 0-.314.073-.47.428-.439.71.052 1.42 0 2.12.105.867.125 1.358.668 1.462 1.44.115.805-.22 1.42-1.002 1.85-.032.02-.084.062-.178.114zm-1.775-.658c.48-.052.93-.052 1.357-.157.408-.094.637-.49.617-.908-.021-.407-.22-.731-.617-.815-.438-.094-.908-.083-1.368-.125.01.72.01 1.316.01 2.005zm-63.88 2.955c-1.013.167-1.013.167-1.013-.794 0-.511 0-1.023-.01-1.535 0-.041-.021-.083-.032-.156H7.997c0 .7.01 1.389-.01 2.088 0 .146-.052.397-.115.407-.261.042-.533.021-.794-.01-.041-.01-.083-.198-.083-.303 0-1.723 0-3.436-.01-5.159 0-.47.323-.323.563-.344.272-.031.47.01.45.365-.022.554 0 1.107-.011 1.66 0 .251.094.356.355.345a69.84 69.84 0 012.047 0c.292.01.365-.125.355-.386-.01-.48 0-.96 0-1.452 0-.543 0-.543.564-.543h.438c.01 1.964.01 3.885.01 5.817zm16.614-2.558h-2.203v1.744h1.117c.355 0 .71.031 1.065-.01.418-.042.574.125.512.522-.01.094-.01.198-.021.323h-3.676v-5.785h3.582v.856h-2.61c0 .45-.022.857.01 1.264.01.084.198.22.313.22.585.02 1.16.01 1.786.01.031.282.073.532.125.856zm30.296-2.36v1.504c.46 0 .909-.01 1.358 0 .877.01.679-.147.835.845h-2.182v1.755h2.14c.512 0 .564.063.533.564-.01.209-.073.303-.303.303-1.107-.01-2.214 0-3.363 0v-5.859h3.06c.533 0 .543.01.512.554 0 .094-.02.198-.042.334h-2.548zm7.717-.638c-.031.25-.052.46-.083.669-.01.073-.042.135-.063.209-.407-.115-.804-.272-1.211-.335-.293-.041-.637 0-.909.115-.188.084-.386.366-.407.575-.021.177.177.438.344.563.21.157.48.23.731.335.22.094.46.167.68.25 1.033.428 1.367.972 1.21 1.922-.125.762-.897 1.378-1.827 1.368-.585 0-1.18-.146-1.765-.209-.47-.052-.574-.324-.46-.742.032-.093.053-.187.084-.292.45.136.888.324 1.337.386.397.053.835.042 1.201-.083.22-.073.46-.407.49-.648.022-.219-.187-.532-.396-.668-.282-.198-.648-.282-.971-.418-.25-.104-.502-.198-.742-.323-.626-.303-.94-.794-.866-1.514.073-.669.449-1.097 1.044-1.327.887-.323 1.733-.146 2.58.167zm22.296.868c-.417-.115-.825-.272-1.232-.334a1.637 1.637 0 00-.866.104c-.188.083-.408.355-.418.553-.01.199.167.48.344.606.293.199.648.282.972.418.271.115.553.22.814.355.564.292.867.741.846 1.41-.02.678-.324 1.17-.93 1.462-.751.376-1.545.302-2.328.125-.303-.073-.585-.188-.888-.282.052-.313.094-.574.146-.856.47.135.909.323 1.358.386.386.052.794.021 1.17-.052.313-.063.532-.324.553-.679.01-.334-.167-.574-.46-.7-.459-.198-.918-.365-1.378-.564-.992-.417-1.316-.94-1.149-1.817.136-.751.857-1.305 1.765-1.315.439 0 .877.062 1.306.146.553.115.574.177.47.72-.032.115-.063.22-.095.314zm-50.482.01c-.439-.126-.836-.293-1.243-.334-.323-.032-.689.01-.981.156-.491.24-.491.815-.01 1.086.333.188.699.303 1.054.45.271.114.553.219.814.365 1.097.616 1.107 2.14.01 2.788-.761.45-1.586.355-2.401.199-.031-.01-.052-.021-.084-.032-1.086-.303-.866-.209-.71-1.128.46.136.909.324 1.368.387.408.052.857.01 1.243-.115.198-.063.418-.407.428-.637.01-.209-.188-.48-.376-.648-.167-.156-.428-.198-.647-.292-.387-.167-.794-.313-1.17-.501-1.2-.585-.93-2.172.01-2.663.888-.47 1.786-.314 2.684-.01.063.02.147.145.136.219-.031.24-.083.47-.125.71zm-14.411-1.127c.052.323.083.584.136.898h-1.901c-.01.209-.031.365-.031.532v3.791c0 .647 0 .647-.648.637-.115 0-.22-.01-.365-.02v-4.93c-.502 0-.961-.02-1.42.01-.377.032-.46-.135-.45-.47.01-.302.063-.459.428-.448 1.4.01 2.8 0 4.25 0zm55.839.02h4.615c.042.292.084.564.126.877h-1.932v.585c0 1.294-.021 2.579.01 3.874.01.428-.156.501-.543.512-.438.01-.48-.178-.48-.533.01-1.274 0-2.558 0-3.832v-.596h-1.807c.01-.303.01-.574.01-.887zm-48.299.01c0 1.515.01 2.998-.01 4.47-.01.407.093.564.522.522.407-.031.825.021 1.232-.01.386-.032.595.083.574.5 0 .095.032.189.052.314h-3.33v-5.796h.96z" fill="#A2A3A5"/></svg>