<svg width="96" height="64" fill="none" xmlns="http://www.w3.org/2000/svg"><path d="M81.969 63.168c-.472-.441-.934-.882-1.406-1.313a142.472 142.472 0 00-2.247-2.021c-.308-.277-.656-.503-.974-.77-.606-.502-.81-1.138-.677-1.908 1.836-10.208 3.652-20.416 5.509-30.624.615-3.375 1.333-6.74 1.939-10.146-.123.236-.267.472-.38.718C77.67 29.764 72.294 42.71 67.36 55.843c-.154.42-.349.851-.615 1.21-.503.688-1.2.719-1.837.134-.04-.041-.092-.082-.123-.123-1.128-1.375-2.257-2.74-3.375-4.124-.688-.852-.995-1.868-1.016-2.924-.072-2.75-.236-5.5-.061-8.238.297-4.874.81-9.736 1.241-14.6.246-2.78.482-5.55.718-8.33a.818.818 0 01-.154-.041c-.082.205-.174.4-.246.605-3.6 11.573-7.202 23.156-10.803 34.728-.42 1.344-.749 2.708-1.22 4.022-.237.666-.647 1.303-1.099 1.857-.42.513-1.077.697-1.733.461-.678-.246-.944-.841-.944-1.508 0-.523.03-1.077.174-1.58 4.77-17.338 10.106-34.492 16.22-51.399.431-1.2 1.21-2 2.39-2.452 1.406-.523 2.791-1.098 4.197-1.62a11.325 11.325 0 011.99-.534c1.19-.195 1.857.349 1.805 1.56-.071 1.897-.153 3.795-.38 5.683-.522 4.473-1.138 8.936-1.712 13.409-.452 3.508-.985 7.007-1.334 10.526-.328 3.365-.451 6.75-.667 10.115-.01.093.01.185.123.298.093-.205.185-.41.267-.616 4.76-12.331 10.239-24.355 16.066-36.225.257-.513.534-1.016.831-1.508.677-1.14 1.631-1.857 2.944-2.206 1.221-.318 2.37-.872 3.56-1.272C93.1.966 93.674.853 94.24.77c1.056-.143 1.703.36 1.63 1.416-.07 1.098-.307 2.185-.533 3.262-1.795 8.546-3.662 17.072-5.416 25.628-1.816 8.823-3.53 17.667-5.284 26.5-.267 1.334-.492 2.688-.8 4.011-.134.554-.452 1.057-.677 1.58h-1.19zM45.867.597c.667.339.841.924.708 1.59-.144.677-.308 1.355-.554 1.99a6173.032 6173.032 0 01-7.459 19.155c-.082.195-.143.4-.256.697.77-.071 1.457-.143 2.134-.205.605-.051 1.22-.143 1.836-.123.78.02 1.58.133 1.877 1.036.236.698-.256 1.714-.954 2.278a33.473 33.473 0 00-2.103 1.898 6.322 6.322 0 00-.903 1.18c-1.17 1.939-2.934 2.995-5.088 3.478-.431.092-.626.307-.76.697-3.252 9.172-6.514 18.344-9.787 27.505-.184.513-.595.934-.902 1.406h-1.067c-.185-.195-.37-.39-.565-.585-.708-.718-1.405-1.436-2.113-2.144-.431-.431-.913-.82-1.344-1.252-.688-.687-.924-1.498-.585-2.441.123-.35.195-.729.298-1.088 1.816-6.432 4.021-12.721 6.288-19 .083-.216.144-.431.236-.718-.266.03-.44.03-.605.072-3.488.769-6.976 1.549-10.475 2.287-.45.093-.656.298-.81.708-1.046 2.852-2.134 5.694-3.18 8.546C8.46 51.052 7.21 54.541 5.948 58.04c-.339.923-.8 1.775-1.662 2.319-1.15.718-2.319.133-2.329-1.221 0-.688.154-1.416.39-2.073 2.052-5.786 4.145-11.562 6.217-17.338.072-.215.133-.43.215-.697-1.559-.165-2.646-1.006-3.57-2.124-.349-.431-.697-.862-1.087-1.252-.246-.246-.544-.513-.862-.585-1.118-.307-1.847-1.005-2.278-2.062v-.472c.39-.605 1.016-.861 1.673-1.046a762.43 762.43 0 019.49-2.565c.461-.123.677-.349.851-.77A9135.527 9135.527 0 0122.26 4.928c.246-.606.503-1.211.831-1.765.441-.77 1.067-1.375 1.95-1.641 1.056-.319 1.867.246 1.815 1.333-.03.595-.195 1.21-.42 1.765-2.945 7.458-5.92 14.907-8.885 22.355-.082.205-.143.42-.225.646.123.01.153.03.194.02a2013.41 2013.41 0 0110.814-2.133c.39-.072.554-.277.687-.626.944-2.411 1.877-4.822 2.873-7.212 1.877-4.525 3.785-9.039 5.683-13.553.339-.81.872-1.354 1.755-1.62 1.918-.596 3.806-1.263 5.714-1.91.267.011.544.011.82.011z" fill="#A2A3A5"/><path d="M41.015 52.376c-.595.38-1.119.77-1.693 1.067-1.344.688-2.719.739-3.98-.164-1.304-.933-1.663-2.308-1.509-3.827.134-1.333.708-2.503 1.58-3.508.657-.76 1.324-1.529 2.031-2.237.38-.38.462-.708.308-1.23-.256-.924-.533-1.889-.544-2.832-.02-2.36 2.37-3.94 4.586-3.13 1.6.585 2.411 2.145 1.693 3.725-.544 1.2-1.375 2.298-2.175 3.365-.4.533-.564.964-.287 1.58.236.533.38 1.118.564 1.692.534-.369.985-.78 1.519-1.036.882-.43 1.641.093 1.549 1.057-.041.492-.226 1.005-.472 1.446-.329.606-.79 1.129-1.15 1.724a1.003 1.003 0 00-.112.728c.123.493.349.965.492 1.457.226.75.01 1.385-.502 1.6-.565.237-1.221-.092-1.59-.8a8.35 8.35 0 01-.308-.677zm-2.001-5.745c-.062-.02-.113-.03-.174-.051-.41.687-.862 1.344-1.2 2.062-.114.236-.042.677.122.892.093.124.585.103.8-.03.411-.236.75-.585 1.119-.893.01-.01-.01-.072-.02-.113-.216-.615-.431-1.241-.647-1.867zm.718-5.489c.072.01.134.031.205.041.339-.43.739-.82.975-1.292.133-.257.062-.677-.051-.965-.062-.143-.523-.277-.657-.184-.267.174-.585.482-.605.759-.051.533.082 1.098.133 1.641z" fill="#A2A3A5"/></svg>