<svg width="19" height="20" fill="none" xmlns="http://www.w3.org/2000/svg"><path d="M13.383.164h-7.88C2.827.164.649 2.507.649 5.387v8.48c0 2.88 2.178 5.222 4.854 5.222h7.88c2.677 0 4.854-2.343 4.854-5.222v-8.48c0-2.88-2.177-5.223-4.853-5.223zm3.294 13.703c0 1.954-1.477 3.543-3.293 3.543H5.503c-1.816 0-3.293-1.59-3.293-3.543v-8.48c0-1.954 1.477-3.544 3.293-3.544h7.88c1.816 0 3.294 1.59 3.294 3.544v8.48z" fill="#E62C2E"/><path d="M9.443 4.75c-2.499 0-4.532 2.188-4.532 4.877 0 2.688 2.033 4.876 4.532 4.876 2.498 0 4.531-2.188 4.531-4.876 0-2.69-2.033-4.877-4.531-4.877zm0 8.074c-1.639 0-2.972-1.435-2.972-3.198S7.804 6.43 9.443 6.43c1.638 0 2.97 1.434 2.97 3.197 0 1.763-1.332 3.198-2.97 3.198zm4.722-9.498c-.3 0-.596.131-.808.36a1.287 1.287 0 00-.336.872c0 .323.122.641.335.87.213.229.508.36.809.36.301 0 .596-.131.81-.36a1.29 1.29 0 00.334-.87c0-.325-.122-.643-.335-.871a1.11 1.11 0 00-.81-.36z" fill="#E62C2E"/></svg>