<svg width="25" height="15" fill="none" xmlns="http://www.w3.org/2000/svg"><path d="M23.849 13.075c-.064-.11-.461-.99-2.37-2.799-2-1.894-1.731-1.587.677-4.862 1.466-1.995 2.053-3.214 1.869-3.734-.175-.497-1.253-.366-1.253-.366l-3.586.021s-.266-.036-.464.084c-.193.119-.317.393-.317.393s-.568 1.544-1.326 2.857c-1.598 2.77-2.238 2.916-2.499 2.744-.607-.4-.455-1.611-.455-2.47 0-2.685.399-3.804-.777-4.093-.39-.096-.677-.16-1.675-.171-1.28-.014-2.365.005-2.978.31-.409.205-.723.66-.531.686.237.032.774.148 1.06.544.368.51.354 1.658.354 1.658s.212 3.16-.494 3.553c-.484.27-1.148-.28-2.573-2.795a23.66 23.66 0 01-1.281-2.71s-.106-.265-.296-.407a1.473 1.473 0 00-.552-.227l-3.41.021s-.512.016-.7.243c-.167.202-.013.62-.013.62s2.67 6.376 5.693 9.59c2.773 2.947 5.92 2.754 5.92 2.754H13.3s.43-.049.65-.29c.203-.223.196-.64.196-.64s-.029-1.954.86-2.242c.876-.283 2.001 1.888 3.193 2.724.901.632 1.586.494 1.586.494l3.188-.046s1.668-.105.877-1.444z" fill="#E62C2E"/></svg>