<svg width="161" height="51" fill="none" xmlns="http://www.w3.org/2000/svg"><path d="M130.17 32.263l7.308-5.794a11.86 11.86 0 001.204-1.056c.331-.339.598-.674.809-.999.207-.27.364-.57.468-.899.104-.328.157-.694.157-1.1 0-.424-.07-.794-.214-1.101a2.57 2.57 0 00-.582-.81 3.155 3.155 0 00-1.304-.712 6.123 6.123 0 00-1.701-.215c-.87 0-1.689.164-2.464.492-.776.329-1.538.954-2.294 1.88l-1.842-1.767c.983-1.217 2.013-2.054 3.089-2.506 1.077-.454 2.247-.68 3.514-.68.963 0 1.879.13 2.748.39.87.263 1.615.673 2.24 1.23.509.445.916.992 1.217 1.638.301.65.455 1.405.455 2.273 0 1.275-.398 2.434-1.19 3.477-.321.424-.722.872-1.204 1.347-.481.475-.996.93-1.544 1.378l-4.28 3.387h8.101v2.578H130.17v-2.43zm15.64-2.202l10.625-12.747h2.324v12.255h1.755v2.403l-1.755.144v2.577h-2.862v-2.546H145.81V30.06zm10.087-7.965l-6.206 7.473h6.206v-7.473z" fill="#E62C2E"/><path d="M150.772 12.685l-1.344-1.89-.01.007C145.015 4.846 138.057.977 130.194.977c-13.331 0-24.136 11.048-24.136 24.678s10.805 24.679 24.136 24.679c6.242 0 11.892-2.452 16.161-6.438l.011.01 1.668-1.633a1.925 1.925 0 00.057-2.68 1.826 1.826 0 00-2.622-.059l-1.668 1.634.003.007c-3.604 3.354-8.345 5.432-13.61 5.432-11.318 0-20.492-9.38-20.492-20.952 0-11.572 9.174-20.952 20.492-20.952 6.82 0 12.821 3.446 16.546 8.686l.003-.003 1.064 1.497a1.803 1.803 0 002.557.414c.819-.602 1-1.774.408-2.612z" fill="#E62C2E"/><path d="M39.772 16.288c-.14-.164-.284-.324-.435-.482a13.124 13.124 0 00-4.346-3.192c-1.685-.776-3.534-1.163-5.54-1.163h-4.657V7.906h-5.968v3.545h-4.661c-2.123 0-4.072.438-5.851 1.306a13.937 13.937 0 00-4.547 3.514c-.986 1.163-1.762 2.527-2.33 4.096-.569 1.566-.853 3.244-.853 5.022 0 1.938.334 3.75.993 5.432.662 1.685 1.601 3.148 2.815 4.386a13.234 13.234 0 004.32 3.022c1.665.735 3.484 1.104 5.453 1.104h4.657v4.065h5.968v-4.065h4.658c1.818 0 3.523-.342 5.115-1.015a14.038 14.038 0 004.26-2.817c.267-.257.518-.527.762-.804a17.957 17.957 0 01-2.428-9.052c.004-3.436.96-6.639 2.615-9.357zM18.826 33.642h-4.26a7.753 7.753 0 01-3.24-.697 8.769 8.769 0 01-2.671-1.86 8.55 8.55 0 01-1.618-2.526c-.398-.947-.595-2.004-.595-3.17 0-1.004.177-1.982.538-2.932.361-.947.786-1.771 1.277-2.469a7.863 7.863 0 012.815-2.092 8.42 8.42 0 013.494-.755h4.26V33.64zm17.67-4.878a8.11 8.11 0 01-1.706 2.615 7.817 7.817 0 01-2.611 1.682 8.487 8.487 0 01-3.126.581h-4.26V17.143h4.26c1.097 0 2.15.195 3.153.578a7.365 7.365 0 012.641 1.743 8.617 8.617 0 011.645 2.616c.415 1.008.625 2.112.625 3.309.004 1.244-.204 2.365-.622 3.374z" fill="#fff"/><path d="M43.048 25.078c0-6.488 5.146-11.75 11.491-11.75l7.272-.013h.84V7.903h-2.94v.004h-5.389c-9.589 0-17.362 7.948-17.362 17.752 0 9.805 7.773 17.753 17.362 17.753h8.329v-6.588c-2.705.004-5.407.004-8.112.007-6.349 0-11.49-5.261-11.49-11.753z" fill="#fff"/><path d="M88.332 7.903v14.704H68.616V7.902h-2.665c1.461 0 2.645 1.21 2.645 2.708 0 1.494-1.184 2.707-2.645 2.707h-3.3v23.511c.04.01.074.003.12.006.873 0 1.75.024 2.622.024 1.772 0 3.206 1.467 3.206 3.279 0 1.808-1.434 3.278-3.206 3.278l-2.735.004h5.958V28.715h19.716V43.42H94.3V7.903h-5.968z" fill="#fff"/><path d="M65.957 13.314c1.478 0 2.675-1.21 2.675-2.707 0-1.497-1.197-2.708-2.675-2.708h-3.34v5.412h3.34v.003zm2.658 26.822c0-1.809-1.44-3.279-3.216-3.279l-2.761-.034.01 6.588h2.751c1.775 0 3.216-1.467 3.216-3.275zM41.971 20.029a13.571 13.571 0 00-2.347-3.88 18.155 18.155 0 00-2.67 9.51c0 3.36.908 6.505 2.483 9.2a14.19 14.19 0 002.357-3.73c.776-1.771 1.163-3.679 1.163-5.727.004-1.931-.327-3.722-.986-5.373z" fill="#F2F2F2"/></svg>