<svg width="161" height="49" fill="none" xmlns="http://www.w3.org/2000/svg"><path d="M130.291 30.792l7.292-5.655c.47-.357.871-.7 1.201-1.03.33-.33.597-.657.807-.974.207-.264.364-.558.467-.878.104-.32.157-.677.157-1.074 0-.414-.07-.774-.213-1.074a2.523 2.523 0 00-.581-.79 3.18 3.18 0 00-1.301-.695 6.242 6.242 0 00-1.698-.21 6.36 6.36 0 00-2.459.48c-.773.32-1.534.931-2.288 1.835l-1.838-1.724c.981-1.188 2.008-2.005 3.082-2.446 1.074-.443 2.242-.663 3.506-.663.961 0 1.875.126 2.743.38.867.257 1.611.657 2.235 1.2.507.434.914.968 1.214 1.599.3.633.454 1.37.454 2.218 0 1.244-.397 2.375-1.188 3.393-.32.413-.721.85-1.201 1.314-.48.464-.994.907-1.541 1.345l-4.27 3.305h8.083v2.516h-12.663v-2.372zm15.605-2.148l10.601-12.44h2.319v11.96h1.751v2.345l-1.751.14v2.515h-2.856v-2.485h-10.064v-2.035zm10.064-7.773l-6.191 7.292h6.191v-7.292z" fill="#E62C2E"/><path d="M150.847 11.687l-1.341-1.844-.01.006C145.103 4.038 138.161.262 130.315.262c-13.301 0-24.083 10.781-24.083 24.082 0 13.3 10.782 24.082 24.083 24.082 6.228 0 11.865-2.392 16.125-6.282l.01.01 1.665-1.594a1.85 1.85 0 00-2.559-2.672l-1.664 1.594.003.007c-3.596 3.273-8.326 5.3-13.58 5.3-11.293 0-20.446-9.153-20.446-20.445s9.153-20.446 20.446-20.446c6.805 0 12.793 3.363 16.509 8.476l.003-.003 1.061 1.461a1.826 1.826 0 002.552.404 1.823 1.823 0 00.407-2.549z" fill="#E62C2E"/><path d="M40.095 15.202a11.28 11.28 0 00-.434-.47 13.083 13.083 0 00-4.337-3.116c-1.681-.757-3.526-1.134-5.527-1.134H25.15v-3.46h-5.955v3.46h-4.65c-2.119 0-4.063.427-5.838 1.274a13.869 13.869 0 00-4.537 3.43c-.984 1.134-1.758 2.465-2.325 3.996-.567 1.528-.85 3.166-.85 4.9 0 1.892.333 3.66.99 5.301a12.611 12.611 0 002.809 4.28 13.21 13.21 0 004.31 2.95c1.661.716 3.476 1.077 5.44 1.077h4.648v3.966h5.954V37.69h4.647c1.815 0 3.516-.334 5.104-.991a14.037 14.037 0 004.25-2.749c.267-.25.517-.514.76-.784a17.228 17.228 0 01-2.421-8.833 17.243 17.243 0 012.609-9.13zm-20.9 16.933h-4.25a7.882 7.882 0 01-3.232-.68 8.754 8.754 0 01-2.666-1.815 8.323 8.323 0 01-1.615-2.465c-.396-.924-.593-1.955-.593-3.093 0-.98.176-1.934.537-2.862.36-.924.784-1.728 1.274-2.408a7.832 7.832 0 012.809-2.042 8.561 8.561 0 013.486-.737h4.25v16.102zm17.63-4.76a7.902 7.902 0 01-1.7 2.552 7.824 7.824 0 01-2.606 1.641 8.638 8.638 0 01-3.12.567h-4.25V16.036h4.25c1.095 0 2.146.19 3.146.564a7.364 7.364 0 012.636 1.701 8.387 8.387 0 011.641 2.552c.414.984.624 2.062.624 3.23.003 1.214-.204 2.308-.62 3.292z" fill="#223365"/><path d="M43.364 23.78c0-6.331 5.134-11.465 11.465-11.465l7.256-.014h.837v-5.28H59.99v.003h-5.377c-9.568 0-17.324 7.756-17.324 17.323 0 9.568 7.756 17.324 17.324 17.324h8.31v-6.428l-8.094.006c-6.334 0-11.465-5.134-11.465-11.469z" fill="#70C8F2"/><path d="M88.545 7.02v14.348H68.873V7.021h-2.659a2.639 2.639 0 012.64 2.642 2.641 2.641 0 01-2.64 2.642h-3.292v22.941c.04.01.073.003.12.006.87 0 1.745.024 2.615.024a3.2 3.2 0 010 6.398l-2.728.004h5.944V27.33h19.672v14.348H94.5V7.02h-5.955z" fill="#35679A"/><path d="M66.221 12.3c1.475 0 2.669-1.18 2.669-2.641 0-1.462-1.194-2.642-2.669-2.642H62.89v5.28h3.332v.003zm2.653 26.175c0-1.765-1.438-3.2-3.21-3.2l-2.755-.033.01 6.428h2.746a3.203 3.203 0 003.209-3.195z" fill="#1C3761"/><path d="M42.29 18.852a13.192 13.192 0 00-2.342-3.787 17.427 17.427 0 00-2.666 9.281c0 3.28.908 6.348 2.479 8.977a13.811 13.811 0 002.352-3.64c.774-1.727 1.16-3.589 1.16-5.587.004-1.885-.326-3.633-.984-5.244z" fill="#35679A"/></svg>