<svg width="165" height="44" fill="none" xmlns="http://www.w3.org/2000/svg"><path d="M40.898.535c4.865.073 9.162 1.537 12.466 5.277 5.821 6.596 4.756 17.706-4.079 22.124-6.705 3.352-13.325 2.928-19.352-1.634-4.37-3.316-5.942-7.976-5.059-13.325.944-5.689 4.393-9.428 9.767-11.413A16.465 16.465 0 0140.898.535zm.085 2.941c-3.353 0-6.294 1.077-8.69 3.413-2.771 2.699-4.14 5.99-3.57 9.864.799 5.373 4.078 8.617 9.234 9.96 5.712 1.489 12.139-1.815 14.293-7.237 3.038-7.649-2.904-16.097-11.267-16zm20.284 24.448V4.457c.157-.013.278-.037.387-.037 5.18.024 10.36-.072 15.528.133 3.981.158 6.62 2.457 7.031 6.645.218 2.263-1.343 4.95-3.594 6.1-.666.338-1.38.605-2.227.98 2.372 3.22 4.72 6.414 7.153 9.718-1.416 0-2.724.024-4.019-.024-.193-.012-.435-.278-.58-.472-2.118-2.929-4.224-5.858-6.354-8.774-.182-.255-.557-.52-.848-.52-2.88-.037-5.76-.025-8.64-.025-.122 0-.23.024-.412.048v9.719c-1.138-.024-2.227-.024-3.425-.024zm3.425-12.672c.17.024.314.06.46.06 3.437 0 6.874.025 10.311-.011.799-.013 1.61-.11 2.384-.303 1.634-.387 2.493-1.573 2.76-3.159.266-1.561-.303-2.832-1.622-3.727-.98-.666-2.118-.836-3.28-.823H65.466c-.254 0-.508.024-.774.036v7.927zm76.477 12.829c-1.283 0-2.457.036-3.619-.024-.266-.012-.617-.34-.763-.605-.883-1.634-1.706-3.292-2.59-4.926-.133-.23-.496-.472-.762-.472a978.284 978.284 0 00-13.325-.024c-.242 0-.581.217-.69.423-.823 1.525-1.634 3.062-2.36 4.636-.327.714-.702 1.04-1.537.968-.98-.085-1.985-.024-3.098-.024.641-1.271 1.198-2.397 1.779-3.522 3.243-6.342 6.511-12.672 9.73-19.038.364-.714.751-1.004 1.55-.944 1.016.085 2.045.012 3.074.085.266.012.641.242.762.472 2.142 4.115 4.26 8.242 6.39 12.357a2642.84 2642.84 0 005.217 10.07c.06.156.121.314.242.568zm-8.751-9.065c-1.912-3.727-3.764-7.346-5.688-11.086-1.912 3.776-3.727 7.383-5.603 11.086h11.291zm-38.983 6.366h17.343v2.59H89.756V4.54h21.046c0 .775.025 1.5-.024 2.227-.012.145-.339.375-.52.375-3.099.012-6.197-.012-9.307-.024h-7.528v7.48h12.974v2.626H93.435v8.157zm70.861 2.698h-21.337V4.734h3.328V25.49h18.009v2.59zM.911 4.518h3.232v20.95h18.069c0 .81.012 1.524-.012 2.25 0 .121-.218.267-.351.34-.097.048-.242.011-.363.011-6.633.012-13.277.012-19.91.024a7.51 7.51 0 01-.665-.036V4.517zm82.08 39.042h-1.78v-9.259c.098-.036.183-.084.267-.084 2.094.012 4.188-.024 6.282.06.629.024 1.306.23 1.875.533 1.78.944 1.792 3.134.06 4.175-.35.206-.737.363-1.197.581.956 1.295 1.888 2.578 2.904 3.97-.677 0-1.246.036-1.815-.024-.194-.025-.412-.23-.545-.412a79.882 79.882 0 01-2.045-2.94c-.254-.388-.545-.557-1.017-.533-.968.036-1.936.012-3.001.012.012 1.331.012 2.614.012 3.921zm.012-8.133v2.917c1.586 0 3.147.084 4.684-.037.968-.072 1.416-.702 1.404-1.476 0-.75-.436-1.307-1.416-1.38-1.525-.109-3.086-.024-4.672-.024zm-17.887 8.121c.424-.75.799-1.428 1.186-2.094a775.43 775.43 0 013.982-6.838c.121-.206.424-.375.678-.412 1.246-.23 2.07.146 2.687 1.404 1.27 2.554 2.759 4.999 4.15 7.492.073.12.122.254.23.496-.69 0-1.282.036-1.875-.024-.182-.012-.4-.242-.508-.436-.315-.544-.63-1.101-.872-1.694-.206-.484-.508-.63-1.017-.617-1.488.036-2.977.024-4.465 0-.448-.013-.75.096-.92.532-.11.266-.278.52-.412.775-.835 1.621-.835 1.621-2.844 1.416zm8.581-3.897c-.738-1.392-1.404-2.65-2.142-4.03-.799 1.427-1.5 2.698-2.251 4.03h4.393zm27.557.895c.46 0 .871-.024 1.283.012.121.013.327.158.351.267.218 1.198 1.113 1.682 2.142 1.779 1.101.109 2.215-.024 3.328-.085.206-.012.472-.109.593-.266.266-.351.581-.726.654-1.138.084-.52-.267-.944-.799-1.065-1.392-.327-2.808-.605-4.2-.932-.568-.133-1.149-.254-1.682-.484-1.501-.678-1.755-2.493-.46-3.522.533-.423 1.21-.762 1.876-.895 1.9-.388 3.788-.34 5.519.69.75.447 1.053 1.161 1.101 2.105-.448 0-.847.025-1.258-.012-.158-.012-.388-.17-.412-.302-.266-1.09-1.174-1.38-2.057-1.477-.872-.097-1.792 0-2.675.145-.654.11-1.174.533-1.174 1.295-.012.787.605 1.005 1.222 1.126 1.549.315 3.123.532 4.66.908 1.852.447 2.65 2.13 1.743 3.546-.63.992-1.683 1.307-2.748 1.488-1.476.242-2.965.279-4.429-.145-1.731-.484-2.578-1.476-2.578-3.038zm-46.485-6.293c2.311 0 4.55-.048 6.79.024.653.024 1.343.279 1.911.618 1.55.907 1.562 2.88.097 3.945-1.016.738-2.178.775-3.352.799-1.15.024-2.288.012-3.437.024-.049 0-.085.036-.194.085v3.691a.835.835 0 01-.182.121c-1.633.17-1.633.17-1.633-1.464v-7.843zm1.851 1.15v3.026c1.416 0 2.784.024 4.14-.013.423-.012.859-.157 1.258-.314.545-.218.726-.69.726-1.247 0-.569-.242-.992-.774-1.21-.242-.097-.509-.23-.763-.23-1.513-.024-3.013-.012-4.587-.012zM22.986 4.469c-.387.738-.701 1.355-1.028 1.972-1.041 1.937-2.094 3.861-3.11 5.81-.206.4-.424.593-.896.556-.581-.048-1.162-.012-1.804-.012.025-.17.025-.314.073-.435.968-2.445 1.96-4.89 2.917-7.347.157-.399.35-.568.799-.556.98.036 1.948.012 3.05.012zM97.236 43.5h-1.633v-6.693h1.633v6.692zm.665-39.746c.848-.931 1.683-1.875 2.542-2.807.085-.097.242-.158.375-.182.133-.036.291-.012.436-.012h5.143l.037.182c-2.82.98-5.64 1.96-8.46 2.953a.493.493 0 01-.073-.134zm-2.298 30.391h1.55v1.586c-1.502.447-1.853.12-1.55-1.587z" fill="#A2A3A5"/></svg>