<svg width="120" height="63" fill="none" xmlns="http://www.w3.org/2000/svg"><path d="M15.662 22.215c-.064.148-.119.305-.192.443-1.005 2.18-1.836 4.415-2.32 6.78-.438 2.17-.575 4.35-.11 6.53.804 3.713 3.033 6.235 6.476 7.676 2.018.84 4.137 1.118 6.31 1.072 1.945-.047 3.817-.49 5.68-.998 8.831-2.43 17.663-4.85 26.484-7.27 3.982-1.09 7.964-2.188 11.946-3.278a1.03 1.03 0 00.42-.194H59.844c-.118-4.47-.228-8.886-.347-13.301-.036-.01-.064-.019-.1-.028-1.662 4.425-3.324 8.84-4.995 13.282h-7.58C50.794 22.104 54.767 11.316 58.739.518h7.68c-1.196 3.168-2.365 6.3-3.543 9.421.019.019.046.028.064.047.1-.12.21-.231.31-.351 2.384-2.92 4.768-5.838 7.142-8.757.256-.286.484-.388.84-.388C78.585.5 85.928.5 93.279.5h.585c-.667 1.838-1.352 3.602-2.028 5.403h-7.68l-2.502 6.835h7.287c-.767 2.06-1.497 4.037-2.246 6.05h-7.297c-.968 2.623-1.927 5.219-2.913 7.87h8.84c-.292.85-.566 1.635-.868 2.484.247-.055.42-.083.594-.129 10.931-2.993 21.872-5.995 32.804-8.996.164-.047.328-.102.493-.12.228-.028.465-.093.739.11-.073.12-.118.277-.228.351-.192.139-.402.25-.621.342-22.228 9.736-44.447 19.471-66.676 29.188a3071.656 3071.656 0 01-20.347 8.793c-2.74 1.173-5.516 2.263-8.392 3.076-2.621.74-5.279 1.238-8.01 1.182-4.018-.083-7.589-1.404-10.657-4.054C2.109 57.11 1.013 54.857.758 52.16c-.238-2.54.228-4.978.977-7.38 1.013-3.27 2.52-6.309 4.237-9.246 2.493-4.276 5.388-8.257 8.502-12.081.348-.434.704-.86 1.06-1.293.073.027.1.036.128.055zM78.255 1.46c-.045-.037-.1-.074-.146-.11-.055.092-.091.193-.155.267-3.598 4-7.205 8.008-10.813 11.999a.845.845 0 00-.228.646c.128 4.397.246 8.803.374 13.2.028 1.015.073 2.04.11 3.057l.091.027c3.59-9.698 7.178-19.397 10.767-29.086z" fill="#A2A3A5"/><path d="M28.803.527h8.064c-.127 2.383-.292 4.748-.447 7.113-.146 2.355-.302 4.71-.402 7.084 1.817-4.71 3.562-9.449 5.333-14.187h7.47c.01.018.019.027.028.037.01.018.018.027.018.046-.009.064-.018.138-.045.203-3.964 10.696-7.936 21.401-11.909 32.116H28.73l.904-14.003-.082-.028c-1.726 4.674-3.452 9.339-5.187 14.03h-7.58c4.018-10.825 8.018-21.613 12.018-32.41zm16.685 32.412H37.99C38.027 32.542 49.451 1.58 49.954.527h7.552c-4.009 10.826-8.009 21.596-12.018 32.412z" fill="#A2A3A5"/></svg>