<svg width="19" height="19" fill="transparent" xmlns="http://www.w3.org/2000/svg"><rect width=".925" height="12.416" rx=".462" transform="matrix(.871 .49127 -.47159 .88182 11.55 3.437)"/><path fill-rule="evenodd" clip-rule="evenodd" d="M4.97 7.654c1.297.731 2.925.245 3.637-1.087.712-1.332.238-3.004-1.058-3.735-1.297-.731-2.925-.245-3.637 1.087C3.2 5.25 3.674 6.923 4.97 7.654zm.417-.778a1.79 1.79 0 002.464-.736c.482-.902.161-2.035-.717-2.53a1.79 1.79 0 00-2.464.736c-.482.902-.161 2.035.717 2.53zm5.383 8.061c1.298.731 2.926.245 3.638-1.087.712-1.331.238-3.004-1.058-3.735-1.297-.731-2.925-.245-3.637 1.087-.712 1.332-.239 3.004 1.058 3.735zm.418-.778a1.79 1.79 0 002.463-.736c.483-.902.162-2.035-.717-2.53a1.79 1.79 0 00-2.463.736c-.483.902-.162 2.035.716 2.53z"/><path fill-rule="evenodd" clip-rule="evenodd" d="M5.262.138a5 5 0 00-5 5v8a5 5 0 005 5h7.527a5 5 0 005-5v-8a5 5 0 00-5-5H5.262zm.597.614a5 5 0 00-5 5v6.772a5 5 0 005 5h6.331a5 5 0 005-5V5.752a5 5 0 00-5-5H5.86z"/></svg>