<svg width="106" height="81" fill="none" xmlns="http://www.w3.org/2000/svg"><path d="M.378 53.362c2.523-.77 5.046-1.558 7.578-2.299.673-.2 1.385-.038 2.087-.066.218-.01.142.18.142.285.01.76 0 1.51 0 2.308.389-.095.673-.352.986-.532 1.252-.712 2.485-1.453 3.908-1.786 3.282-.788 6.298.57 8.005 3.581 1.252 2.204 1.584 4.598 1.347 7.087-.218 2.327-1.053 4.407-2.665 6.117-1.745 1.862-3.955 2.802-6.45 3.135-1.565.208-3.14.076-4.704-.01-.332-.019-.446.047-.446.408.019 1.853.01 3.705.01 5.548 0 .266.037.399.35.465.873.162 1.726.39 2.59.58.246.057.332.152.322.408-.01.504.02 1.017.029 1.52h-.171c-.133-.143-.304-.086-.455-.086H1.26c-.152 0-.323-.057-.456.086h-.17c.01-.513.038-1.017.019-1.53-.01-.256.076-.35.322-.408.74-.17 1.46-.38 2.2-.532.342-.076.446-.2.446-.57-.019-4.132-.009-8.273-.009-12.405 0-3.002-.01-6.004.01-8.996 0-.418-.124-.494-.503-.484-.92.028-1.83 0-2.75 0 .009-.608.009-1.216.009-1.824zm9.807 8.758c0 2.08.01 4.17-.01 6.25 0 .37.105.466.465.447.55-.02 1.11-.01 1.66-.076 2.181-.257 3.775-1.33 4.553-3.41.844-2.261.9-4.588.199-6.906-.512-1.69-1.66-2.764-3.424-3.125-1.015-.21-2.02-.067-3.035.104-.332.057-.418.171-.418.494.02 2.08.01 4.151.01 6.222z" fill="#A2A3A5"/><path d="M.813 80.121c.133-.142.304-.085.456-.085h11.58c.152 0 .323-.057.456.085H.813zm34.259-15.893l2.504-4.131a3346.48 3346.48 0 005.027-8.322c.161-.265.332-.341.617-.341 1.3.019 2.59.019 3.889 0 .379-.01.436.114.436.456-.01 4.673-.01 9.356-.01 14.03v.588c.56-.75 1.063-1.415 1.556-2.09 1.062-1.424 2.115-2.85 3.177-4.274.161-.209.218-.418.218-.684-.01-2.318 0-4.635-.01-6.953 0-.333.105-.541.352-.741 2.19-1.824 5.387-.807 5.937 1.91.2.997-.038 1.937-.493 2.83-.626 1.225-1.47 2.299-2.305 3.382-2.864 3.704-5.748 7.409-8.612 11.113-.18.228-.36.323-.654.323-1.575-.019-3.14-.019-4.714 0-.342 0-.427-.085-.427-.427.01-3.79.01-7.58.01-11.37 0-.152.047-.314-.067-.504-.294.494-.579.96-.863 1.425l-6.374 10.515c-.152.247-.303.361-.616.361a147.96 147.96 0 00-4.107 0c-.36.01-.456-.076-.456-.446.01-5.044.01-10.088.02-15.123 0-.37-.086-.493-.456-.522-1.043-.076-2.087-.2-3.13-.285-.246-.019-.36-.066-.341-.342a10.59 10.59 0 000-1.225c-.01-.257.076-.333.322-.39 2.23-.494 4.44-1.035 6.668-1.5.863-.181 1.774-.029 2.656-.057.227-.01.151.17.151.285V64.21c.038 0 .067.009.095.019zm43.232 1.635v3.353c0 .2-.123.247-.256.304-2.049.94-4.145 1.757-6.421 1.976-2.2.218-4.41.275-6.506-.532-3.159-1.226-5.113-3.61-5.89-6.859-.873-3.628-.18-6.981 2.39-9.793 1.593-1.748 3.632-2.726 5.928-3.173 2.428-.475 4.827-.446 7.16.475.92.361 1.727.893 2.381 1.644 1.176 1.358 1.404 3.258.54 4.616-.824 1.301-2.588 1.862-4.305 1.387-.645-.18-1.243-.475-1.85-.76-.208-.104-.199-.256-.199-.427 0-1.549-.01-3.087.01-4.636 0-.285-.038-.37-.351-.294-2.05.475-3.472 1.681-4.145 3.666-.825 2.432-.863 4.902.038 7.324.73 1.966 2.077 3.315 4.211 3.704 1.28.238 2.513 0 3.718-.446 1.062-.399 2.077-.893 3.102-1.377.132-.076.246-.19.445-.152zM47.62 34.668c.19 0 .38-.01.57-.01 6.27-.009 12.548-.009 18.818-.009.01.029.028.048.038.076 0 1.482 0 2.974.01 4.455 0 .257-.039.38-.352.38-6.279-.01-12.558-.01-18.836-.01-.2 0-.351.02-.351-.275.019-1.51.019-3.03.028-4.54.029-.029.057-.048.076-.067z" fill="#A2A3A5"/><path d="M47.62 34.668c-.018.02-.047.038-.066.057-.01-.057.01-.076.066-.057z" fill="#D03C11"/><path d="M67.055 34.64H47.526v4.91h19.53v-4.91zm12.179-9.793H67.056v9.783h12.178v-9.783z" fill="#A2A3A5"/><path d="M79.224 19.954H67.046v4.911h12.178v-4.91z" fill="#AEB0B1"/><path d="M86.51 4.271H67.064v5.947H86.51V4.27z" fill="#C4C5C7"/><path d="M86.51.453H67.064v3.819H86.51V.453z" fill="#D2D3D5"/><path d="M86.5 24.847h-7.266v9.783H86.5v-9.783z" fill="#AEB0B1"/><path d="M90.33 24.837h-3.84v9.812h3.84v-9.812z" fill="#B9BABC"/><path d="M100.27 24.837h-9.959v9.812h9.959v-9.812z" fill="#BEBFC1"/><path d="M105.203 24.837h-4.932v9.812h4.932v-9.812z" fill="#CBCCCE"/><path d="M67.056 19.973h12.178v4.873l7.256-.01.019-14.618H67.056v9.755z" fill="#B9BABC"/><path d="M90.32 4.271h-3.812v5.947h3.813V4.27z" fill="#DEDFE1"/><path d="M90.32 10.218h-3.812v14.619h3.813v-14.62z" fill="#CBCCCE"/><path d="M100.272 10.218h-9.95v14.619h9.95v-14.62z" fill="#DADBDD"/></svg>