<svg width="103" height="74" fill="none" xmlns="http://www.w3.org/2000/svg"><path fill-rule="evenodd" clip-rule="evenodd" d="M40.843.334l1.914 4.649c-12.605 3.1-22.178 11.623-22.178 23.247 0 11.313 9.413 19.216 21.859 20.146 0 13.173-7.18 24.64-20.264 24.64C9.25 73.017.954 61.859.954 45.432.953 21.72 20.258 4.053 40.842.334zm59.822 0l1.915 4.649c-12.605 3.1-22.179 11.623-22.179 23.246 0 11.313 9.414 19.216 21.86 20.147 0 13.172-7.18 24.64-20.264 24.64-12.925 0-21.221-11.158-21.221-27.585 0-23.711 19.306-41.378 39.889-45.097z" fill="#F9FBFE"/></svg>