<svg width="21" height="21" fill="transparent" xmlns="http://www.w3.org/2000/svg"><path d="M10.484 12.85a2.5 2.5 0 100-5 2.5 2.5 0 000 5z" stroke="#0AC789" stroke-width="1.667" stroke-linecap="round" stroke-linejoin="round"/><path d="M16.65 12.85a1.375 1.375 0 00.275 1.517l.05.05a1.666 1.666 0 01-1.18 2.847 1.667 1.667 0 01-1.179-.489l-.05-.05a1.374 1.374 0 00-1.516-.275 1.375 1.375 0 00-.834 1.259v.141a1.667 1.667 0 01-3.333 0v-.075a1.375 1.375 0 00-.9-1.258 1.375 1.375 0 00-1.517.275l-.05.05a1.667 1.667 0 11-2.358-2.358l.05-.05a1.375 1.375 0 00.275-1.517 1.375 1.375 0 00-1.258-.833h-.142a1.667 1.667 0 110-3.334h.075a1.375 1.375 0 001.258-.9 1.375 1.375 0 00-.275-1.516l-.05-.05A1.667 1.667 0 116.35 3.925l.05.05a1.375 1.375 0 001.516.275h.067a1.375 1.375 0 00.833-1.258V2.85a1.667 1.667 0 113.334 0v.075a1.376 1.376 0 00.833 1.259 1.375 1.375 0 001.517-.275l.05-.05a1.666 1.666 0 012.72 1.817 1.666 1.666 0 01-.362.54l-.05.05a1.375 1.375 0 00-.275 1.518v.066a1.375 1.375 0 001.258.834h.142a1.667 1.667 0 010 3.333h-.075a1.375 1.375 0 00-1.258.833v0z" stroke="#0AC789" stroke-width="1.667" stroke-linecap="round" stroke-linejoin="round"/></svg>