<svg version="1.1" id="Слой_1" xmlns="http://www.w3.org/2000/svg" x="0" y="0" viewBox="0 0 193 196" xml:space="preserve"><style>.st0{fill:#fff}.st0,.st1{stroke:#0ac789;stroke-width:.5}</style><path class="st0" d="M163.9 130.8c.2-.1.3-.1.5-.2 1.8-.6 3.4-1.1 4.9-1.5-.1-.1-.2-.1-.2-.2m-5.2 1.9l-37.1-18.7c7-2.7 17.5-.8 22.4 1.7 5.9 2.9 10.1 6.6 15 10.8l.1.1m-.4 6.1c-6.4 2.2-14.4 4.8-23 4.1l23-4.1zm5.1-1.8c.1 0 .2-.1.3-.1-1.8-1.4-3.4-2.8-5-4.2m4.7 4.3c-1.4.4-3 .9-4.7 1.5-.2.1-.3.1-.5.2-6.4 2.2-14.4 4.8-22.9 4-6.1-.5-12.2-3.6-16.2-8.2-1.3-1.5-2.4-3.1-3-4.6-.6-1.5-.9-2.9-.7-4.1 1-2.5 2.9-4.3 5.8-5.4 3.4-1.3 7.8-1.5 11.8-1.1 4.1.5 7.9 1.6 10.3 2.8 5.8 2.9 10 6.6 14.9 10.8l.1.1.2-.2m4.9 4.2c-1.7-1.4-3.3-2.8-4.8-4.1l.2-.2"/><path class="st1" d="M167 128.6l-.4.1c-.8.2-1.6.5-2.5.8-.2.1-.4.1-.6.2l3.5-1.1zm0 0l-.4-.3c-1-.8-1.9-1.6-2.9-2.5l-.3-.3c-4.8-4.2-9.1-7.8-14.8-10.7-2.4-1.2-6.1-2.3-10-2.7-3.9-.4-8.1-.3-11.4 1-2.6 1-4.3 2.6-5.2 4.8-.1 1.1.1 2.4.7 3.7.6 1.4 1.5 2.8 2.7 4.1 3.9 4.4 9.7 7.3 15.6 7.9 8.3.8 16.2-1.9 22.5-4l3.5-1zm-26.2 7.5c-7.2-.6-13.3-4.4-17.1-8.7-3-3.4-4.5-7.2-3.9-10.1 2-5.3 7.6-7.5 13.7-7.8 6.1-.3 12.6 1.2 16.4 3.1 4.5 2.2 8 4.9 11.6 7.8 1.2 1 2.5 2.1 3.7 3.2 2.2 1.9 4.6 4 7.2 6-1.3.1-3 .6-4.9 1.1-1 .3-2.1.7-3.2 1-.1 0-.2.1-.4.1-1.3.4-2.6.9-4 1.3-5.6 2-12.2 3.6-19.1 3z"/><path class="st1" d="M140.3 135c-.2-.2-.5-.5-.8-.9-.9-1-1.9-2.5-2.7-4.2-.9-1.6-1.4-3.5-1.6-4.9-.1-.7-.1-1.3-.2-1.7v-.4l2 .1v.3c0 .4-.1.9 0 1.5 0 1.3.2 3 .9 4.6.5 1.8 1.3 3.4 1.9 4.5.2.4.4.8.5 1.1zm3.7.5c-.2-.2-.5-.5-.8-.9-.9-1-1.9-2.5-2.7-4.2-.9-1.6-1.4-3.5-1.6-4.9-.1-.7-.1-1.3-.2-1.7v-.4l2 .1v.3c0 .4-.1.9 0 1.5 0 1.3.2 3 .9 4.6.5 1.8 1.2 3.4 1.9 4.5.1.4.3.8.5 1.1zm2.4-.9c-.1-.1-.2-.2-.2-.3-.8-1-1.8-2.4-2.4-3.9-.8-1.5-1.2-3.2-1.4-4.6-.1-.7-.1-1.2-.1-1.6v-.4l1.8.1v.3c0 .4 0 .9.1 1.4.1 1.2.5 2.7.9 4.3.4 1.5.9 3.1 1.4 4.2-.2.2-.2.3-.1.5zm-10.5-.7c-.2-.3-.5-.6-.7-.9-.8-1.1-1.8-2.6-2.4-4.5-.7-1.7-1-3.6-1.1-5-.1-.7-.1-1.3-.1-1.8v-.4l2 .3v.3c0 .4-.1.9-.1 1.5-.1 1.3 0 3 .4 4.8.3 1.7 1 3.4 1.6 4.6l.3.6c-.1.2 0 .4.1.5zm-7.8-13.4v-.3l2 .2v.3c0 .4-.1.9-.1 1.5-.1 1.3 0 3 .4 4.7.4 1.7 1.1 3.3 1.7 4.5.2.4.4.7.5 1v.1c-.2-.2-.5-.5-.8-.9-.8-1.1-1.8-2.6-2.5-4.3-.7-1.7-1-3.6-1.1-5 0-.7-.1-1.3-.1-1.8zm2.2-.1zm-5.4-1v-.3l2 .2v.3c0 .4-.1.9-.1 1.5-.1 1.3 0 3 .4 4.7.4 1.7 1.1 3.3 1.7 4.5.2.4.4.7.5 1v.1c-.2-.2-.5-.5-.8-.9-.8-1.1-1.8-2.6-2.5-4.3-.7-1.7-1-3.6-1.1-5 0-.7 0-1.3-.1-1.8zm2.3-.1c-.1 0-.1 0 0 0z"/><path class="st1" d="M126.8 130.3c-.2-.2-.5-.5-.8-.9-.8-1.1-1.8-2.6-2.5-4.3-.7-1.7-1-3.6-1.1-5-.1-.7-.1-1.3-.1-1.7v-.4l2 .2v.3c0 .4-.1.9-.1 1.5-.1 1.3 0 3 .4 4.7.4 1.7 1.1 3.3 1.7 4.5.1.4.3.7.5 1.1 0-.1 0 0 0 0zm-2.3-12.1z"/><path class="st1" d="M120.8 117v-.3l2 .2v.3c0 .4-.1.9-.1 1.5-.1 1.3 0 3 .4 4.7.4 1.7 1.1 3.3 1.7 4.5.2.4.4.7.5 1v.1c-.2-.2-.5-.5-.8-.9-.8-1.1-1.8-2.6-2.5-4.3-.7-1.7-1-3.6-1.1-5-.1-.7-.1-1.3-.1-1.8 0 .1 0 .1 0 0zm2.2-.1zm26.3 17.1c.1.3.3.6.4.8-.2-.2-.4-.4-.6-.7-.7-.9-1.5-2.1-2-3.6s-.8-3-.9-4c-.1-.5-.1-.9-.1-1.1l1.9-.9v1.9c0 1.1 0 2.6.2 3.9.1 1.4.6 2.7 1.1 3.7zm4.5.3l-.6-.6c-.7-.7-1.5-1.7-2.2-2.9-.8-1.2-1.1-2.5-1.3-3.6-.1-.5-.1-1-.1-1.3v-.2l2 .2v.1c0 .3-.1.6-.1 1.1 0 .9 0 2.1.5 3.3.4 1.2 1 2.4 1.4 3.2.1.1.1.3.2.4 0 .1.1.2.2.3zm-.6-7.2s0-.1 0 0l2-.1v.8c0 .6.1 1.5.5 2.3.4.8.9 1.6 1.3 2.2v.1c.1.2.3.4.3.6-.2-.1-.3-.2-.5-.4-.6-.4-1.3-1.1-2-1.8-.7-.8-1.1-1.8-1.3-2.6-.2-.5-.2-.9-.3-1.1zm-.3-.6l5 7c.1-.1.1-.2.1-.2v-.1c0-.1-.1-.2-.1-.3-.1-.2-.3-.5-.5-.8v-.1c-.4-.6-.9-1.4-1.2-2.2-.3-.8-.4-1.6-.5-2.1v-1.2s-.1-.1-.2-.1l-2.6.1zm5.5 1.1c0 .2 0 .4.1.6.1.5.4 1.2.7 1.9.3.7.7 1.3 1 1.9.1.2.3.4.4.6-.1-.1-.3-.2-.5-.3-.5-.4-1-1-1.5-1.7s-.9-1.4-1.2-2c-.1-.3-.2-.5-.2-.7v-.2l1.2-.1zm2.7.7h1.1c0 .1 0 .3.1.5.1.4.3.8.5 1.2.2.4.5.8.7 1.2.1.1.1.2.2.3-.1 0-.2-.1-.3-.1-.4-.2-.9-.5-1.3-1-.5-.4-.7-1-.8-1.6-.2-.1-.2-.3-.2-.5zm2.9 3.3z"/><path class="st1" d="M120.6 119.5l2.2-4s.1 0 .1.1c.3.1.7.3 1.3.6 1.2.5 2.9 1.1 5 1.9 4.2 1.5 10 3.5 15.7 5.3 5.8 1.9 11.6 3.3 16 4.3 2.2.5 4.1.8 5.4 1.1.7.1 1.2.2 1.5.3h.1c-.1 0-.1 0-.2.1-.3.1-.9.1-1.5.2-1.3 0-3.2-.1-5.5-.4-4.5-.6-10.5-1.7-16.4-2.9-6-1.3-11.9-2.7-16.4-3.9-2.2-.6-4.1-1.1-5.4-1.6-.7-.2-1.2-.4-1.5-.6-.2-.4-.3-.4-.4-.5zm-.1-.1z"/><path class="st1" d="M139.4 110.8c-.4 0-.9.1-1.4.1-1.6.2-3.6.8-5.3 2.2-1.8 1.3-3.3 2.8-4.3 3.9-.5.6-.9 1-1.1 1.3-.1.1-.1.2-.2.2l-2-.5v-.1c.1-.1.2-.3.4-.6.3-.4.8-1 1.5-1.6 1.3-1.2 3.1-2.6 5-3.7 2-1.3 4.2-1.6 5.8-1.6.7.3 1.2.3 1.6.4zm-8-.4c-.1 0-.1.1-.2.1-.9.6-2 1.6-3.1 2.7l-2.5 2.5c-.1.1-.2.3-.4.4-.3.3-.5.5-.6.7l-1.8-.4c.6-.4 1-.6 1.2-.7l.2-.1.5-.3h-.7c-.1 0-.1-.1-.1-.1h-.1c.1 0 .1-.1.2-.2.5-.3 1-.7 1.5-1.2.6-.4 1.2-.9 1.8-1.4 1.1-1.2 2.6-1.7 3.7-1.8.2-.2.3-.2.4-.2zm-.7 9.2l-1.4-1.4.2-.2.2-.2c.4-.4 1-.9 1.8-1.5 1.5-1.2 3.7-2.6 6.2-3.3 2.4-1 4.9-1.1 6.8-.9.6.1 1.1.2 1.5.3h-1.5c-1.8.1-4.2.4-6.4 1.6-2.3.9-4.2 2.4-5.5 3.6-.7.6-1.2 1.2-1.5 1.6 0 .1-.1.1-.1.1l-.3.3z"/><path class="st1" d="M134.1 121.1l-1.4-1.4.2-.2.2-.2c.4-.4 1-.9 1.8-1.5 1.5-1.2 3.7-2.6 6.2-3.3 2.4-1 4.9-1.1 6.8-.9.6.1 1.1.2 1.6.3-.4 0-1-.1-1.6 0-1.8.1-4.2.4-6.4 1.6-2.3.9-4.2 2.4-5.5 3.6-.7.6-1.2 1.2-1.5 1.6l-.1.1c-.2.1-.2.2-.3.3z"/><path class="st1" d="M138 122.7l-1.4-1.4.2-.2.2-.2c.4-.4 1-.9 1.8-1.5 1.5-1.2 3.7-2.6 6.2-3.3 2.4-1 4.9-1.1 6.8-.9.6.1 1.1.2 1.6.3-.4 0-1-.1-1.6 0-1.8.1-4.2.4-6.4 1.6-2.3.9-4.2 2.4-5.5 3.6-.7.6-1.2 1.2-1.5 1.6l-.1.1c-.2.1-.3.2-.3.3z"/><path class="st1" d="M141.6 124.5l-1.4-1.4.2-.2.1-.1c.4-.4 1-.9 1.7-1.4 1.4-1.1 3.4-2.5 5.8-3.2 2.3-.8 4.7-1.3 6.4-1.1.6.1 1.1.2 1.5.4-.4 0-.9-.1-1.5 0-1.7.1-3.9.5-6 1.7-2.1.9-3.9 2.3-5.1 3.5-.6.6-1.1 1.1-1.4 1.5l-.1.1-.2.2zm14.8-5.5c-.1.1-.2.1-.4.2s-.4.2-.7.3c-1.2.5-2.7 1.2-4.1 2.1-1.3.9-2.5 2.1-3.4 3-.4.5-.8.9-1 1.1l-.2.2-1.4-1.4.2-.2c.3-.3.7-.6 1.2-1 1-.8 2.4-1.9 4.1-2.7 1.6-.7 3.3-1.2 4.6-1.4.4-.1.8-.2 1.1-.2zm-9.9 7.3l-1.5-1.6 1.7 1.5-.1.1c-.1-.1-.1 0-.1 0zm-.1-.3s.1 0 .2.1l-.2-.1c0 .1 0 .1 0 0zm-1.4-1.7l-.2.1c.1 0 .1 0 .2-.1zm14.4-3.8c-.3.1-.6.2-.9.4-1 .5-2.3 1.1-3.5 2.2-1.1.9-2.2 1.9-3 2.8-.4.4-.7.7-.9 1v.1l-.2.2-1.4-1.4c.1 0 .1-.1.2-.2.3-.2.6-.5 1.1-.9.9-.7 2.2-1.7 3.6-2.4 1.3-.8 2.8-1.2 4-1.5.4-.2.8-.2 1-.3zm-8.6 6.8zm3.4-.8zm0 0c.1-.1.1-.1 0 0 .3-.2.5-.5.9-.7.7-.5 1.6-1.2 2.6-1.8 1-.6 2-1.2 2.7-1.6.3-.1.6-.2.8-.3-.2.1-.4.3-.7.6-.6.5-1.5 1.2-2.3 1.9-.8.7-1.7 1.4-2.3 2-.3.3-.6.5-.7.7l-.1.1-.9-.9zm9.2-2.1c.3-.1.5-.1.7-.2-.1.1-.2.1-.3.2-.1.1-.2.1-.3.2-.5.4-1.2.9-1.9 1.5-.7.5-1.4 1.1-1.8 1.5-.2.2-.5.4-.6.6l-.9-.9c.1-.1.4-.3.7-.5.6-.4 1.4-.9 2.2-1.3.7-.5 1.5-.9 2.2-1.1zm2.6 1.5h.5c-.1.1-.3.2-.4.3-.1.1-.3.2-.4.3-.3.2-.6.4-.9.7-.4.3-.9.7-1.2 1l-.4.4-.9-.9c.1-.1.2-.2.4-.3.4-.3 1-.6 1.6-.8.7-.4 1.3-.6 1.7-.7z"/><path class="st0" d="M141.2 86.9c4.2.5 9.4 2.6 14.2 4.9 4.5 2.2 8.7 4.6 11.3 6.2-3 1.4-5.9 3.4-8.9 5.5-6 4.2-12.2 8.5-20.5 9.2-6.1.5-12.2-2.2-17.3-5.6-4.9-3.2-8.8-6.9-10.5-8.7 7.3-9.7 21.3-12.8 31.7-11.5z"/><path class="st1" d="M164.3 98.1l.4-.2-.4-.2c-2.9-1.7-6.9-4-11.1-5.9-4.2-1.9-8.5-3.5-12.2-4-9.7-1.3-22.9 1.5-30.2 10.3l-.1.2.2.2c2.1 2 5.9 5.6 10.6 8.5 4.7 2.9 10.3 5.2 15.7 4.7 8.1-.7 14.2-4.9 20-9 2.4-1.7 4.8-3.3 7.1-4.6zm5.3 0c.1.1.2.1.3.2-2.3.7-4.5 1.9-6.8 3.3-1.5.9-3 2-4.6 3.1-.9.7-1.9 1.3-2.9 2-5.2 3.5-11 6.8-18.3 7.4-7.4.6-14.9-3.3-20.6-7.4-2.8-2-5.2-4.1-6.8-5.7-.8-.8-1.5-1.4-1.9-1.9l-.5-.5c3.9-5.8 9.9-9.4 16.1-11.4 6.2-2 12.8-2.4 17.8-1.7 5.7.7 12.9 4 18.8 7.1 2.9 1.5 5.5 3.1 7.3 4.2.9.5 1.6.9 2.1 1.3z"/><path class="st1" d="M139.9 112.6c-.3-.2-.7-.5-1.1-.8-1.3-1-2.9-2.4-4.1-4.1-1.5-1.6-2.5-3.5-3.1-5.1-.3-.8-.5-1.4-.6-1.9-.1-.2-.1-.4-.1-.5l2-.3c0 .1 0 .2.1.4.1.4.2 1 .4 1.8.4 1.4 1.1 3.3 2.3 5 1 1.9 2.4 3.4 3.4 4.6.2.3.6.6.8.9zm-5.9 1.2c.1.1 0 .1 0 0zm-.7-.7c-.3-.2-.8-.5-1.2-.8-1.3-.9-2.9-2.4-3.9-4.4-1.1-1.9-1.9-3.9-2.4-5.5-.2-.8-.4-1.5-.5-2 0-.2-.1-.4-.1-.5l2-.2v.4c.1.4.1 1.1.3 1.8.3 1.5.8 3.5 1.7 5.5.7 2 2 3.6 3.1 4.8l.8.8s.1.1.2.1zm-5.5-.7c-.3-.2-.7-.5-1.1-.8-1.2-1-2.8-2.4-4-4.3-1.3-1.7-2.1-3.7-2.6-5.3-.3-.8-.4-1.4-.5-1.9 0-.2-.1-.4-.1-.5l2-.3c0 .1 0 .2.1.4.1.4.2 1.1.3 1.8.3 1.5.9 3.4 1.9 5.2.9 1.9 2.2 3.5 3.2 4.6.2.4.5.8.8 1.1zm9.8-11.7l1.6-1.3v.1c.1.1.1.3.2.5.1.3.2.8.3 1.2 0 .1 0 .2.1.3.3 1.2.6 2.8 1.4 4.3.6 1.5 1.6 2.9 2.3 3.9.3.3.5.6.7.9l-.9-.6c-1-.8-2.2-2.1-3.1-3.6-1-1.5-1.6-3.1-2.1-4.3-.2-.5-.3-.9-.4-1.2 0-.1 0-.1-.1-.2zm12.5 7.9c-.2-.1-.5-.3-.9-.5-1-.6-2.2-1.5-3.2-2.7-1.2-1.1-1.9-2.6-2.4-3.7-.2-.6-.3-1.1-.4-1.4 0-.1 0-.2-.1-.2l2-.3v.2c0 .3.1.8.2 1.3.2 1 .6 2.4 1.6 3.6.8 1.3 1.8 2.4 2.6 3.2l.5.5c0-.2 0-.1.1 0zm-.9-7.8c0-.1 0-.1-.1-.1l1.9-.5v.1c0 .2.1.5.2.9.2.7.6 1.7 1.3 2.5.7.8 1.5 1.6 2.1 2.2l.1.1c.2.2.4.3.5.5-.2-.1-.4-.2-.7-.3-.8-.4-1.8-.9-2.8-1.6-1-.7-1.7-1.8-2.1-2.6-.1-.6-.2-.9-.4-1.2z"/><path class="st1" d="M163.9 98.5c-.3.1-.7.2-1.1.3-1.5.4-3.6.8-6.2 1.2-5.1.8-12 1.4-18.9 1.4-6.9.2-13.8.1-19-.1-2.6-.1-4.8-.2-6.3-.4-.8-.1-1.4-.1-1.9-.2-.2 0-.4-.1-.5-.1l1.2-4.4h.2c.3.1.9.2 1.6.3 1.4.2 3.5.5 6 .7 5.1.5 11.9 1.1 18.7 1.4 6.8.5 13.7.4 18.8.2 2.6-.1 4.7-.2 6.2-.3.5.1.9 0 1.2 0z"/><path class="st0" d="M106.5 142.8c-.5 3.7-2.3 8.3-4.3 12.4-1.9 3.9-4 7.4-5.3 9.5-7.4-9.2-12.2-16.6-13.1-28.4-.4-5.5 2.1-10.7 5.2-14.8 3-4 6.4-7 8-8.3 1.1.7 2.2 1.6 3.1 2.7 2.8 3.2 4.7 7.9 5.8 12.8.9 4.8 1.1 10 .6 14.1z"/><path class="st1" d="M105.5 142.7c.5-4.1.3-9.1-.7-13.9-1-4.8-2.9-9.3-5.5-12.3-.7-.8-1.4-1.5-2.2-2l-.2-.1-.2.1c-1.8 1.6-5 4.6-7.7 8.4-2.7 3.8-4.8 8.5-4.4 13.4.9 11 5.2 18.1 11.8 26.6l.2.3.2-.3c1.4-2.4 3.4-5.8 5.1-9.4 1.8-3.7 3.2-7.6 3.6-10.8zm-8.6 24.5c-7.6-9.5-13.6-17.5-14.7-30.8-.5-6.7 3.1-13 6.9-17.6 1.9-2.3 3.8-4.2 5.3-5.5.7-.7 1.3-1.2 1.8-1.5.2-.2.4-.3.5-.4h.1c1.6.8 3.1 2 4.4 3.4 3 3.5 5 8.4 6.1 13.6 1.1 5.1 1.3 10.4.7 14.5-.6 4.9-3.4 11-6.1 15.9-1.3 2.4-2.6 4.6-3.5 6.1-.5.8-.9 1.4-1.1 1.8-.2.3-.3.4-.4.5z"/><path class="st1" d="M85 137.6c.2-.3.4-.5.7-.9.8-1 2-2.1 3.5-2.9 1.4-1 3.1-1.5 4.4-1.8.6-.1 1.2-.2 1.6-.2h.3l-.1 2h-1.6c-1.1.1-2.6.3-4.1 1-1.6.6-2.9 1.5-3.9 2.2-.3.2-.6.4-.8.6zm10.5-10.8h.4l-.3 2h-.2c-.3 0-.8-.1-1.4-.1-1.1 0-2.7.1-4.3.5-1.6.3-3 1.1-4.1 1.8-.2.1-.4.3-.6.4-.1.1-.2.1-.3.2.2-.2.4-.5.7-.8.9-.9 2.2-1.9 3.9-2.6 1.5-.7 3.3-1.1 4.6-1.2.6-.1 1.2-.1 1.6-.2zm0 2.3zM84 132c-.1.1-.1.1 0 0zm1.2-5.2c.2-.2.4-.5.7-.8.8-.9 2.1-2 3.7-2.7 1.5-.8 3.2-1.2 4.5-1.3.6-.1 1.2-.1 1.6-.1h.3l-.2 2h-.3c-.3 0-.8-.1-1.4-.1-1.1 0-2.7.1-4.2.6-1.6.4-2.9 1.2-3.9 1.9-.3.1-.6.3-.8.5zm10.6-2.8zm-1.9 14c.4-.1.7-.1 1-.1l1.1 1.8c-.1 0-.3.1-.4.1h-1.4c-1.1 0-2.4 0-3.5.3-1.2.2-2.4.8-3.3 1.3-.3.2-.5.3-.7.5.1-.2.3-.4.5-.7.7-.8 1.8-1.6 3.1-2.2 1.4-.6 2.7-.9 3.6-1z"/><path class="st1" d="M95.2 113.4l4.4 1.2v.1c-.1.3-.1.8-.2 1.5-.2 1.3-.4 3.2-.7 5.6-.5 4.7-1.1 11-1.4 17.3-.5 6.3-.5 12.6-.4 17.4.1 2.4.1 4.3.2 5.7 0 .7.1 1.2.1 1.6 0 0-.1-.1-.1-.2-.2-.3-.3-.8-.5-1.5-.3-1.4-.6-3.3-.9-5.7-.5-4.7-.8-11.1-1-17.4-.2-6.4-.2-12.8-.1-17.6.1-2.4.1-4.5.3-5.9.1-.7.1-1.3.2-1.7 0-.1 0-.3.1-.4zm8.3 41.4l-1.9.5c0-.2-.1-.5-.2-.8-.2-.6-.5-1.4-.9-2.3-.3-.8-.7-1.7-1-2.3-.1-.2-.2-.4-.2-.5 0 0 0-.1-.1-.1.1.1.3.2.5.4.5.5 1.1 1.2 1.8 2 .6.8 1.2 1.6 1.6 2.2.2.3.3.6.4.8v.1zm0 .1zm-.1-4c-.1 0-.1 0 0 0-.1-.3-.2-.6-.4-.9-.3-.7-.8-1.6-1.2-2.4-.5-.9-1-1.7-1.4-2.3-.2-.2-.3-.4-.5-.6l.6.3c.6.4 1.4 1.1 2.2 1.9.7.8 1.4 1.6 1.9 2.2.2.3.4.6.6.8v.1l-1.8.9zm1.8-.8zm.1-2.9c-.1-.2-.2-.5-.4-.9-.4-.8-1-1.9-1.6-3-.6-1.1-1.3-2.2-1.9-3-.1-.2-.3-.4-.4-.5.2.1.4.2.6.4.8.5 1.7 1.4 2.5 2.4.9 1 1.7 2 2.3 2.9.3.4.5.8.7 1.1.1.2.1.3.2.4l-2 .2zm.7-4.6c-.1-.3-.2-.6-.4-1-.4-.8-.9-1.8-1.5-2.9-.6-1-1.3-2.1-1.9-2.8-.1-.1-.2-.2-.2-.3.1 0 .2.1.3.1.9.4 2 1 2.8 2.2.8.9 1.6 2 2.1 2.9.3.4.5.8.6 1.1.1.1.1.2.1.3l-1.9.4zm2-6.5l-1.9.6c-.1-.2-.2-.5-.4-.7-.4-.6-.9-1.4-1.5-2.1-.6-.8-1.3-1.5-1.8-2-.2-.2-.4-.4-.6-.5.2 0 .4.1.6.2.7.3 1.6.9 2.5 1.5.9.7 1.7 1.4 2.3 2 .3.3.5.6.6.8.2.1.2.2.2.2zm-.3-5c-.6 0-1.4 0-1.8-.1-.1-.1-.2-.3-.4-.5-.4-.5-1.1-1.1-1.8-1.8s-1.4-1.4-2-1.9c-.2-.1-.3-.3-.5-.4.1 0 .3.1.5.1.8.2 1.7.7 2.7 1.2 1 .5 1.9 1.2 2.5 1.8.3.3.5.6.7.9.1.4.1.5.1.7zm-3.8-8.5c1 .5 1.7 1.4 2.3 2.1.3.4.5.7.6 1 0 0 0 .1.1.1l-1.9.5c-.1-.2-.1-.4-.3-.7-.3-.6-.7-1.4-1.4-2.1-.7-.7-1.6-1.2-2.2-1.6-.1-.1-.2-.1-.3-.2-.1-.1-.2-.1-.3-.2.2 0 .4.1.7.1.7.1 1.7.4 2.7 1zm-25.8-6.5l-.1-.3-.1-.1.2.4zm0 0c-17.7 8.7-36.1 6-46.4-.1-3.6-2.1-7.2-5.5-10.5-9.3-3.9-4.4-7.4-9.3-9.9-13.1-1.3-1.9-2.3-3.5-3-4.7-.4-.6-.6-1-.8-1.3-.1-.2-.2-.3-.2-.4l-.1-.1.2-.1-.2.1-.2-.3.3-.1c2.3-.8 4.5-1.6 6.6-2.3 5.2-1.9 9.8-3.5 14.3-4.4 6.4-1.2 12.9-1.1 21.7 1.7l28.2 34.4zm-3.5-1.5l.2-.1-.1-.2c-1.2-3.9-4.2-12.4-10.4-19.5-4.4-5-9.6-8.4-15.4-10.3-7-2.2-12.5-2.7-17.7-2-5.2.6-10.2 2.4-16.4 4.6-1 .4-2.1.7-3.2 1.1l-.3.1.2.3c2.4 3.8 6.8 10.4 11.8 16.2 3.6 4.1 6.9 7 9.8 8.7 9.5 5.6 25.8 7.9 41.5 1.1zM49.7 82.2c7 2.2 12.4 6.4 16.4 11 4.5 5.1 7.4 10.8 9.2 15.2.9 2.2 1.5 4.1 1.9 5.4.2.7.3 1.2.4 1.6 0 .2.1.3.1.4-17.5 8.5-35.6 5.8-45.8-.2-3.5-2-7.1-5.4-10.4-9.2-3.9-4.4-7.4-9.3-9.9-13.1-1.3-1.9-2.3-3.5-3-4.7-.4-.6-.6-1-.8-1.3 0-.1-.1-.2-.1-.2 2.2-.8 4.3-1.5 6.3-2.2 5.2-1.8 9.7-3.4 14.2-4.3 6.4-1.3 12.8-1.1 21.5 1.6z"/><path d="M33.2 114.1h0c-3-1.7-6.3-4.7-10-8.9-5.6-6.5-10.5-14.2-12.6-17.6 1.6-.5 3.1-1.1 4.6-1.6 6.1-2.2 11.2-4 16.5-4.7 5.3-.7 10.9-.3 18 2 5.9 1.9 11.2 5.5 15.7 10.6 6.9 7.9 9.9 17.4 10.8 20.8-16.2 7.5-33.2 5.2-43-.6z" fill="#fff" stroke="#0ac789" stroke-width=".497"/><path class="st1" d="M76.4 112.2c0 .1.1.1.1.1l-2.4 3.7c-.1-.1-.2-.2-.3-.4-.4-.4-1-.8-1.8-1.3-1.6-1-4-2.2-7-3.6-5.9-2.8-13.9-6.3-22-9.7-5.4-2.3-10.8-4.5-15.6-6.5-2.4-1-4.6-1.9-6.6-2.8-3-1.3-5.6-2.3-7.3-3.1-.5-.2-1-.4-1.4-.6.4.1.8.2 1.4.4 1.8.5 4.4 1.3 7.6 2.3 6.3 2 14.7 4.8 23 7.8 8.4 3 16.7 6 22.8 8.6 3.1 1.3 5.6 2.4 7.3 3.3.9.5 1.5.9 1.9 1.2.1.3.3.5.3.6zm.1.1z"/><path class="st1" d="M60.2 105l-2 .4c0-.2-.1-.5-.2-.9-.2-.7-.6-1.8-1-3.1-.9-2.6-2.3-6-3.9-9.3-1.6-3.3-3.4-6.5-5.3-8.5-.6-.8-1.3-1.2-1.8-1.5.6.2 1.3.6 2 1.3 2.1 1.9 4.2 5 6.1 8.2 1.9 3.2 3.4 6.6 4.5 9.2.5 1.3 1 2.4 1.3 3.2.1.4.2.7.3.9v.1zm-6.7-19.6c.5.4 1.2.9 1.8 1.5 2 1.9 4.4 4.7 6.1 8 1.9 3.2 3.5 6.5 4.5 9.1.5 1.3 1 2.4 1.2 3.2.1.4.2.7.3.9v.1l-2 .4c0-.2-.1-.5-.2-.9-.2-.7-.5-1.8-1-3.1-.9-2.6-2.2-5.9-3.9-9.2C58.8 92 56.7 89 55 87c-.5-.6-1-1.2-1.5-1.6zm1.3 18.3l-1.7 1s0-.1-.1-.1c-.1-.2-.2-.5-.3-.9-.2-.5-.4-1.1-.6-1.8-.1-.4-.3-.9-.4-1.3-.8-2.6-2-6-3.6-9-1.7-3.2-4-5.9-5.9-7.8-.6-.6-1.2-1.1-1.7-1.6.5.4 1.2.8 1.8 1.4 2.1 1.7 4.6 4.3 6.6 7.4 2 3.2 3.4 6.5 4.3 9 .2.6.4 1.1.6 1.6.2.5.4 1 .5 1.4.3.2.4.5.5.7zm-1.7 1.1zM33.7 81.2c.2 0 .4.1.6.2.7.3 1.5.9 2.5 1.8 1.9 1.8 4.2 4.6 6.3 7.4 2.1 2.9 4.1 5.8 5.3 8 .6 1.1 1 1.9 1.2 2.5 0 .1.1.2.1.3l-.2-.1-.1.2-1.1 2h-.1l-.2-.2c-.2-.2-.4-.6-.8-1.1-.1-.3-.1-.6-.1-.9v-.4c0-.5-.1-1-.4-1.6-.4-1.2-1.1-2.5-1.9-3.8l-.9-1.5-1.8-3c-1.7-2.9-3.9-5.6-5.6-7.5-.9-.9-1.7-1.6-2.3-2-.2-.2-.4-.2-.5-.3zm-5.3 2.7c-.6-.4-1.2-.7-1.6-1 .5.2 1.1.4 1.8.8 2 1 4.5 2.6 6.6 4.9 2.1 2.2 3.8 4.7 5 6.6.6.9 1.1 1.8 1.4 2.3.1.1.1.2.2.3.1.2.2.3.2.4l-1.8 1c-.1-.1-.1-.3-.2-.5 0-.1-.1-.1-.1-.2l-1.2-2.4c-1-1.9-2.5-4.5-4.3-6.7-1.8-2.5-4.1-4.3-6-5.5zm11.5 15.4zm-8.3-3.2c-.1-.1-.2-.3-.3-.4-.3-.4-.7-.9-1.3-1.6-1.1-1.3-2.5-2.9-4.1-4.4-1.5-1.5-3.1-2.9-4.4-3.8-.5-.3-.9-.6-1.3-.7.4.1.8.2 1.4.5 1.4.7 3.3 1.9 5 3.3 1.8 1.4 3.5 2.9 4.7 4l1.4 1.4c.1.1.2.2.2.3l-1.3 1.4zm3.9 16.3c-.8 0-1.5.1-2.1.1.6-.1 1.3-.2 2-.3 2.9-.5 6.7-1.1 10.5-1.9 3.8-.7 7.5-1.5 10.2-2.1 1.3-.3 2.4-.6 3.1-.9.3-.1.6-.2.8-.3l1.5 1.3c-.1.1-.1.1-.3.2-.2.1-.6.3-1 .4-.9.3-2.1.6-3.6.9-2.9.6-6.8 1.2-10.6 1.6-3.8.5-7.6.9-10.5 1zm16-8.1c.3-.1.5-.1.7-.2l.9 1.8H53c-.2.1-.5.1-.9.2-.8.2-1.8.3-3.1.6-2.5.4-5.8.9-9.2 1.3-3.3.4-6.6.7-9.1.7h-2c.6 0 1.2-.1 1.9-.2 2.5-.3 5.8-.9 9.1-1.6 3.3-.7 6.5-1.4 8.9-1.9 1.2-.3 2.2-.5 2.9-.7z"/><path class="st1" d="M45.4 100.4c.3-.1.5-.1.7-.2l.9 1.8h-.1c-.2.1-.5.1-.9.2-.8.2-1.8.4-3.1.6-2.5.4-5.8.9-9.2 1.3-3.3.4-6.6.7-9.1.7h-2c.6 0 1.2-.1 1.9-.2 2.5-.3 5.8-.9 9.1-1.6 3.3-.7 6.5-1.4 8.9-1.9 1.3-.3 2.3-.5 2.9-.7z"/><path d="M36.7 98.8s0 0 0 0 0 0 0 0zm-.2 0c-.1 0-.3.1-.5.1-.5.1-1.2.2-2.1.3-1.8.3-4.1.6-6.5.8-2.4.2-4.8.4-6.5.4-.6 0-1.1-.1-1.5-.1.5 0 1-.1 1.6-.2 1.7-.2 4-.7 6.3-1.2s4.6-1 6.3-1.5c.9-.2 1.6-.4 2.1-.5.3-.1.5-.1.6-.2l.2 2.1z" stroke="#0ac789" stroke-width=".481"/><path class="st0" d="M88.9 88.4c-5.8-6.6-9.9-15-10.9-22.5-.6-4.5.1-10.5 1.3-16 1.1-5.3 2.5-10.1 3.4-12.7 1 .7 1.9 1.4 2.8 2.1 4.5 3.4 8.1 6.1 11.1 9.6 3.3 3.7 5.6 8 7.7 13.9 5.4 15.6-2.8 29.9-5.6 34.1-3.7-2.4-6.9-5.3-9.8-8.5z"/><path class="st1" d="M98.1 95.3l.2.1.1-.2c3.1-5 9.7-18.1 4.8-32.3-2-5.7-4.3-9.9-7.5-13.6-3-3.4-6.5-6.1-11-9.4-.3-.2-.5-.4-.8-.6-.2-.2-.4-.3-.6-.5l-.3-.2v.4c-1 3.1-2.3 7.8-3.2 12.7-.9 4.9-1.5 10-.9 14 1 7.4 5 15.6 10.7 22 2.5 2.9 5.4 5.5 8.5 7.6zM81.9 34.7c1.5 1.2 3 2.3 4.4 3.4 4.5 3.4 8.1 6.2 11.3 9.7 3.1 3.6 5.7 7.9 7.9 14.3 3.4 9.8 1.7 18.9-.8 25.7-1.3 3.4-2.7 6.1-3.9 8.1-.6 1-1.1 1.7-1.4 2.2-.2.3-.3.4-.4.6-4.4-2.6-8.1-5.9-11.2-9.4C81.2 81.8 77.5 73 76.5 66c-.8-5.8.6-13.7 2.1-20.2.8-3.2 1.6-6.1 2.3-8.2.3-1 .6-1.9.8-2.4.1-.2.2-.3.2-.5z"/><path class="st1" d="M101.4 95.6l-4.5.5V91l-.6-1.8-.6-1.8c-1.1-3.8-2.2-8.3-3.3-13.1-.6-2.4-1.1-4.9-1.8-7.4-1.8-7.4-3.6-15-4.4-20.5-.9-2.7-1.4-5-1.6-6.7-.1-.5-.1-.9-.1-1.2.1.3.2.7.3 1.2.5 1.5 1.2 3.7 2.4 6.5 1.4 5.7 3.6 12.7 6 20.1.9 2.8 1.8 5.6 2.6 8.4C97 79 98.3 83 99.4 86.2c.5 1.3.9 2.6 1.3 3.7.4 1.4.5 2.1.5 2.7 0 .3 0 .6.1.9 0 .8.1 1.4.1 1.8v.3z"/><path class="st1" d="M103.1 62.1v-1.9c.1.5.2 1.2.3 1.9.2 2.3 0 5.3-1.2 8.2-.9 2.9-2.2 5.7-3.2 7.8-.5 1-1 1.9-1.4 2.5-.2.3-.3.5-.4.7v.1L95.5 80c.1-.1.2-.3.4-.6.4-.5.9-1.3 1.5-2.2 1.2-1.9 2.6-4.5 3.7-7.3 1.4-2.7 1.9-5.6 2-7.8zm-7.5 13.7l-.3.6-1.9-.7v-.1c.1-.2.2-.4.4-.7.2-.4.5-.9.9-1.4.2-.3.4-.5.5-.8 1.2-1.9 2.7-4.3 3.7-6.8.9-2.7 1.4-5.5 1.6-7.6.1-.7.1-1.3.2-1.9.1.5.1 1.1.1 1.9 0 2.2-.2 5.1-.9 7.9-.9 2.9-2.2 5.5-3.2 7.4-.2.4-.5.8-.7 1.2-.1.4-.3.7-.4 1zm-2.2 0zm.9-5.2c-.1.1-.1.2-.2.3-.1 0-.2 0-.3.1l-.1.1s0 .1-.1.1c0 .1-.1.2-.1.3l-1.7.3h-.1v-.3c0-.3.1-.7.3-1.3l.5-.5c.1-.1.2-.2.3-.2.3-.3.5-.6.7-1.1.6-.9 1-2 1.5-3.3.1-.3.2-.5.3-.8.4-1.1.7-2.2 1.2-3.3.8-2.7 1.1-5.5 1.1-7.7 0-.7 0-1.4-.1-1.9.1.5.2 1.1.3 1.9.3 2.2.3 5.2-.4 8.3-.3.9-.5 1.9-.8 2.9l-.3 1.2c-.4 1.4-.7 2.7-1.3 3.7 0 .3-.3.8-.7 1.2zm-.1-22.2c.1.4.1.9.2 1.4.2 1.7.2 3.9-.3 6.2-.5 2.3-1 4.4-1.3 6-.2.8-.3 1.5-.4 1.9 0 .2-.1.4-.1.5l-2-.3c0-.1.1-.3.1-.5.1-.5.3-1.2.6-2 .5-1.6 1.2-3.8 1.9-5.8.7-2.1 1-4.3 1.1-6 .2-.5.2-1 .2-1.4zM90 56.5l-2-.3c0-.1.1-.2.1-.4.1-.4.2-1 .4-1.7.3-1.4.5-3.2.7-5.1.2-1.8.3-3.7.2-5 0-.5-.1-.9-.2-1.3.2.3.3.7.4 1.2.3 1.3.5 3.3.6 5.2.1 1.9 0 3.9-.1 5.3 0 .7-.1 1.3-.2 1.7.2.2.2.3.1.4zm5.8 25l-.3 2.1s-.1 0-.2-.1c-.2-.1-.4-.2-.6-.4-.5-.4-1.1-.9-1.8-1.6-1.4-1.4-3.1-3.2-4.7-5.2-1.6-1.9-3.1-3.8-4.2-5.3-.5-.8-1-1.4-1.2-1.9.3.3.6.7 1.1 1.2.1.1.3.3.4.5 1.2 1.4 2.9 3.2 4.7 4.9 1.5 1.6 3.6 3.3 5.2 4.5.6.6 1.2 1.1 1.6 1.3zM84.9 66.3c-.2-.4-.4-.7-.6-1 .2.3.5.5.7.9.9 1.1 2.2 2.4 3.6 3.8 1.3 1.3 2.6 2.7 3.6 3.6.5.5.9.8 1.2 1.1l.2.2-1 1.7c-.1-.1-.2-.2-.4-.3-.3-.3-.7-.8-1.2-1.3-1-1.1-2.1-2.6-3.2-4.1-1.1-1.8-2.2-3.4-2.9-4.6z"/><path class="st0" d="M42.3 85.6c.6.9 1.3 1.7 2.1 2.6 5.9 6.7 16.9 14 30.6 15.3.5-4.7 1.2-19.4-8.6-30.5-.7-.8-1.4-1.5-2.1-2.2-4.8-4.5-9-7.1-13.3-8.8-4.3-1.7-8.8-2.4-14.2-3.3l5.5 26.9zm0 0c-2.7-3.7-4.7-9.3-6.2-14.7m6.2 14.7l-6.2-14.7m0 0c-1.4-5.1-2.4-10.1-2.8-12.8m2.8 12.8l-2.8-12.8m-.1 0c1.2.2 2.3.4 3.4.6l-3.4-.6z"/><path class="st1" d="M73.8 102.4h.3v-.3c.4-5.5.3-18.5-8.5-28.6-.7-.7-1.4-1.5-2.1-2.2-4.7-4.4-8.7-6.9-12.9-8.6-4.2-1.6-8.6-2.4-14.1-3.3l-1.8-.3-.4-.1.1.4c.6 3.2 1.6 7.9 3 12.7 1.4 4.7 3.3 9.5 5.6 12.8.6.8 1.3 1.7 2 2.5 5.6 6.5 16 13.5 28.8 15zm-8.6-32.7c.8.8 1.5 1.5 2.2 2.3 6.2 7 8.4 15.3 9 21.9.3 3.3.2 6.1.1 8.1-.1 1-.2 1.8-.2 2.4 0 .3-.1.5-.1.6-14.4-.8-26.3-8.3-32.9-15.8-.8-.9-1.5-1.8-2.2-2.7-3.4-4.8-5.8-12.4-7.4-18.8-.8-3.2-1.4-6.1-1.7-8.3-.2-1.1-.3-1.9-.4-2.5 0-.2-.1-.4-.1-.6 1.9.4 3.7.7 5.5.9 4.6.8 8.5 1.4 12.3 2.6 5.2 1.7 10.1 4.4 15.9 9.9z"/><path class="st1" d="M41.6 63.8c3.8 4.3 8.7 9.2 14 14.4l.6.6 6.2 6.2c3.2 3.2 6.2 6.3 8.6 8.5.4.4.8.7 1.2 1.1.6.6 1.2 1.1 1.7 1.6M41.6 63.8c-3.8-3.1-6-5.4-6.6-6.2 0 .1.1.2.1.3l.3.6m6.2 5.3l-.2.2m.2-.2l-.2.2m-6-5.5c-.2-.2-.3-.3-.4-.5-.1-.1-.2-.2-.2-.3.3 1.1 2.4 3.9 5.7 7.1 3.3 4.5 8.4 10.5 13.4 16.2M35.4 58.5c.2.3.5.6.9.9 1.1 1.1 2.8 2.7 5.1 4.6m-6-5.5l38.2 37.9M53.8 81c1.7 1.9 3.4 3.9 5 5.7 3.2 3.7 6.2 7.2 9 10M53.8 81l.2-.2c1.7 1.9 3.4 3.9 5 5.7 3.2 3.7 6.2 7.2 8.9 10M53.8 81l19.8 15.3m-5.8.5l1.1 1.1c.6.6 1.1 1.2 1.7 1.7m-2.8-2.8l.2-.2m-.2.2l.2-.2m2.5 3c.2 0 .8 1.2 1.1 1.8 0 .1.1.1.1.2.5 1.1 1 1.9 1.2 2.3l.2-.1m-2.6-4.2l.2-.2m-.2.2l.1-.2h.1m2.4 4.3c.1.1.1.2.1.2l4-2.7m-4.1 2.5l3.8-2.5m-3.8 2.5c-.1-.1-.1-.2-.3-.4-.2-.4-.6-1-1-1.8 0 0 0-.1-.1-.2-.1-.3-.3-.7-.5-1l-.3-.6c-.1-.1-.1-.1-.1-.2l-.1-.1h-.1m6.6 1.9s0-.1-.1-.2c-.2-.3-.6-.9-1.1-1.8m1.2 2l-.1-.2-.2.1m.3.1l-.2-.1v.1l-.1-.1-.1-.1m-.8-1.9c-.2-.3-.3-.5-.5-.8-.3-.6-.6-1.2-1.7-2.3m2.2 3.1l-.2.1m.2-.1l-.2.1m-2-3.1l-.2.2m.2-.2l-.2.2m0 0c1 1 1.3 1.6 1.6 2.2.1.3.3.5.5.8m-2.1-3c-.5-.5-1.1-1-1.7-1.6-.4-.3-.8-.7-1.2-1.1-2.5-2.3-5.4-5.3-8.6-8.5-2-2-4.1-4.1-6.1-6.2l-.6-.6c-5.2-5.2-10.2-10.2-14-14.4m34.4 35.3c.4.7.7 1.2.9 1.5.1.1.1.2.2.3m-6.2-1.7c-.5-.5-1-1.1-1.6-1.7-.3-.4-.7-.7-1.1-1.1m5.1 7.2l-.1.2s0-.1-.1-.2v-.1h.1l.1.1zM34.9 57.6l-.1-.2s.1.1.1.2z"/><path class="st1" d="M62 69c.4.4.8.9 1.2 1.6 1.2 1.9 2.5 4.7 2.7 7.8.5 3 .7 6 .7 8.3 0 1.2 0 2.1-.1 2.8 0 .3 0 .6-.1.8v.1l-2-.4c0-.2.1-.4.1-.7.1-.6.2-1.5.3-2.6.2-2.2.3-5.2 0-8.1 0-3.1-.9-5.9-1.9-7.9-.3-.6-.6-1.2-.9-1.7zm.6 17.3v.7l-2 .3v-.9c0-.5.1-1 .1-1.7 0-.3.1-.6.1-1 .2-2.2.4-5 .2-7.7-.4-2.8-1.3-5.5-2-7.5-.3-.7-.5-1.2-.7-1.7.3.4.6 1 1 1.6 1 1.9 2.2 4.6 2.9 7.4.5 3 .5 5.9.5 8v1.3c-.1.5-.1.9-.1 1.2zm-1.9 1.1zm-1.6-5.1c0 .1 0 .2-.1.3-.1 0-.2.1-.2.2v.7l-1.4 1.1h-.1c0-.1-.1-.1-.1-.2-.1-.2-.2-.6-.3-1.3.1-.2.1-.5.2-.7 0-.1.1-.2.1-.3.1-.4.2-.8.2-1.3.1-1.1-.1-2.3-.3-3.6 0-.3-.1-.7-.1-1-.2-1.1-.3-2.2-.4-3.4-.5-2.8-1.6-5.4-2.6-7.3-.3-.6-.6-1.2-.9-1.6.3.4.7.9 1.1 1.5 1.3 1.8 2.7 4.5 3.5 7.5.2.9.4 1.8.6 2.8.1.4.2.9.3 1.3.3 1.4.6 2.7.6 3.8.1.4 0 1-.1 1.5zM48.8 62.7c.2.3.5.7.8 1.2.9 1.4 2 3.4 2.6 5.6.6 2.2 1.2 4.4 1.6 5.9.2.8.4 1.4.6 1.9.1.2.1.3.2.5l-1.9.7c0-.1-.1-.3-.1-.5-.1-.5-.2-1.2-.4-2-.3-1.7-.7-3.9-1-6-.3-2.2-1.1-4.3-1.7-5.8-.3-.6-.5-1.1-.7-1.5zm-2 9.8c0-.1 0-.2-.1-.4-.1-.4-.3-1-.5-1.7-.4-1.4-1-3.1-1.7-4.8-.7-1.7-1.4-3.4-2.1-4.5-.2-.4-.5-.8-.7-1 .3.2.6.5.9.9.9 1 1.9 2.6 2.9 4.3.9 1.7 1.8 3.4 2.4 4.8.3.7.5 1.2.6 1.6 0 .1.1.2.1.3l-1.8.5zm18.6 18.8l.7 2h-.2c-.2 0-.5 0-.8-.1-.6-.1-1.4-.3-2.4-.6-1.9-.6-4.3-1.5-6.6-2.4-2.3-.9-4.6-2-6.2-2.8-.8-.4-1.5-.8-2-1.1.4.1.9.3 1.5.6.2.1.4.2.6.2 1.7.7 4.1 1.5 6.5 2.2 2.1.7 4.7 1.2 6.7 1.6 1 .2 1.7.3 2.2.4zm-16.7-8.5c-.4-.2-.7-.5-1-.7.3.1.7.3 1.1.4 1.3.5 3.1 1.1 4.9 1.7 1.8.6 3.6 1.1 4.9 1.5.7.2 1.2.3 1.6.4h.2l-.1 2c-.1 0-.3-.1-.5-.1-.4-.1-1-.3-1.7-.6-1.4-.5-3.1-1.3-4.8-2.2-1.8-.7-3.4-1.6-4.6-2.4z"/><path class="st0" d="M104 49.3c2.9-3.7 5.9-6.9 7.7-8.7 5.4 10.6 8.7 18.8 6.9 30.8-.8 5.6-4.7 10.5-8.9 14.2-4 3.6-8.3 6.1-10.1 7.1-.4-.3-.7-.7-1.1-1.1-3.1-3.6-4.4-9.1-4.4-14.8-.1-5.7 1-11.5 2.5-15.5 1.4-3.8 4.4-8.1 7.4-12z"/><path class="st1" d="M111.7 42.5l-.2-.3-.2.3c-2 2.1-4.9 5.3-7.5 8.7-2.6 3.4-5.1 7.1-6.3 10.4-1.5 4-2.5 9.7-2.5 15.2.1 5.5 1.2 10.8 4.2 14.2l.4.4.1.1.2-.1c2.2-1.2 6.3-3.7 10-7.2 3.7-3.4 7.1-7.9 7.8-12.9 1.7-11.2-1.2-19.1-6-28.8zm.1-4l.3-.3c5.6 10.8 9.9 20 7.9 33.4-1 6.9-6.2 12.6-11.1 16.6-2.5 2-4.9 3.6-6.7 4.6-.9.5-1.6.9-2.2 1.2-.3.1-.5.2-.6.3h-.1c-.7-.5-1.4-1.1-2-1.8-3.3-3.7-4.6-9.4-4.8-15.3-.1-5.9 1-12 2.6-16.5 1.8-4.8 6.1-10.5 9.9-15 1.9-2.2 3.7-4.2 5-5.6.9-.7 1.4-1.2 1.8-1.6z"/><path class="st1" d="M116.5 70.5c.4-.2.7-.4 1-.5-.2.2-.5.5-.9.8-1.1.8-2.6 1.8-4.2 2.3-1.7.8-3.5 1-4.9 1.1-.7 0-1.3 0-1.7-.1h-.4l.4-1.9c.1 0 .2 0 .3.1.3.1.8.2 1.4.2 1.2.1 2.8.1 4.4-.3 1.9-.4 3.5-1.1 4.6-1.7zm.8 5.3zm-13 3.3c-.2 0-.3 0-.4-.1l.6-1.9c.1 0 .2 0 .3.1.3.1.8.2 1.4.3 1.2.2 2.8.4 4.6.2 1.7-.1 3.3-.7 4.6-1.1.2-.1.5-.2.7-.3.1-.1.3-.1.4-.2-.3.2-.6.4-1 .7-1.1.7-2.7 1.6-4.5 2-1.7.5-3.6.5-5 .5-.6-.1-1.2-.2-1.7-.2zm10.5 1.7c-.2.2-.5.5-.9.7-1.1.8-2.6 1.7-4.4 2.2-1.7.5-3.6.6-4.9.5-.7 0-1.3-.1-1.7-.1h-.4l.5-1.9c.1 0 .2 0 .3.1h.1c.3.1.8.2 1.4.3 1.2.2 2.8.4 4.5.1 1.7-.2 3.3-.8 4.4-1.3.4-.3.8-.5 1.1-.6zm-6.9-14.4c.8.1 2.3.2 3.8.3.9 0 1.7.1 2.4.1h.8c-.1.1-.3.2-.5.3-.7.3-1.7.6-2.6.8-1 .2-1.9.4-2.6.5-.2 0-.3 0-.4.1l-.9-2.1z"/><path class="st1" d="M111 48.9c.1-.4.1-.7.2-1v1c0 1.3-.1 3.2-.2 5.4-.4 4.4-1.3 10.3-2.7 16.1-1.3 5.8-2.9 11.5-4.2 15.8-.7 2.1-1.2 3.9-1.7 5.2-.2.6-.4 1.1-.6 1.5-.1.2-.1.3-.2.4l-4-2.1s0-.1.1-.1c.1-.3.3-.7.6-1.3.5-1.1 1.2-2.8 2-4.9 1.6-4.1 3.6-9.6 5.4-15.2 2-5.6 3.4-11.3 4.3-15.6.4-2.1.8-3.9 1-5.2z"/><path class="st0" d="M95.9 109.2c-1.1-5.9 1.7-12.5 6.1-18.5 4.4-6 10.5-11.4 16-14.6 4.4-2.6 10.9-4.4 17-5.7 5.9-1.2 11.3-1.9 14.3-2.2-3.3 14.7-6.6 25.3-18 35.6-5.4 4.9-13.1 6.5-20.1 6.7-6.9.2-13-.8-15.3-1.3z"/><path class="st1" d="M148 69.6l.1-.3h-.4c-3.5.4-8.8 1.2-14.3 2.4s-11 2.9-15 5.2c-5.1 3-10.8 8-15.2 13.6-4.3 5.7-7.3 12-6.6 17.7v.2h.2c2.9.5 8.8 1.4 15.3 1.1 6.5-.4 13.5-1.9 18.4-6.4 10.8-9.8 14.3-19.9 17.5-33.5zm2.4-3c.3 0 .5 0 .7-.1-3.2 14.8-6.3 27-18.9 38.3-6.4 5.8-15.8 7.2-23.6 7.1-3.9 0-7.4-.4-10-.8-1.3-.2-2.3-.4-3-.5-.4-.1-.6-.1-.8-.2h-.1c-1.6-6.4 1.2-13.7 5.8-20.1 4.7-6.5 11.2-12.2 16.7-15.4 5.5-3.2 14-5.3 21.2-6.6 3.6-.6 6.8-1.1 9.2-1.4 1.2-.2 2.2-.3 2.8-.3z"/><path class="st1" d="M129.6 101c.5.1 1 .2 1.4.3h-1.4c-1.6-.1-3.8-.4-5.8-1.2-2.2-.6-4-1.8-5.3-2.8-.7-.5-1.2-1-1.5-1.4-.1-.2-.3-.3-.4-.4l1.6-1.2c.1.1.1.2.2.3.3.3.7.8 1.2 1.4 1.1 1.1 2.6 2.3 4.6 3.1 1.9 1 3.9 1.6 5.4 1.9zm-3.3 5.6zm-14.7-7.1c-.2-.2-.3-.3-.3-.4L113 98c.1.1.1.2.2.3.3.4.6.9 1.1 1.4 1 1.1 2.5 2.6 4.3 3.8 1.7 1.2 3.7 1.9 5.3 2.4.3.1.7.2 1 .3.1 0 .3.1.4.1-.4 0-.9-.1-1.4-.1-1.6-.2-3.7-.7-5.8-1.7-2-.9-3.8-2.3-5-3.5l-1.5-1.5zm8.3 10h-1.4c-1.6-.1-3.8-.5-5.8-1.5-2.1-.9-3.8-2.2-5-3.4-.6-.6-1.1-1.1-1.4-1.5-.1-.2-.2-.3-.3-.4l1.6-1.2c.1.1.1.2.2.3.3.4.6.9 1.1 1.4 1 1.1 2.4 2.6 4.3 3.6 1.8 1.2 3.8 1.8 5.3 2.2.6.3 1 .4 1.4.5zm11-13.9c.1.1.2.1.3.2-.2 0-.5-.1-.8-.1-.9-.2-2-.5-3-1.1-1.1-.6-2.1-1.3-2.7-1.8-.3-.2-.5-.4-.6-.5l.7-2c.1.1.2.1.3.2.2.2.5.5.8.9 0 .1.1.1.1.2.6.7 1.3 1.4 2 2.1.8.8 1.8 1.4 2.5 1.8.1 0 .2.1.4.1z"/><path class="st1" d="M142.4 75.1c-.2.3-.5.6-.8 1-1 1.2-2.6 2.9-4.5 4.9-3.9 3.9-9.4 8.8-15.3 13.1-5.8 4.5-11.8 8.7-16.5 11.7-2.3 1.5-4.3 2.8-5.7 3.6-.7.4-1.3.8-1.7 1-.2.1-.4.2-.5.2l-1.7-4.2c.1 0 .1-.1.2-.1.4-.2.9-.4 1.6-.8 1.4-.7 3.3-1.8 5.7-3.2 4.7-2.7 11-6.5 17-10.5 6.2-3.9 12-8.2 16.2-11.7 2.1-1.7 3.8-3.2 5-4.3.4-.1.7-.4 1-.7z"/><path class="st0" d="M73.9 95.5c-3.2-3.6-5.9-7.7-7.7-11.4-2.2-4.6-3.5-11.1-4.3-17.3-.8-5.9-1-11.4-1.1-14.4C73.9 56.2 84 60 92.9 70.2c.7.8 1.4 1.6 2.1 2.5 4.4 5.7 5.4 13.5 5.1 20.5-.3 6.8-1.8 12.8-2.5 15.1-7.2.8-15.9-3.9-23.7-12.8z"/><path class="st1" d="M94.1 73.4c-.7-.9-1.4-1.7-2-2.5-8.4-9.6-17.6-13.3-30-17l-.3-.1v.3c.1 3.5.5 8.9 1.3 14.4s2 11.2 4 15.2c1.8 3.7 4.5 7.6 7.6 11.2 7.3 8.3 15.3 12.8 21.9 12.5h.2v-.2c.8-2.8 2.1-8.7 2.3-15.1.1-6.5-.9-13.5-5-18.7zM59.2 50.6c13.5 3.9 24.8 7.5 34.6 18.7.7.8 1.4 1.7 2.1 2.6 5.3 6.7 5.9 16.2 5.2 24-.3 3.9-1 7.4-1.6 9.9-.3 1.2-.6 2.3-.8 2.9-.1.3-.2.6-.2.8v.1c-4.4.8-9.1-.4-13.5-2.9-4.5-2.5-8.7-6.2-12.3-10.2-3.4-3.8-6.2-8-8-11.7-2.8-5.7-4.2-14.3-4.9-21.6-.4-3.6-.5-6.9-.6-9.2 0-1.2-.1-2.1-.1-2.8.1-.2.1-.5.1-.6z"/><path class="st1" d="M92 74.1c.1-.5.3-1 .4-1.3 0 .4 0 .9-.1 1.4-.2 1.6-.7 3.7-1.6 5.7-.7 2.1-2.1 3.9-3.3 5.1-.6.6-1.1 1.1-1.5 1.4-.2.1-.3.2-.4.3L84.4 85c.1-.1.2-.1.3-.2.4-.3.9-.6 1.5-1.1 1.1-1 2.5-2.4 3.5-4.3 1.1-1.8 1.8-3.7 2.3-5.3zm5.3 3.7zM89 92c-.2.1-.3.2-.5.3l-.9-1.8c.1-.1.2-.1.4-.2.4-.2.9-.6 1.5-1 1.2-.9 2.8-2.3 4.1-4.1 1.3-1.6 2.2-3.6 2.8-5.1.1-.3.3-.6.4-.9.1-.1.1-.3.1-.4-.1.4-.1.9-.2 1.4-.3 1.6-.9 3.7-2.2 5.6-1.1 1.9-2.6 3.6-3.9 4.8-.6.6-1.2 1.1-1.6 1.4zm10.2-6.3c.2-.5.3-.9.4-1.3 0 .4-.1.9-.1 1.4-.2 1.6-.8 3.7-1.9 5.6-1 2-2.5 3.6-3.8 4.8-.6.6-1.2 1-1.6 1.3-.2.1-.3.2-.4.3l-1-1.7c.1-.1.2-.1.4-.2.4-.2.9-.6 1.5-1 1.2-.9 2.8-2.3 4-4 1.2-1.7 2-3.7 2.5-5.2zM86.8 72.4c0 .2-.1.5-.2.7-.2.9-.7 2-1.4 3-.7 1.1-1.5 2-2 2.6-.2.3-.4.4-.5.6l-1.9-.8c.1-.1.1-.2.2-.2.2-.2.6-.5.9-.8.1 0 .1-.1.2-.1.7-.6 1.6-1.2 2.2-1.9.8-.8 1.5-1.7 2-2.4.1-.1.2-.3.3-.4.1-.2.2-.3.2-.3z"/><path class="st1" d="M67.1 59.8c.3.2.6.5.9.8 1.2 1.1 2.7 2.8 4.5 4.8 3.6 4.1 8 9.9 11.8 16.1 4 6.1 7.7 12.3 10.3 17.1 1.3 2.4 2.4 4.4 3.1 5.9.4.7.7 1.3.8 1.8.1.2.2.4.2.5l-4.3 1.4c0-.1-.1-.1-.1-.2-.1-.4-.4-.9-.7-1.6-.6-1.4-1.5-3.4-2.7-5.9-2.3-4.9-5.6-11.3-9.1-17.6-3.4-6.4-7.3-12.5-10.4-16.9-1.5-2.2-2.9-4-3.8-5.3 0-.3-.3-.6-.5-.9z"/><path class="st0" d="M125.3 102.6c7.5 2.4 13.3 6 19.9 10.2.2.1.5.3.7.4 2.1 1.3 4.2 2.6 6.4 3.9-1.8.8-3.7 1.8-5.9 3-.2.1-.3.2-.5.2-7.2 3.8-16.1 8.6-26.3 9.3-10.7.8-19.3-4.5-23.5-9.3-2.3-2.6-3.5-5.3-3.5-7.6.7-3.3 2.7-6 6.1-8 4-2.4 9.1-3.4 14.1-3.6 4.8-.1 9.5.5 12.5 1.5z"/><path class="st1" d="M149.9 117.2l.4-.2-.4-.2c-1.8-1.1-3.5-2.2-5.2-3.3h-.1c-6.5-4.1-12.2-7.6-19.6-10-3-1-7.6-1.5-12.4-1.3-4.8.2-9.7 1.2-13.4 3.4-3.1 1.8-4.9 4.2-5.6 7.2 0 2 1.2 4.5 3.3 6.8 4.1 4.6 12.4 9.7 22.8 9 10.1-.7 18.9-5.4 25.9-9.2l.6-.3c1.3-.6 2.5-1.3 3.7-1.9zm-3.9-5.7c3 1.9 6.2 3.9 9.8 5.9-1.6.4-3.5 1.2-5.6 2.3-1.1.6-2.3 1.2-3.5 1.9-.1.1-.3.1-.4.2-1.4.8-2.9 1.5-4.5 2.3-6.3 3.2-13.7 6.3-22 6.9-10.3.7-19.7-4.1-24.7-9.8-2.5-2.9-3.9-6-3.9-8.7 1.4-6.8 7.5-10.5 14.6-12s15.1-1 19.9.6c5.7 1.8 10.4 4.3 15.2 7.2 1.6 1.1 3.3 2.1 5.1 3.2z"/><path class="st1" d="M115.3 117.4c-5.9-.2-11.8-.8-16.3-1.4-2.2-.3-4.1-.6-5.4-.8-.7-.1-1.2-.2-1.6-.3-.2 0-.3-.1-.4-.1l1.6-4.3h.1c.3.1.7.2 1.3.4 1.2.3 2.9.7 5 1.2 4.2.9 10 2 15.8 2.7 5.8.9 11.6 1.4 16 1.7.9.1 1.7.1 2.4.2 1.2.1 2.1.2 2.9.2.4 0 .7.1 1 .1-.3 0-.6.1-1 .1-1.3.2-3.1.3-5.3.4-4.3.2-10.2.2-16.1-.1zm-23.8-2.8z"/><path class="st0" d="M37.9 101.6c1.5-.5 3.2-1.2 5.1-2 .1 0 .2-.1.3-.1 6.4-2.6 14.4-5.9 23.2-5.7 6.8.2 13.5 3.3 17.9 8.3 2.5 2.8 3.8 5.8 3.5 8.1-.9 2.7-2.8 4.8-5.8 6.1-3.6 1.7-8 2.1-12.2 1.9-4.2-.2-8.1-1.2-10.5-2.3-6.2-2.7-10.7-6.2-16-10.3l-.1-.1c-.3-.2-.5-.4-.8-.6-1.5-.9-3-2.1-4.6-3.3z"/><path class="st1" d="M86.9 110.2c.1-1.1-.2-2.3-.8-3.5-.6-1.2-1.4-2.6-2.5-3.8-3.3-3.7-9.5-7.8-17.2-8-8.6-.2-16.5 3-22.8 5.6-1.2.5-2.3.9-3.3 1.3l-.4.2.4.3c.8.6 1.7 1.3 2.5 1.9.4.3.8.6 1.1.9 5.2 4.1 9.8 7.6 15.9 10.2 2.5 1.1 6.3 2 10.3 2.2 4 .2 8.3-.2 11.6-1.8 2.7-1.3 4.4-3.1 5.2-5.5zM47.1 96.4c5.6-2.2 12.3-4.2 19.4-4 7.9.2 14.8 4.2 18.9 8.8 2.8 3.2 4.2 6.6 3.9 9.4-1.7 5.7-7.3 8.3-13.5 9-6.2.7-13-.5-17-2.2-4.7-2-8.5-4.6-12.3-7.4-1.3-1-2.7-2-4.1-3.1-2.4-1.9-4.9-3.8-7.8-5.8 1.4-.2 3-.8 4.9-1.5 1-.4 2-.8 3.2-1.3.1-.1.3-.1.4-.2 1.2-.6 2.6-1.1 4-1.7z"/><path class="st1" d="M49 102.9zm0 0v-.1c-.1 0-.2.1-.2.1s.1.1.2.1v-.1zm20.1 1.4c5.1.7 10 1.6 13.8 2.5 1.9.4 3.5.8 4.6 1.2.6.2 1 .3 1.3.4.1 0 .2.1.3.1l-2 4.1c-.2-.1-.6-.3-1.1-.4-1-.4-2.4-.9-4.2-1.5-3.5-1.2-8.4-2.6-13.2-3.7-4.9-1.3-9.8-2.2-13.5-2.9-.5-.1-1-.2-1.4-.3-1.2-.2-2.3-.4-3.1-.6-.3-.1-.6-.1-.8-.2h.9c1.1 0 2.7 0 4.6.1 3.7 0 8.7.4 13.8 1.2z"/></svg>