<svg width="195" height="192" fill="none" xmlns="http://www.w3.org/2000/svg"><path d="M169.24 116.835l.443-.238c1.67-.896 3.167-1.7 4.52-2.32l-.268-.152m-4.695 2.71l-39.729-12.1c6.388-3.881 17.083-3.76 22.347-2.178 6.276 1.892 11.075 4.758 16.612 8.065l.113.067m.657 6.146c-5.965 3.224-13.39 7.228-21.962 7.948l21.962-7.948zm4.695-2.71l.28-.129a238.907 238.907 0 01-5.632-3.307m5.352 3.436c-1.318.613-2.768 1.392-4.368 2.25l-.446.24h0c-5.97 3.227-13.351 7.204-21.864 7.919h0c-6.11.517-12.599-1.451-17.348-5.27-1.579-1.27-2.852-2.673-3.729-4.061-.872-1.38-1.343-2.729-1.349-3.907.548-2.597 2.15-4.735 4.809-6.347h0c3.146-1.911 7.371-2.846 11.481-3.102 4.109-.256 8.068.169 10.665.949 6.246 1.883 11.022 4.736 16.566 8.047l.102.061.129-.215m5.352 3.436a244.89 244.89 0 01-5.481-3.221h.001l.128-.215" fill="#fff" stroke="#0AC789" stroke-width=".5"/><path d="M171.932 114.065l-.405.21c-.728.377-1.492.788-2.298 1.222l-.545.293 3.248-1.725zm0 0l-.394-.229a224.758 224.758 0 01-3.241-1.925l-.331-.199-.001-.001-.033-.019c-5.492-3.291-10.262-6.149-16.43-8-2.539-.765-6.361-1.176-10.3-.938-3.937.238-8.026 1.126-11.084 2.989-2.382 1.443-3.817 3.283-4.341 5.593l-.007.032.001.033c.043 1.074.538 2.297 1.355 3.519.82 1.227 1.977 2.472 3.373 3.595 4.573 3.677 10.808 5.574 16.694 5.079 8.326-.69 15.64-4.642 21.479-7.798l.011-.006 3.249-1.725zm-24.551 11.919h0c-7.217.605-13.896-1.996-18.366-5.59-3.564-2.866-5.671-6.314-5.618-9.24 1.094-5.602 6.203-8.659 12.151-10.006 5.947-1.346 12.63-.954 16.666.259 4.774 1.437 8.728 3.436 12.728 5.737 1.393.801 2.794 1.641 4.239 2.506 2.528 1.516 5.189 3.11 8.166 4.715-1.309.346-2.854 1.06-4.594 1.958-.926.478-1.913 1.012-2.956 1.575l-.345.186c-1.171.633-2.41 1.299-3.714 1.967-5.218 2.672-11.449 5.356-18.357 5.933z" fill="#000" stroke="#0AC789" stroke-width=".5"/><path d="M146.748 124.945a13.975 13.975 0 01-.974-.746c-1.057-.88-2.348-2.167-3.331-3.673l-.008-.012-.009-.012c-1.211-1.454-1.962-3.168-2.41-4.525a16.845 16.845 0 01-.54-2.072l1.981-.212c.006.082.013.18.024.293.035.368.102.896.226 1.52.247 1.242.724 2.876 1.64 4.392.782 1.67 1.816 3.093 2.638 4.122.285.357.548.669.763.925zm3.673-.128a14.552 14.552 0 01-.949-.729c-1.058-.88-2.349-2.168-3.332-3.674l-.008-.012-.009-.011c-1.211-1.455-1.962-3.169-2.41-4.525a16.994 16.994 0 01-.54-2.072l1.981-.212a15.26 15.26 0 00.25 1.812c.247 1.242.724 2.876 1.641 4.392.774 1.671 1.804 3.095 2.627 4.124.278.348.535.654.749.907zm2.213-1.3c-.088-.068-.178-.14-.271-.216-.989-.808-2.179-2.018-3.056-3.449l-.008-.013-.009-.012c-1.085-1.372-1.766-2.977-2.175-4.246a16.796 16.796 0 01-.423-1.566c-.03-.139-.053-.257-.07-.351l1.771-.189c-.006.085-.003.175.004.267.029.361.145.851.319 1.412.348 1.129.945 2.608 1.614 4.061.669 1.453 1.416 2.89 2.068 3.934.08.128.159.251.236.368zm-10.452 1.148a19.134 19.134 0 01-.884-.798c-.978-.938-2.186-2.295-3.114-3.99h0l-.006-.01c-.96-1.564-1.569-3.353-1.934-4.763a20.786 20.786 0 01-.376-1.739c-.029-.169-.05-.311-.065-.42l1.996-.019a19.104 19.104 0 00.155 1.813c.168 1.257.512 2.95 1.219 4.657.586 1.647 1.563 3.166 2.333 4.291.132.193.258.373.374.54.109.158.211.304.302.438zm-9.939-11.887l-.06-.289 1.991-.156.028.316.003.034c.03.363.074.877.155 1.488.167 1.259.495 2.936 1.211 4.568.682 1.622 1.667 3.074 2.457 4.141.242.327.472.627.667.88l.053.07c-.265-.2-.576-.452-.913-.752-1.016-.901-2.262-2.22-3.233-3.814h0l-.003-.004c-.995-1.573-1.591-3.336-1.953-4.711a29.672 29.672 0 01-.386-1.687l-.017-.084zm2.156-.462l-.026.002.015-.001.011-.001zm-5.488-.105a21.123 21.123 0 00-.06-.289l1.99-.155a14.392 14.392 0 01.032.35c.03.363.074.877.155 1.488.167 1.258.495 2.935 1.211 4.567.682 1.622 1.667 3.075 2.457 4.141.242.328.472.628.667.881l.053.069a14.362 14.362 0 01-.913-.751c-1.016-.901-2.262-2.22-3.234-3.815h.001l-.003-.003c-.995-1.573-1.591-3.337-1.953-4.711a29.672 29.672 0 01-.386-1.687l-.017-.085zm2.156-.462c-.009.002-.018.002-.026.002l.015-.001.011-.001z" fill="#000" stroke="#0AC789" stroke-width=".5"/><path d="M132.622 122.667c-.266-.2-.579-.453-.918-.755-1.016-.901-2.262-2.22-3.233-3.814h0l-.003-.004c-.995-1.573-1.591-3.336-1.952-4.711a28.968 28.968 0 01-.387-1.687l-.017-.084-.059-.289 1.99-.156.028.316.003.034c.03.363.074.877.155 1.488.167 1.259.496 2.936 1.212 4.568.685 1.625 1.672 3.079 2.462 4.146a58.185 58.185 0 00.719.948zm-4.365-11.516l.011-.001-.026.002.015-.001z" fill="#000" stroke="#0AC789" stroke-width=".5"/><path d="M124.415 110.629a21.123 21.123 0 00-.06-.289l1.99-.155c.009.082.018.187.029.316l.003.034c.03.362.073.877.155 1.488.167 1.258.495 2.935 1.211 4.567.682 1.622 1.667 3.075 2.456 4.141.243.328.473.628.668.881l.053.069a14.362 14.362 0 01-.913-.751c-1.016-.901-2.262-2.221-3.234-3.815h0l-.002-.003c-.995-1.573-1.591-3.337-1.953-4.711a29.672 29.672 0 01-.386-1.687l-.017-.085zm2.156-.462c-.009.002-.018.002-.026.002l.015-.001.011-.001zm28.82 12.27c.202.294.393.551.558.766a7.947 7.947 0 01-.74-.562c-.848-.721-1.852-1.824-2.56-3.193h0l-.003-.006c-.771-1.403-1.274-2.805-1.579-3.795-.148-.479-.249-.861-.312-1.099l-.006-.023-.002-.007a.268.268 0 01-.007-.027l1.683-1.186c.038.11.075.255.112.436.063.312.122.704.19 1.155l.042.282c.171 1.128.404 2.538.875 3.795.428 1.364 1.143 2.581 1.749 3.464zm4.485-.443a10.64 10.64 0 01-.743-.478 13.394 13.394 0 01-2.675-2.476l-.007-.009-.008-.008c-1.005-1.036-1.56-2.309-1.872-3.332a12.04 12.04 0 01-.309-1.271l-.042-.23 1.976-.131.002.108c.004.261.018.642.072 1.092.108.892.378 2.071 1.069 3.121.585 1.136 1.373 2.164 1.982 2.925l.274.339c.103.128.198.244.281.35zm-1.796-7.021l-.032-.092 1.944-.372.001.012c.022.181.056.441.122.75.131.616.385 1.433.902 2.213h0l.007.01c.53.722 1.148 1.415 1.626 1.951l.051.057c.17.191.319.359.439.499a7.14 7.14 0 01-.599-.27 14.39 14.39 0 01-2.311-1.471c-.82-.68-1.39-1.597-1.756-2.35a9.467 9.467 0 01-.394-.937zm-.402-.53l.017.092 6.162 5.961.006-.011a.305.305 0 00.037-.241.535.535 0 00-.055-.134 2.044 2.044 0 00-.175-.251 17.25 17.25 0 00-.596-.69l-.047-.052c-.479-.538-1.082-1.214-1.597-1.914-.469-.709-.704-1.459-.826-2.036a7.61 7.61 0 01-.114-.704l-.013-.116-.01-.091a.902.902 0 00-.012-.075.311.311 0 00-.018-.06.255.255 0 00-.262-.156l-.01.001-.009.002-2.478.475zm5.627.161c.032.178.117.392.225.615.235.483.626 1.103 1.046 1.709.422.608.881 1.213 1.256 1.667.171.208.327.387.456.522a2.11 2.11 0 01-.55-.235c-.526-.3-1.177-.827-1.792-1.424-.614-.597-1.177-1.248-1.533-1.788-.179-.271-.296-.5-.346-.67a.516.516 0 01-.027-.156l1.265-.24zm2.783.243l1.113-.216c.013.144.064.295.128.439.148.334.41.723.69 1.096.282.377.594.753.851 1.062l.036.043.256.307a3.27 3.27 0 01-1.789-.78l-.018-.016-.021-.013c-.551-.327-.887-.907-1.081-1.407a4.258 4.258 0 01-.165-.515zm3.367 2.722l-.004.002.004-.002z" fill="#000" stroke="#0AC789" stroke-width=".5"/><path d="M124.638 113.103l1.517-4.348.11.031c.295.081.763.191 1.375.324 1.226.266 3.046.626 5.259 1.026 4.424.802 10.424 1.768 16.388 2.478 5.995.889 12 1.292 16.516 1.472 2.259.089 4.146.123 5.475.134.664.005 1.188.005 1.55.003h.071a2.068 2.068 0 01-.159.083c-.327.153-.824.293-1.482.417-1.31.246-3.192.416-5.465.521-4.543.209-10.61.155-16.7-.055-6.089-.21-12.195-.575-16.813-.987-2.311-.206-4.245-.423-5.618-.638a15.878 15.878 0 01-1.602-.316 2.693 2.693 0 01-.414-.141l-.008-.004zm-.08-.048l.001.001-.001-.001z" fill="#000" stroke="#0AC789" stroke-width=".5"/><path d="M141.667 101.284a15.75 15.75 0 00-1.362.38c-1.502.495-3.38 1.39-4.805 3.092a29.699 29.699 0 00-3.518 4.577 14.073 14.073 0 00-.831 1.505 3.155 3.155 0 00-.109.267l-2.007-.145.022-.086c.045-.155.13-.359.258-.607.254-.494.66-1.131 1.186-1.839 1.051-1.416 2.565-3.095 4.26-4.457l.007-.006.006-.006c1.749-1.623 3.831-2.307 5.462-2.555a10.58 10.58 0 011.431-.12zm-7.98 1.039l-.167.154c-.783.741-1.726 1.952-2.61 3.176-.746 1.035-1.458 2.091-2.005 2.902l-.29.428a35.2 35.2 0 01-.52.754l-1.849-.133 1.033-.896.183-.159.017-.014.002-.002v-.001h.001l.001-.002a.325.325 0 00.031-.032v-.002l.436-.386-.656.074a.44.44 0 00-.138-.032v.001h-.001l-.001.001h0l-.002.002-.011.01a.666.666 0 00-.038.033l-.051.007c.06-.059.125-.138.2-.244.391-.407.828-.898 1.289-1.417l.018-.02c.475-.534.978-1.099 1.494-1.644l.014-.015.011-.017c.892-1.326 2.258-2.112 3.369-2.457.082-.025.162-.048.24-.069zm.918 9.126l-1.596-1.19.168-.222.175-.231c.339-.448.84-1.091 1.489-1.813 1.298-1.446 3.18-3.201 5.528-4.338l.013-.007.012-.008c2.226-1.419 4.684-1.948 6.554-2.045a10.989 10.989 0 011.555.022c-.441.043-.958.117-1.527.235-1.756.364-4.02 1.147-6.044 2.723-2.118 1.305-3.696 3.086-4.767 4.531a28.082 28.082 0 00-1.234 1.826l-.1.159c-.092.147-.167.267-.226.358z" fill="#000" stroke="#0AC789" stroke-width=".5"/><path d="M138.208 112.392l-1.596-1.189.168-.222.175-.232c.34-.447.84-1.09 1.489-1.812 1.299-1.447 3.18-3.201 5.528-4.339l.013-.006.013-.008c2.225-1.427 4.681-1.958 6.549-2.053a10.794 10.794 0 011.589.027c-.447.042-.975.117-1.556.238-1.757.364-4.02 1.147-6.045 2.722-2.118 1.305-3.696 3.087-4.766 4.532a28.051 28.051 0 00-1.334 1.984c-.093.148-.167.268-.227.358z" fill="#000" stroke="#0AC789" stroke-width=".5"/><path d="M142.289 113.23l-1.598-1.191.167-.222.175-.232c.34-.447.841-1.09 1.489-1.812 1.299-1.447 3.181-3.202 5.528-4.339l.013-.006.013-.008c2.226-1.42 4.683-1.949 6.554-2.045a10.87 10.87 0 011.583.026c-.445.042-.97.117-1.547.237-1.757.364-4.02 1.147-6.045 2.722-2.113 1.309-3.692 3.09-4.764 4.533a28.372 28.372 0 00-1.319 1.95c-.103.162-.184.291-.249.387zm3.927 1.189l-1.595-1.188.201-.263.12-.159a28.46 28.46 0 011.394-1.709c1.213-1.366 2.97-3.033 5.173-4.15h0l.004-.002c2.135-1.137 4.365-2.06 6.156-2.199a4.892 4.892 0 011.506.14c-.424.034-.924.105-1.476.227-1.623.358-3.708 1.155-5.596 2.741-1.95 1.261-3.42 2.97-4.424 4.35a29.58 29.58 0 00-1.214 1.82c-.103.165-.185.296-.249.392zm13.591-7.999l-.352.226-.601.385c-1.067.692-2.466 1.646-3.72 2.812h0l-.003.003c-1.161 1.115-2.152 2.471-2.858 3.535-.351.528-.633.985-.831 1.308l-.006.009-.171.276-1.581-1.178.196-.244.008-.011c.237-.297.575-.722 1.006-1.217.861-.991 2.088-2.26 3.591-3.34 1.455-1.003 3.034-1.736 4.252-2.197.404-.153.766-.275 1.07-.367zm-8.49 8.905l-1.798-1.34 1.947 1.139-.003.005-.045.071c-.058.088-.092.132-.101.125zm-.079-.235a.243.243 0 01.226.033l-.312.021.016-.015a.238.238 0 01.07-.039zm-1.729-1.41l-.142.102c.029-.03.067-.075.115-.134.01.01.019.02.027.032zm13.593-6.219c-.236.15-.52.332-.83.543-.922.626-2.106 1.529-3.111 2.736-.964 1.053-1.82 2.282-2.44 3.237-.29.447-.529.836-.704 1.12l-.036.059-.137.221-1.58-1.178.163-.198.006-.008c.212-.259.514-.627.893-1.06.767-.876 1.849-2.012 3.141-3.035h0l.007-.006c1.182-1.011 2.57-1.707 3.665-2.118.362-.136.689-.239.963-.313zm-7.375 8.094l.001-.002-.001.002zm3.203-1.276v-.002.002zm.061-.107c.019-.029.043-.063.072-.102.14-.189.365-.454.654-.772a39.003 39.003 0 012.241-2.237c.85-.785 1.727-1.527 2.427-2.008.275-.189.513-.332.707-.422-.156.177-.352.403-.575.662-.543.633-1.25 1.469-1.945 2.314-.694.845-1.379 1.7-1.877 2.367-.249.333-.454.625-.592.847a5.294 5.294 0 00-.076.127l-1.036-.776zm8.64-3.631c.243-.136.449-.23.611-.281l-.246.271-.24.265c-.448.494-1.034 1.143-1.611 1.795a57.98 57.98 0 00-1.558 1.822 9.722 9.722 0 00-.493.65l-.031.047-1.035-.775.039-.048c.121-.148.316-.354.566-.598a28.191 28.191 0 011.927-1.691c.73-.585 1.477-1.126 2.071-1.457zm2.884 1.073c.19-.072.34-.108.447-.115-.092.106-.216.244-.362.403l-.336.366c-.229.249-.482.523-.73.798a23.5 23.5 0 00-1.019 1.186c-.12.153-.224.297-.298.419l-1.03-.772c.078-.093.203-.218.37-.366.36-.32.879-.717 1.422-1.078.546-.362 1.101-.677 1.536-.841z" fill="#000" stroke="#0AC789" stroke-width=".5"/><path d="M139.296 77.447h.001c4.254-.192 9.7.915 14.808 2.361 4.848 1.373 9.37 3.043 12.242 4.174-2.707 1.869-5.217 4.352-7.813 6.92l-.031.031h0c-5.203 5.158-10.534 10.433-18.638 12.553-5.876 1.535-12.438-.108-18.027-2.498-5.415-2.317-9.877-5.317-11.845-6.729 5.592-10.876 18.913-16.35 29.303-16.812z" fill="#fff" stroke="#0AC789" stroke-width=".5"/><path d="M164.064 84.512l.343-.275-.411-.155c-3.189-1.197-7.52-2.703-11.965-3.868-4.441-1.164-9.018-1.993-12.693-1.824-9.784.432-22.305 5.416-28.009 15.372l-.114.199.188.13c2.382 1.652 6.794 4.456 11.926 6.504 5.127 2.046 11.009 3.353 16.313 1.964 7.867-2.057 13.147-7.289 18.199-12.295l.008-.007h0l.011-.011c2.086-2.06 4.101-4.051 6.204-5.734zm5.165-.94l.348.145c-2.141 1.076-4.127 2.629-6.093 4.41-1.315 1.192-2.631 2.496-3.98 3.833a225.89 225.89 0 01-2.502 2.454c-4.519 4.345-9.654 8.601-16.774 10.466-7.213 1.887-15.25-.659-21.516-3.71a66.744 66.744 0 01-9.902-5.97 41.729 41.729 0 01-.586-.44l-.047-.036c2.895-6.389 8.103-10.943 13.858-13.965 5.81-3.05 12.162-4.529 17.213-4.756 5.731-.258 13.429 1.716 19.719 3.768a143.39 143.39 0 0110.262 3.8z" fill="#000" stroke="#0AC789" stroke-width=".5"/><path d="M142.5 102.987c-.361-.15-.788-.347-1.259-.587-1.423-.729-3.22-1.854-4.734-3.304l-.01-.01-.012-.008c-1.741-1.33-3.039-3.06-3.903-4.464a19.768 19.768 0 01-1.177-2.217l1.887-.678a18.077 18.077 0 00.829 2.045c.641 1.343 1.654 3.064 3.13 4.52 1.35 1.653 2.925 2.972 4.151 3.901.412.311.785.579 1.098.802zm-5.608 2.225l.005-.006.063.058c-.023-.01-.05-.022-.079-.033l.011-.019zm-.855-.571a17.969 17.969 0 01-1.317-.572c-1.453-.704-3.259-1.847-4.616-3.707l-.006-.008-.007-.008c-1.412-1.641-2.53-3.534-3.288-5.03a25.665 25.665 0 01-.854-1.853 11.281 11.281 0 01-.191-.5l1.941-.501c.027.106.063.24.109.397.124.421.321 1.023.594 1.737.544 1.424 1.393 3.303 2.568 5.091.991 1.878 2.615 3.222 3.912 4.154.326.234.632.444.903.628l.004.003.248.169zm-5.537.185a16.278 16.278 0 01-1.241-.61c-1.394-.756-3.15-1.936-4.627-3.524v-.001l-.01-.009c-1.557-1.504-2.721-3.326-3.497-4.773a24.24 24.24 0 01-1.059-2.242l1.898-.628a23.514 23.514 0 00.736 2.103c.562 1.388 1.445 3.192 2.743 4.823 1.214 1.688 2.754 3.057 3.969 4.026.405.323.777.603 1.088.835zm7.717-13.145l-.02-.038 1.359-1.532c.015.019.03.04.046.064.08.12.165.277.259.472.151.32.314.718.5 1.176l.133.326c.485 1.182 1.122 2.663 2.074 4.017.895 1.38 2.042 2.59 2.975 3.438.308.28.594.522.842.719a8.998 8.998 0 01-.977-.481 14.933 14.933 0 01-3.697-2.993h0l-.003-.003c-1.192-1.301-2.154-2.81-2.792-3.909a40.84 40.84 0 01-.615-1.102l-.084-.154zm13.641 5.611a13.513 13.513 0 01-.932-.352c-1.059-.443-2.422-1.148-3.662-2.126l-.009-.007-.009-.006c-1.394-.91-2.346-2.194-2.961-3.255a13.957 13.957 0 01-.793-1.6l-.01-.021 1.894-.607.049.179c.084.297.214.729.411 1.226.39.989 1.047 2.252 2.14 3.243.987 1.124 2.172 2.06 3.083 2.738l.535.394.264.194zm-2.194-7.522c-.03-.047-.058-.09-.082-.13l1.812-.825.027.068c.081.203.202.491.372.826.34.667.88 1.523 1.698 2.248h0l.007.007c.843.691 1.78 1.311 2.487 1.777l.061.04c.217.143.41.27.57.379a9.472 9.472 0 01-.735-.166 17.348 17.348 0 01-2.986-1.102c-1.092-.564-1.959-1.442-2.555-2.183a11 11 0 01-.676-.94z" fill="#000" stroke="#0AC789" stroke-width=".5"/><path d="M163.709 84.965c-.285.15-.634.316-1.041.498-1.381.614-3.405 1.38-5.87 2.197-4.929 1.632-11.603 3.455-18.385 4.65h0-.006a277.372 277.372 0 01-18.7 3.134c-2.575.339-4.743.58-6.307.713-.783.067-1.411.107-1.862.12a6.685 6.685 0 01-.543-.003l.471-4.506c.056.004.117.006.184.008.351.009.899.003 1.61-.017 1.425-.042 3.525-.144 6.064-.31 5.079-.332 11.925-.92 18.673-1.794 6.827-.682 13.533-1.917 18.537-2.992a173.747 173.747 0 006.039-1.404c.436-.11.817-.21 1.136-.294z" fill="#000" stroke="#0AC789" stroke-width=".5"/><path d="M114.74 138.509h0c.169 3.769-.843 8.545-2.135 12.951-1.229 4.193-2.705 8.028-3.632 10.3-8.839-7.838-14.848-14.274-17.784-25.739-1.357-5.307.277-10.872 2.589-15.495 2.241-4.484 5.1-8.045 6.407-9.565 1.212.468 2.405 1.166 3.546 2.083 3.318 2.668 5.982 6.936 7.863 11.601 1.879 4.661 2.966 9.693 3.146 13.864z" fill="#fff" stroke="#0AC789" stroke-width=".5"/><path d="M113.806 138.556v-.001c-.179-4.125-1.286-9.06-3.121-13.586-1.834-4.523-4.406-8.667-7.536-11.184a14.256 14.256 0 00-2.506-1.613l-.178-.091-.127.155c-1.534 1.858-4.188 5.378-6.162 9.606-1.971 4.224-3.28 9.19-2.07 13.921 2.727 10.675 8.251 16.948 16.237 24.144l.269.243.131-.338c1.013-2.597 2.347-6.284 3.393-10.131 1.045-3.843 1.809-7.865 1.67-11.125zm-4.278 25.623c-9.146-7.998-16.443-14.927-19.734-27.782h0c-1.675-6.542.816-13.333 3.763-18.52a50.691 50.691 0 015.733-8.073c.18-.205.322-.362.42-.468l.044-.049c1.765.52 3.4 1.43 4.895 2.632 3.583 2.881 6.381 7.443 8.329 12.334 1.947 4.888 3.034 10.077 3.211 14.187.213 4.954-1.478 11.456-3.235 16.744a116.38 116.38 0 01-3.253 8.595l-.173.4z" fill="#000" stroke="#0AC789" stroke-width=".5"/><path d="M92.668 137.048c.13-.279.301-.609.513-.967.643-1.092 1.644-2.434 2.934-3.461l.012-.009.011-.012c1.234-1.266 2.772-2.044 4.008-2.506a13.6 13.6 0 011.867-.552l.218 1.975c-.066.006-.144.013-.232.023-.329.035-.8.101-1.355.225-1.102.248-2.543.731-3.832 1.681-1.462.842-2.618 1.936-3.432 2.808-.276.296-.515.567-.712.795zm8.514-12.392c.138-.027.257-.048.352-.064l.02 2.006-.247.014c-.325.022-.794.064-1.36.151-1.126.174-2.64.527-4.154 1.257-1.486.576-2.767 1.624-3.7 2.46-.2.179-.38.345-.543.495l-.248.228c.157-.262.354-.57.591-.905.722-1.017 1.822-2.276 3.369-3.236l.007-.004.006-.005c1.388-.989 3.017-1.621 4.31-2.003a17.75 17.75 0 011.597-.394zm.374 2.189v-.016.016zm-10.85 4.896a.134.134 0 01.025.012l-.066.063.041-.075zm.314-5.344c.135-.276.313-.601.535-.954.672-1.066 1.732-2.367 3.184-3.344l.007-.004.006-.005c1.385-1.066 2.984-1.702 4.24-2.076a17.086 17.086 0 011.872-.442l.162 1.986-.257.014c-.336.021-.817.061-1.388.147-1.137.173-2.64.531-4.064 1.298-1.477.677-2.688 1.732-3.547 2.592a25.7 25.7 0 00-.75.788zm10.026-4.59s0 0 0 0v-.003.003zm.514 14.063c.4-.143.717-.24.915-.297l1.369 1.568-.005.002a2.894 2.894 0 01-.426.141c-.334.087-.759.165-1.246.256l-.096.018c-1.041.193-2.325.438-3.421.918-1.185.459-2.246 1.202-2.997 1.841-.246.209-.46.409-.636.586.098-.216.235-.466.411-.738a9.05 9.05 0 012.708-2.656 18.246 18.246 0 013.424-1.639z" fill="#000" stroke="#0AC789" stroke-width=".5"/><path d="M98.57 111.474l4.567.401-.004.127c-.007.32 0 .824.02 1.481.042 1.316.139 3.262.293 5.618.306 4.712.838 11.069 1.603 17.312.602 6.321 1.675 12.538 2.594 17.183.46 2.324.882 4.255 1.188 5.611.153.677.277 1.211.362 1.578l.01.044a.418.418 0 01.008.034 1.973 1.973 0 01-.11-.135c-.226-.3-.48-.775-.757-1.415-.552-1.276-1.171-3.151-1.823-5.438-1.303-4.57-2.729-10.751-4.011-16.992-1.283-6.241-2.421-12.537-3.149-17.336-.364-2.4-.625-4.423-.75-5.875a17.165 17.165 0 01-.083-1.714 2.926 2.926 0 01.042-.484zm15.299 39.378l-1.794.806a5.44 5.44 0 00-.335-.719 35.04 35.04 0 00-1.244-2.083 121.418 121.418 0 00-1.67-2.554l-.08-.121c.146.075.32.18.519.314.589.396 1.337 1.001 2.066 1.651.727.65 1.427 1.336 1.919 1.891.247.278.436.516.549.695.03.047.053.087.07.12zm.038.098l-.001-.005.001.005zm-.838-3.906l-.033-.054a15.155 15.155 0 00-.503-.761 41.278 41.278 0 00-1.631-2.165c-.613-.763-1.26-1.507-1.799-2.02a5.304 5.304 0 00-.567-.477c.177.027.396.094.652.202.701.295 1.581.855 2.442 1.484a29.307 29.307 0 012.277 1.847 10.922 10.922 0 01.728.71l-1.566 1.234zm1.665-1.108v-.001.001zm-.41-2.924a11.326 11.326 0 00-.528-.797 50.25 50.25 0 00-2.102-2.725c-.818-.99-1.688-1.971-2.395-2.628a7.38 7.38 0 00-.504-.433c.199.056.425.144.677.263.848.401 1.897 1.113 2.923 1.923a28.166 28.166 0 012.744 2.464c.366.38.662.722.864.999.099.136.172.251.22.344l-1.899.59zm-.109-4.652l-.012-.031c-.092-.225-.276-.535-.514-.886-.48-.711-1.22-1.654-2.014-2.563-.793-.909-1.649-1.795-2.362-2.389-.091-.074-.179-.146-.266-.212.093.015.19.033.29.054.967.203 2.178.682 3.13 1.648l.011.01.011.009a20.446 20.446 0 012.572 2.502c.336.393.607.743.788 1.016.074.111.13.205.17.281l-1.804.561zm.9-6.697l-1.769.884c-.097-.186-.274-.419-.492-.671-.456-.529-1.148-1.207-1.883-1.853-.734-.646-1.521-1.269-2.168-1.683a5.188 5.188 0 00-.675-.377c.181-.002.407.024.673.082.767.167 1.77.567 2.761 1.065.989.496 1.95 1.081 2.633 1.606.343.264.606.505.768.705a.971.971 0 01.152.241v.001zm-1.161-4.912l-1.805.256a7.667 7.667 0 00-.483-.408 46.417 46.417 0 00-2.045-1.509 39.535 39.535 0 00-2.315-1.521 12.102 12.102 0 00-.54-.304c.153.007.328.023.522.05.787.109 1.83.373 2.864.746 1.036.373 2.044.848 2.767 1.37.362.261.641.526.819.786.129.188.199.365.216.534zm-5.225-7.761h0l.007.002c1.028.34 1.949 1.056 2.618 1.702a10.658 10.658 0 01.868.947l-1.82.818-.009-.018a7.237 7.237 0 00-2.153-2.474h0l-.007-.005c-.834-.562-1.763-.956-2.473-1.237l-.326-.127a43.598 43.598 0 01-.335-.132c.195-.015.433-.021.703-.014.806.02 1.878.159 2.927.538z" fill="#000" stroke="#0AC789" stroke-width=".5"/><path d="M37.08 123.177h0c-3.235-1.199-7.082-3.571-11.428-7.066-6.736-5.416-12.913-12.133-15.56-15.128a366.582 366.582 0 004.252-2.384c5.702-3.218 10.408-5.871 15.565-7.47 5.147-1.595 10.755-2.141 18.25-1.12 6.24.85 12.092 3.442 17.396 7.708 8.214 6.604 12.848 15.433 14.346 18.627-14.825 10.199-32.097 10.822-42.821 6.833z" fill="#fff" stroke="#0AC789" stroke-width=".5"/><path d="M82.16 117.097a.39.39 0 00.064-.025l-.232-.243-.092-.097.047-.01.214.375zm0 0l.016.02c-15.969 11.615-34.522 12.067-45.773 7.884-3.857-1.432-8.022-4.204-11.967-7.376-4.59-3.69-8.889-7.929-12.037-11.243a155.446 155.446 0 01-3.759-4.098 102.7 102.7 0 01-1.034-1.186c-.119-.138-.21-.245-.27-.317l-.07-.082-.018-.021-.004-.005-.001-.002h0l.191-.161-.192.161-.196-.235.27-.146c2.16-1.17 4.17-2.303 6.08-3.38 4.833-2.726 9.023-5.088 13.386-6.755 6.109-2.334 12.567-3.31 21.658-2.071l33.72 29.013zm-3.645-.953l.185-.122-.099-.198c-1.822-3.666-6.272-11.453-13.635-17.373-5.156-4.145-10.863-6.673-16.936-7.508h0c-7.32-1.002-12.742-.518-17.786 1.04-5.026 1.554-9.667 4.171-15.413 7.413l-.029.016h0a399.72 399.72 0 01-2.94 1.65l-.275.153.21.233c2.985 3.306 8.498 9.12 14.451 13.907 4.247 3.415 8.005 5.753 11.168 6.929 10.324 3.846 26.762 3.297 41.099-6.14zM48.373 88.579h0c7.293.992 13.29 4.144 18.094 8.006 5.28 4.246 9.112 9.355 11.626 13.405a57.877 57.877 0 012.795 5.032 42.047 42.047 0 01.833 1.808c-15.792 11.398-34.082 11.815-45.144 7.702h0c-3.782-1.404-7.898-4.136-11.828-7.296-4.566-3.672-8.847-7.893-11.988-11.199a154.15 154.15 0 01-3.746-4.084 103.847 103.847 0 01-1.191-1.37c2.08-1.13 4.014-2.22 5.85-3.255 4.819-2.718 8.96-5.053 13.287-6.706 6.025-2.302 12.4-3.272 21.412-2.043z" fill="#000" stroke="#0AC789" stroke-width=".5"/><path d="M79.877 113.488a.31.31 0 01.077.107l-1.739 4.101a2.66 2.66 0 00-.396-.293c-.454-.282-1.145-.594-2.029-.931-1.771-.676-4.367-1.472-7.51-2.341-6.287-1.739-14.79-3.779-23.323-5.747a2856.372 2856.372 0 00-16.513-3.742c-2.52-.566-4.883-1.096-7.01-1.578a464.678 464.678 0 01-7.745-1.802 76.878 76.878 0 01-1.473-.375c.396.032.869.078 1.411.135 1.889.2 4.607.546 7.879 1 6.542.909 15.29 2.252 24.03 3.731 8.74 1.48 17.468 3.095 23.971 4.55 3.253.728 5.942 1.413 7.796 2.02.929.304 1.636.585 2.098.836.232.126.387.237.476.329zm.08.119v-.001.001z" fill="#000" stroke="#0AC789" stroke-width=".5"/><path d="M62.683 109.157l-1.878.725-.006-.013a16.112 16.112 0 00-.38-.81 65.547 65.547 0 00-1.543-2.894c-1.34-2.385-3.252-5.531-5.415-8.502-2.127-2.97-4.482-5.846-6.667-7.498-.735-.66-1.447-1.011-2.078-1.183.653.08 1.412.341 2.201.939l.01.007.01.007c2.424 1.483 5.02 4.19 7.388 7.051v.001c2.4 2.858 4.528 5.897 6.05 8.258a62.096 62.096 0 011.782 2.919 18.203 18.203 0 01.526.993zm-9.988-18.151c.598.294 1.292.688 2.043 1.174 2.332 1.509 5.182 3.889 7.392 6.881l.006.008.006.007c2.416 2.799 4.53 5.819 6.03 8.17a57.51 57.51 0 011.75 2.91 17.38 17.38 0 01.507.978l-1.88.725-.006-.015a15.655 15.655 0 00-.37-.809 59.832 59.832 0 00-1.507-2.878c-1.312-2.365-3.197-5.477-5.38-8.398-2.02-3.137-4.595-5.673-6.702-7.366a25.388 25.388 0 00-1.889-1.387zm4.396 17.805l.014.016-1.537 1.295a1.625 1.625 0 01-.082-.103 7.633 7.633 0 01-.486-.805 73.62 73.62 0 01-.89-1.716c-.199-.39-.414-.812-.644-1.259-1.255-2.429-2.963-5.562-5.067-8.239h-.001c-2.268-2.843-4.966-5.14-7.123-6.69-.7-.502-1.343-.927-1.9-1.267a23.46 23.46 0 012.04 1.045c2.36 1.344 5.306 3.457 7.761 6.133 2.519 2.821 4.453 5.855 5.811 8.131.319.535.608 1.031.866 1.474.287.494.535.92.74 1.254.195.317.362.571.498.732zm-1.458 1.373a.436.436 0 00.005.003s-.002 0-.005-.003zM32.46 90.292c.17-.021.38-.007.632.05.706.162 1.645.638 2.74 1.358 2.184 1.433 4.902 3.771 7.476 6.233 2.573 2.461 4.99 5.034 6.569 6.929.793.952 1.364 1.72 1.642 2.213.059.105.102.193.13.264l-.173-.053-.076.233-.7 2.141a.291.291 0 00-.102.045 2 2 0 01-.275-.191c-.217-.178-.538-.481-1.011-.986a5.152 5.152 0 01-.239-.836 17.46 17.46 0 00-.086-.367c-.114-.454-.277-.945-.652-1.478-.595-1.112-1.495-2.256-2.521-3.464-.37-.436-.757-.879-1.152-1.333a98.184 98.184 0 01-2.199-2.587h0l-.003-.004c-2.191-2.594-4.764-4.88-6.843-6.379-1.038-.748-1.964-1.307-2.664-1.608a4.185 4.185 0 00-.492-.18zM27.75 93.9a33.545 33.545 0 00-1.776-.705 21.53 21.53 0 011.873.455c2.156.625 4.911 1.766 7.304 3.716h0l.008.006c2.44 1.82 4.551 3.943 6.06 5.605a63.98 63.98 0 011.973 2.281l.29.348.003.002-1.576 1.264c0-.002-.002-.003-.003-.005-.08-.108-.188-.257-.323-.444l-.114-.158a71.737 71.737 0 00-1.595-2.135c-1.349-1.732-3.231-3.959-5.4-5.89-2.138-2.102-4.706-3.471-6.724-4.34zm13.97 13.123l.001-.001v.001zm-8.768-1.673a6.63 6.63 0 00-.35-.359c-.358-.345-.88-.805-1.515-1.332a75.291 75.291 0 00-4.748-3.615c-1.753-1.227-3.55-2.358-4.963-3.001-.502-.229-.968-.402-1.374-.492.388-.003.872.074 1.436.224 1.54.411 3.552 1.334 5.538 2.395a66.713 66.713 0 015.32 3.178c.7.467 1.257.865 1.613 1.15.132.105.23.19.297.254l-1.254 1.598zm6.688 15.404c-.752.175-1.437.324-2.039.443.58-.191 1.239-.413 1.958-.661 2.75-.948 6.397-2.275 9.989-3.638 3.591-1.363 7.13-2.764 9.665-3.859 1.265-.547 2.286-1.021 2.939-1.377.32-.176.573-.334.718-.467l.014-.012 1.664 1.031a1.418 1.418 0 01-.227.229c-.213.179-.527.382-.936.607-.816.448-1.974.961-3.367 1.51-2.784 1.095-6.476 2.318-10.177 3.431-3.7 1.112-7.401 2.113-10.2 2.763zm14.289-10.764c.278-.126.496-.228.642-.301l1.192 1.605a18.565 18.565 0 01-.96.403c-.728.285-1.744.658-2.954 1.082-2.42.848-5.607 1.897-8.797 2.849-3.192.953-6.378 1.807-8.798 2.267-.727.138-1.38.24-1.94.298a36.529 36.529 0 001.823-.523c2.384-.743 5.54-1.901 8.66-3.109a324.237 324.237 0 008.47-3.42c1.127-.476 2.049-.875 2.662-1.151z" fill="#000" stroke="#0AC789" stroke-width=".5"/><path d="M47.307 107.212c.28-.126.497-.228.643-.301l1.193 1.607-.103.047c-.203.093-.492.213-.856.356-.727.286-1.742.66-2.952 1.084a204.45 204.45 0 01-8.795 2.851c-3.192.953-6.379 1.806-8.8 2.265-.738.14-1.4.243-1.965.3a36.39 36.39 0 001.844-.529c2.384-.743 5.54-1.9 8.66-3.108a320.44 320.44 0 008.469-3.421c1.128-.475 2.05-.874 2.662-1.151zm-8.911-.091l-.005.002.005-.002zm-.173.071a25.8 25.8 0 01-.517.186c-.51.177-1.26.427-2.174.719a163.8 163.8 0 01-6.794 2.018c-2.494.68-4.998 1.28-6.887 1.562-.642.096-1.205.153-1.669.166a22.126 22.126 0 001.672-.446c1.809-.545 4.179-1.406 6.538-2.316a251.816 251.816 0 008.668-3.544c.26-.114.47-.207.62-.276l.543 1.931z" fill="#000" stroke="#0AC789" stroke-width=".5"/><path d="M88.05 87.875c-6.83-5.493-12.29-13.098-14.605-20.314-1.399-4.368-1.665-10.362-1.48-15.964.177-5.364.767-10.342 1.154-13.138a264.06 264.06 0 003.095 1.591c5.039 2.58 8.987 4.608 12.6 7.514 3.86 3.103 6.92 6.904 9.927 12.341 8.011 14.49 2.402 29.94.365 34.572a45.895 45.895 0 01-11.056-6.602z" fill="#fff" stroke="#0AC789" stroke-width=".5"/><path d="M98.362 93.124l.238.107.097-.242c2.196-5.475 6.463-19.493-.792-32.615-2.932-5.31-5.924-9.04-9.695-12.073-3.55-2.854-7.492-4.874-12.445-7.4V40.9c-.295-.149-.583-.298-.874-.448-.233-.121-.469-.243-.71-.366l-.318-.162-.044.354c-.405 3.236-.892 8.06-.97 13.03-.079 4.966.249 10.104 1.486 13.957 2.272 7.077 7.616 14.498 14.306 19.877a45.153 45.153 0 009.721 5.982zm-26.382-56.9c1.732.922 3.369 1.761 4.922 2.558 4.965 2.546 9.086 4.66 12.808 7.653C93.398 49.4 96.7 53.225 100 59.2h0c4.999 9.043 4.934 18.37 3.612 25.448a48.79 48.79 0 01-2.443 8.599 39.115 39.115 0 01-1.028 2.425 23.146 23.146 0 01-.318.66 47.304 47.304 0 01-12.683-7.323c-7.799-6.27-12.931-14.318-15.074-20.992-1.794-5.594-1.808-13.615-1.365-20.266A136.133 136.133 0 0171.89 36.8c.036-.235.066-.429.09-.576z" fill="#000" stroke="#0AC789" stroke-width=".5"/><path d="M101.642 92.875l-4.357 1.26a28.377 28.377 0 01-.484-2.51h0l-.001-.005-.028-.168c-.05-.3-.122-.739-.2-1.134a8.464 8.464 0 00-.149-.644 1.889 1.889 0 00-.082-.238.643.643 0 00-.093-.15l-.865-1.726-.861-1.722c-1.764-3.586-3.579-7.823-5.515-12.343a739.394 739.394 0 00-3-6.94c-3.042-6.935-6.097-14.162-7.844-19.468l-.007-.021-.01-.02c-1.343-2.47-2.254-4.687-2.76-6.281a15.38 15.38 0 01-.332-1.2c.143.315.32.687.532 1.11.72 1.435 1.858 3.466 3.506 5.94 2.392 5.404 5.775 11.917 9.338 18.753h0a626.89 626.89 0 014 7.808c2.048 4.043 3.97 7.84 5.618 10.732h0c.708 1.238 1.362 2.38 1.937 3.38.683 1.33.804 1.967.924 2.597.053.277.106.552.205.883a26.554 26.554 0 00.528 2.107z" fill="#000" stroke="#0AC789" stroke-width=".5"/><path d="M97.54 59.517a16.275 16.275 0 00-.38-1.89c.22.503.44 1.123.635 1.834.604 2.214.937 5.262.22 8.313l-.004.012-.001.013c-.395 3.041-1.164 5.991-1.857 8.195a43.408 43.408 0 01-.924 2.659 15.55 15.55 0 01-.336.806l-1.747-.967c.076-.143.179-.35.302-.613.269-.572.639-1.416 1.048-2.447.818-2.06 1.795-4.879 2.433-7.802.944-2.991.921-5.934.61-8.113zm-5.022 14.821a5.792 5.792 0 00-.175.64l-1.97-.324.013-.057c.04-.167.123-.408.243-.72.163-.424.387-.955.647-1.573l.388-.927c.846-2.034 1.895-4.695 2.478-7.298l.002-.01.001-.008c.419-2.837.437-5.682.308-7.813a29.442 29.442 0 00-.167-1.853c.149.5.296 1.111.43 1.806.41 2.135.688 5.032.518 7.931-.428 3.06-1.253 5.823-1.915 7.826-.156.471-.304.905-.436 1.29-.146.428-.272.796-.365 1.09zm-2.158.424v0zm.03-5.329c-.058.104-.116.203-.172.297a.282.282 0 00-.29.1.458.458 0 00-.074.137 1.241 1.241 0 00-.04.15 3.69 3.69 0 00-.047.287l-1.628.608a.266.266 0 00-.061-.034 2.064 2.064 0 01-.01-.255c.001-.26.03-.673.108-1.324a4.27 4.27 0 01.383-.556c.07-.09.142-.183.216-.288a3 3 0 00.537-1.222c.422-.98.655-2.183.87-3.503l.136-.852c.173-1.103.358-2.28.64-3.504l.004-.013.001-.012c.343-2.786.084-5.64-.29-7.782a26.819 26.819 0 00-.39-1.866c.213.486.438 1.082.651 1.77.658 2.115 1.206 5.063 1.046 8.24-.131.944-.203 1.957-.274 2.964-.029.41-.058.82-.09 1.222-.115 1.406-.277 2.74-.648 3.847l-.007.024-.004.024c-.069.548-.31 1.08-.567 1.54zm-3.904-21.816c.139.386.29.853.434 1.385.447 1.634.843 3.856.74 6.154h0a429.7 429.7 0 00-.225 6.156 81.65 81.65 0 00-.035 1.959c0 .195.002.357.006.48l-1.997.07c.006-.13.02-.31.042-.533.048-.507.13-1.226.238-2.08.215-1.706.533-3.944.88-6.082.368-2.215.261-4.417.092-6.069a43.857 43.857 0 00-.175-1.44zm-2.773 8.629l-2.007.07a6.79 6.79 0 00.04-.4c.03-.43.05-1.029.057-1.738.013-1.42-.03-3.292-.15-5.135-.12-1.84-.317-3.664-.617-4.98a7.456 7.456 0 00-.366-1.207c.204.264.41.631.612 1.088.562 1.268 1.054 3.117 1.446 5.022.392 1.9.68 3.838.842 5.274.08.718.128 1.307.14 1.7.005.127.005.23.003.306zm9.963 23.708l.004.002.058 2.155a1.344 1.344 0 01-.166-.036 4.15 4.15 0 01-.705-.29c-.563-.282-1.275-.724-2.086-1.281-1.62-1.113-3.606-2.669-5.52-4.272-1.914-1.604-3.75-3.251-5.071-4.547-.661-.648-1.189-1.204-1.53-1.62l-.022-.025.002.002c.33.25.758.592 1.267 1.001l.487.39c1.446 1.159 3.393 2.685 5.504 4.014 1.779 1.297 4.129 2.609 5.843 3.514.844.445 1.536.793 1.935.993zm-13.335-13.13c-.286-.34-.53-.648-.722-.917.252.21.55.45.882.712a133.28 133.28 0 004.148 3.11 125.3 125.3 0 004.174 2.91c.563.372 1.033.666 1.356.843.079.043.153.082.221.114l-.684 1.872a20.541 20.541 0 01-1.895-1.382 72.77 72.77 0 01-3.91-3.529c-1.364-1.315-2.666-2.661-3.57-3.733z" fill="#000" stroke="#0AC789" stroke-width=".5"/><path d="M41.698 93.17h0a31.617 31.617 0 002.48 2.202c6.914 5.56 19.036 10.932 32.753 9.776-.298-4.729-2.164-19.306-13.716-28.595a34.571 34.571 0 00-2.483-1.814c-5.52-3.655-10.078-5.463-14.617-6.352-4.545-.89-9.08-.86-14.574-.826h-.002L41.698 93.17zm0 0c-3.252-3.219-6.24-8.396-8.647-13.436m8.647 13.436L33.05 79.734m0 0c-2.304-4.826-4.065-9.5-5.005-12.154m5.005 12.154L28.046 67.58m0 0c1.207-.005 2.37-.011 3.493-.019l-3.493.02z" fill="#fff" stroke="#0AC789" stroke-width=".5"/><path d="M75.657 104.286l.26-.015-.026-.259c-.52-5.462-2.842-18.329-13.273-26.716a32.921 32.921 0 00-2.433-1.771h0c-5.387-3.568-9.775-5.348-14.217-6.222-4.43-.873-8.905-.842-14.446-.803h-.011c-.578.007-1.177.01-1.778.012l-.358.001.124.336c1.127 3.049 2.91 7.54 5.123 11.974 2.21 4.43 4.862 8.824 7.73 11.661h.001a32.286 32.286 0 002.413 2.14c6.58 5.29 17.947 10.392 30.89 9.662zm-14.13-30.745h0a34.474 34.474 0 012.592 1.888c7.299 5.87 10.878 13.675 12.63 20.026a48.08 48.08 0 011.492 7.994c.099 1.006.143 1.813.162 2.368.009.277.012.491.013.635-14.302 1.643-27.333-3.65-35.163-9.946a34.17 34.17 0 01-2.584-2.3c-4.16-4.119-7.853-11.205-10.511-17.29a134.958 134.958 0 01-3.969-10.233 52.263 52.263 0 01-.184-.55c1.956.016 3.79.003 5.532-.008 4.66-.032 8.663-.058 12.588.47 5.458.737 10.755 2.549 17.402 6.946z" fill="#000" stroke="#0AC789" stroke-width=".5"/><path d="M37.261 71.835c4.437 3.543 10.18 7.564 16.24 11.805l.696.487c2.397 1.664 4.81 3.39 7.133 5.05 3.685 2.635 7.14 5.106 9.94 6.907l1.316.841 1.968 1.26M37.26 71.836c-4.31-2.368-6.809-4.296-7.56-4.98.035.074.09.168.17.284.1.148.233.32.396.513m6.994 4.183l-.12.22-.019-.01m.14-.21l-.157.196.017.013m-6.855-4.392c-.182-.143-.34-.271-.471-.382a8.803 8.803 0 01-.298-.261c.513.979 3.003 3.485 6.835 6.062 4.006 3.89 10.06 8.877 15.95 13.613M30.268 67.652c.277.217.611.47 1.004.752 1.301.936 3.247 2.208 5.851 3.64m-6.855-4.392l44.147 30.741m-22.13-11.709c2.017 1.613 3.99 3.225 5.904 4.788 3.784 3.092 7.338 5.995 10.547 8.348M52.284 86.684l.156-.195s0 0 0 0a729.357 729.357 0 015.913 4.795c3.781 3.089 7.326 5.984 10.53 8.334m-16.6-12.934l22.13 11.71m-5.678 1.426l1.226.89c.69.501 1.335.97 1.932 1.4m-3.158-2.29l.148-.201s0 0 0 0m-.148.201l.147-.202s0 0 0 0m3.011 2.492c.173.007.963 1.058 1.367 1.596l.103.138a29.83 29.83 0 001.605 2.016l.182-.172m-3.257-3.578l.146-.203a.813.813 0 01-.036-.026m-.11.229l.01-.25a.349.349 0 01.1.021m3.147 3.807l.047.055.008.009.09.103a.739.739 0 01.018.023l3.495-3.3m-3.658 3.11l3.31-3.125m-3.31 3.125a29.41 29.41 0 01-1.584-1.992h0l-.003-.003-.102-.136c-.183-.243-.448-.596-.7-.909a8.994 8.994 0 00-.426-.501 2.05 2.05 0 00-.18-.173.648.648 0 00-.152-.093m6.805.697c0-.012-.059-.074-.174-.193-.243-.253-.734-.764-1.426-1.606m1.6 1.799l-.172-.182-.177.167m.349.015l-.25-.024c-.006.07.02.122.024.129h0c.007.015.014.024.015.026h0l.002.003-.005-.007a3.101 3.101 0 00-.072-.077l-.063-.065m-1.251-1.784a7.428 7.428 0 01-.583-.67c-.4-.502-.838-1.05-2.071-1.923m2.654 2.593l-.194.159.008.009m.186-.168l-.177.177-.009-.009m-2.468-2.761l-.145.204a.128.128 0 01.005.003m.14-.207l-.135.21c-.002 0-.004-.002-.005-.003m0 0c1.202.852 1.605 1.358 1.996 1.85.18.227.359.451.612.704m-2.608-2.554c-.608-.391-1.264-.81-1.962-1.257-.424-.27-.863-.55-1.316-.841h0c-2.805-1.804-6.27-4.282-9.96-6.92-2.322-1.66-4.732-3.384-7.122-5.043h0l-.7-.49c-6.048-4.234-11.79-8.254-16.232-11.798m39.9 28.903c.51.621.913 1.062 1.188 1.354.098.105.181.191.245.258l.004.004m-6.456-.682c-.587-.423-1.22-.882-1.894-1.372l-1.227-.89m6.334 6.198l-.086.233a1.877 1.877 0 00-.115-.136 2.107 2.107 0 01-.046-.054l.01-.008a.254.254 0 01.123-.049c.059-.007.103.01.114.014zM29.578 66.816l-.105-.19c.023.031.072.084.147.155a.141.141 0 01-.042.035z" fill="#000" stroke="#0AC789" stroke-width=".5"/><path d="M58.271 73.45c.43.344.915.794 1.419 1.339 1.553 1.68 3.247 4.22 4.004 7.243l.003.013.005.012c1.044 2.868 1.713 5.83 2.107 8.1.198 1.133.326 2.091.4 2.775a16.402 16.402 0 01.072.865l-1.993-.051a14.74 14.74 0 00-.012-.683c-.023-.63-.08-1.547-.189-2.647-.217-2.198-.64-5.14-1.413-8.017-.532-3.074-1.905-5.661-3.185-7.443-.426-.594-.843-1.1-1.218-1.507zm3.538 16.915c.045.263.09.484.138.642l-1.906.623a6.348 6.348 0 01-.128-.804c-.05-.45-.094-1.025-.147-1.693-.024-.313-.05-.645-.08-.996-.18-2.189-.467-5.026-1.14-7.594l-.003-.009-.003-.009c-.924-2.693-2.211-5.214-3.304-7.038a28.918 28.918 0 00-1.008-1.575c.365.375.78.85 1.221 1.407a32.916 32.916 0 014.101 6.77c1.02 2.905 1.552 5.729 1.88 7.804.076.48.142.926.201 1.322.067.453.125.843.178 1.15zm-1.73 1.368a.026.026 0 01.004.005l-.003-.005zm-2.417-4.707c-.004.117-.01.23-.017.337a.282.282 0 00-.218.223.46.46 0 000 .156c.006.046.018.097.033.152.02.075.05.165.09.274l-1.172 1.292a.265.265 0 00-.074-.003 2.034 2.034 0 01-.126-.22c-.117-.23-.28-.607-.51-1.215.01-.252.048-.468.09-.7.017-.103.036-.208.053-.322a3.387 3.387 0 00-.036-1.316c-.11-1.06-.452-2.231-.865-3.502-.102-.315-.21-.636-.318-.965a63.269 63.269 0 01-1.009-3.235l-.002-.01-.004-.01c-.962-2.646-2.498-5.059-3.813-6.784a25.912 25.912 0 00-1.192-1.456c.41.33.88.75 1.38 1.252 1.56 1.57 3.403 3.924 4.706 6.799.316.857.702 1.753 1.086 2.646.177.412.354.823.524 1.23.543 1.3 1.015 2.558 1.221 3.69l.003.014.004.013c.161.54.184 1.133.166 1.66zM44.17 69.53c.301.276.65.62 1.024 1.023 1.148 1.237 2.521 3.016 3.48 5.093l.001.001c.976 2.09 1.92 4.084 2.63 5.548.356.732.654 1.333.87 1.748.09.173.166.316.227.424l-1.747.99a14.165 14.165 0 01-.205-.489 73.54 73.54 0 01-.742-1.947 183.162 183.162 0 01-2.012-5.78c-.693-2.135-1.801-4.037-2.712-5.421-.3-.456-.578-.856-.814-1.19zm-.26 9.895a6.982 6.982 0 00-.15-.374c-.17-.394-.428-.934-.749-1.564a72.76 72.76 0 00-2.495-4.475c-.952-1.573-1.967-3.096-2.84-4.122a7.376 7.376 0 00-.884-.9c.305.139.658.369 1.051.681 1.083.862 2.37 2.27 3.595 3.774a61.212 61.212 0 013.174 4.277c.403.599.716 1.097.91 1.438.062.11.11.2.143.27l-1.755.995zm21.476 15.391h.042l1.044 1.882a1.396 1.396 0 01-.163.042 4.24 4.24 0 01-.763.066c-.63.008-1.47-.056-2.448-.176-1.956-.24-4.442-.703-6.886-1.24-2.444-.536-4.839-1.147-6.611-1.683-.888-.268-1.613-.516-2.109-.724l-.008-.004c.405.068.932.173 1.559.298l.63.125c1.822.36 4.257.812 6.745 1.013 2.18.324 4.878.401 6.824.412.93.005 1.691-.005 2.144-.011zM47.51 89.338c-.418-.17-.78-.334-1.076-.485.324.07.707.148 1.132.228 1.393.262 3.267.566 5.127.838 1.86.272 3.71.513 5.059.65.672.068 1.227.111 1.596.119.09.002.175.001.25-.002l.251 1.971h-.018a4.03 4.03 0 01-.533-.033 20.523 20.523 0 01-1.784-.313c-1.44-.305-3.29-.782-5.11-1.316-1.819-.535-3.598-1.125-4.894-1.657z" fill="#000" stroke="#0AC789" stroke-width=".5"/><path d="M96.272 46.802c2.258-4.119 4.673-7.807 6.117-9.93 7.148 9.475 11.752 17.03 12.048 29.2h0c.142 5.7-2.866 11.157-6.334 15.517-3.368 4.233-7.142 7.396-8.784 8.688a11.746 11.746 0 01-1.246-.877c-3.694-2.97-5.857-8.243-6.898-13.867-1.039-5.617-.948-11.531-.178-15.727.726-3.923 2.908-8.688 5.275-13.004z" fill="#fff" stroke="#0AC789" stroke-width=".5"/><path d="M102.636 38.782l-.212-.286-.197.297c-1.626 2.452-3.885 6.035-5.894 9.857-2.006 3.817-3.774 7.89-4.405 11.32-.786 4.248-.812 10.032.206 15.439 1.017 5.397 3.085 10.474 6.535 13.249.149.12.31.236.46.342l.155.112.148-.122c1.952-1.599 5.527-4.763 8.585-8.798 3.053-4.03 5.617-8.96 5.49-14.086h0c-.288-11.33-4.442-18.643-10.871-27.324zm-.573-3.965l.283-.4c7.406 9.683 13.205 17.955 13.532 31.595h0c.172 6.947-3.939 13.454-8.136 18.247a57.715 57.715 0 01-5.782 5.704 51.132 51.132 0 01-2.448 1.972l-.068.05a12.37 12.37 0 01-2.283-1.467c-3.843-3.09-6.178-8.475-7.33-14.295-1.152-5.812-1.114-12.011-.253-16.676.94-5.083 4.17-11.426 7.185-16.518a130.49 130.49 0 015.3-8.212z" fill="#000" stroke="#0AC789" stroke-width=".5"/><path d="M112.224 65.569c.35-.256.655-.494.907-.692-.196.264-.446.572-.745.903-.897.996-2.209 2.185-3.74 3.01l-.014.008-.012.009c-1.514 1.078-3.25 1.615-4.613 1.88a14.77 14.77 0 01-2.051.254l.101-1.995c.076.006.166.011.269.017.352.016.859.025 1.463-.014 1.201-.076 2.798-.34 4.321-1.102 1.672-.61 3.091-1.53 4.114-2.278zm1.668 5.049a.216.216 0 01-.012-.008l.046-.032-.034.04zm-12.201 5.443c-.155.004-.287.006-.39.006l.304-1.984.277.028c.344.032.842.065 1.449.067 1.209.005 2.854-.112 4.565-.61 1.642-.368 3.169-1.22 4.299-1.909.223-.136.429-.264.616-.381.132-.083.254-.16.368-.23a15.88 15.88 0 01-.819.831c-.958.905-2.349 1.993-4.11 2.717l-.007.003-.006.003c-1.621.78-3.421 1.15-4.824 1.323a19.16 19.16 0 01-1.722.136zm10.599-.077c-.202.25-.459.543-.764.857-.921.948-2.274 2.082-3.923 2.871h0l-.006.003c-1.627.835-3.397 1.195-4.766 1.363a25.443 25.443 0 01-1.726.146l-.295.018.158-1.99c.076.002.173.008.292.015l.062.004c.345.022.828.051 1.401.056 1.215.01 2.846-.094 4.474-.636 1.62-.487 3.076-1.344 4.143-2.053.362-.24.684-.466.95-.654zm-9.275-13.029c.805-.072 2.306-.212 3.742-.383a41.172 41.172 0 002.359-.339c.298-.054.562-.11.774-.168a4.021 4.021 0 01-.494.357c-.624.394-1.541.831-2.465 1.223-.921.39-1.837.73-2.453.93-.174.057-.32.1-.432.13l-1.031-1.75z" fill="#000" stroke="#0AC789" stroke-width=".5"/><path d="M103.07 45.235l.006-1.036c.071.27.145.6.22.984.246 1.273.489 3.118.679 5.344.379 4.45.541 10.404.079 16.322h0v.008c-.289 5.954-.869 11.834-1.421 16.279a137.779 137.779 0 01-.767 5.417c-.111.666-.21 1.197-.292 1.574-.037.17-.07.307-.099.408l-4.286-1.388.037-.125c.085-.295.203-.756.345-1.355.285-1.2.673-2.97 1.107-5.12.867-4.296 1.919-10.112 2.7-15.921.97-5.83 1.384-11.673 1.562-16.066.089-2.198.119-4.034.13-5.325z" fill="#000" stroke="#0AC789" stroke-width=".5"/><path d="M98.538 107.203c-2.067-5.601-.513-12.605 2.799-19.272 3.338-6.72 8.434-13.042 13.276-17.138 3.896-3.297 9.941-6.225 15.725-8.53 5.554-2.213 10.843-3.844 13.704-4.672-.681 15.042-2.196 26.083-11.654 38.214-4.467 5.731-11.827 8.621-18.67 10.056-6.672 1.4-12.808 1.407-15.18 1.342z" fill="#fff" stroke="#0AC789" stroke-width=".5"/><path d="M143.024 59.223l.018-.354-.34.102c-3.336 1.004-8.472 2.672-13.638 4.82-5.161 2.145-10.374 4.778-13.848 7.718-4.484 3.794-9.299 9.723-12.593 16.05-3.29 6.316-5.09 13.086-3.46 18.539l.053.176.184.002c2.903.036 8.918-.11 15.225-1.567 6.3-1.456 12.935-4.229 17.03-9.478h0c8.936-11.472 10.652-22.049 11.369-36.008zm1.897-3.38c.272-.076.492-.136.654-.18-.605 15.134-1.617 27.652-12.045 41.02h0c-5.301 6.802-14.309 9.791-22.038 11.072-3.858.639-7.384.85-9.945.902a63.06 63.06 0 01-3.038-.01c-.359-.01-.637-.022-.826-.031l-.137-.008c-2.696-6.072-1.167-13.67 2.304-20.837 3.493-7.21 8.923-13.923 13.844-18.086 4.887-4.134 12.926-7.661 19.77-10.16a159.15 159.15 0 0111.457-3.683z" fill="#000" stroke="#0AC789" stroke-width=".5"/><path d="M130.394 93.348c.524.02.991.022 1.382.02-.388.087-.859.172-1.389.243-1.622.216-3.786.287-5.879-.157l-.016-.003-.015-.002c-2.257-.189-4.288-1.055-5.757-1.878a17.756 17.756 0 01-1.728-1.103 12.58 12.58 0 01-.413-.312l1.35-1.487a16.204 16.204 0 001.725 1.408c1.225.867 2.975 1.857 5.035 2.293 2.074.707 4.145.92 5.705.978zm-2.342 6.073l-.001-.009.038.005-.037.004zm-15.68-4.48a7.951 7.951 0 01-.418-.359l1.495-1.344c.073.08.168.18.283.295.309.308.773.733 1.363 1.21 1.18.952 2.878 2.115 4.887 2.954 1.881.896 3.997 1.25 5.608 1.448.361.045.692.081.99.114l.417.046c-.4.046-.881.09-1.424.117-1.619.08-3.78 0-5.974-.7h0l-.011-.003c-2.127-.574-4.094-1.63-5.526-2.56a19.984 19.984 0 01-1.69-1.218zm9.899 8.428c-.388.079-.857.154-1.385.21-1.618.172-3.78.163-5.925-.46l-.007-.002-.007-.002c-2.182-.491-4.125-1.531-5.527-2.447a22.5 22.5 0 01-2.039-1.505l1.394-1.45c.077.077.179.18.303.301.318.31.782.745 1.37 1.227 1.173.96 2.847 2.111 4.844 2.831 1.945.846 4.017 1.133 5.597 1.239.52.034.989.05 1.382.058zm8.379-15.547l.287.102c-.215.014-.477.02-.774.012-.888-.026-2.062-.18-3.183-.596h0l-.005-.002a21.88 21.88 0 01-3.632-1.656l.332-2.04c.083.04.183.099.298.175.266.176.589.426.959.717l.165.13c.696.548 1.524 1.2 2.346 1.677.946.624 1.98 1.037 2.769 1.324l.438.157z" fill="#000" stroke="#0AC789" stroke-width=".5"/><path d="M138.501 65.658c-.152.31-.346.677-.582 1.093-.792 1.396-2.033 3.332-3.623 5.587-3.18 4.51-7.742 10.28-12.862 15.541h0l-.005.006c-4.979 5.423-10.175 10.556-14.2 14.34a175.027 175.027 0 01-4.982 4.531c-.626.542-1.133.966-1.501 1.255-.184.144-.33.253-.436.325l-2.406-3.817c.063-.041.135-.091.215-.147.318-.223.793-.579 1.4-1.05a199.771 199.771 0 005.052-4.08c4.171-3.467 9.688-8.246 14.95-13.243 5.459-4.867 10.393-10.185 13.963-14.295a171.482 171.482 0 004.231-5.056c.304-.379.567-.71.786-.99z" fill="#000" stroke="#0AC789" stroke-width=".5"/><path d="M74.496 97.528c-3.757-3.02-7.157-6.527-9.58-9.87-2.967-4.104-5.397-10.33-7.228-16.258-1.76-5.694-2.96-11.086-3.552-13.999 13.55 1.5 24.131 3.534 34.643 11.986a58.456 58.456 0 012.478 2.11c5.339 4.824 7.626 12.364 8.509 19.296.86 6.762.379 12.899.126 15.263-6.774 1.981-16.16-1.101-25.396-8.528z" fill="#fff" stroke="#0AC789" stroke-width=".5"/><path d="M90.616 72.194h0a56.453 56.453 0 00-2.436-2.078c-9.94-7.992-19.632-10.102-32.512-11.59l-.347-.04.074.342c.736 3.404 1.987 8.644 3.712 13.942 1.723 5.293 3.926 10.667 6.574 14.326h0c2.385 3.29 5.72 6.724 9.411 9.691 8.56 6.884 17.276 10.027 23.75 8.567l.177-.04.016-.181c.264-2.903.6-8.923-.345-15.317-.943-6.389-3.172-13.195-8.074-17.622zM52.332 55.747c14.006 1.476 25.713 3.147 37.349 12.503.85.684 1.697 1.404 2.54 2.16 6.345 5.732 8.599 14.92 9.255 22.724a70.58 70.58 0 01.101 9.993 64.486 64.486 0 01-.253 3.033 43.242 43.242 0 01-.117.963c-4.235 1.565-9.008 1.153-13.782-.497-4.825-1.668-9.63-4.593-13.841-7.979-3.986-3.205-7.434-6.814-9.84-10.145h0c-3.73-5.148-6.599-13.405-8.537-20.403a157.46 157.46 0 01-2.748-11.682l-.127-.67z" fill="#000" stroke="#0AC789" stroke-width=".5"/><path d="M88.646 73.345c.061-.519.1-.983.129-1.371.055.39.102.86.13 1.39.084 1.633-.02 3.8-.633 5.869l-.004.015-.002.015c-.37 2.242-1.395 4.217-2.332 5.633a18.075 18.075 0 01-1.237 1.657c-.14.166-.258.298-.346.395l-1.368-1.444a16.8 16.8 0 001.542-1.638c.96-1.166 2.083-2.848 2.682-4.876.879-2.03 1.257-4.089 1.44-5.645zm5.86 2.735l-.014.001.012-.054c0 .017 0 .035.002.054zM88.78 91.466a8.66 8.66 0 01-.391.395l-1.213-1.59c.085-.068.192-.157.316-.266.33-.29.79-.725 1.313-1.284 1.041-1.118 2.336-2.74 3.335-4.695 1.042-1.817 1.564-3.907 1.892-5.503.073-.355.136-.682.192-.977l.08-.41c.012.4.017.88 0 1.417-.05 1.624-.304 3.78-1.176 5.931h0l-.004.01c-.741 2.086-1.951 3.984-2.994 5.358a20.998 20.998 0 01-1.35 1.614zm9.029-7.981c.076-.514.129-.98.169-1.37.046.39.082.856.096 1.38.04 1.627-.14 3.788-.93 5.891l-.003.007-.003.007c-.664 2.147-1.858 4.024-2.883 5.368a22.834 22.834 0 01-1.663 1.942l-1.324-1.48c.084-.072.195-.167.326-.284a21.26 21.26 0 001.33-1.29c1.049-1.11 2.329-2.709 3.205-4.653.996-1.891 1.448-3.945 1.68-5.518zM83.285 72.457a8.276 8.276 0 01-.05.766c-.096.886-.343 2.05-.851 3.147h0l-.003.005A22.486 22.486 0 0180.44 79.9l-1.992-.46a2.94 2.94 0 01.197-.282c.196-.253.47-.56.789-.91l.132-.146c.603-.664 1.321-1.456 1.864-2.252.698-.91 1.191-1.917 1.54-2.687.07-.153.133-.295.19-.424l.126-.282z" fill="#000" stroke="#0AC789" stroke-width=".5"/><path d="M61.711 63.463c.3.172.652.392 1.053.658 1.327.88 3.155 2.246 5.273 3.98 4.236 3.466 9.616 8.394 14.442 13.847h0l.005.005c5.002 5.32 9.695 10.84 13.139 15.104a169.548 169.548 0 014.11 5.269c.489.66.87 1.194 1.127 1.58.13.193.226.346.289.457l.001.001-3.992 2.161a10.946 10.946 0 00-.127-.221 41.612 41.612 0 00-.934-1.466 197.421 197.421 0 00-3.66-5.31c-3.118-4.39-7.435-10.207-11.982-15.781-4.408-5.767-9.309-11.041-13.117-14.875a167.02 167.02 0 00-4.698-4.555c-.355-.33-.667-.617-.929-.854z" fill="#000" stroke="#0AC789" stroke-width=".5"/><path d="M126.343 95.638h0c7.827 1.08 14.092 3.62 21.364 6.579h0l.76.308c2.25.912 4.558 1.849 7.022 2.774-1.598 1.053-3.356 2.419-5.328 3.953l-.418.324v.001c-6.413 5.01-14.349 11.202-24.313 13.68h0c-10.38 2.585-19.841-1.145-24.781-5.116-2.725-2.192-4.394-4.62-4.76-6.849.118-3.387 1.663-6.373 4.622-8.908 3.531-3.015 8.426-4.92 13.234-5.962 4.808-1.041 9.498-1.213 12.598-.784z" fill="#fff" stroke="#0AC789" stroke-width=".5"/><path d="M153.107 105.826l.369-.268-.425-.167a430.672 430.672 0 01-5.72-2.304h0l-.069-.028c-7.153-2.903-13.375-5.428-21.073-6.492h0c-3.159-.436-7.783-.204-12.432.832-4.647 1.035-9.352 2.881-12.653 5.699h-.001c-2.721 2.332-4.136 4.976-4.28 8.081l-.001.03.005.029c.382 1.992 1.993 4.212 4.41 6.155 4.794 3.855 13.929 7.453 23.964 4.954h0c9.778-2.437 17.666-8.59 23.962-13.507l.581-.452c1.198-.931 2.31-1.796 3.363-2.562zm-4.851-4.948c3.313 1.348 6.8 2.765 10.672 4.136-1.5.652-3.219 1.823-5.145 3.268-.995.747-2.052 1.571-3.167 2.442l-.375.293a225.586 225.586 0 01-3.989 3.059c-5.623 4.19-12.444 8.588-20.488 10.594-10.041 2.498-20.082-.63-26.02-5.404-2.986-2.401-4.903-5.2-5.303-7.875.172-6.955 5.615-11.597 12.368-14.339 6.753-2.741 14.724-3.538 19.737-2.85 5.926.819 10.994 2.465 16.175 4.464 1.815.7 3.646 1.445 5.535 2.212z" fill="#000" stroke="#0AC789" stroke-width=".5"/><path d="M119.057 111.933h0l-.005.001c-5.871.802-11.766 1.226-16.249 1.403-2.241.089-4.127.115-5.48.097-.676-.01-1.215-.03-1.597-.059a6.461 6.461 0 01-.412-.044l.82-4.458.131.021c.304.044.772.094 1.38.144 1.215.1 3.002.205 5.168.284 4.332.16 10.189.218 16.037-.067 5.863-.149 11.703-.663 16.086-1.09.854-.083 1.652-.163 2.384-.236 1.149-.115 2.135-.213 2.92-.283.386-.035.722-.062 1.002-.08-.265.09-.585.192-.958.303-1.239.368-3.028.83-5.193 1.32-4.328.98-10.144 2.069-16.034 2.744zm-23.9 1.364h.002-.002z" fill="#000" stroke="#0AC789" stroke-width=".5"/><path d="M40.093 109.683c1.394-.763 2.934-1.729 4.654-2.809l.238-.15h0l.018-.011c5.894-3.718 13.175-8.31 21.838-9.575 6.716-.98 13.845.946 19.072 5.148 2.932 2.357 4.719 5.116 4.878 7.391-.387 2.81-1.926 5.169-4.611 7.033v.001c-3.245 2.255-7.553 3.456-11.717 3.929-4.163.474-8.151.218-10.74-.413h-.001c-6.538-1.58-11.631-4.273-17.553-7.403l-.088-.047h-.001l-.86-.45c-1.647-.862-3.334-1.746-5.127-2.644z" fill="#fff" stroke="#0AC789" stroke-width=".5"/><path d="M89.833 109.708l.005-.032-.003-.031c-.104-1.028-.594-2.162-1.371-3.292-.78-1.132-1.856-2.273-3.153-3.316-3.886-3.124-10.732-6.058-18.348-4.965h0c-8.487 1.227-15.718 5.794-21.487 9.442v.001c-1.066.678-2.07 1.312-3.007 1.88l-.38.231.394.205c.94.489 1.86.974 2.767 1.451l1.278.673.03.015c5.856 3.1 10.944 5.792 17.395 7.356 2.633.641 6.552.839 10.556.362 4.002-.478 8.123-1.635 11.14-3.735h0c2.415-1.684 3.797-3.724 4.184-6.245zm-41.588-6.701c5.164-3.102 11.366-6.276 18.404-7.296 7.865-1.138 15.347 1.575 20.17 5.452 3.278 2.637 5.287 5.77 5.422 8.575-.743 5.913-5.776 9.41-11.777 11.174-6.001 1.764-12.875 1.76-17.092.74-4.989-1.211-9.175-3.055-13.43-5.21a281.823 281.823 0 01-4.534-2.366c-2.695-1.426-5.531-2.927-8.694-4.422 1.323-.44 2.866-1.284 4.599-2.334a184.257 184.257 0 003.26-2.037c1.157-.73 2.382-1.5 3.672-2.276z" fill="#000" stroke="#0AC789" stroke-width=".5"/><path d="M51.291 109.029v.003a.03.03 0 000-.003zm0 0a.22.22 0 00-.05-.112c-.135.056-.203.105-.198.145.005.035.083.064.229.088l.02-.121zm19.992-2.084h0l.005-.001c5.092-.215 10.172-.104 14.031.108 1.93.106 3.552.237 4.715.364a22.94 22.94 0 011.377.184c.137.024.247.046.332.067l-1.258 4.35a19.221 19.221 0 00-1.202-.262c-1.02-.196-2.53-.449-4.368-.716-3.676-.532-8.672-1.12-13.693-1.411-5.016-.411-10.05-.513-13.832-.563l-1.464-.018a210.041 210.041 0 01-3.113-.051 32.474 32.474 0 01-.868-.034c.234-.06.518-.125.848-.193 1.088-.226 2.656-.486 4.547-.739 3.783-.505 8.848-.978 13.943-1.085z" fill="#000" stroke="#0AC789" stroke-width=".5"/></svg>