<svg width="181" height="32" fill="none" xmlns="http://www.w3.org/2000/svg"><path d="M77.81 23.045c.628-2.148 1.255-4.283 1.882-6.431 1.415-4.817 2.83-9.621 4.23-14.438.094-.334.24-.427.587-.427 2.496.013 4.99.013 7.486 0 .347 0 .454.093.44.44-.013.948 0 .948-.974.988-.4.013-.787.107-1.174.227-.84.24-1.134.88-1.24 1.668a11.89 11.89 0 00-.108 1.547c0 6.605 0 13.197.014 19.802 0 .414.04.827.106 1.241.187 1.174.788 1.681 2.042 1.775.334.026.68.026 1.028.026.226 0 .306.08.306.307.054 1.188.067 1.188-1.107 1.188-3.07 0-6.151-.013-9.22.013-.374 0-.468-.107-.468-.467.027-1 0-1 1.015-1.04 1.467-.067 2.055-.628 2.228-2.069.053-.467.08-.947.08-1.414V4.804c-.027 0-.053-.014-.08-.014-.147.494-.307 1.001-.44 1.495-2.309 8.046-4.63 16.105-6.926 24.152-.12.413-.266.627-.707.547a1.582 1.582 0 00-.44 0c-.267.026-.387-.067-.467-.334-.587-2.108-1.201-4.216-1.802-6.325a65575.76 65575.76 0 01-5.177-18.134c-.133-.453-.253-.894-.387-1.36-.12.066-.093.146-.093.2 0 6.898.013 13.783.026 20.682 0 .494.067.974.187 1.454.347 1.455 1.335 2.242 2.843 2.269.707.013.707-.134.707.694 0 .814 0 .814-.828.814-2.522 0-5.044-.014-7.565.013-.374 0-.56-.053-.494-.48.053-.32-.12-.721.08-.948.187-.213.587-.067.894-.093 1.188-.107 2.135-1.068 2.335-2.429.12-.854.187-1.708.187-2.562V6.206c0-.467-.04-.921-.107-1.375-.147-1.094-.694-1.574-1.855-1.64-.387-.028-.773 0-1.16-.014-.721-.027-.267-.574-.347-.868-.067-.213-.16-.56.346-.56 1.428.027 2.856.013 4.27.013 1.081 0 2.162.014 3.256 0 .307 0 .454.067.547.4 1.428 5.018 2.87 10.022 4.297 15.025.56 1.962 1.134 3.923 1.695 5.885 0-.027.026-.027.053-.027zm-67.128-8.353c0-3.963-.014-7.913.013-11.876 0-.427-.133-.507-.52-.507-2.215-.04-4.164.56-5.658 2.295-.974 1.134-1.481 2.509-1.788 3.963-.174.827-.28 1.668-.36 2.509-.014.226-.08.293-.32.293-1.108.014-1.108.027-1.081-1.067.08-3.003.146-6.005.2-9.02.013-.347.12-.428.453-.428 7.553.014 15.105.014 22.671 0 .334 0 .44.067.454.427.04 3.19.107 6.379.173 9.554.014.387-.093.507-.48.507-.934.014-.948.027-1.094-.894-.187-1.174-.44-2.321-.841-3.442-1.188-3.256-3.096-4.617-6.552-4.697-.84-.013-.84-.013-.84.827 0 7.7.013 15.385.013 23.084 0 .52.053 1.028.16 1.548.174.8.667 1.268 1.441 1.455.76.187 1.535.2 2.295.173.307-.013.44.04.44.4-.013 1.121 0 1.121-1.133 1.121-3.843 0-7.686 0-11.53.014-.346 0-.48-.08-.44-.44.04-.348-.146-.815.08-1.028.187-.174.654-.067.988-.067.52 0 1.04-.04 1.548-.16 1-.24 1.454-.747 1.614-1.761.094-.614.107-1.241.107-1.868-.013-3.616-.013-7.26-.013-10.915zm106.786-1.295c.654-1.147 1.468-2.041 2.669-2.575 2.215-1 5.324-.414 7.205 1.374 1.588 1.508 2.402 3.403 2.749 5.511.454 2.735.307 5.43-.68 8.046-.734 1.948-1.855 3.656-3.737 4.657-2.655 1.401-5.23 1.294-7.632-.64-.294-.227-.574-.467-.867-.694-.401-.307-.761-.28-1.108.08-.36.373-.64.827-.881 1.28-.2.374-.44.548-.907.521-.801-.053-.801-.013-.64-.787a9.968 9.968 0 00.186-1.988V5.805c0-.374-.013-.734-.08-1.108-.213-1.134-.64-1.534-1.774-1.601-.641-.04-.641-.04-.641-.654 0-.667 0-.694.627-.734 1.762-.106 3.523-.173 5.284-.267.16-.013.227.04.214.2v11.343c.013.134.013.28.013.414zm8.647 7.072a19.473 19.473 0 00-.281-3.83c-.226-1.24-.533-2.468-1.334-3.495-.827-1.055-1.921-1.468-3.229-1.188-1.108.24-1.908.92-2.535 1.815-1.068 1.508-1.388 3.242-1.535 5.03a23.604 23.604 0 00.174 5.404c.227 1.495.587 2.936 1.534 4.164 1.415 1.841 4.043 1.934 5.471.213.48-.574.787-1.254 1.014-1.961.601-1.922.734-3.923.721-6.152zm-33.253.415c0-2.362.4-4.63 1.628-6.685 1.441-2.402 3.576-3.75 6.365-3.99 4.63-.4 7.566 2.495 8.7 5.991 1.188 3.643 1.094 7.272-.6 10.768-1.535 3.163-4.564 4.87-8.073 4.577-3.416-.28-5.685-2.175-7.032-5.244-.72-1.694-.988-3.336-.988-5.417zm13.277.12c-.013-1.254-.053-2.375-.187-3.496-.147-1.308-.413-2.602-1.067-3.776-.534-.974-1.295-1.695-2.389-2.015-1.441-.414-2.909.147-3.856 1.454-1.027 1.428-1.334 3.083-1.481 4.777a29.13 29.13 0 00.08 6.378c.173 1.348.44 2.656 1.108 3.857 1.294 2.308 4.309 2.668 5.977.694.601-.721.948-1.562 1.201-2.456.494-1.814.561-3.683.614-5.417zm57.19-.241c-1.815 0-3.616.013-5.431 0-.333 0-.467.066-.453.44.08 2.015.2 4.016.92 5.938 1.281 3.43 5.444 3.229 7.179 1.454.827-.84 1.441-1.801 1.935-2.855.16-.334.32-.387.6-.187.054.04.107.067.147.093.761.427.761.427.32 1.201-.747 1.321-1.601 2.575-2.855 3.47-3.149 2.215-7.686 1.44-10.048-1.695-1.107-1.481-1.721-3.176-2.015-4.977-.413-2.669-.347-5.324.601-7.886.787-2.135 2.028-3.91 4.15-4.95 2.882-1.415 6.485-.481 8.486 2.148 1.228 1.628 1.841 3.496 2.148 5.484.094.614.16 1.227.187 1.855.014.373-.08.48-.454.48-1.801-.027-3.602-.013-5.417-.013zm-2.001-1.562c1.174 0 2.348-.013 3.509 0 .28 0 .387-.066.387-.373-.027-.667-.014-1.334-.107-1.988-.187-1.321-.454-2.629-1.228-3.763-.787-1.148-2.001-1.628-3.242-1.268-.974.294-1.588 1-2.042 1.868-.867 1.642-1.027 3.443-1.134 5.244-.013.32.2.267.387.267 1.148.013 2.309.013 3.47.013zm-12.142-5.056v11.702c0 .734.013 1.481.16 2.215.213 1.054.68 1.441 1.735 1.468 1.054.026 1.04.026 1.027 1.067 0 .307-.12.36-.387.36a926.978 926.978 0 00-8.633 0c-.307 0-.4-.08-.4-.4 0-1.014-.014-1.014.974-1.027 1.241-.027 1.761-.56 1.868-1.935.04-.6.08-1.214.08-1.815V6.886c0-.76-.014-1.508-.147-2.255-.187-1.028-.641-1.428-1.668-1.508a1.34 1.34 0 00-.4 0c-.347.053-.454-.08-.454-.44.013-.868 0-.908.814-.961 1.748-.107 3.496-.16 5.244-.254.16-.013.213.054.213.2v.36c-.026 4.017-.026 8.074-.026 12.117zm-10.889 4.87v7.7c0 .506.04 1 .16 1.494.213.894.68 1.267 1.601 1.307.227.014.454.027.667 0 .374-.04.441.12.441.454-.014.974 0 .974-.988.974-2.655 0-5.31 0-7.966.013-.32 0-.44-.066-.427-.413.014-.988 0-.988.988-1.014 1.04-.027 1.521-.4 1.734-1.415a5.89 5.89 0 00.134-1.187c.013-4.044 0-8.1 0-12.143 0-.44-.067-.88-.174-1.321-.2-.774-.614-1.134-1.388-1.214-.12-.014-.24-.014-.346-.054-.241-.066-.614.12-.694-.12-.107-.333-.054-.734-.04-1.094.013-.2.186-.133.32-.147l2.308-.16c1.054-.067 2.109-.107 3.149-.2.454-.04.534.107.534.534-.027 2.668-.013 5.337-.013 8.006z" fill="#A2A3A5"/><path d="M25.078 17.668c0 .907-.014 1.801 0 2.708 0 .294-.08.387-.374.387a351.663 351.663 0 00-5.297 0c-.32 0-.4-.133-.387-.427.013-1.788.013-3.59 0-5.377 0-.32.093-.4.4-.4 1.748.013 3.496.013 5.244 0 .36 0 .414.133.414.44v2.669zm17.827.053c0 .894-.014 1.775.013 2.669 0 .294-.093.374-.387.374a351.663 351.663 0 00-5.297 0c-.294 0-.387-.094-.387-.387.013-1.815.013-3.643 0-5.458 0-.28.106-.347.36-.347 1.775.014 3.563.014 5.337 0 .267 0 .36.08.36.36-.013.921 0 1.855 0 2.79zm137.811-.054c0 .908-.013 1.802 0 2.709 0 .294-.08.387-.373.387a351.743 351.743 0 00-5.298 0c-.28 0-.387-.08-.387-.374a354.58 354.58 0 000-5.457c0-.28.094-.347.36-.347 1.775.013 3.563.013 5.338 0 .307 0 .36.12.36.4-.013.88 0 1.788 0 2.682zM.58 17.628c0-.894.012-1.775 0-2.669 0-.267.052-.4.36-.387 1.787.014 3.562.014 5.35 0 .28 0 .36.094.347.36a368.49 368.49 0 000 5.431c0 .307-.107.374-.387.374a349.035 349.035 0 00-5.297 0c-.294-.013-.374-.107-.374-.387.013-.907 0-1.815 0-2.722zm54.414.013c0-.907.014-1.801 0-2.708 0-.267.08-.36.347-.36 1.775.013 3.563.013 5.337 0 .267 0 .36.093.36.36a373.242 373.242 0 000 5.457c0 .254-.093.334-.333.334a362.38 362.38 0 00-5.377 0c-.294 0-.334-.134-.334-.374.014-.907 0-1.801 0-2.709zM138.565 3.95c-.014 1.322-1.108 2.43-2.402 2.416-1.308-.013-2.335-1.094-2.322-2.469 0-1.347 1.067-2.428 2.375-2.401 1.294.013 2.349 1.12 2.349 2.455z" fill="#A2A3A5"/></svg>