<svg width="40" height="53" fill="none" xmlns="http://www.w3.org/2000/svg"><path fill-rule="evenodd" clip-rule="evenodd" d="M1.102 34.98c-.935 0-1.359 1.168-.641 1.767l18.705 15.618a1 1 0 001.282 0l18.705-15.618c.717-.6.294-1.768-.641-1.768H36.61a1 1 0 00-.641.233l-15.521 12.96a1 1 0 01-1.282 0L3.644 35.212a1 1 0 00-.64-.233H1.101z" fill="#52A8E0"/><path fill-rule="evenodd" clip-rule="evenodd" d="M1.102 17.615c-.935 0-1.359 1.168-.641 1.768L19.166 35a1 1 0 001.282 0l18.705-15.618c.717-.6.294-1.768-.641-1.768H36.61a1 1 0 00-.641.232l-15.521 12.96a1 1 0 01-1.282 0L3.644 17.848a1 1 0 00-.64-.232H1.101z" fill="#52A8E0" fill-opacity=".5"/><path fill-rule="evenodd" clip-rule="evenodd" d="M1.102.25C.167.25-.257 1.418.46 2.017l18.705 15.619a1 1 0 001.282 0L39.153 2.017c.717-.599.294-1.767-.641-1.767H36.61a1 1 0 00-.641.232l-15.521 12.96a1 1 0 01-1.282 0L3.644.482a1 1 0 00-.64-.232H1.101z" fill="#52A8E0" fill-opacity=".3"/></svg>