<svg width="40" height="54" fill="none" xmlns="http://www.w3.org/2000/svg"><path fill-rule="evenodd" clip-rule="evenodd" d="M38.478 18.285c.935 0 1.359-1.169.641-1.768L20.414.898a1 1 0 00-1.282 0L.427 16.517c-.717.599-.293 1.768.641 1.768H2.97a1 1 0 00.641-.233l15.521-12.96a1 1 0 011.282 0l15.522 12.96a1 1 0 00.64.233h1.902z" fill="#0AC789"/><path fill-rule="evenodd" clip-rule="evenodd" d="M38.478 35.649c.935 0 1.359-1.169.641-1.768L20.414 18.263a1 1 0 00-1.282 0L.427 33.88c-.717.6-.293 1.768.641 1.768H2.97a1 1 0 00.641-.233l15.521-12.96a1 1 0 011.282 0l15.522 12.96a1 1 0 00.64.233h1.902z" fill="#0AC789" fill-opacity=".3"/><path fill-rule="evenodd" clip-rule="evenodd" d="M38.478 53.014c.935 0 1.359-1.169.641-1.768L20.414 35.628a1 1 0 00-1.282 0L.427 51.246c-.717.6-.293 1.768.641 1.768H2.97a1 1 0 00.641-.232l15.521-12.96a1 1 0 011.282 0l15.522 12.96a1 1 0 00.64.232h1.902z" fill="#0AC789" fill-opacity=".5"/></svg>