<svg width="27" height="27" fill="transparent" xmlns="http://www.w3.org/2000/svg"><path d="M21.468 20.158l.328-.388-.238-.448c-1.082-2.037-3.207-3.452-5.692-3.452a1.98 1.98 0 00-.581.089l-.007.002-.007.002a5.99 5.99 0 01-1.857.316 6.03 6.03 0 01-1.858-.316h0l-.012-.004a2.003 2.003 0 00-.58-.089c-2.487 0-4.612 1.415-5.693 3.452l-.238.448.328.388a10.535 10.535 0 008.053 3.748c3.23 0 6.121-1.464 8.054-3.748zm-8.054-18.72c6.582 0 11.915 5.332 11.915 11.914s-5.333 11.914-11.915 11.914C6.833 25.266 1.5 19.934 1.5 13.352S6.833 1.437 13.414 1.437zm0 3.402a5.244 5.244 0 100 10.488 5.244 5.244 0 000-10.488z" stroke="#35679A" stroke-width="1.5"/></svg>